# runtime primary fragment: Primary_42
v -0.046890073 0.177572025 -0.064168120
v -0.045011582 0.159535385 -0.002581986
v -0.003369066 0.164739036 -0.180432916
v -0.014813654 0.063111830 -0.020212484
v -0.017939211 0.055462362 -0.008195677
v -0.007836402 0.110035276 -0.031746864
v 0.068992303 0.005811276 -0.114110231
v 0.051738600 0.013178921 -0.083607717
v 0.008280735 0.109854104 -0.031615293
v 0.049212897 0.001302116 -0.080669301
v 0.051849099 0.013833152 -0.081316191
v -0.053819969 0.002127453 -0.078158490
v -0.065738126 -0.002291121 -0.109954784
v -0.070079177 0.009173016 -0.113002843
v -0.069873963 -0.001727476 -0.108343041
v -0.051483694 0.013601655 -0.081754760
v -0.032604070 0.001372572 -0.052392527
v -0.041617670 0.014879922 -0.045934590
v -0.041964954 0.005277826 -0.012504623
v -0.039218252 0.001050489 -0.049388325
v 0.017988903 0.060333865 -0.021440478
v 0.031832909 0.000959903 -0.046099053
v 0.057105717 0.002459601 -0.077259422
v 0.033206259 0.002056998 -0.080713158
v 0.054122231 0.001946282 -0.078004990
v 0.029891275 0.005509323 -0.062402877
v 0.018715043 0.063262806 -0.021670727
v 0.021793242 0.067238516 -0.021056730
v 0.037168455 0.038653663 -0.049278683
v 0.069229088 -0.001485914 -0.108156649
v 0.255610128 0.215185264 -0.126368251
v 0.034548039 0.004251187 -0.053894628
v 0.117848856 0.211078707 -0.085690922
v -0.016881573 0.116416543 -0.007439144
v -0.019265205 0.125535513 -0.070395808
v -0.033298638 0.217842447 -0.073136868
v -0.043938159 0.174924907 -0.063718586
v 0.026355292 0.062276427 -0.006386577
v -0.048010853 0.113960661 -0.060308708
v -0.001190648 0.114252548 -0.103343348
v -0.022959044 0.068738214 -0.021045766
v -0.058413590 0.003345329 -0.078728630
v -0.033267067 0.001916087 -0.080724122
v -0.043069948 0.021663792 -0.071722481
v -0.027473737 0.004865158 -0.061887558
v -0.019596703 0.007502211 -0.032437611
v -0.044001301 0.001734915 -0.049903644
v -0.042817378 0.013259442 -0.049344468
v -0.027947306 0.021160537 -0.055440585
v -0.029510084 0.004110276 -0.060714385
v -0.030362509 0.000849187 -0.053181952
v -0.034466775 0.009454838 -0.084835712
v -0.212970781 0.221496075 -0.138078059
v -0.257565212 0.212588471 -0.122475946
v -0.071136815 0.204224382 -0.079024665
v -0.024174538 0.062618640 -0.007483001
v -0.019328347 0.063001114 -0.020925159
v -0.027300095 0.012283129 -0.050945247
v -0.033740636 0.000818992 -0.045496020
v -0.001932573 0.137593490 0.047853516
v -0.212055214 0.211602092 -0.119756815
v -0.193996443 0.223821111 -0.140972618
v -0.005058130 0.163641942 0.086820423
v -0.049494703 0.157502237 -0.003393340
v -0.012493166 0.110357359 -0.050046179
v -0.036234767 0.177179487 0.034806071
v 0.000451058 0.103704335 -0.033325714
v -0.015160939 0.113930465 -0.009193423
v 0.016520839 0.113034673 -0.008656175
v -0.000259295 0.103523163 -0.033183179
v 0.022756166 0.125122845 -0.069726989
v 0.011800933 0.113980791 -0.049147112
v 0.014389778 0.060353995 -0.014039617
v 0.012053503 0.252697852 -0.204872206
v -0.005342271 0.253633905 -0.247380563
v -0.007915330 0.256140112 -0.204894135
v 0.047523834 0.012695797 -0.045846876
v 0.028170641 0.005479128 -0.062150700
v 0.000814128 0.231661815 -0.254627926
v -0.015524008 0.258515473 -0.227644932
v -0.014308514 0.244847082 -0.197526166
v -0.034877202 0.202553577 -0.072906619
v 0.012558644 0.110407684 -0.050133893
v -0.007962687 0.224565927 -0.220419498
v -0.027379023 0.141911414 -0.087401344
v -0.035445485 0.059820545 -0.017098640
v -0.050473413 0.001986542 -0.079781197
v 0.049244469 0.176595711 -0.063356766
v 0.001413982 0.114071377 -0.103463955
v 0.020909247 0.259622633 -0.228938712
v 0.003497687 0.165292616 -0.179950490
v 0.046971337 0.194863849 -0.098135334
v 0.030459558 0.190918334 0.019423242
v 0.031880266 0.216604441 -0.073169761
v 0.028549496 0.055925356 -0.008436890
v -0.000306652 0.139606508 0.046175987
v -0.038523684 0.175025558 -0.095240775
v -0.035271843 0.197541162 -0.072336478
v -0.033693279 0.137724337 -0.089429728
v -0.117609736 0.214068039 -0.086557097
v -0.072889021 0.211481311 -0.129153168
v -0.025547889 0.224102933 -0.134416003
v 0.025629153 0.217832382 -0.073509652
v 0.037057955 0.173988853 -0.096260449
v 0.031990765 0.140703603 -0.089451656
v -0.031688503 0.196796346 -0.146432810
v 0.047539620 0.158307444 -0.003108270
v 0.008075522 0.164245847 0.087269957
v -0.000085653 0.230222507 -0.047634047
v -0.000243510 0.244917538 -0.133626578
v -0.000511866 0.174361262 0.069157033
v 0.196477124 0.216403140 -0.140117408
v 0.214930536 0.220710998 -0.138812663
v 0.027602358 0.224616253 -0.134065147
v 0.255767984 0.210907601 -0.118199893
v 0.196303482 0.223287661 -0.138746878
v 0.038257664 0.174975232 -0.095317525
v 0.047571191 0.177431114 -0.063630872
v 0.033300973 0.137764597 -0.089045980
v 0.049370754 0.104197524 -0.030343441
v 0.030522701 0.195950878 -0.145665313
v 0.016552410 0.269727983 -0.212448496
v 0.001319269 0.242522046 -0.255198066
v 0.000545772 0.267755225 -0.264539598
v -0.001064363 0.234912839 -0.218720041
v 0.013758352 0.245279881 -0.196966990
v -0.000385580 0.240136620 -0.254386712
v 0.037515739 0.201738305 -0.071722481
v 0.000703629 0.295162464 -0.169687962
v 0.000782557 0.310743222 -0.224476267
v 0.025723867 0.283366179 -0.202218860
v -0.027931521 0.285369132 -0.206659377
v 0.019977894 0.260830444 -0.220715533
v -0.000732864 0.233684898 -0.251799152
v -0.007189191 0.270472799 -0.208830297
v -0.019722988 0.267211711 -0.219136682
v 0.000072203 0.256995645 -0.270712465
v 0.027412930 0.012363649 -0.050890426
v 0.031201483 0.002691098 -0.083498074
v 0.018099403 0.007743773 -0.033205107
v 0.044556134 0.000355998 -0.015574610
v 0.033269402 0.001070619 -0.051877207
v 0.040451868 0.000577430 -0.050002322
v 0.044635062 0.002077128 -0.049870752
v 0.041209578 0.014779271 -0.045890733
v 0.039567872 0.007059347 -0.014445294
v 0.030696343 0.000788797 -0.053094238
v 0.043024927 0.160662675 -0.004402050
v -0.001837859 0.234580691 -0.196813490
v 0.006544315 0.255606663 -0.244529861
v -0.020417556 0.260921030 -0.221197959
v 0.024508372 0.128726147 -0.000422031
v 0.035005822 0.202171103 -0.070637021
v 0.117769928 0.205271151 -0.087609664
v 0.024524158 0.219895726 -0.133900684
v 0.031375125 0.196866801 -0.146542452
v 0.116949075 0.221798028 -0.128429528
v -0.024506037 0.224112998 -0.137332491
v -0.025705745 0.216805743 -0.073564473
v -0.033535422 0.179876931 -0.097817371
v -0.031009720 0.193927795 -0.146706915
v 0.000103774 0.244766561 -0.253794643
f 82 55 160
f 101 160 55
f 101 161 160
f 158 161 101
f 158 101 159
f 101 98 159
f 100 98 101
f 55 62 101
f 62 100 101
f 62 53 100
f 54 100 53
f 61 54 53
f 62 61 53
f 62 55 61
f 80 162 84
f 80 84 132
f 132 137 80
f 137 134 80
f 134 137 90
f 84 106 132
f 106 102 132
f 129 132 102
f 130 132 129
f 130 137 132
f 137 130 131
f 90 137 131
f 84 99 106
f 97 106 99
f 37 97 99
f 97 37 36
f 99 84 3
f 3 40 99
f 99 40 65
f 67 65 40
f 65 67 68
f 68 67 60
f 68 60 64
f 60 63 64
f 63 66 64
f 36 64 66
f 37 64 36
f 111 66 63
f 111 109 66
f 66 109 36
f 36 109 102
f 102 109 110
f 102 110 129
f 131 129 110
f 130 129 131
f 111 93 109
f 94 109 93
f 109 94 110
f 110 94 114
f 131 110 114
f 90 131 114
f 111 108 93
f 107 93 108
f 93 107 88
f 93 88 94
f 117 94 88
f 117 88 119
f 117 119 156
f 69 107 108
f 96 69 108
f 70 69 96
f 70 83 69
f 83 70 89
f 89 119 83
f 91 119 89
f 91 156 119
f 156 91 90
f 90 114 156
f 125 90 91
f 125 123 90
f 19 18 47
f 18 19 20
f 16 87 13
f 16 13 14
f 15 16 14
f 16 15 12
f 46 58 17
f 58 46 51
f 49 50 52
f 52 44 49
f 44 41 49
f 41 44 56
f 56 44 48
f 48 45 56
f 57 56 45
f 42 44 52
f 48 44 42
f 48 42 59
f 42 43 59
f 6 5 35
f 34 5 6
f 5 34 86
f 2 86 34
f 86 2 39
f 39 4 86
f 39 85 4
f 85 39 1
f 1 39 2
f 128 155 103
f 155 128 33
f 33 157 155
f 157 121 155
f 121 157 92
f 104 121 92
f 92 153 104
f 92 154 153
f 157 33 116
f 112 157 116
f 92 157 112
f 112 154 92
f 112 115 154
f 112 113 115
f 31 115 113
f 113 33 31
f 33 113 116
f 145 141 144
f 145 146 141
f 146 145 143
f 142 138 140
f 138 147 140
f 24 23 22
f 77 22 23
f 23 8 77
f 77 8 29
f 32 77 29
f 32 29 38
f 27 32 38
f 32 27 26
f 29 8 139
f 139 78 29
f 28 29 78
f 29 28 38
f 25 30 11
f 11 30 7
f 10 11 7
f 72 71 73
f 73 9 72
f 73 152 9
f 152 73 95
f 152 95 148
f 120 148 95
f 120 118 148
f 105 118 120
f 105 120 21
f 95 21 120
f 124 79 122
f 136 79 124
f 136 124 122
f 75 149 76
f 74 76 149
f 76 74 150
f 75 76 150
f 149 150 74
f 127 151 81
f 151 135 81
f 126 81 135
f 127 81 126
f 133 127 126
f 135 133 126
