# runtime primary fragment: Primary_44
v -0.051010125 0.177260007 -0.065154902
v -0.045011582 0.159535385 -0.002581986
v -0.007536475 0.221606791 -0.223248272
v 0.057279359 0.007542471 -0.084002429
v -0.000259295 0.325176560 -0.215880303
v 0.028170641 0.052885699 -0.008579425
v 0.034737466 0.201849021 -0.068762136
v 0.034800609 0.002701164 -0.075527072
v -0.031688503 0.196796346 -0.146432810
v 0.031501410 0.140633147 -0.089659977
v -0.028373518 0.230323158 -0.129821987
v -0.038523684 0.175025558 -0.095240775
v -0.033851135 0.137633751 -0.089484549
v 0.257457048 0.212457625 -0.121565914
v 0.031359340 -0.001002789 -0.081239441
v 0.020925032 0.068637564 -0.012976085
v -0.000843364 0.183248736 0.074200583
v 0.215041036 0.219040193 -0.142397969
v 0.039252159 0.008005466 -0.048006831
v 0.006923170 0.163792918 0.087653705
v -0.029020730 0.049413243 -0.007285645
v -0.043938159 0.174924907 -0.063718586
v -0.034340490 0.226276992 -0.070680878
v -0.011514456 0.127115732 -0.070297130
v -0.004032063 0.160833782 0.088552773
v -0.015176724 0.113920400 -0.009204387
v -0.054198824 0.158629527 -0.001924132
v -0.000354009 0.100221814 -0.032558217
v -0.000575008 0.109803779 -0.107597473
v 0.024287373 0.262440858 -0.227897110
v 0.038257664 0.174975232 -0.095317525
v 0.116775433 0.221858418 -0.128670741
v 0.033506187 0.137593490 -0.089089837
v 0.000103774 0.244766561 -0.253794643
v -0.030804507 0.187848481 -0.147298984
v -0.023700969 0.225189963 -0.137014528
v -0.035903268 0.194682677 -0.065264544
v -0.259790987 0.223579548 -0.136422459
v -0.072999520 0.212437495 -0.130732018
v 0.000814128 0.231661815 -0.254627926
v 0.000072203 0.256995645 -0.270712465
v 0.117738357 0.210786820 -0.085636101
v -0.014055944 0.117000318 -0.007406252
v -0.042533237 0.139978917 -0.090580973
v 0.021824814 0.203922429 -0.069869525
v 0.031375125 0.196866801 -0.146542452
v 0.002929404 0.111222956 -0.105887052
v 0.041477934 0.161306841 -0.001671954
v 0.057421430 0.176565516 -0.064255834
v 0.024524158 0.219895726 -0.133900684
v 0.029496634 0.181165262 -0.098288834
v 0.016552410 0.269727983 -0.212448496
v 0.029465063 0.230443939 -0.129558845
v -0.001174862 0.236684295 -0.259967510
v 0.000545772 0.267755225 -0.264539598
v -0.003747922 0.238667117 -0.252500863
v 0.006433816 0.110407684 -0.030102228
v 0.016899694 0.124700111 -0.069562526
v 0.049244469 0.176595711 -0.063356766
v -0.000133010 0.101218258 -0.032996787
v 0.016536625 0.113024607 -0.008656175
v 0.034705895 0.226176341 -0.070373880
v 0.050649391 0.159545450 -0.002560058
v -0.023164258 0.067057345 -0.012976085
v -0.027284309 0.022177111 -0.057556684
v -0.059597512 0.007391495 -0.082807327
v -0.035745412 0.001775175 -0.052688561
v -0.000732864 0.233684898 -0.251799152
v -0.019722988 0.267211711 -0.219136682
v 0.011216864 0.242783739 -0.193458433
v -0.028989158 0.263568148 -0.228631714
v -0.018854778 0.265470450 -0.202405253
v 0.019977894 0.260830444 -0.220715533
v -0.032651427 0.206388376 -0.063071696
v 0.030522701 0.195950878 -0.145665313
v -0.034419418 0.007864554 -0.084112072
v -0.033267067 0.001916087 -0.080724122
f 71 34 3
f 3 9 71
f 9 11 71
f 5 71 11
f 5 41 71
f 41 68 71
f 68 41 30
f 3 13 9
f 12 9 13
f 22 12 13
f 12 22 23
f 3 29 13
f 28 13 29
f 13 28 26
f 26 28 27
f 28 25 27
f 25 17 27
f 23 27 17
f 22 27 23
f 17 62 23
f 23 62 11
f 11 62 53
f 11 53 5
f 30 5 53
f 41 5 30
f 17 63 62
f 63 59 62
f 31 62 59
f 31 59 33
f 31 33 46
f 17 20 63
f 61 63 20
f 60 61 20
f 60 33 61
f 33 60 47
f 47 46 33
f 46 47 30
f 30 53 46
f 54 30 47
f 76 66 65
f 66 64 65
f 64 66 67
f 66 77 67
f 43 21 24
f 2 21 43
f 1 21 2
f 44 21 1
f 10 49 6
f 6 49 48
f 57 6 48
f 57 58 6
f 50 45 42
f 42 32 50
f 32 75 50
f 51 75 32
f 32 7 51
f 18 7 32
f 18 14 7
f 18 42 14
f 32 42 18
f 15 16 4
f 19 4 16
f 8 4 19
f 55 40 52
f 69 40 55
f 69 55 52
f 39 35 37
f 36 35 39
f 36 39 74
f 38 74 39
f 37 38 39
f 56 72 70
f 72 73 70
f 73 56 70
