# runtime primary fragment: Primary_39
v -0.038868162 0.229323002 -0.161357089
v -0.009470216 0.108019677 -0.012192940
v -0.304560100 0.219297787 -0.116546805
v -0.309058249 0.221201870 -0.114272778
v -0.071070394 0.002799205 -0.102627371
v -0.065123050 0.002081853 -0.107223297
v -0.000135144 0.231041104 -0.269229710
v -0.045078996 0.003702537 -0.039804405
v -0.044194422 0.002595512 -0.037458568
v 0.014488546 0.250055358 -0.220565549
v 0.000109525 0.236478809 -0.274412096
v -0.017299630 0.253190452 -0.130645767
v 0.000147166 0.230669144 -0.269648609
v -0.013855441 0.246884840 -0.219991059
v -0.045756541 0.196590499 -0.055985897
v 0.013867462 0.246158632 -0.219847436
v -0.022625891 0.107709710 -0.062760101
v -0.039282218 0.000425744 -0.078977498
v -0.019294625 0.103936970 -0.059576465
v -0.044213243 0.146358152 -0.128946232
v 0.018854950 0.104291218 -0.059337093
v 0.037543913 0.025586199 -0.055136129
v 0.071345905 -0.000176477 -0.103560918
v -0.040693771 0.119213909 -0.044615766
v -0.034727606 0.111181339 -0.002187225
v -0.009714885 0.103033638 -0.036070215
v -0.018410052 0.002480382 -0.102232408
v 0.253041022 0.222680855 -0.136306895
v -0.000718586 0.264969193 -0.236747041
v 0.023597769 0.071576428 -0.007369611
v -0.033974778 0.019794246 -0.056931413
v -0.028686159 0.060045660 -0.009655606
v 0.045298045 0.119718713 -0.045154351
v 0.034306752 0.218651285 -0.155791709
v 0.019664241 0.106345856 -0.061599151
v -0.042858152 0.199406770 -0.049666498
v -0.039395142 0.220192263 -0.157323685
v -0.133178731 0.213018744 -0.074046452
v 0.070649539 0.225027747 -0.136833512
v -0.036026235 0.248806635 -0.147210252
v -0.035932131 0.239162236 -0.165282776
v 0.027305448 0.115432313 -0.003611484
v 0.007957760 0.104618897 -0.036106121
v -0.012236860 0.102077169 -0.038906764
v -0.041785372 0.121419102 -0.016130596
v 0.034607883 0.024629729 -0.023946065
v 0.039350701 0.001603618 -0.058834414
v 0.016408258 0.249107745 -0.220661298
v 0.039538908 0.002666362 -0.078008045
v 0.069557938 0.003020610 -0.105439982
v 0.018572639 0.002002147 -0.102088786
v -0.015888077 0.248673792 -0.220733109
v -0.014457703 0.250223626 -0.220553581
v -0.014325958 0.247283369 -0.219524285
v 0.013905104 0.246813990 -0.219225071
v 0.303254672 0.216906614 -0.104063598
v 0.027888890 0.062082585 -0.009057178
v 0.044394651 0.196395663 -0.055842274
v 0.054802503 0.113802773 -0.016573433
v 0.011721902 0.105513373 -0.014131847
v 0.004814702 0.139627443 -0.165091279
v 0.011006715 0.102006319 -0.038787078
v -0.053209542 0.220280825 -0.051856744
v -0.001998395 0.156073400 0.117761672
v 0.050963078 0.220945040 -0.051006976
v 0.305230846 0.222149483 -0.119012328
v 0.017838632 0.252659080 -0.131435692
v 0.133717732 0.209502834 -0.076452133
v 0.176120788 0.214214331 -0.073280464
v 0.000692967 0.284922204 -0.181703639
v 0.047556530 0.204020848 -0.045573251
v 0.038334383 0.238781420 -0.159286528
v -0.000116324 0.234495021 -0.274280441
v 0.019306647 0.001895873 -0.103225799
v 0.047217757 0.000319470 -0.079085215
v 0.044564038 0.001399926 -0.120951234
v 0.044676962 0.002064140 -0.037027700
v 0.046935447 0.217535404 -0.160076453
v -0.000925614 0.263534490 -0.242180767
v 0.036000615 0.248921765 -0.146970881
f 1 15 3
f 54 55 13
f 11 10 53
f 7 16 14
f 31 6 8
f 50 77 51
f 44 2 32
f 45 32 2
f 45 17 32
f 26 32 17
f 4 38 41
f 41 38 36
f 41 36 12
f 73 52 29
f 48 73 29
f 18 9 5
f 18 27 9
f 34 39 58
f 58 39 28
f 28 56 58
f 43 35 57
f 33 57 35
f 57 33 42
f 62 57 42
f 47 30 22
f 74 47 22
f 49 74 22
f 49 22 76
f 22 75 76
f 22 23 75
f 22 46 23
f 69 66 72
f 68 69 72
f 71 68 72
f 71 72 67
f 21 60 25
f 25 60 64
f 25 64 63
f 25 63 24
f 24 63 20
f 24 20 19
f 59 64 60
f 59 65 64
f 63 64 65
f 65 70 63
f 70 40 63
f 40 70 79
f 37 40 79
f 37 79 20
f 20 63 37
f 65 59 78
f 59 61 78
f 79 78 61
f 78 79 80
f 79 70 80
f 61 59 21
f 61 21 19
f 61 19 20
f 20 79 61
f 25 19 21
