# Bind-pose tail_body using bbox entry 119
# bbox_min = (-7.9752, 1.1535, -2.7553)
# bbox_dim = (15.9505, 0.8571, 6.37)
v 14.966026 1.407985 1.150449
v 14.155042 1.541231 1.110402
v 14.491411 1.523366 1.102237
v 15.438695 1.526766 1.108069
v 14.491411 1.385098 1.211297
v 14.540089 1.404742 1.237152
v 14.519644 1.521090 1.097182
v 14.039187 1.539348 1.174944
v 14.465124 1.520881 1.113318
v 13.973958 1.538537 1.207020
v 14.992313 1.364538 1.135285
v 14.564915 1.520855 1.110596
v 14.564428 1.519651 1.117789
v 14.068881 1.364041 1.135285
v 14.815610 1.383267 1.251733
v 14.240229 1.541179 1.135285
v 14.265055 1.531265 1.209158
v 13.965682 1.529801 1.173583
v 13.899966 1.535921 1.250955
v 14.243150 1.532024 1.235986
v 14.031398 1.528780 1.141117
v 14.045028 1.529958 1.167556
v 14.038700 1.530638 1.207020
v 14.105390 1.530141 1.160947
v 14.173540 1.529094 1.129842
v 13.922845 1.531370 1.239096
v 13.760745 1.539793 1.164835
v 13.903374 1.539610 1.166779
v 14.102469 1.528911 1.139173
v 14.434943 1.509398 1.156086
v 14.489463 1.511333 1.149866
v 15.381741 1.526792 1.114484
v 14.518670 1.506390 1.195161
v 14.402816 1.511804 1.127120
v 15.383202 1.527813 1.106319
v 15.351074 1.528911 1.096599
v 15.363243 1.527420 1.118761
v 15.386122 1.521404 1.399284
v 15.375413 1.525145 1.393647
v 15.384175 1.525851 1.391897
v 14.927570 1.408195 1.178054
v 14.407197 1.443795 1.190107
v 13.938422 1.502231 1.361765
v 15.407541 1.521587 1.282060
v 15.343772 1.528728 1.291974
v 15.345232 1.527577 1.287697
v 15.430906 1.522058 1.292752
v 15.418250 1.521875 1.286920
v 13.849827 1.500897 1.369930
v 13.607408 1.521770 1.277977
v 15.347666 1.528388 1.294307
v 15.398292 1.520619 1.284392
v 15.425065 1.522607 1.285170
v 15.413382 1.522215 1.279338
v 15.353994 1.526714 1.294307
v 15.351074 1.527603 1.294501
v 15.431393 1.521090 1.295279
v 15.419710 1.519939 1.294501
v 15.359349 1.520672 1.372262
v 15.445023 1.522869 1.289252
v 15.447457 1.521509 1.293724
v 15.436748 1.522424 1.291585
v 15.422144 1.523732 1.273506
v 13.143501 1.503329 1.353989
v 13.327506 1.520332 1.296057
v 13.485225 1.518291 1.298001
v 13.486685 1.521509 1.285948
v 13.515892 1.525301 1.266896
v 14.370201 1.526845 1.183497
v 13.589397 1.523784 1.266119
v 14.565402 1.525275 1.082408
v 13.964222 1.518631 1.263202
v 13.763179 1.522581 1.253094
v 14.055251 1.519599 1.245317
v 14.286961 1.525249 1.197105
v 14.211022 1.524255 1.216546
v 14.435917 1.519233 1.122649
v 14.504554 1.513531 1.139368
v 14.477294 1.501838 1.239680
v 14.206154 1.502361 1.319579
v 14.124374 1.498359 1.341158
v 14.052817 1.495508 1.361182
v 14.082024 1.497261 1.350684
v 13.993916 1.498569 1.368958
v 13.925279 1.492134 1.381788
v 14.047462 1.500661 1.354961
v 14.197392 1.503826 1.319385
v 15.365677 1.528728 1.097182
v 13.063182 1.544658 1.090767
v 14.472913 1.506625 1.236569
v 14.474373 1.504663 1.238319
v 15.417763 1.522921 1.276811
v 15.100866 1.425459 1.298973
v 15.339878 1.528257 1.284392
v 15.409975 1.519599 1.294307
v 15.346693 1.526609 1.285170
v 15.424091 1.520776 1.296057
v 13.666796 1.523287 1.260286
v 13.690162 1.527760 1.256398
v 15.124232 1.428074 1.279143
v 13.181958 1.516696 1.296834
v 15.099406 1.468697 1.329688
v 13.442875 1.500347 1.366236
v 13.308035 1.500897 1.368958
v 15.375413 1.526583 1.378678
v 15.381741 1.525197 1.396952
v 13.633208 1.503460 1.344657
v 13.772428 1.502701 1.356127
v 14.005112 1.509293 1.306749
v 14.529867 1.445574 1.239096
v 14.931465 1.432181 1.186413
v 15.219155 1.434797 1.179415
v 15.219642 1.423445 1.173194
v 15.253717 1.432469 1.103403
v 14.412064 1.522320 1.143645
v 15.418250 1.531762 1.108458
v 15.257124 1.395953 1.082408
v 15.254690 1.373693 1.092711
v 14.461717 1.528283 1.152587
v 15.438208 1.520227 1.294113
v 13.814779 1.519913 1.270590
v 13.886823 1.519338 1.266896
v 13.981259 1.522084 1.242985
v 14.026044 1.524281 1.238902
v 13.922358 1.522110 1.246095
v 14.030911 1.526871 1.244345
v 14.482162 1.525458 1.123427
v 15.441616 1.530324 1.152587
v 15.410948 1.530716 1.145978
v 15.401213 1.528728 1.088629
v 15.407541 1.529120 1.094072
v 15.396345 1.527943 1.091545
v 15.412409 1.531527 1.113707
v 15.422144 1.530350 1.142478
v 15.437235 1.529565 1.139368
v 14.470479 1.526348 1.142478
v 15.445997 1.520253 1.293529
v 15.357889 1.525432 1.293529
v 15.356428 1.526060 1.294113
v 15.438695 1.521352 1.294890
v 15.120824 1.376518 1.266896
v 15.816441 1.512877 1.309082
v 15.836399 1.508064 1.192440
v 15.764355 1.525511 1.263591
v 15.834938 1.507017 1.190496
v 15.851976 1.506573 1.148116
v 15.799403 1.509607 1.305971
v 15.737095 1.528519 1.235208
v 15.594466 1.489152 1.260092
v 15.583757 1.488576 1.237347
v 15.455246 1.549811 1.220045
v 15.567206 1.488027 1.203521
v 15.882157 1.503068 1.097571
v 15.800863 1.508404 1.292752
v 15.792588 1.512798 1.316858
v 15.903575 1.503408 1.091933
v 15.770196 1.533358 1.090184
v 15.756079 1.532286 1.115067
v 15.478125 1.548739 1.193606
v 15.831531 1.501995 1.164057
v 15.860251 1.502623 1.107875
v 15.793562 1.511098 1.309859
v 15.828123 1.506102 1.193606
v 15.484453 1.546960 1.270201
v 15.824716 1.507593 1.226655
v 15.468876 1.549026 1.192440
v 15.476178 1.548163 1.208381
v 15.780418 1.531213 1.158030
v 15.710808 1.529670 1.181748
v 15.740989 1.530350 1.160169
v 15.812546 1.513138 1.311026
v 15.786747 1.532626 1.132369
v 15.551143 1.486615 1.150838
v 15.568180 1.483633 1.199049
v 15.514147 1.480912 1.112540
v 15.698639 1.468775 1.196717
v 15.689876 1.470580 1.232876
v 15.516581 1.477355 1.112346
v 15.685009 1.483842 1.257759
v 15.670405 1.485935 1.287308
v 15.563799 1.496057 1.202743
v 15.566720 1.492552 1.208186
v 15.523883 1.493285 1.151032
v 15.625621 1.499301 1.308887
v 15.477638 1.549549 1.190496
v 15.466929 1.548294 1.226655
v 15.700099 1.474059 1.196911
v 15.671865 1.489047 1.282643
v 15.528264 1.481462 1.102237
v 15.519501 1.472751 1.111957
v 15.525830 1.458260 1.128481
v 15.781392 1.532704 1.121094
v 15.814007 1.506704 1.245317
v 15.816441 1.502597 1.197105
v 15.697178 1.529251 1.185636
v 15.548709 1.494410 1.157058
v 15.538486 1.492395 1.137229
v 15.718597 1.480703 1.158030
v 15.716163 1.477983 1.148894
v 15.606149 1.499510 1.286920
v 15.612477 1.495744 1.294890
v 15.589112 1.499981 1.256593
v 15.511226 1.483607 1.124204
v 15.668458 1.479500 1.286531
v 15.696691 1.486144 1.235597
v 15.688903 1.457266 1.226655
v 15.711295 1.466447 1.139757
v 15.697178 1.456691 1.192440
v 15.588625 1.496057 1.252121
v 15.577429 1.499720 1.236569
v 15.845161 1.502257 1.136646
v 15.578402 1.496031 1.235403
v 15.704480 1.480049 1.198855
v 15.667971 1.475602 1.281088
v 14.174513 1.509032 1.305388
v 13.842525 1.533489 1.268451
v 14.208588 1.508142 1.307138
v 13.953999 1.534483 1.263397
v 15.816441 1.515362 1.308887
v 15.902115 1.504506 1.101265
v 15.761921 1.531998 1.131008
v 15.807678 1.515022 1.316858
v 13.868325 1.538563 1.207798
v 15.414843 1.527813 1.085907
v 13.710120 1.537439 1.239485
v 15.438695 1.526766 1.108069
v 14.148227 1.532756 1.256204
v 15.431880 1.526792 1.096988
v 15.440642 1.532573 1.096210
v 14.602884 1.440107 1.254260
v 13.991482 1.535895 1.250955
v 14.891061 1.414080 1.214991
v 15.046833 1.472333 1.386648
v 15.058516 1.461896 1.362931
v 13.672637 1.496973 1.383149
v 15.392937 1.523000 1.390536
v 15.360809 1.521692 1.374790
v 15.351074 1.522136 1.367208
v 13.717908 1.494959 1.385871
v 15.044399 1.465061 1.375762
v 15.039044 1.469874 1.383927
v 15.394398 1.523837 1.387037
v 13.787519 1.493154 1.383927
v 15.427499 1.528754 1.117400
v 15.384662 1.523314 1.390925
v 15.385149 1.524386 1.385871
v 15.426039 1.528048 1.098738
v 13.825001 1.491558 1.386648
v 14.137517 1.531448 1.236569
v 14.183275 1.531684 1.235792
v 15.420197 1.527394 1.085907
v 15.430906 1.532207 1.100682
v 15.436748 1.525511 1.096210
v 15.422144 1.527839 1.089795
v 15.417763 1.528440 1.090184
v 13.857616 1.537360 1.238513
v 13.718395 1.538616 1.209547
v 15.423605 1.527185 1.087073
v 15.436748 1.532155 1.108069
v 15.443076 1.528362 1.118956
v 15.432854 1.527839 1.110791
v 15.426039 1.529068 1.124204
v 15.435288 1.529042 1.130620
v 14.821451 1.435869 1.254066
v 14.817557 1.418972 1.252899
v 15.427012 1.525982 1.088629
v 15.431880 1.531945 1.112735
v 15.440642 1.527551 1.112735
v 15.434314 1.528205 1.116623
v 15.434801 1.528650 1.123427
v 15.429933 1.528310 1.112346
v 15.422631 1.528702 1.104181
v 13.602053 1.502649 1.351267
v 14.183762 1.510732 1.298389
v 14.613107 1.398438 1.253677
v 14.052817 1.535948 1.255038
v 15.047320 1.461451 1.368180
v 15.648986 1.496895 0.230729
v 15.706427 1.486641 0.328902
v 15.712269 1.487870 1.207603
v 15.691824 1.488760 6.438597
v 15.741962 1.479788 1.122649
v 15.722978 1.489257 5.837503
v 15.734174 1.487033 0.510863
v 13.740787 1.535895 1.256204
v 13.567005 1.534587 1.280310
v 14.762550 1.435765 1.265924
v 15.583757 1.471705 1.228599
v 15.583270 1.484601 1.233653
v 15.727846 1.481331 0.457986
v 15.679167 1.518893 1.269812
v 15.727846 1.483973 0.300908
v 15.773117 1.522058 1.288864
v 15.790154 1.532181 1.135674
v 15.641198 1.492579 1.311414
v 15.634870 1.463308 1.277783
v 15.667971 1.522581 1.244345
v 15.857817 1.504088 1.132953
v 14.696347 1.436288 1.266119
v 15.473257 1.551197 1.305971
v 15.462061 1.550883 1.220045
v 15.612964 1.512249 0.230729
v 15.474717 1.555095 1.314525
v 15.807678 1.513452 1.322107
v 15.481532 1.553604 1.322107
v 15.593980 1.485804 1.255815
v 15.552116 1.482560 1.147533
v 15.472770 1.552217 1.305971
v 15.486887 1.552348 1.304610
v 15.484453 1.551433 1.295862
v 15.482993 1.552845 1.316274
v 15.455733 1.550543 1.198272
v 15.468389 1.550282 1.205076
v 15.834938 1.509215 1.205076
v 15.831531 1.510287 1.220045
v 15.478611 1.551747 1.311609
v 15.838833 1.510418 1.203715
v 15.859278 1.510052 1.159975
v 15.844187 1.512014 1.209158
v 14.092246 1.532599 1.260092
v 15.845648 1.509267 1.174360
v 14.710464 1.492579 1.311414
v 13.386894 1.553604 1.322107
v 14.687585 1.497810 1.317052
v 15.814007 1.513975 1.314525
v 15.810599 1.516225 1.317052
v 14.893982 1.433515 1.220823
v 14.858447 1.433515 1.239680
v 14.858934 1.413609 1.237930
v 15.051214 1.467232 1.377900
v 15.056568 1.475681 1.381788
v 14.131676 1.512354 1.270784
v 14.082024 1.534692 1.265341
v 15.634383 1.480468 1.296057
v 15.651907 1.460274 1.276422
v 15.650447 1.478506 1.296640
v 13.561650 1.554048 1.325800
v 13.553862 1.552924 1.316274
v 14.657891 1.495090 1.309665
v 13.242806 1.552845 1.304610
v 15.719570 1.483711 0.488312
v 15.635356 1.501734 0.230729
v 15.617345 1.515571 1.042555
v 15.774577 1.528650 1.235597
v 15.610044 1.519808 0.230729
v 15.767275 1.528702 1.234820
v 15.769709 1.526034 1.260481
v 15.721031 1.485176 1.194384
v 15.677707 1.491768 0.230729
v 15.664077 1.494174 0.230729
v 15.795509 1.520227 1.298389
v 15.783826 1.523575 1.282643
v 15.799403 1.516617 1.320163
v 15.791128 1.518814 1.316080
v 15.508792 1.486432 1.135674
v 13.772428 1.534535 1.272534
v 13.551428 1.535895 1.257759
v 15.525343 1.488943 1.126732
v 14.756222 1.387060 1.265730
v 15.537999 1.488236 1.120511
v 15.734661 1.490617 1.220045
v 15.635843 1.484757 1.301111
v 15.855383 1.505317 1.139757
v 15.844674 1.503748 1.154726
v 15.656775 1.493154 1.298389
v 15.663103 1.518788 1.258537
v 14.692940 1.388864 1.263008
v 15.625621 1.491637 1.306360
v 15.628055 1.527813 0.230729
v 15.501977 1.553525 1.309859
v 15.803297 1.511203 1.305971
v 15.622213 1.524569 0.230729
v 15.765328 1.521666 1.281088
v 15.622700 1.487164 1.299361
v 15.615885 1.519704 1.033029
v 15.635843 1.529591 0.230729
v 15.611991 1.524700 0.230729
v 15.611017 1.514943 0.230729
v 15.816927 1.511386 1.298778
v 15.595440 1.492343 1.264369
v 15.754619 1.528650 1.231320
v 15.754132 1.521378 1.285948
v 15.750238 1.524961 1.261453
v 15.763868 1.530219 1.186413
v 15.527290 1.484705 1.102431
v 15.709835 1.454938 1.146366
v 15.712755 1.471470 1.139757
v 15.722978 1.466604 1.111957
v 11.644202 1.549811 1.220045
v 13.159079 1.553055 1.235792
v 13.170275 1.555095 1.314525
v 12.664018 1.549602 1.189135
v 12.877717 1.548294 1.226655
v 14.524512 1.489152 1.260092
v 15.168529 1.510889 1.304610
v 15.798916 1.513295 1.316274
v 15.654828 1.489937 1.301889
v 15.643632 1.495691 1.316663
v 15.789667 1.515649 1.312386
v 15.710808 1.527368 1.238319
v 15.697665 1.526740 1.238902
v 15.897247 1.506468 1.126148
v 15.919152 1.506991 1.121094
v 15.820335 1.506102 1.226655
v 15.928401 1.503905 1.090184
v 15.814493 1.508195 1.259314
v 15.556984 1.499039 1.185441
v 15.827637 1.511778 1.259314
v 15.628541 1.505160 1.030113
v 15.623187 1.509529 1.033418
v 15.622700 1.504899 0.230729
v 15.765815 1.531684 1.136257
v 15.778471 1.532835 1.114095
v 15.899681 1.505605 1.116428
v 15.822282 1.514917 1.298778
v 15.820822 1.513374 1.296834
v 15.851002 1.507619 1.151226
v 15.850029 1.511360 1.185441
v 15.775064 1.529958 1.200605
v 15.891892 1.508508 1.151032
v 15.769222 1.530114 1.192829
v 15.914771 1.509032 1.135674
v 15.757053 1.530324 1.174555
v 15.700586 1.490120 1.125565
v 15.708861 1.491349 1.241235
v 15.682575 1.492709 1.199827
v 15.759487 1.518082 1.300528
v 15.773117 1.518239 1.303249
v 15.818388 1.512354 1.297612
v 15.546761 1.497810 1.159975
v 15.724925 1.529984 1.175527
v 15.614425 1.499589 1.298778
v 15.685495 1.528623 1.190690
v 15.597387 1.499746 1.272923
v 13.121596 1.551197 1.305971
v 13.116242 1.553970 1.314525
v 15.809139 1.510889 1.304610
v 15.477151 1.552845 1.304610
v 15.497109 1.554624 1.305971
v 15.676733 1.527786 1.190885
v 15.596414 1.495953 1.268646
v 15.664564 1.496738 1.241818
v 15.831044 1.511020 1.241624
v 15.619779 1.512327 1.038084
v 15.617832 1.522346 0.230729
v 15.609557 1.522398 0.230729
v 15.837859 1.505840 1.167751
v 15.464495 1.551616 1.228210
v 15.820822 1.512066 1.295473
v 15.719570 1.455435 1.128481
v 15.668945 1.457292 1.262814
v 15.685495 1.487766 1.257759
v 15.728819 1.477355 1.124204
v 15.550169 1.490826 1.154142
v 15.653367 1.486615 1.305388
v 15.730766 1.479317 1.135674
v 15.685982 1.526452 1.232487
v 15.784800 1.518161 1.310442
v 15.758026 1.525301 1.263397
v 15.750238 1.530402 1.166001
v 15.914284 1.507802 1.132369
v 15.747804 1.528597 1.232876
v 14.113178 1.533803 1.271173
v 14.141899 1.535006 1.263008
v 15.681601 1.522764 1.251927
v 15.804271 1.517402 1.316663
v 15.777985 1.526295 1.257759
v 15.777985 1.522895 1.285753
v 14.099061 1.510967 1.290613
v 13.991482 1.533410 1.266507
v 14.020689 1.534561 1.262036
v 15.829097 1.504062 1.177860
v 15.875828 1.506180 1.126148
v 15.807678 1.507488 1.270201
v 15.724438 1.527996 1.237736
v 15.769709 1.531553 1.142284
v 15.565746 1.499981 1.209158
v 15.604689 1.495744 1.283032
v 15.673326 1.525851 1.219267
v 13.995376 1.503565 1.351073
v 14.017768 1.507436 1.324634
v 14.033345 1.504376 1.343296
v 15.774090 1.531396 1.148699
v 15.638277 1.489047 1.306165
v 15.616859 1.528074 0.230729
v 15.707401 1.483397 1.200605
v 15.695231 1.482429 1.235014
v 15.651420 1.482691 1.301111
v 15.894326 1.507436 1.139757
v 15.614911 1.529487 0.230729
v 15.828123 1.505239 1.188552
v 15.627081 1.529591 0.230729
v 15.477638 1.550570 1.292752
v 15.475691 1.547797 1.226655
v 15.775064 1.533018 1.104958
v 15.924994 1.505186 1.104958
v 15.799890 1.501995 1.231709
v 15.615398 1.509293 0.230729
v 13.465753 1.551433 1.295862
v 13.505670 1.552348 1.304610
v 13.288564 1.551747 1.311609
v 13.786058 1.499536 1.374012
v 13.692596 1.500897 1.365653
v 13.722776 1.501864 1.362931
v 15.874855 1.507358 1.137035
v 15.870961 1.509162 1.153754
v 13.837658 1.496450 1.382955
v 13.799202 1.495796 1.381011
v 15.374926 1.523235 1.389759
v 15.358862 1.523680 1.376734
v 15.365190 1.522660 1.381594
v 15.351560 1.519521 1.368958
v 15.089670 1.466343 1.337076
v 15.080421 1.474242 1.355544
v 15.922073 1.506154 1.114095
v 15.758513 1.494148 1.236764
v 15.070198 1.463596 1.353989
v 15.359349 1.520672 1.372262
v 15.358862 1.519704 1.373429
v 15.351560 1.520645 1.366236
v 13.754417 1.498935 1.373623
v 14.260187 1.509450 1.296640
v 13.615683 1.533515 1.274672
v 14.073262 1.505108 1.335326
v 13.976391 1.506259 1.331827
v 14.397461 1.504480 1.269229
v 14.404276 1.506416 1.264369
v 14.291342 1.506468 1.292752
v 14.161857 1.506730 1.317635
v 14.259701 1.504637 1.304805
v 14.087865 1.507201 1.321718
v 13.924305 1.505108 1.339020
v 15.078961 1.525511 1.263591
v 15.208446 1.508875 1.228210
v 15.183619 1.512877 1.309082
v 15.135914 1.512798 1.316858
v 15.062410 1.532286 1.115067
v 15.096972 1.522058 1.288864
v 15.199683 1.507593 1.226655
v 13.467701 1.546960 1.270201
v 15.178752 1.506704 1.245317
v 15.206985 1.506102 1.193606
v 15.190921 1.506102 1.226655
v 15.024927 1.528519 1.235208
v 14.999128 1.527996 1.237736
v 13.056367 1.554572 1.322690
v 15.480072 1.547823 1.218490
v 11.699696 1.550543 1.198272
v 12.540374 1.550883 1.220045
v 14.480214 1.484601 1.233653
v 12.958523 1.550282 1.205076
v 14.464151 1.492369 1.234236
v 14.497252 1.492265 1.247650
v 14.399895 1.471391 1.196328
v 14.268463 1.469743 1.154142
v 14.882299 1.480337 1.257759
v 14.528406 1.472437 1.247650
v 14.876458 1.477146 1.256204
v 14.940714 1.468775 1.196717
v 14.821938 1.483057 1.291974
v 14.905178 1.470580 1.232876
v 15.004969 1.475498 1.112540
v 15.000588 1.471234 1.112346
v 15.149544 1.509607 1.305971
v 15.314078 1.503068 1.097571
v 15.356915 1.503408 1.091933
v 15.151492 1.508404 1.292752
v 15.220128 1.507017 1.190496
v 15.253717 1.506573 1.148116
v 15.137862 1.511098 1.309859
v 14.971868 1.527368 1.238319
v 14.936332 1.526740 1.238902
v 15.301422 1.506180 1.126148
v 15.344259 1.506468 1.126148
v 14.975275 1.471470 1.139757
v 13.938422 1.480912 1.112540
v 14.054277 1.484705 1.102431
v 14.063526 1.481462 1.102237
v 14.953857 1.477067 1.197105
v 14.919295 1.479160 1.234236
v 15.072632 1.528623 1.233848
v 14.374582 1.488027 1.203521
v 14.244610 1.486615 1.150838
v 13.258870 1.549549 1.190496
v 13.146422 1.549968 1.192440
v 14.251912 1.482560 1.147533
v 14.522565 1.485804 1.255815
v 14.480701 1.471705 1.228599
v 14.886194 1.483842 1.257759
v 14.911506 1.476021 1.233653
v 14.828753 1.485935 1.287308
v 14.946068 1.474059 1.196911
v 14.978683 1.475550 1.139757
v 13.277854 1.548739 1.193606
v 15.111088 1.531213 1.158030
v 14.971868 1.529670 1.181748
v 15.213800 1.501995 1.164057
v 13.213112 1.548163 1.208381
v 14.935359 1.529251 1.185636
v 15.240573 1.502257 1.136646
v 15.270267 1.502623 1.107875
v 15.183133 1.502597 1.197105
v 12.974100 1.549026 1.192440
v 15.091130 1.533358 1.090184
v 12.368052 1.548922 1.228210
v 12.986270 1.552401 1.220045
v 15.157333 1.511203 1.305971
v 13.431679 1.552845 1.316274
v 15.220615 1.509215 1.205076
v 15.213313 1.510287 1.220045
v 13.668256 1.554624 1.305971
v 13.385921 1.554284 1.327744
v 13.389328 1.554938 1.311026
v 15.177778 1.512066 1.305582
v 15.175344 1.513138 1.311026
v 15.130560 1.532181 1.135674
v 15.147597 1.513295 1.316274
v 15.097945 1.531396 1.148699
v 15.123258 1.532626 1.132369
v 15.223049 1.508064 1.192440
v 15.538486 1.496214 1.153754
v 15.680141 1.457371 1.243762
v 15.681114 1.472699 1.254649
v 15.463521 1.549602 1.189135
v 15.814007 1.512066 1.305582
v 15.829097 1.508875 1.228210
v 14.180841 1.534012 1.265730
v 14.057198 1.533593 1.269423
v 13.869785 1.504245 1.345046
v 14.057198 1.508456 1.316663
v 15.833965 1.511360 1.235792
v 15.838833 1.513008 1.236569
v 15.880209 1.504297 1.110013
v 15.877776 1.505265 1.119344
v 15.777985 1.497575 1.236569
v 15.819848 1.505239 1.218490
v 15.371519 1.524360 1.383149
v 15.062410 1.470449 1.370902
v 13.969576 1.477355 1.112346
v 13.097744 1.552217 1.305971
v 15.032229 1.530350 1.160169
v 15.165122 1.513452 1.322107
v 15.727359 1.475498 1.112540
v 15.529724 1.478087 1.101848
v 15.542867 1.467991 1.140340
v 15.538973 1.484261 1.116817
v 15.724925 1.471234 1.112346
v 15.539946 1.480285 1.112929
v 15.536052 1.464826 1.136646
v 15.714216 1.475550 1.139757
v 15.691337 1.476021 1.233653
v 15.693284 1.479160 1.234236
v 15.682575 1.477146 1.256204
v 15.702046 1.477067 1.197105
v 15.761434 1.528623 1.233848
v 15.595440 1.472437 1.247650
v 15.554063 1.469743 1.154142
v 15.570614 1.471391 1.196328
v 15.668945 1.483057 1.291974
v 15.587651 1.492265 1.247650
v 15.579376 1.492369 1.234236
v 15.474230 1.549968 1.192440
v 15.459627 1.548922 1.228210
v 15.469363 1.552401 1.220045
v 15.474717 1.553055 1.235792
v 15.803297 1.511203 1.305971
v 15.489808 1.552924 1.316274
v 15.473257 1.553970 1.314525
v 15.490294 1.554048 1.325800
v 15.628055 1.495090 1.309665
v 15.635356 1.497810 1.317052
v 15.471310 1.554572 1.322690
v 15.482019 1.554938 1.311026
v 15.481532 1.554284 1.327744
v 15.684035 1.480337 1.257759
v 15.778471 1.515388 1.306943
v 15.749751 1.514629 1.307915
v 15.764355 1.515100 1.307915
v 15.745370 1.517690 1.303833
v 15.695718 1.519311 1.277783
v 15.711295 1.523549 1.266507
v 15.730280 1.517140 1.299945
v 15.711782 1.519913 1.282837
v 15.696205 1.523026 1.260286
v 15.738068 1.524595 1.264563
v 15.797943 1.505291 1.263202
v 15.803784 1.506390 1.264369
v 15.786747 1.510679 1.308110
v 15.769222 1.512432 1.310442
v 15.808165 1.509215 1.289641
v 15.621240 1.482717 1.292168
v 15.622700 1.465898 1.269812
v 15.607610 1.469455 1.258731
v 15.811086 1.509816 1.296057
v 15.725412 1.524098 1.266119
v 15.740989 1.521012 1.282643
v 15.796482 1.507724 1.287503
v 15.807678 1.504480 1.239680
v 15.818388 1.507933 1.246289
v 15.481532 1.548215 1.289641
v 15.807192 1.509555 1.295862
v 15.811086 1.505553 1.242790
v 15.817901 1.504192 1.214213
v 15.141756 1.464329 1.284198
v 15.124232 1.453866 1.293335
v 15.135914 1.460823 1.287114
v 15.240573 1.467781 1.141895
v 15.136888 1.444109 1.273311
v 15.200170 1.458783 1.218490
v 15.191408 1.462550 1.236958
v 15.206012 1.455618 1.207020
v 15.185080 1.458862 1.237347
v 15.103787 1.476256 1.335132
v 15.107681 1.481331 1.341158
v 15.173397 1.452610 1.244345
v 15.138835 1.478584 1.304805
v 15.095998 1.479866 1.350684
v 15.165122 1.478611 1.278560
v 15.133481 1.483920 1.319968
v 15.191408 1.477172 1.241818
v 15.159767 1.460405 1.263980
v 15.174857 1.468906 1.262230
v 15.231324 1.479761 1.186802
v 15.151978 1.473091 1.283809
v 15.127639 1.477957 1.314914
v 15.119851 1.482325 1.331632
v 15.121798 1.472280 1.312775
v 15.139322 1.474687 1.296445
v 15.110115 1.470397 1.322495
v 15.117417 1.450413 1.296834
v 15.115469 1.477093 1.325023
v 15.145163 1.469063 1.286920
v 15.164635 1.464878 1.263008
v 14.412064 1.522320 1.143645
v 15.408514 1.528388 1.087073
v 15.413869 1.532076 1.090184
v 15.404620 1.527446 1.090184
v 14.431536 1.522973 1.139368
v 14.309840 1.528676 1.179415
v 15.155386 1.432443 1.248817
v 15.412895 1.528780 1.091739
v 15.420197 1.529016 1.109235
v 15.257124 1.395953 1.082408
v 14.550798 1.525668 1.092711
v 14.524999 1.522581 1.091739
v 15.444536 1.528833 1.125565
v 14.531327 1.525092 1.089017
v 14.577572 1.522215 1.103403
v 14.345375 1.526400 1.185830
v 14.384318 1.524517 1.173388
v 15.241060 1.458574 1.125371
v 15.219642 1.423445 1.173194
v 15.253717 1.432469 1.103403
v 14.502607 1.524752 1.100487
v 15.244468 1.373562 1.116428
v 14.467558 1.528937 1.145978
v 15.242521 1.392919 1.115456
v 15.399752 1.531710 1.092711
v 14.461717 1.528283 1.152587
v 15.407541 1.531919 1.091545
v 15.254690 1.373693 1.092711
v 15.423118 1.531475 1.125565
v 15.418250 1.531762 1.108458
v 15.132994 1.474582 1.303249
v 15.681601 1.530611 1.122455
v 15.671865 1.528571 1.165223
v 15.683061 1.529565 1.150838
v 15.757540 1.535503 1.026031
v 15.575482 1.541153 1.268063
v 15.591546 1.543926 0.230729
v 15.572561 1.541650 0.495117
v 15.572561 1.540630 1.267674
v 15.608096 1.545076 0.702156
v 15.598847 1.545730 0.299742
v 15.647526 1.549471 0.912305
v 15.588625 1.544239 1.054608
v 15.555524 1.537439 1.033613
v 15.832991 1.493729 1.114095
v 15.745370 1.488001 1.202743
v 15.833478 1.489675 1.089989
v 15.782852 1.483580 1.128287
v 15.587651 1.531867 1.164640
v 15.593980 1.553787 0.904529
v 15.606149 1.531972 1.187580
v 15.562825 1.534090 1.191273
v 15.712269 1.550700 1.001925
v 15.704480 1.550596 1.017088
v 15.695231 1.551694 0.933690
v 15.699125 1.549628 1.065106
v 15.836399 1.517219 1.298389
v 15.936677 1.485751 1.329299
v 15.943978 1.486562 1.317246
v 15.851002 1.514760 1.328716
v 15.635356 1.553708 0.700989
v 15.701559 1.546672 1.144033
v 15.685009 1.546411 1.152004
v 15.650447 1.549209 1.115845
v 15.663103 1.547064 1.142673
v 15.689876 1.544684 1.201577
v 15.770683 1.550491 0.997842
v 15.752185 1.550726 0.978985
v 15.676733 1.543952 1.223155
v 15.841267 1.530193 1.237152
v 15.663590 1.543036 1.242401
v 15.673326 1.540891 1.266702
v 15.576455 1.553970 0.984623
v 15.557958 1.554598 1.041389
v 15.586678 1.531396 0.230729
v 15.579376 1.531736 0.955657
v 15.594953 1.531239 0.959545
v 15.480559 1.481802 0.920665
v 15.464008 1.481436 1.014367
v 15.467415 1.478663 0.984234
v 15.475204 1.478297 0.980346
v 15.689390 1.533907 6.438597
v 15.674786 1.533358 0.328902
v 15.630002 1.531448 0.978597
v 15.610044 1.531161 0.969654
v 15.759000 1.535686 0.230729
v 15.568180 1.532599 0.969654
v 15.865606 1.516042 1.289058
v 15.878262 1.513191 1.274283
v 15.868527 1.515963 1.291196
v 15.871447 1.515597 1.294890
v 15.702533 1.551747 0.920665
v 15.650447 1.539270 1.308887
v 15.654341 1.539191 1.308887
v 15.706427 1.551459 0.943215
v 15.850516 1.514001 1.325023
v 15.646066 1.539139 1.310831
v 15.469849 1.494671 1.275450
v 15.462548 1.495874 1.278949
v 15.466929 1.497627 1.275255
v 15.456706 1.495639 1.268063
v 15.764355 1.480651 1.126148
v 15.559905 1.539243 1.053247
v 15.562339 1.540028 1.061218
v 15.762894 1.485621 1.165029
v 15.849055 1.495220 1.091739
v 15.653367 1.506023 1.242401
v 15.607123 1.542853 1.259703
v 15.611504 1.543324 1.269423
v 15.666997 1.539243 1.281671
v 15.675760 1.539662 1.273700
v 15.663590 1.539165 1.287308
v 15.882643 1.516565 1.279143
v 15.939111 1.488498 1.325217
v 15.938624 1.487138 1.328911
v 15.671379 1.554572 0.292160
v 15.690363 1.552950 0.563352
v 15.773117 1.554362 0.412301
v 15.689390 1.541728 1.253094
v 15.832991 1.531396 1.235208
v 15.668945 1.541911 1.255038
v 15.818388 1.531553 1.221795
v 15.643145 1.546280 1.193023
v 15.772630 1.553368 0.662886
v 15.735634 1.551877 0.889949
v 15.791128 1.554022 0.645196
v 15.655315 1.548451 1.136257
v 15.771170 1.552531 0.850291
v 15.614911 1.543769 1.253482
v 15.632436 1.540368 1.284781
v 15.630975 1.544972 1.235403
v 15.627081 1.539819 1.289447
v 15.626107 1.545809 1.231515
v 15.755592 1.553107 0.743175
v 15.658235 1.547666 1.136841
v 15.867553 1.520855 1.164640
v 15.861712 1.520096 1.142478
v 15.849055 1.521012 1.168917
v 15.896760 1.519939 1.104375
v 15.843214 1.519939 1.138396
v 15.671379 1.554153 0.439129
v 15.544814 1.554153 1.101848
v 15.625134 1.553813 0.697684
v 15.565259 1.553996 1.034973
v 15.546275 1.554650 1.082991
v 15.836399 1.521247 1.163668
v 15.726385 1.553107 0.677661
v 15.726385 1.553604 0.612730
v 15.584731 1.554336 0.924553
v 15.566233 1.554389 1.002508
v 15.821795 1.519521 0.230729
v 15.899194 1.536758 1.348545
v 15.777985 1.538276 1.258731
v 15.887024 1.537517 1.327161
v 15.866580 1.515336 1.294501
v 15.701072 1.539714 1.273700
v 15.846621 1.537308 1.308887
v 15.869500 1.515205 1.297223
v 15.867553 1.514525 1.288475
v 15.656775 1.541074 1.276227
v 15.676246 1.538903 1.270395
v 15.617345 1.539113 1.280116
v 15.651420 1.542121 1.262814
v 15.625134 1.542958 1.259120
v 15.639737 1.539426 1.305388
v 15.646552 1.540237 1.292557
v 15.886051 1.551302 1.092906
v 15.618319 1.540237 1.282254
v 15.897247 1.550073 1.153754
v 15.644605 1.543141 1.252510
v 15.875828 1.517376 1.276033
v 15.870961 1.517768 1.273700
v 15.718597 1.553395 0.648500
v 15.634870 1.547535 1.162307
v 15.736608 1.553473 0.588430
v 15.466929 1.483868 0.999398
v 15.622700 1.546437 1.099515
v 15.563312 1.539296 1.255038
v 15.580350 1.532050 1.168334
v 15.558931 1.535503 1.210130
v 15.596414 1.531893 1.175138
v 15.559905 1.537465 1.242985
v 15.628055 1.532390 1.207992
v 15.613938 1.532181 1.199633
v 15.570614 1.532913 1.172416
v 15.665537 1.550753 1.028753
v 15.646066 1.553892 0.547022
v 15.726872 1.520515 1.285948
v 15.780418 1.508142 1.299945
v 15.792101 1.508979 1.302083
v 15.782366 1.512772 1.313164
v 15.606636 1.484810 1.274867
v 15.734174 1.513923 1.304027
v 15.788207 1.506494 1.285753
v 15.774577 1.510130 1.306749
v 15.678194 1.503643 1.263397
v 15.829097 1.510183 1.239291
v 15.825203 1.510444 1.252510
v 15.674299 1.498098 1.243568
v 15.833965 1.513766 1.256593
v 15.828123 1.512511 1.265146
v 15.610530 1.491951 1.291002
v 15.692310 1.494148 1.246873
v 15.606636 1.488550 1.279921
v 15.721517 1.493232 1.245706
v 15.492728 1.552662 1.272923
v 15.519015 1.550910 1.265146
v 15.490781 1.552139 1.282060
v 15.507332 1.551851 1.282448
v 15.504898 1.552061 1.287308
v 15.514147 1.551799 1.267091
v 15.503438 1.552401 1.287697
v 15.662616 1.502701 1.250761
v 15.685982 1.499667 1.251538
v 15.689390 1.504297 1.270979
v 15.716650 1.503042 1.282837
v 15.735634 1.495534 1.255426
v 15.724925 1.499510 1.273311
v 15.775064 1.505160 1.289447
v 15.785773 1.503434 1.263591
v 15.767275 1.507122 1.304805
v 15.752185 1.505919 1.298584
v 15.717623 1.513060 1.299945
v 15.679167 1.511333 1.273117
v 15.696691 1.515597 1.285753
v 15.699612 1.512092 1.290224
v 15.742936 1.502178 1.279143
v 15.677707 1.515283 1.273506
v 15.769222 1.501524 1.264369
v 15.488834 1.547823 1.274867
v 15.722491 1.509973 1.299945
v 15.519501 1.552034 1.273895
v 15.516094 1.551904 1.268840
v 15.714216 1.516382 1.293724
v 15.482506 1.548948 1.296057
v 15.501977 1.553055 1.273895
v 15.515607 1.550334 1.259314
v 15.494675 1.547509 1.259314
v 15.502951 1.552610 1.283809
v 15.660669 1.514760 1.266313
v 15.681601 1.507750 1.274478
v 15.710808 1.505840 1.291002
v 15.751211 1.498202 1.260286
v 15.728819 1.507148 1.295279
v 15.739528 1.511020 1.303444
v 15.491268 1.548425 1.277783
v 15.511226 1.551747 1.271951
v 15.522422 1.551040 1.272923
v 15.603715 1.492082 1.279143
v 15.707401 1.496476 1.262036
v 15.735634 1.504559 1.292752
v 15.759973 1.503669 1.289447
v 15.745370 1.508351 1.301500
v 15.755106 1.511830 1.311414
v 15.818875 1.509162 1.255426
v 15.824716 1.509372 1.243179
v 15.697665 1.501394 1.265341
v 15.760460 1.509345 1.305971
v 15.704480 1.508822 1.292946
v 15.661643 1.510523 1.260481
v 15.669431 1.506913 1.269812
v 15.509766 1.549340 1.252510
v 15.906983 1.513164 0.967710
v 15.912337 1.514158 0.921831
v 15.910390 1.515989 0.859233
v 15.921586 1.518684 0.897142
v 15.895300 1.513452 1.001925
v 15.902602 1.514106 0.957601
v 15.902115 1.512380 1.004063
v 15.908930 1.514655 0.914832
v 15.901628 1.515519 0.906862
v 15.907956 1.515362 0.889949
v 15.905036 1.516591 0.859622
v 15.899194 1.517585 0.858067
v 15.705940 1.553002 0.751728
v 15.719084 1.552950 0.755033
v 15.455733 1.483580 1.040806
v 15.459140 1.481854 1.031280
v 15.455246 1.480180 1.017088
v 15.467415 1.481409 0.990066
v 15.462548 1.552401 1.239291
v 15.678680 1.531501 1.088240
v 15.468876 1.553578 1.234042
v 15.830557 1.514237 1.272923
v 15.461087 1.553578 1.235792
v 15.825690 1.512589 1.282060
v 15.918666 1.513374 0.887422
v 15.919152 1.517062 0.887422
v 15.724438 1.552401 0.848152
v 15.911364 1.511778 0.967904
v 15.913798 1.518710 0.848152
v 15.913798 1.516329 0.844653
v 15.909417 1.517533 0.835905
v 15.917692 1.515231 0.865649
v 15.906983 1.518448 0.830850
v 15.913311 1.517533 0.851457
v 15.921099 1.511857 0.897142
v 15.727846 1.551825 0.897142
v 15.912824 1.513060 0.932134
v 15.718110 1.550282 1.028947
v 15.756079 1.553525 0.599317
v 15.726385 1.550910 0.967904
v 15.791128 1.554519 0.439129
v 15.773117 1.553918 0.531470
v 15.691824 1.552662 0.852624
v 15.693284 1.552374 0.882562
v 15.679654 1.551930 0.928441
v 15.719084 1.550570 1.004063
v 15.766302 1.533881 1.070938
v 15.764355 1.534770 1.053442
v 15.929375 1.502283 1.070938
v 15.694257 1.532442 1.060051
v 15.463034 1.553028 1.241624
v 15.761434 1.489963 1.202549
v 15.148084 1.484862 1.308110
v 15.150031 1.479238 1.294890
v 15.181186 1.485045 1.272534
v 15.208446 1.472176 1.194384
v 15.205525 1.482194 1.239680
v 15.229377 1.386484 1.148116
v 15.233272 1.366369 1.145978
v 15.417277 1.529356 1.115067
v 15.243007 1.413845 1.125954
v 15.248849 1.443743 1.110596
v 15.257124 1.416304 1.086101
v 15.238626 1.429879 1.137035
v 15.224509 1.404663 1.163085
v 15.142729 1.449602 1.270979
v 15.177778 1.455932 1.242401
v 15.222562 1.462210 1.175916
v 15.224996 1.458940 1.167556
v 15.229864 1.448791 1.151615
v 15.219155 1.434797 1.179415
v 15.233272 1.440133 1.144228
v 15.227430 1.454833 1.159586
v 15.153926 1.456167 1.266313
v 15.160741 1.441938 1.247650
v 15.241060 1.463282 1.132758
v 15.212340 1.449680 1.190690
v 15.210393 1.452505 1.195745
v 15.245441 1.450701 1.117789
v 15.718597 1.549183 1.076964
v 15.464981 1.503172 1.280504
v 15.454759 1.502492 1.263980
v 15.462061 1.503460 1.272145
v 15.458166 1.504192 1.263591
v 15.474717 1.502806 1.267091
v 15.467902 1.504951 1.262230
v 15.466442 1.503879 1.269812
v 15.594953 1.541284 1.267091
v 15.466442 1.493886 1.278949
v 15.708374 1.548869 1.090184
v 15.460600 1.498883 1.268451
v 15.782366 1.488053 1.162113
v 15.654828 1.522686 1.229182
v 15.654828 1.527237 1.166001
v 15.662616 1.526060 1.190496
v 15.851002 1.490983 1.066661
v 15.929375 1.494593 1.026031
v 15.799890 1.486850 1.128092
v 15.643632 1.515022 1.251538
v 15.629028 1.515126 1.235403
v 15.902602 1.495247 1.027975
v 15.869500 1.492736 1.044888
v 15.799890 1.490381 1.153365
v 15.886051 1.494723 1.034196
v 15.926941 1.498883 1.053442
v 15.904549 1.501995 1.072688
v 15.631949 1.509686 1.239874
v 15.646552 1.509999 1.244345
v 15.474230 1.491532 1.261453
v 15.463521 1.494436 1.278171
v 15.458653 1.492448 1.267674
v 15.607610 1.543716 1.255621
v 15.630489 1.547954 0.960517
v 15.581323 1.541414 1.268451
v 15.677220 1.552296 0.756200
v 15.570127 1.541074 0.178823
v 15.662130 1.551145 0.832211
v 15.852463 1.518553 1.314136
v 15.844187 1.516382 1.317052
v 15.576455 1.554336 0.949242
v 15.739528 1.535843 0.230729
v 15.816441 1.492369 1.136257
v 15.883617 1.501524 1.079492
v 15.903575 1.499275 1.053831
v 15.847108 1.499066 1.115651
v 15.657749 1.531919 0.457986
v 15.707401 1.549837 1.053442
v 15.860251 1.514001 1.306943
v 15.849542 1.515179 1.331243
v 15.846621 1.515126 1.327939
v 15.844674 1.514446 1.325023
v 15.862198 1.500295 1.094072
v 15.555037 1.535608 1.036529
v 15.564773 1.540630 1.067439
v 15.583270 1.543376 0.230729
v 15.865119 1.496738 1.071521
v 15.637790 1.505448 1.253871
v 15.883617 1.498438 1.058302
v 15.816441 1.488576 1.112151
v 15.646066 1.532652 1.192634
v 15.805245 1.532155 1.212269
v 15.653854 1.532809 1.192051
v 15.696205 1.530376 1.137424
v 15.696205 1.531475 1.105347
v 15.719084 1.552610 0.830850
v 15.699612 1.548817 1.095044
v 15.469849 1.480912 0.963433
v 15.472283 1.482586 0.949631
v 15.460600 1.502937 1.272923
v 15.466442 1.487399 1.002703
v 15.461574 1.483580 1.030697
v 15.474717 1.480415 0.946909
v 15.891406 1.515623 0.943215
v 15.479098 1.478061 0.973931
v 15.459627 1.478611 0.980346
v 15.456706 1.477983 0.973931
v 15.698639 1.550203 1.040806
v 15.705940 1.551093 0.973931
v 15.459140 1.480258 1.010867
v 15.475691 1.485019 0.933690
v 15.692310 1.550282 1.039250
v 15.800377 1.496084 1.185247
v 15.816927 1.497025 1.163668
v 15.722978 1.531422 1.116428
v 15.709348 1.530847 1.127898
v 15.781392 1.492840 1.198855
v 15.708861 1.532076 1.086685
v 15.614425 1.541859 1.270590
v 15.637790 1.547143 1.185441
v 15.653854 1.554022 0.451182
v 15.558931 1.533986 0.984623
v 15.865119 1.542748 1.257759
v 15.940084 1.485621 1.325023
v 15.664077 1.538433 1.277199
v 15.632436 1.538380 1.299167
v 15.655315 1.538982 1.300333
v 15.639737 1.536418 1.262425
v 15.651907 1.536445 1.257176
v 15.663590 1.536654 1.250761
v 15.622213 1.535294 1.243762
v 15.595927 1.533724 1.205854
v 15.569154 1.535948 1.227432
v 15.600795 1.532678 1.183303
v 15.603715 1.534875 1.235403
v 15.588625 1.534692 1.223933
v 15.609070 1.532809 1.186802
v 15.585217 1.532966 1.180776
v 15.617832 1.533018 1.198077
v 15.606149 1.533986 1.221017
v 15.661643 1.534770 1.228599
v 15.650934 1.534561 1.231126
v 15.722004 1.536497 1.230154
v 15.649960 1.533567 1.202549
v 15.761434 1.538145 1.244929
v 15.917692 1.542199 1.278755
v 15.550169 1.553656 1.102626
v 15.916718 1.540577 1.307721
v 15.906009 1.541467 1.292752
v 15.662130 1.533933 1.206437
v 15.653367 1.537308 1.270201
v 15.659696 1.539060 1.291974
v 15.619292 1.537962 1.279532
v 15.762894 1.539008 1.259120
v 15.635843 1.533201 1.199244
v 15.599821 1.537543 1.264758
v 15.629028 1.539243 1.293335
v 15.872908 1.551250 1.075215
v 15.880209 1.549889 1.132953
v 15.877289 1.551250 1.084546
v 15.876802 1.548320 1.176499
v 15.882157 1.548477 1.181748
v 15.897734 1.551407 1.109624
v 15.840780 1.549785 1.077353
v 15.831044 1.549314 1.088045
v 15.814493 1.550570 1.028558
v 15.826176 1.550805 1.030891
v 15.646552 1.538197 1.298389
v 15.816441 1.547509 1.134119
v 15.766788 1.542618 1.233653
v 15.557471 1.553630 1.074437
v 15.546275 1.552871 1.140340
v 15.835912 1.551014 1.030502
v 15.768249 1.544083 1.212658
v 15.895300 1.548660 1.197105
v 15.787233 1.549236 1.062773
v 15.768736 1.549236 1.057524
v 15.883130 1.390120 1.229376
v 15.676733 1.547431 1.132175
v 15.728819 1.549026 1.074826
v 15.674786 1.549157 1.091739
v 15.707401 1.547561 1.121483
v 15.689390 1.548765 1.089989
v 15.685495 1.547378 1.132369
v 15.790154 1.539505 1.270590
v 15.862198 1.540394 1.281088
v 15.698152 1.547588 1.126926
v 15.763868 1.549288 1.056941
v 15.753158 1.549157 1.061995
v 15.673326 1.548398 1.120511
v 15.815954 1.549340 1.072104
v 15.744883 1.549392 1.055386
v 15.848082 1.553735 0.958768
v 15.852463 1.538119 1.300333
v 15.846135 1.552348 0.993371
v 15.566720 1.550543 1.130620
v 15.871934 1.412563 1.179220
v 15.859278 1.428702 1.126732
v 15.921586 1.393207 1.270979
v 15.909417 1.371444 1.268451
v 15.927914 1.488263 1.307332
v 15.927428 1.489570 1.310442
v 15.933269 1.490120 1.325217
v 15.615398 1.553238 0.872258
v 15.579863 1.544946 1.148116
v 15.937650 1.554912 1.112735
v 15.602255 1.553264 0.913083
v 15.649473 1.545469 1.205270
v 15.694257 1.543193 1.232292
v 15.670892 1.549497 1.078909
v 15.683061 1.551564 0.975292
v 15.706427 1.543533 1.228016
v 15.594466 1.554232 0.856317
v 15.664564 1.547797 1.141701
v 15.685982 1.548608 1.105347
v 15.664077 1.548398 1.113318
v 15.668458 1.547692 1.124010
v 15.684522 1.549602 1.067244
v 15.685495 1.550256 1.054025
v 15.680141 1.550020 1.053442
v 15.874368 1.545076 1.234236
v 15.821795 1.542853 1.233653
v 15.537026 1.548765 1.250566
v 15.928888 1.487138 1.309859
v 15.931809 1.488550 1.318607
v 15.843214 1.542696 1.246678
v 15.689390 1.547405 1.126926
v 15.831531 1.519311 0.230729
v 15.677707 1.548660 1.098932
v 15.867553 1.545573 1.229571
v 15.841753 1.545600 1.221600
v 15.854410 1.536968 1.307138
v 15.551629 1.554048 1.082019
v 15.553090 1.543664 1.266507
v 15.561852 1.543350 1.250955
v 15.541407 1.544030 1.270979
v 15.583270 1.545861 1.110207
v 15.602255 1.554310 0.230729
v 15.756566 1.554022 0.435435
v 15.634870 1.554075 0.230729
v 15.565746 1.540080 0.445738
v 15.621240 1.547038 1.008146
v 15.579863 1.542748 0.230729
v 15.726385 1.554048 0.378669
v 15.584731 1.542225 1.263980
v 15.577916 1.542958 1.069772
v 15.794048 1.533253 1.203326
v 15.878749 1.522163 1.156670
v 15.816927 1.522450 1.142284
v 15.745370 1.534535 1.028558
v 15.707887 1.533149 1.045666
v 15.701072 1.535346 1.230348
v 15.812546 1.531004 1.217712
v 15.815954 1.521247 1.105736
v 15.719084 1.535895 1.228793
v 15.842240 1.528650 1.234431
v 15.846621 1.526923 1.228210
v 15.892866 1.524308 1.164835
v 15.615398 1.553892 0.771946
v 15.682575 1.550648 1.032641
v 15.539946 1.552217 1.185441
v 15.844187 1.521979 1.168917
v 15.861712 1.524857 1.209742
v 15.848568 1.524438 1.211686
v 15.837859 1.524072 1.197494
v 15.831531 1.521823 1.146366
v 15.529237 1.552767 1.208381
v 15.602255 1.553761 0.870314
v 15.831044 1.529068 1.223155
v 15.896273 1.522607 1.138979
v 15.853436 1.529068 1.230932
v 15.614911 1.553578 0.818020
v 15.668945 1.550282 1.065495
v 15.703506 1.545103 1.185247
v 15.671865 1.545730 1.174555
v 15.682575 1.542722 1.239874
v 15.825690 1.532338 1.231126
v 15.736121 1.552976 0.726262
v 15.610530 1.544527 1.248817
v 15.605176 1.540761 1.277005
v 15.637304 1.544109 1.241041
v 15.640711 1.541205 1.280893
v 15.639737 1.538616 1.314136
v 15.635843 1.537569 1.287308
v 15.653854 1.538066 1.284976
v 15.624647 1.536680 1.264369
v 15.583270 1.539191 1.260870
v 15.571587 1.539270 1.256787
v 15.581810 1.537334 1.245512
v 15.568667 1.537517 1.241624
v 15.577916 1.533620 1.183692
v 15.584244 1.535764 1.233459
v 15.794048 1.552061 0.900641
v 15.622213 1.534038 1.229765
v 15.946899 1.540944 1.287308
v 15.534105 1.553473 1.164835
v 15.924020 1.539636 1.324439
v 15.634870 1.553421 0.770197
v 15.928888 1.553551 1.093878
v 15.577916 1.544187 1.173972
v 15.561365 1.544292 1.242401
v 15.553090 1.544213 1.264758
v 15.914284 1.551877 1.119539
v 15.916232 1.550465 1.170861
v 15.893839 1.348477 1.251538
v 15.927914 1.491323 1.317246
v 15.851489 1.448896 1.093878
v 15.536052 1.547797 1.263008
v 15.783339 1.539008 1.282837
v 15.855870 1.537517 1.306943
v 15.775064 1.539034 1.270395
v 15.815467 1.546541 1.161724
v 15.931322 1.489414 1.318996
v 15.499543 1.551197 1.292752
v 15.497109 1.551590 1.294307
v 15.502464 1.551642 1.290030
v 15.494675 1.550491 1.294890
v 15.515120 1.552191 1.270395
v 15.512686 1.552191 1.272728
v 15.509766 1.552845 1.284004
v 15.509766 1.552270 1.281088
v 15.502464 1.550910 1.285170
v 15.499056 1.550099 1.284004
v 15.504898 1.551380 1.284781
v 15.511713 1.552662 1.278949
v 15.513660 1.553107 1.277005
v 15.518041 1.552401 1.275450
v 15.501490 1.548242 1.255426
v 15.516094 1.552741 1.276616
v 15.505871 1.553107 1.275450
v 15.502464 1.549105 1.262036
v 15.495649 1.549209 1.280893
v 15.514147 1.552584 1.273117
v 15.488834 1.549654 1.293918
v 15.509279 1.553159 1.276616
v 15.507332 1.552453 1.285170
v 15.506358 1.552662 1.284976
v 15.940084 1.547535 1.268451
v 15.934729 1.486876 1.327939
v 15.927428 1.549497 1.229376
v 15.931322 1.546724 1.268451
v 15.505871 1.550046 1.266313
v 15.513173 1.551354 1.263980
v 15.509279 1.551302 1.271367
v 15.521935 1.551223 1.274089
v 15.507819 1.550831 1.270395
v 15.512686 1.550910 1.260675
v 15.489321 1.550962 1.295668
v 15.493702 1.551982 1.287697
v 15.500517 1.552034 1.291391
v 15.498083 1.552871 1.274089
v 15.517068 1.551511 1.266313
v 15.826176 1.514629 1.286920
v 15.517554 1.551119 1.264369
v 15.828123 1.512772 1.272923
v 15.511713 1.550151 1.255621
v 15.520962 1.551616 1.274089
v 15.486400 1.551197 1.295473
v 15.494675 1.552688 1.274089
v 15.499056 1.552401 1.285170
v 15.482993 1.550413 1.298778
v 15.570127 1.544370 1.207020
v 15.822282 1.547483 1.139368
v 15.827637 1.549236 1.088045
v 15.813033 1.543455 1.226849
v 15.827637 1.546908 1.163863
v 15.823742 1.546227 1.181359
v 15.827150 1.547509 1.143645
v 15.949820 1.547091 1.270979
v 15.937163 1.546097 1.269229
v 15.918179 1.549392 1.218490
v 15.924020 1.552139 1.126732
v 15.922073 1.547980 1.248622
v 15.929862 1.548425 1.251538
v 15.564773 1.547797 1.172416
v 15.562339 1.545547 1.226266
v 15.915258 1.546254 1.260481
v 15.884591 1.546803 1.232098
v 15.463521 1.502361 1.279532
v 15.689390 1.550936 1.002703
v 15.783826 1.539139 1.284392
v 15.776037 1.539426 1.273700
v 14.482162 1.525458 1.123427
v 14.030911 1.526871 1.244345
v 15.410948 1.530716 1.145978
v 13.886823 1.519338 1.266896
v 15.412409 1.531527 1.113707
v 15.386609 1.528388 1.092711
v 15.401213 1.528728 1.088629
v 14.026044 1.524281 1.238902
v 15.410948 1.530193 1.123427
v 15.407541 1.529120 1.094072
v 15.397805 1.529905 1.100487
v 15.389530 1.529120 1.089017
v 15.396345 1.527943 1.091545
v 15.861712 1.551093 1.064717
v 15.575482 1.553264 1.034001
v 15.552116 1.550962 1.168334
v 15.565746 1.552034 1.101459
v 15.552116 1.554676 0.230729
v 15.887998 1.544763 1.247067
v 15.557471 1.554702 0.230729
v 15.918666 1.538825 1.342713
v 15.890432 1.542827 1.267479
v 15.437235 1.529565 1.139368
v 15.451351 1.529984 1.145978
v 15.446970 1.529356 1.134897
v 15.441616 1.530324 1.152587
v 15.405107 1.531265 1.116428
v 15.417763 1.531161 1.134897
v 15.422144 1.530350 1.142478
v 15.425552 1.529565 1.132953
v 14.470479 1.526348 1.142478
v 13.814779 1.519913 1.270590
v 15.120824 1.376518 1.266896
v 13.922358 1.522110 1.246095
v 13.981259 1.522084 1.242985
v 15.845648 1.550936 1.042750
v 15.545301 1.550020 1.214213
v 15.584244 1.550857 1.078520
v 15.583270 1.551773 1.067244
v 15.339391 1.525746 1.273117
v 15.114983 1.359254 1.270201
v 15.100379 1.413583 1.291974
v 15.095998 1.401891 1.293529
v 15.445997 1.520253 1.293529
v 15.339878 1.525066 1.270201
v 15.839806 1.547614 1.152976
v 15.887511 1.550020 1.139562
v 15.401213 1.523784 1.273117
v 15.348153 1.525903 1.283809
v 15.110115 1.401995 1.281671
v 15.105734 1.392474 1.282837
v 15.438208 1.520227 1.294113
v 15.401699 1.524674 1.270201
v 15.356428 1.526060 1.294113
v 15.357889 1.525432 1.293529
v 15.546275 1.554755 0.230729
v 15.875828 1.549916 1.123816
v 15.889945 1.548555 1.191662
v 15.537026 1.554912 0.230729
v 15.880209 1.519311 0.230729
v 15.896760 1.519495 0.230729
v 15.912337 1.549079 1.215963
v 15.861712 1.519495 0.230729
v 15.890919 1.550020 1.145589
v 15.911364 1.550334 1.167362
v 15.735147 1.549105 1.064717
v 15.907956 1.550230 1.164835
v 15.904062 1.548895 1.206631
v 15.906983 1.551642 1.117400
v 15.899194 1.550125 1.155698
v 15.880209 1.519861 1.130620
v 15.842727 1.519521 0.230729
v 15.556984 1.554127 1.070549
v 15.436748 1.522424 1.291585
v 15.445023 1.522869 1.289252
v 15.412895 1.524909 1.266896
v 15.349613 1.525249 1.282837
v 15.411435 1.523889 1.270395
v 13.511511 1.526348 1.270201
v 13.061235 1.521535 1.293529
v 15.430906 1.523183 1.283226
v 15.646552 1.553473 0.702350
v 13.220900 1.521770 1.293724
v 15.438208 1.523967 1.280893
v 15.890432 1.521116 1.142284
v 15.426039 1.524752 1.269812
v 13.290024 1.501367 1.368180
v 15.438695 1.521352 1.294890
v 15.447457 1.521509 1.293724
v 15.422144 1.523732 1.273506
v 13.560677 1.526479 1.266896
v 15.567206 1.553395 1.052275
v 15.686469 1.549863 1.056552
v 15.712755 1.552348 0.858067
v 15.663590 1.532599 0.488312
v 15.652394 1.531475 0.721402
v 15.459140 1.486405 1.039250
v 15.706427 1.552558 0.828518
v 15.552116 1.554467 1.061412
v 15.584244 1.553865 0.947687
v 15.537026 1.554781 1.104375
v 15.708374 1.542068 1.245706
v 15.645092 1.531475 0.956629
v 15.703020 1.534901 0.230729
v 15.719570 1.535660 0.230729
v 15.690850 1.539505 1.279143
v 15.669918 1.540028 1.285948
v 15.687929 1.540159 1.278171
v 15.695718 1.540473 1.274283
v 15.662130 1.540002 1.286920
v 15.662130 1.539557 1.294501
v 15.666997 1.540917 1.269812
v 15.697178 1.539479 1.276033
v 15.870474 1.514655 1.291780
v 15.803297 1.531945 0.230729
v 15.793562 1.533018 0.230729
v 15.774577 1.534326 0.230729
v 15.818388 1.528702 0.230729
v 15.816441 1.525171 0.230729
v 15.817414 1.526792 0.230729
v 15.810112 1.530795 0.230729
v 15.909903 1.547431 1.241235
v 15.925967 1.546097 1.269229
v 15.814493 1.522633 0.230729
v 15.860251 1.515780 1.310831
v 15.813520 1.521090 0.230729
v 15.596414 1.546227 1.078325
v 15.915745 1.553211 1.082797
v 15.573535 1.545730 1.162307
v 15.823256 1.546881 1.172416
v 15.821795 1.543716 1.242207
v 15.826663 1.543742 1.229571
v 15.840293 1.544109 1.232487
v 15.821308 1.544318 1.225683
v 15.831531 1.544632 1.226266
v 15.879723 1.545757 1.234431
v 15.842240 1.544867 1.244929
v 15.589112 1.545155 1.112735
v 15.688903 1.550491 1.032641
v 15.874855 1.545783 1.245317
v 15.873395 1.546332 1.227432
v 15.827637 1.545940 1.195161
v 15.846621 1.536680 1.297029
v 15.848568 1.537595 1.308693
v 15.865119 1.514708 1.289058
v 15.865119 1.512641 1.273700
v 15.872421 1.512903 1.272923
v 15.700586 1.540368 1.272923
v 15.886051 1.514786 1.278171
v 15.872421 1.515022 1.294113
v 15.656288 1.539270 1.300139
v 15.664564 1.539583 1.286920
v 15.848082 1.514603 1.330660
v 15.658722 1.539819 1.292752
v 15.836399 1.515623 1.306943
v 15.652394 1.538851 1.305193
v 15.654341 1.539557 1.300528
v 15.648500 1.538694 1.306943
v 15.614911 1.542853 1.258926
v 15.464495 1.497078 1.276227
v 15.850516 1.516408 1.324439
v 15.471310 1.496057 1.274867
v 15.842240 1.518396 1.302861
v 15.466442 1.496031 1.289058
v 15.581323 1.539688 1.261453
v 15.475691 1.495953 1.267868
v 15.466442 1.490067 1.263980
v 15.468389 1.503094 1.273311
v 15.467415 1.502048 1.273117
v 15.574508 1.539819 1.263980
v 15.587165 1.541101 1.267285
v 15.589599 1.542487 1.263591
v 15.605176 1.542539 1.260870
v 15.588138 1.540133 1.267868
v 15.595927 1.542147 1.262230
v 15.597874 1.543402 1.261647
v 15.468389 1.499720 1.267285
v 15.823256 1.528807 1.227044
v 15.760460 1.535948 1.204882
v 15.823742 1.526688 1.212074
v 15.660669 1.533096 1.200605
v 15.739042 1.536157 1.220239
v 15.831531 1.526531 1.207603
v 15.839806 1.526452 1.223739
v 15.828123 1.524334 1.187191
v 15.789667 1.554938 0.292160
v 15.594466 1.554389 0.230729
v 15.566720 1.554572 0.230729
v 15.935216 1.488603 1.326578
v 15.936190 1.487059 1.329688
v 15.737095 1.554048 0.409385
v 15.621726 1.519625 1.225683
v 15.630002 1.523837 1.183886
v 15.832018 1.498202 1.139368
v 15.742449 1.483868 1.168723
v 15.738068 1.531945 1.107486
v 15.646066 1.554258 0.230729
v 15.569640 1.542042 1.069577
v 15.733200 1.534117 1.031474
v 15.644605 1.528467 1.133925
v 15.752672 1.533096 1.086101
v 15.661156 1.530428 1.108069
v 15.652881 1.502231 1.241235
v 15.721517 1.533803 1.034196
v 15.641198 1.502021 1.228016
v 15.648500 1.518998 1.247650
v 15.625134 1.553604 0.771558
v 15.625621 1.533175 1.207409
v 15.637304 1.534326 1.231515
v 15.592032 1.532678 1.179609
v 15.571587 1.534692 1.206242
v 15.637304 1.535372 1.247456
v 15.650447 1.535503 1.243957
v 15.662616 1.535712 1.239485
v 15.599821 1.536000 1.247845
v 15.664077 1.537569 1.263786
v 15.642171 1.538145 1.302861
v 15.644119 1.537282 1.277977
v 15.598361 1.539086 1.274867
v 15.794048 1.553055 0.825213
v 15.633409 1.542095 1.267868
v 15.623674 1.541127 1.277977
v 15.753158 1.552270 0.860594
v 15.797456 1.533881 1.207798
v 15.810599 1.532626 1.215574
v 15.657262 1.544213 1.228016
v 15.735634 1.550543 0.989872
v 15.698639 1.541833 1.250761
v 15.635356 1.553813 0.649667
v 15.602255 1.554127 0.831822
v 15.862198 1.527891 1.221795
v 15.859278 1.521849 1.168528
v 15.825203 1.522372 1.155309
v 15.824716 1.520410 1.119928
v 15.831044 1.520253 1.130425
v 15.821795 1.524674 1.183303
v 15.775551 1.534614 1.196717
v 15.685009 1.534614 1.230737
v 15.671865 1.533855 1.221795
v 15.667484 1.529434 1.139757
v 15.748291 1.533803 1.056941
v 15.722978 1.532730 1.074437
v 15.735634 1.533227 1.066856
v 15.634383 1.519338 1.230543
v 15.642658 1.523549 1.191468
v 15.566720 1.541179 1.067828
v 15.585704 1.543219 0.230729
v 15.703506 1.553368 0.113115
v 15.717623 1.553761 0.404914
v 15.652881 1.554362 0.230729
v 15.625134 1.553970 0.220231
v 15.616372 1.554075 0.230729
v 15.576455 1.554493 0.230729
v 15.584731 1.554467 0.102034
v 15.527290 1.547483 1.287308
v 15.849542 1.462262 1.112735
v 15.930835 1.486353 1.316469
v 15.933269 1.485882 1.324634
v 15.931809 1.487766 1.318218
v 15.933269 1.487582 1.323273
v 15.925481 1.550700 1.179220
v 15.554063 1.545469 1.248428
v 15.543354 1.545233 1.266119
v 15.569154 1.543507 1.229571
v 15.921099 1.554467 1.078325
v 15.648500 1.552741 0.829490
v 15.653367 1.552217 0.873619
v 15.904549 1.538066 1.345629
v 15.928401 1.542068 1.277977
v 15.910877 1.539322 1.333965
v 15.943978 1.542278 1.263008
v 15.529237 1.551904 1.214213
v 15.940084 1.543926 1.251149
v 15.877289 1.526557 1.219073
v 15.889945 1.526819 1.208381
v 15.592032 1.553238 0.955463
v 15.862198 1.549733 1.110596
v 15.573048 1.549942 1.120900
v 15.550656 1.549105 1.211686
v 15.848082 1.549680 1.092322
v 15.582784 1.553238 1.001925
v 15.890919 1.528911 1.214213
v 15.538973 1.551433 1.201382
v 15.940571 1.543115 1.251733
v 15.911851 1.537517 1.358849
v 15.933756 1.540551 1.301889
v 15.536539 1.553970 1.138979
v 15.543354 1.553813 1.120900
v 15.948359 1.545652 1.266119
v 15.817414 1.538903 1.280504
v 15.833965 1.537595 1.292557
v 15.834452 1.538406 1.290224
v 15.883617 1.444684 1.213241
v 15.868527 1.537072 1.317246
v 15.891892 1.434823 1.241818
v 15.887024 1.535712 1.334548
v 15.874855 1.552610 1.046249
v 15.611991 1.549419 1.027781
v 15.589599 1.547666 1.068800
v 15.877289 1.554022 1.027781
v 15.896273 1.529958 1.239680
v 15.892866 1.532259 1.282060
v 15.880696 1.531422 1.262036
v 15.905522 1.530951 1.263591
v 15.488347 1.479814 1.394230
v 15.484940 1.480703 1.395202
v 15.508792 1.465636 1.423974
v 15.865606 1.530114 1.236375
v 15.888485 1.533280 1.295862
v 15.866093 1.536261 1.310442
v 15.908930 1.473719 1.264563
v 15.872908 1.483685 1.238902
v 15.897247 1.462027 1.242985
v 15.863659 1.482377 1.229571
v 15.875828 1.480128 1.217712
v 15.940084 1.463308 1.286142
v 15.947386 1.475942 1.291002
v 15.789667 1.538616 1.266702
v 15.819848 1.541101 1.252705
v 15.903088 1.491140 1.291002
v 15.790641 1.549183 1.063939
v 15.861225 1.552479 1.027392
v 15.760947 1.537360 1.237347
v 15.779445 1.535163 1.197105
v 15.743423 1.536942 1.230154
v 15.771170 1.536366 1.224322
v 15.809139 1.550517 1.026614
v 15.789667 1.550465 1.003286
v 15.734174 1.543873 1.216351
v 15.750725 1.544004 1.212852
v 15.718597 1.545390 1.175721
v 15.719084 1.543742 1.220239
v 15.862685 1.548163 1.161141
v 15.844674 1.547875 1.149477
v 15.759487 1.536758 1.228016
v 15.671865 1.553708 0.645196
v 15.743910 1.537465 1.235597
v 15.724925 1.538092 1.243373
v 15.706914 1.537726 1.246484
v 15.884104 1.472097 1.200216
v 15.879723 1.476701 1.194189
v 15.866580 1.459176 1.138590
v 15.862198 1.468226 1.143061
v 15.735147 1.545521 1.171639
v 15.749264 1.542513 1.234820
v 15.710808 1.540682 1.260092
v 15.777011 1.540028 1.264952
v 15.751698 1.545573 1.169500
v 15.718110 1.547169 1.126148
v 15.735634 1.547274 1.120705
v 15.729306 1.540917 1.256398
v 15.727359 1.539793 1.260675
v 15.765328 1.541258 1.243957
v 15.725898 1.538903 1.254454
v 15.744396 1.539060 1.255426
v 15.705940 1.536915 1.234042
v 15.749751 1.547221 1.119539
v 15.687442 1.535372 1.228210
v 15.488834 1.479317 1.391897
v 15.676246 1.535189 1.226266
v 15.745857 1.539950 1.258342
v 15.709348 1.539505 1.267479
v 15.501004 1.451093 1.385676
v 15.496623 1.432783 1.362737
v 15.503924 1.429068 1.373040
v 15.506845 1.449602 1.391508
v 15.006430 1.481331 0.457986
v 14.992313 1.485176 1.194384
v 15.034176 1.479788 1.122649
v 14.988905 1.483711 0.488312
v 15.920613 1.534640 1.352239
v 15.917692 1.535555 1.368958
v 15.926941 1.534849 1.358460
v 15.509766 1.547431 1.327939
v 15.519501 1.547091 1.309665
v 15.509279 1.548346 1.320357
v 15.914284 1.535320 1.365264
v 15.899194 1.534849 1.337464
v 15.899194 1.535555 1.351850
v 15.906496 1.536235 1.368763
v 15.504898 1.473144 1.427667
v 15.501977 1.477120 1.429223
v 15.514634 1.473353 1.429223
v 15.502464 1.475916 1.427667
v 15.508305 1.472333 1.430583
v 15.506358 1.472647 1.429223
v 15.923533 1.536915 1.364681
v 15.511226 1.476858 1.435832
v 15.510253 1.472045 1.431167
v 15.925481 1.535477 1.362542
v 15.923533 1.535764 1.364486
v 15.923533 1.536811 1.364292
v 15.931809 1.538380 1.345824
v 15.922073 1.538249 1.354377
v 15.927914 1.538825 1.339797
v 15.925967 1.537674 1.359432
v 15.513660 1.546855 1.327161
v 15.514634 1.547771 1.311414
v 15.904549 1.532599 1.297029
v 15.914771 1.536445 1.378095
v 15.916232 1.533306 1.320940
v 15.911364 1.535764 1.373040
v 15.913311 1.531684 1.284004
v 15.921099 1.532338 1.304221
v 15.520475 1.548215 1.292363
v 15.519501 1.549419 1.284004
v 15.912824 1.534326 1.340186
v 15.937163 1.539479 1.320357
v 15.919639 1.536811 1.371679
v 15.913798 1.535948 1.377511
v 15.509279 1.477224 1.435832
v 15.927428 1.532861 1.320357
v 15.949333 1.538616 1.327161
v 15.909417 1.535084 1.355155
v 15.900168 1.536157 1.361765
v 15.938137 1.538877 1.330855
v 15.917205 1.537125 1.370513
v 15.910390 1.536261 1.374012
v 15.512686 1.472254 1.430778
v 15.509766 1.476466 1.435443
v 15.923533 1.533724 1.335132
v 15.931809 1.533358 1.333771
v 15.526803 1.548712 1.273311
v 15.514147 1.548817 1.304221
v 15.948846 1.539662 1.309665
v 14.626250 1.512327 1.038084
v 15.927428 1.477669 1.308693
v 14.593635 1.524700 0.230729
v 15.914771 1.470842 1.280893
v 15.921099 1.468461 1.294307
v 15.922073 1.484810 1.291780
v 15.923047 1.422006 1.278755
v 15.536052 1.550674 1.229571
v 15.928888 1.449890 1.286725
v 15.862685 1.486719 1.250955
v 15.524369 1.550099 1.263591
v 15.935216 1.422712 1.266507
v 14.688559 1.529591 0.230729
v 14.209562 1.497810 1.159975
v 15.916718 1.491532 1.304416
v 14.583900 1.522398 0.230729
v 15.888972 1.486719 1.260092
v 15.905522 1.458443 1.263591
v 15.947386 1.462733 1.274089
v 14.527433 1.492343 1.264369
v 14.657404 1.527813 0.230729
v 15.918666 1.479552 1.285753
v 15.932296 1.477146 1.312775
v 15.930348 1.482246 1.315302
v 15.923047 1.478401 1.298001
v 15.937163 1.476806 1.308498
v 15.870961 1.487661 1.258342
v 15.942031 1.476073 1.299750
v 15.600308 1.549837 1.030891
v 15.862685 1.553865 0.996093
v 15.934243 1.464590 1.294113
v 15.865119 1.544553 1.237347
v 15.847595 1.544710 1.231126
v 15.900654 1.427133 1.261647
v 15.912824 1.455173 1.278366
v 15.926454 1.483083 1.304416
v 15.941058 1.481252 1.314719
v 15.947386 1.481985 1.304416
v 15.927428 1.466395 1.300333
v 15.491755 1.478454 1.387815
v 15.492241 1.479526 1.387037
v 15.501004 1.478689 1.375179
v 15.929862 1.534247 1.351461
v 15.509279 1.478454 1.364486
v 15.374926 1.514158 0.921831
v 15.274648 1.527891 1.221795
v 15.375900 1.513060 0.932134
v 15.005456 1.483973 0.300908
v 15.498083 1.485098 1.384899
v 15.922560 1.535163 1.361570
v 15.907469 1.535608 1.365458
v 15.901628 1.533803 1.318413
v 15.511713 1.395718 1.364681
v 15.503438 1.474608 1.426890
v 15.505871 1.548006 1.333771
v 15.482506 1.482116 1.387815
v 15.211853 1.511020 1.241624
v 13.191206 1.547797 1.226655
v 15.491755 1.485071 1.390925
v 14.523538 1.554232 0.856317
v 14.688072 1.553813 0.649667
v 14.555179 1.553761 0.870314
v 14.521104 1.553787 0.904529
v 15.910877 1.417951 1.274283
v 14.635986 1.524569 0.230729
v 14.614080 1.528074 0.230729
v 14.616028 1.515571 1.042555
v 15.011784 1.479317 1.135674
v 14.699755 1.489047 1.306165
v 15.206012 1.511778 1.259314
v 15.946899 1.447352 1.258342
v 15.947386 1.433227 1.250955
v 15.920613 1.452244 1.287114
v 15.191895 1.512066 1.295473
v 15.019086 1.490617 1.220045
v 15.187514 1.512354 1.297612
v 15.179238 1.508195 1.259314
v 15.723465 1.537360 1.236375
v 15.615398 1.552008 0.955074
v 15.552603 1.547300 1.230737
v 15.638277 1.551720 0.923192
v 15.627081 1.551119 0.958768
v 15.592519 1.550988 1.052275
v 15.632436 1.552479 0.882173
v 15.598361 1.551930 1.029141
v 15.184106 1.511386 1.298778
v 12.696632 1.551616 1.228210
v 15.157333 1.511203 1.305971
v 13.749549 1.553525 1.309859
v 15.482019 1.488079 1.368569
v 15.506845 1.481776 1.364292
v 15.863659 1.534038 1.281088
v 14.660325 1.505160 1.030113
v 15.814980 1.553002 0.873619
v 15.539946 1.547378 1.251733
v 15.919639 1.489073 1.295473
v 15.904549 1.488995 1.281088
v 14.635986 1.504899 0.230729
v 14.609699 1.519704 1.033029
v 14.616514 1.522346 0.230729
v 14.607265 1.509293 0.230729
v 15.919639 1.545050 1.260092
v 15.812546 1.551877 0.933301
v 15.920126 1.486929 1.288669
v 15.910877 1.482691 1.267091
v 15.889945 1.466657 1.223933
v 15.903088 1.476178 1.250177
v 15.768736 1.535843 1.208964
v 15.784800 1.535921 1.225683
v 15.742449 1.536680 1.228016
v 15.789667 1.547143 1.130231
v 15.392937 1.511857 0.897142
v 15.372492 1.511778 0.967904
v 15.388556 1.517062 0.887422
v 15.308237 1.522163 1.156670
v 15.225970 1.524072 1.197494
v 15.268807 1.521849 1.168528
v 15.336470 1.524308 1.164835
v 15.857817 1.476282 1.173972
v 15.873881 1.453055 1.167167
v 15.898221 1.478401 1.240069
v 15.874855 1.529120 1.230154
v 15.897734 1.531632 1.273311
v 15.487374 1.480285 1.397146
v 15.486400 1.480729 1.397535
v 15.484940 1.479212 1.397340
v 15.483479 1.480677 1.391897
v 15.794048 1.537595 1.255815
v 15.830071 1.536523 1.276422
v 15.811573 1.537072 1.264369
v 15.826176 1.535163 1.255621
v 14.857960 1.491768 0.230729
v 14.638420 1.509529 1.033418
v 14.802466 1.494174 0.230729
v 14.913454 1.488760 6.438597
v 14.963592 1.486641 0.328902
v 14.974788 1.487870 1.207603
v 15.494189 1.487033 1.386454
v 15.503438 1.487766 1.378095
v 15.499056 1.490355 1.377511
v 15.490294 1.490852 1.368958
v 15.501004 1.482926 1.377123
v 15.504898 1.484025 1.371679
v 15.519988 1.433594 1.378872
v 15.487860 1.487661 1.377706
v 15.512686 1.448948 1.394036
v 15.468876 1.465035 1.365847
v 15.525830 1.436889 1.374595
v 15.518528 1.449994 1.393452
v 15.520475 1.459699 1.404145
v 15.515120 1.466421 1.423002
v 15.833478 1.553342 0.923192
v 15.804758 1.534770 1.230932
v 15.929375 1.544449 1.260675
v 15.913798 1.543219 1.264758
v 15.541407 1.546751 1.251149
v 15.873395 1.532547 1.273117
v 15.247388 1.524438 1.211686
v 15.376873 1.517533 0.851457
v 15.782852 1.541336 1.249594
v 15.936190 1.481462 1.320551
v 15.788207 1.545678 1.173972
v 15.607123 1.550962 0.994926
v 15.626107 1.553342 0.832211
v 15.529724 1.549392 1.259314
v 15.528264 1.551040 1.239680
v 15.937650 1.448425 1.275061
v 14.586820 1.519808 0.230729
v 14.589741 1.514943 0.230729
v 14.655457 1.529591 0.230729
v 15.926941 1.543272 1.263202
v 15.843214 1.534666 1.267479
v 15.758513 1.536471 1.220434
v 15.704967 1.536340 1.228016
v 15.743910 1.538223 1.242985
v 15.762894 1.539767 1.260870
v 15.856357 1.530978 1.240457
v 15.845161 1.532155 1.239291
v 15.809139 1.535843 1.248233
v 15.512686 1.458051 1.410560
v 15.512686 1.466107 1.425334
v 15.508305 1.458365 1.409005
v 15.517068 1.458600 1.407644
v 15.908443 1.484679 1.264174
v 15.906496 1.486824 1.270979
v 15.505871 1.478375 1.368569
v 15.486887 1.485281 1.384121
v 13.335295 1.547823 1.218490
v 15.406567 1.503905 1.090184
v 14.804414 1.496738 1.241818
v 14.853092 1.527786 1.190885
v 15.921099 1.535346 1.362931
v 15.481532 1.485856 1.375179
v 15.485426 1.482743 1.390731
v 13.255462 1.550570 1.292752
v 15.888485 1.530611 1.251149
v 15.834452 1.533070 1.239096
v 15.884104 1.534483 1.311609
v 15.914284 1.480965 1.274283
v 15.774577 1.537046 1.238902
v 15.847595 1.536026 1.291002
v 15.894326 1.481043 1.235597
v 15.492241 1.466343 1.389176
v 15.485426 1.460928 1.368180
v 15.498570 1.470345 1.409782
v 15.891406 1.483868 1.245706
v 15.822282 1.533881 1.236958
v 15.790154 1.536654 1.244151
v 15.717623 1.542199 1.242013
v 15.747317 1.541101 1.246484
v 15.830071 1.552139 0.968293
v 15.512200 1.430010 1.380427
v 15.777011 1.537831 1.249789
v 14.606779 1.529487 0.230729
v 15.814493 1.538171 1.280504
v 14.687585 1.501734 0.230729
v 15.619292 1.550282 0.996093
v 15.018599 1.487033 0.510863
v 14.996207 1.489257 5.837503
v 15.490294 1.481540 1.395591
v 14.741131 1.496895 0.230729
v 15.377847 1.518710 0.848152
v 15.387096 1.513374 0.887422
v 15.393424 1.518684 0.897142
v 15.496623 1.473117 1.412309
v 15.495162 1.475367 1.416198
v 15.481532 1.465166 1.374401
v 15.475691 1.473457 1.389759
v 15.523396 1.451511 1.389759
v 15.493215 1.407227 1.345824
v 15.502951 1.398386 1.359432
v 15.486887 1.473170 1.399673
v 15.485426 1.475576 1.404145
v 15.518041 1.467363 1.419308
v 15.463521 1.452401 1.333771
v 15.527290 1.418187 1.358460
v 15.456706 1.465192 1.358460
v 15.494189 1.483293 1.391120
v 15.488347 1.482508 1.395591
v 15.521449 1.409581 1.362542
v 15.478125 1.433541 1.327161
v 15.484453 1.414525 1.330855
v 15.470823 1.445626 1.327939
v 15.489321 1.469743 1.393841
v 15.503924 1.459882 1.405311
v 15.478125 1.469377 1.382566
v 15.490294 1.441075 1.353405
v 15.500517 1.468618 1.412309
v 15.472770 1.459542 1.354572
v 15.483966 1.449419 1.346212
v 15.505871 1.466526 1.420669
v 15.499543 1.461347 1.398312
v 15.502951 1.467363 1.416003
v 15.495649 1.463439 1.391120
v 15.490294 1.457083 1.368569
v 15.257124 1.529068 1.230932
v 14.830700 1.549497 1.078909
v 14.555666 1.554127 0.831822
v 14.875971 1.550648 1.032641
v 15.353994 1.515519 0.906862
v 15.354968 1.512380 1.004063
v 14.878405 1.551564 0.975292
v 14.924163 1.543193 1.232292
v 14.963106 1.543533 1.228016
v 14.852605 1.543952 1.223155
v 14.821451 1.550282 1.065495
v 14.957751 1.545103 1.185247
v 14.800033 1.543036 1.242401
v 14.687098 1.553708 0.700989
v 15.545301 1.548163 1.237152
v 14.999128 1.552401 0.848152
v 15.006430 1.551825 0.897142
v 15.062897 1.553525 0.599317
v 15.022980 1.553473 0.588430
v 14.686125 1.547535 1.162307
v 15.213800 1.526531 1.207603
v 14.635986 1.546437 1.099515
v 15.160254 1.532155 1.212269
v 14.950936 1.535346 1.230348
v 15.174857 1.531004 1.217712
v 14.987932 1.535895 1.228793
v 14.602398 1.532181 1.199633
v 14.570757 1.531972 1.187580
v 14.316655 1.537465 1.242985
v 14.399895 1.532913 1.172416
v 14.748920 1.549209 1.115845
v 15.232298 1.530193 1.237152
v 14.839949 1.540891 1.266702
v 15.145163 1.533881 1.207798
v 14.876458 1.542722 1.239874
v 15.187027 1.531553 1.221795
v 14.774720 1.544213 1.228016
v 14.697321 1.547143 1.185441
v 15.216721 1.531396 1.235208
v 14.718253 1.546280 1.193023
v 14.779101 1.547666 1.136841
v 14.766931 1.548451 1.136257
v 14.657891 1.532390 1.207992
v 14.496765 1.531867 1.164640
v 14.337586 1.534090 1.191273
v 14.731396 1.532652 1.192634
v 15.028335 1.536157 1.220239
v 15.196276 1.528807 1.227044
v 15.212827 1.520253 1.130425
v 15.229864 1.526452 1.223739
v 15.235219 1.528650 1.234431
v 15.211853 1.529068 1.223155
v 15.181672 1.521247 1.105736
v 15.132020 1.554519 0.439129
v 14.913940 1.552662 0.852624
v 15.003022 1.550910 0.967904
v 14.344401 1.539296 1.255038
v 14.864775 1.551930 0.928441
v 14.306919 1.535503 1.210130
v 14.919295 1.552374 0.882562
v 14.807334 1.550753 1.028753
v 14.744052 1.545469 1.205270
v 14.799546 1.547064 1.142673
v 14.904691 1.541728 1.253094
v 12.864087 1.483868 0.999398
v 14.885707 1.546411 1.152004
v 12.823683 1.487399 1.002703
v 14.906152 1.544684 1.201577
v 14.833134 1.545730 1.174555
v 14.962619 1.552558 0.828518
v 15.371519 1.515989 0.859233
v 14.987445 1.553395 0.648500
v 15.212827 1.521823 1.146366
v 14.985985 1.550282 1.028947
v 15.342798 1.522607 1.138979
v 15.378334 1.516329 0.844653
v 15.369085 1.517533 0.835905
v 15.355942 1.514106 0.957601
v 15.364217 1.518448 0.830850
v 15.385635 1.515231 0.865649
v 15.340851 1.513452 1.001925
v 15.368111 1.514655 0.914832
v 15.360809 1.516591 0.859622
v 15.366164 1.515362 0.889949
v 15.349127 1.517585 0.858067
v 15.332576 1.515623 0.943215
v 14.988418 1.552950 0.755033
v 14.961645 1.553002 0.751728
v 15.732227 1.542330 1.238513
v 15.707887 1.538589 1.256593
v 15.722978 1.536785 1.229182
v 15.864146 1.546437 1.217712
v 15.887511 1.489675 1.274089
v 15.488347 1.478611 1.391897
v 15.482506 1.489492 1.364486
v 15.465468 1.469586 1.374595
v 15.495649 1.453970 1.377123
v 15.478611 1.454232 1.347768
v 15.498083 1.480023 1.378095
v 15.503438 1.480860 1.369541
v 15.496623 1.481723 1.383538
v 14.598503 1.512249 0.230729
v 15.491755 1.480598 1.390148
v 14.888627 1.528623 1.190690
v 15.494189 1.476544 1.419308
v 15.461574 1.460667 1.351461
v 15.096972 1.553918 0.531470
v 14.988418 1.550570 1.004063
v 12.538427 1.483580 1.030697
v 15.364217 1.513164 0.967710
v 15.688903 1.535738 1.227432
v 15.689390 1.537282 1.246095
v 15.690363 1.538276 1.260675
v 15.676246 1.537936 1.259898
v 15.703993 1.536052 1.231126
v 15.675760 1.536968 1.247067
v 15.674299 1.534614 1.220239
v 15.771170 1.547274 1.118372
v 15.675760 1.536078 1.236958
v 15.689390 1.536445 1.235208
v 15.887024 1.536445 1.338242
v 15.670892 1.552845 0.825213
v 15.769709 1.545626 1.169111
v 15.807678 1.547326 1.132369
v 15.587165 1.549889 1.075992
v 15.577916 1.547875 1.114290
v 15.901141 1.554179 1.053053
v 15.812546 1.549183 1.077353
v 15.603229 1.547692 1.053053
v 15.898221 1.552845 1.074243
v 15.844674 1.546175 1.211491
v 15.806705 1.545783 1.177082
v 15.786747 1.544161 1.213047
v 15.802811 1.542748 1.231126
v 15.800377 1.541258 1.250177
v 15.898221 1.540107 1.311609
v 15.784800 1.542696 1.235597
v 15.883130 1.540237 1.298389
v 15.872908 1.538642 1.303444
v 15.891406 1.538537 1.324828
v 15.804758 1.544239 1.216935
v 15.839806 1.540865 1.259898
v 15.653854 1.553578 0.650833
v 14.480701 1.488576 1.237347
v 14.379937 1.483633 1.199049
v 14.763524 1.539191 1.308887
v 14.814636 1.539243 1.281671
v 14.849685 1.539662 1.273700
v 14.825832 1.540028 1.285948
v 14.819017 1.475602 1.281088
v 14.819504 1.479500 1.286531
v 15.322840 1.514786 1.278171
v 14.909559 1.539505 1.279143
v 14.948989 1.540368 1.272923
v 14.934872 1.539479 1.276033
v 14.929031 1.540473 1.274283
v 14.803927 1.539583 1.286920
v 14.897876 1.540159 1.278171
v 14.813662 1.540917 1.269812
v 15.316025 1.516565 1.279143
v 15.295093 1.515022 1.294113
v 15.157333 1.531945 0.230729
v 15.170476 1.530795 0.230729
v 14.989392 1.535660 0.230729
v 15.213313 1.519311 0.230729
v 15.186540 1.528702 0.230729
v 15.235706 1.519521 0.230729
v 14.134110 1.554912 0.230729
v 14.207615 1.554755 0.230729
v 15.099406 1.534326 0.230729
v 15.176804 1.521090 0.230729
v 15.137862 1.533018 0.230729
v 14.845790 1.533358 0.328902
v 14.776180 1.531919 0.457986
v 15.068738 1.535686 0.230729
v 14.416932 1.540630 1.267674
v 14.735777 1.549471 0.912305
v 14.397461 1.541074 0.178823
v 15.244468 1.499066 1.115651
v 14.277225 1.535608 1.036529
v 15.280003 1.496738 1.071521
v 14.353650 1.540630 1.067439
v 14.280632 1.537439 1.033613
v 15.274162 1.500295 1.094072
v 14.565889 1.495744 1.283032
v 14.604832 1.499589 1.298778
v 14.459769 1.496031 1.235403
v 14.752328 1.482691 1.301111
v 14.959211 1.480049 1.198855
v 14.926110 1.482429 1.235014
v 14.965053 1.483397 1.200605
v 14.987932 1.480703 1.158030
v 14.862341 1.511333 1.273117
v 14.857473 1.515283 1.273506
v 14.945581 1.512092 1.290224
v 15.054621 1.505919 1.298584
v 15.070685 1.503669 1.289447
v 14.933412 1.515597 1.285753
v 15.052187 1.498202 1.260286
v 14.673468 1.509686 1.239874
v 14.759629 1.506023 1.242401
v 14.143846 1.492395 1.137229
v 14.369714 1.492552 1.208186
v 15.247875 1.495220 1.091739
v 15.078961 1.480651 1.126148
v 15.007403 1.507148 1.295279
v 14.978196 1.516382 1.293724
v 14.985498 1.513060 1.299945
v 15.021520 1.504559 1.292752
v 15.000101 1.529984 1.175527
v 14.292315 1.499039 1.185441
v 14.361439 1.499981 1.209158
v 14.454415 1.499720 1.236569
v 13.912623 1.514211 1.283226
v 13.604001 1.519547 1.289058
v 14.474860 1.524909 1.125565
v 13.953513 1.527133 1.247650
v 14.073262 1.524281 1.237347
v 14.100522 1.521352 1.231709
v 13.690648 1.520933 1.276033
v 13.982233 1.524386 1.240263
v 14.441272 1.525668 1.158808
v 14.495792 1.524046 1.097960
v 14.420340 1.527682 1.172222
v 14.407197 1.525014 1.166973
v 14.370201 1.526845 1.183497
v 14.462203 1.525903 1.149866
v 15.171450 1.516225 1.317052
v 15.228404 1.513008 1.236569
v 15.177778 1.513975 1.314525
v 15.191895 1.513374 1.296834
v 14.211022 1.524255 1.216546
v 14.186683 1.527080 1.207020
v 14.261648 1.526792 1.193801
v 14.162344 1.524020 1.226655
v 14.289881 1.527499 1.186802
v 14.055251 1.519599 1.245317
v 14.887167 1.487766 1.257759
v 14.780561 1.539819 1.292752
v 15.251769 1.516408 1.324439
v 15.250796 1.514001 1.325023
v 14.770339 1.539270 1.300139
v 14.932925 1.486144 1.235597
v 14.799546 1.539165 1.287308
v 14.740158 1.538694 1.306943
v 14.972841 1.466447 1.139757
v 14.124861 1.464826 1.136646
v 14.179868 1.467991 1.140340
v 14.988905 1.455435 1.128481
v 15.292659 1.515597 1.294890
v 15.295093 1.512903 1.272923
v 15.285358 1.514525 1.288475
v 14.950449 1.539714 1.273700
v 14.834594 1.489047 1.282643
v 14.969434 1.454938 1.146366
v 14.365820 1.554389 1.002508
v 14.727501 1.531475 0.956629
v 14.308379 1.533986 0.984623
v 15.035150 1.483868 1.168723
v 14.698294 1.505448 1.253871
v 14.392593 1.542042 1.069577
v 14.457336 1.542958 1.069772
v 14.438838 1.541153 1.268063
v 14.903718 1.533907 6.438597
v 14.492871 1.531396 0.230729
v 15.165122 1.507488 1.270201
v 15.113036 1.532704 1.121094
v 15.089670 1.531553 1.142284
v 14.146766 1.484261 1.116817
v 14.075209 1.478087 1.101848
v 14.286961 1.525249 1.197105
v 14.319575 1.525929 1.188163
v 15.077987 1.530219 1.186413
v 15.119364 1.518161 1.310442
v 15.081395 1.521666 1.281088
v 14.156015 1.480285 1.112929
v 15.194816 1.514917 1.298778
v 15.165122 1.515022 1.316858
v 14.042594 1.458260 1.128481
v 14.867696 1.457371 1.243762
v 14.901771 1.457266 1.226655
v 15.254690 1.518553 1.314136
v 12.698580 1.497078 1.276227
v 15.235219 1.518396 1.302861
v 15.239113 1.516382 1.317052
v 14.575624 1.543716 1.255621
v 15.243494 1.515126 1.327939
v 13.991969 1.472751 1.111957
v 15.130073 1.515649 1.312386
v 15.069225 1.518082 1.300528
v 14.839949 1.525851 1.219267
v 14.890088 1.526452 1.232487
v 15.388556 1.506991 1.121094
v 13.868812 1.552270 1.281088
v 13.863457 1.553159 1.276616
v 13.920898 1.552191 1.272728
v 13.938909 1.552584 1.273117
v 13.818186 1.552662 1.284976
v 13.626879 1.550491 1.294890
v 13.967143 1.552741 1.276616
v 15.212340 1.549314 1.088045
v 14.763524 1.539557 1.300528
v 15.270754 1.514001 1.306943
v 15.239113 1.514446 1.325023
v 14.605805 1.542853 1.258926
v 14.731396 1.539139 1.310831
v 14.593149 1.543324 1.269423
v 14.574651 1.542853 1.259703
v 15.249336 1.515179 1.331243
v 14.995720 1.466604 1.111957
v 14.934872 1.456691 1.192440
v 15.283410 1.515336 1.294501
v 15.348640 1.536758 1.348545
v 15.105734 1.538276 1.258731
v 15.324787 1.537517 1.327161
v 14.756222 1.538851 1.305193
v 15.231811 1.549785 1.077353
v 15.182646 1.547509 1.134119
v 14.821938 1.457292 1.262814
v 14.871103 1.472699 1.254649
v 15.281950 1.516042 1.289058
v 15.246902 1.537595 1.308693
v 15.280490 1.512641 1.273700
v 15.236679 1.542696 1.246678
v 15.100866 1.539034 1.270395
v 15.102326 1.539426 1.273700
v 15.096972 1.518239 1.303249
v 12.211794 1.492448 1.267674
v 14.471939 1.539688 1.261453
v 12.832932 1.496031 1.289058
v 12.821250 1.493886 1.278949
v 12.633350 1.494436 1.278171
v 11.909987 1.495639 1.268063
v 15.261505 1.537517 1.306943
v 15.259071 1.536968 1.307138
v 14.432509 1.539819 1.263980
v 13.046631 1.496057 1.274867
v 13.188286 1.495953 1.267868
v 15.181186 1.546541 1.161724
v 15.205038 1.546908 1.163863
v 15.116930 1.539008 1.282837
v 15.301908 1.517376 1.276033
v 15.287305 1.515963 1.291196
v 15.307263 1.513191 1.274283
v 15.280003 1.514708 1.289058
v 15.288765 1.515205 1.297223
v 15.243981 1.537308 1.308887
v 15.243494 1.536680 1.297029
v 15.205038 1.547509 1.143645
v 14.747460 1.539270 1.308887
v 15.270754 1.515780 1.310831
v 15.252256 1.514760 1.328716
v 15.222562 1.517219 1.298389
v 15.223049 1.515623 1.306943
v 15.246415 1.514603 1.330660
v 14.794678 1.539557 1.294501
v 14.794678 1.540002 1.286920
v 15.292173 1.517768 1.273700
v 15.280003 1.542748 1.257759
v 12.854838 1.497627 1.275255
v 14.666166 1.531448 0.978597
v 14.661785 1.515126 1.235403
v 14.719713 1.515022 1.251538
v 15.073606 1.489963 1.202549
v 15.290712 1.514655 1.291780
v 15.176318 1.543455 1.226849
v 15.117903 1.539139 1.284392
v 15.197736 1.546227 1.181359
v 15.205525 1.545940 1.195161
v 15.194329 1.547483 1.139368
v 15.194329 1.543716 1.242207
v 15.205525 1.549236 1.088045
v 15.192868 1.544318 1.225683
v 15.196763 1.546881 1.172416
v 15.203578 1.543742 1.229571
v 15.213313 1.544632 1.226266
v 15.233272 1.545600 1.221600
v 15.235219 1.544867 1.244929
v 15.299961 1.545783 1.245317
v 14.888627 1.550256 1.054025
v 14.902257 1.550491 1.032641
v 14.866235 1.550020 1.053442
v 15.230838 1.544109 1.232487
v 15.309210 1.545757 1.234431
v 15.298501 1.545076 1.234236
v 15.285358 1.545573 1.229571
v 15.297527 1.546332 1.227432
v 14.904205 1.548765 1.089989
v 14.505041 1.542487 1.263591
v 14.494818 1.541101 1.267285
v 14.529867 1.542147 1.262230
v 12.936618 1.504951 1.262230
v 15.370058 1.547431 1.241235
v 14.987932 1.549183 1.076964
v 12.742877 1.503172 1.280504
v 11.373549 1.502492 1.263980
v 12.559359 1.503460 1.272145
v 15.402186 1.546097 1.269229
v 12.640652 1.502361 1.279532
v 14.566862 1.542539 1.260870
v 12.845589 1.503879 1.269812
v 14.537168 1.543402 1.261647
v 12.965338 1.499720 1.267285
v 13.150803 1.491532 1.261453
v 12.828551 1.490067 1.263980
v 14.526459 1.541284 1.267091
v 12.962904 1.503094 1.273311
v 12.999900 1.494671 1.275450
v 14.838975 1.548398 1.120511
v 14.499686 1.540133 1.267868
v 12.589053 1.495874 1.278949
v 14.804414 1.547797 1.141701
v 14.820477 1.547692 1.124010
v 14.889601 1.548608 1.105347
v 14.857960 1.548660 1.098932
v 14.803440 1.548398 1.113318
v 14.888141 1.547378 1.132369
v 14.845304 1.549157 1.091739
v 14.852605 1.547431 1.132175
v 14.884246 1.549602 1.067244
v 14.956777 1.534901 0.230729
v 15.040991 1.488001 1.202743
v 14.587307 1.531161 0.969654
v 15.115956 1.483580 1.128287
v 15.076040 1.485621 1.165029
v 14.731396 1.509999 1.244345
v 14.903231 1.547405 1.126926
v 15.183133 1.488576 1.112151
v 15.183619 1.492369 1.136257
v 14.417419 1.541650 0.495117
v 14.525485 1.531239 0.959545
v 14.449060 1.554336 0.949242
v 14.447113 1.553970 0.984623
v 14.301077 1.554598 1.041389
v 14.733343 1.553473 0.702350
v 14.374582 1.553395 1.052275
v 14.762063 1.554022 0.451182
v 14.292315 1.554127 1.070549
v 15.331115 1.521116 1.142284
v 15.372492 1.550334 1.167362
v 15.343772 1.519939 1.104375
v 15.374926 1.549079 1.215963
v 15.273675 1.520096 1.142478
v 15.365677 1.550230 1.164835
v 12.911792 1.502048 1.273117
v 13.157618 1.502806 1.267091
v 14.937793 1.547588 1.126926
v 14.965053 1.547561 1.121483
v 12.469304 1.498883 1.268451
v 12.474658 1.502937 1.272923
v 15.002535 1.554048 0.378669
v 15.096485 1.554362 0.412301
v 14.832160 1.554572 0.292160
v 14.985498 1.553761 0.404914
v 15.349127 1.550125 1.155698
v 15.344745 1.550073 1.153754
v 15.311157 1.519861 1.130620
v 15.324787 1.550020 1.139562
v 15.364217 1.551642 1.117400
v 15.321867 1.551302 1.092906
v 14.757195 1.554362 0.230729
v 14.524512 1.554389 0.230729
v 14.485082 1.554467 0.102034
v 12.139750 1.504192 1.263591
v 15.066304 1.525301 1.263397
v 14.967973 1.491349 1.241235
v 15.058516 1.521378 1.285948
v 15.050240 1.530402 1.166001
v 15.064357 1.530324 1.174555
v 15.046346 1.528597 1.232876
v 15.059976 1.528650 1.231320
v 14.648155 1.491637 1.306360
v 14.637933 1.487164 1.299361
v 14.948015 1.490120 1.125565
v 14.876458 1.492709 1.199827
v 15.050240 1.524961 1.261453
v 15.273188 1.519495 0.230729
v 15.184593 1.526792 0.230729
v 15.179238 1.522633 0.230729
v 15.183619 1.525171 0.230729
v 14.630631 1.547038 1.008146
v 14.667140 1.547954 0.960517
v 14.470966 1.541414 1.268451
v 14.795651 1.551145 0.832211
v 14.542036 1.545730 0.299742
v 14.500173 1.544239 1.054608
v 14.465611 1.542748 0.230729
v 14.315681 1.539243 1.053247
v 14.855526 1.552296 0.756200
v 15.310670 1.519311 0.230729
v 14.297183 1.554702 0.230729
v 14.368741 1.554572 0.230729
v 14.253372 1.554676 0.230729
v 14.612133 1.554075 0.230729
v 15.129099 1.554938 0.292160
v 14.646695 1.553970 0.220231
v 14.554693 1.554310 0.230729
v 14.956777 1.553368 0.113115
v 15.202604 1.550805 1.030891
v 15.008377 1.549026 1.074826
v 15.295580 1.551250 1.075215
v 15.056568 1.549157 1.061995
v 15.179238 1.550570 1.028558
v 15.301908 1.549916 1.123816
v 15.310670 1.549889 1.132953
v 15.304829 1.551250 1.084546
v 15.315052 1.548477 1.181748
v 15.222076 1.551014 1.030502
v 15.304342 1.548320 1.176499
v 15.182159 1.549340 1.072104
v 15.124232 1.549236 1.062773
v 15.229864 1.547614 1.152976
v 15.329655 1.548555 1.191662
v 15.345719 1.551407 1.109624
v 13.546560 1.550962 1.295668
v 15.358375 1.548895 1.206631
v 15.332089 1.550020 1.145589
v 15.285844 1.520855 1.164640
v 14.647182 1.553604 0.771558
v 15.002535 1.553604 0.612730
v 13.685781 1.552871 1.274089
v 14.484596 1.554336 0.924553
v 13.703305 1.552401 1.285170
v 15.003022 1.553107 0.677661
v 13.497881 1.551197 1.295473
v 13.721803 1.552034 1.291391
v 13.758312 1.550910 1.285170
v 14.483622 1.553865 0.947687
v 14.207615 1.554650 1.082991
v 14.646695 1.553813 0.697684
v 14.196419 1.554153 1.101848
v 13.971037 1.551511 1.266313
v 14.832160 1.554153 0.439129
v 14.002678 1.551616 1.274089
v 14.723607 1.528467 1.133925
v 15.025901 1.531945 1.107486
v 14.790784 1.530428 1.108069
v 15.112549 1.492840 1.198855
v 14.816583 1.529434 1.139757
v 14.996694 1.531422 1.116428
v 13.866378 1.551302 1.271367
v 14.632578 1.519625 1.225683
v 14.383344 1.532599 0.969654
v 14.356571 1.553996 1.034973
v 14.134110 1.554781 1.104375
v 15.151005 1.496084 1.185247
v 15.184593 1.497025 1.163668
v 14.967000 1.542068 1.245706
v 13.405392 1.548948 1.296057
v 13.966656 1.551904 1.268840
v 15.029308 1.511020 1.303444
v 13.834737 1.551851 1.282448
v 13.892178 1.551747 1.271951
v 13.942803 1.551799 1.267091
v 13.955946 1.552191 1.270395
v 13.870759 1.552845 1.284004
v 13.579661 1.548425 1.277783
v 13.903374 1.552662 1.278949
v 13.980773 1.552401 1.275450
v 13.737380 1.548242 1.255426
v 13.932094 1.553107 1.277005
v 13.805530 1.553107 1.275450
v 13.771942 1.552401 1.287697
v 12.614852 1.553028 1.241624
v 13.901913 1.550151 1.255621
v 12.577370 1.552401 1.239291
v 15.206498 1.512772 1.272923
v 12.969232 1.553578 1.234042
v 15.203091 1.514629 1.286920
v 15.201631 1.512589 1.282060
v 12.485854 1.553578 1.235792
v 14.765471 1.522686 1.229182
v 14.684178 1.519338 1.230543
v 14.993286 1.533803 1.034196
v 14.765958 1.527237 1.166001
v 15.047320 1.533803 1.056941
v 15.214774 1.498202 1.139368
v 15.055108 1.533096 1.086101
v 14.710464 1.502021 1.228016
v 14.739671 1.518998 1.247650
v 14.757682 1.502231 1.241235
v 14.923676 1.532442 1.060051
v 14.833134 1.528571 1.165223
v 14.877918 1.529565 1.150838
v 14.861367 1.531501 1.088240
v 15.150031 1.486850 1.128092
v 15.150518 1.490381 1.153365
v 15.114496 1.488053 1.162113
v 15.252256 1.490983 1.066661
v 15.289252 1.492736 1.044888
v 14.368741 1.541179 1.067828
v 15.321867 1.494723 1.034196
v 15.358862 1.501995 1.072688
v 15.409488 1.494593 1.026031
v 13.918464 1.550910 1.260675
v 13.840578 1.550831 1.270395
v 13.764640 1.517297 1.283420
v 13.486685 1.521509 1.285948
v 13.710120 1.518265 1.284976
v 14.456849 1.529251 1.148116
v 13.545100 1.520515 1.289058
v 13.485225 1.518291 1.298001
v 13.082167 1.520829 1.291974
v 13.499828 1.509869 1.303249
v 13.239398 1.505370 1.337076
v 13.327506 1.520332 1.296057
v 15.210879 1.514237 1.272923
v 13.976878 1.551119 1.264369
v 15.238139 1.512014 1.209158
v 15.241060 1.509267 1.174360
v 15.250309 1.511360 1.185441
v 15.268807 1.510052 1.159975
v 13.363529 1.522346 1.289252
v 14.454415 1.528205 1.159586
v 15.218668 1.511360 1.235792
v 15.228404 1.510418 1.203715
v 13.523681 1.504951 1.333188
v 13.143501 1.503329 1.353989
v 15.141756 1.520227 1.298389
v 15.226457 1.505840 1.167751
v 15.239600 1.503748 1.154726
v 15.132020 1.518814 1.316080
v 15.098919 1.528650 1.235597
v 15.084802 1.528702 1.234820
v 15.021033 1.533227 1.066856
v 14.715819 1.523549 1.191468
v 15.016165 1.534117 1.031474
v 13.929660 1.551354 1.263980
v 14.995720 1.532730 1.074437
v 14.013387 1.551223 1.274089
