# Bind-pose horns_spikes using bbox entry 119
# bbox_min = (-7.9752, 1.1535, -2.7553)
# bbox_dim = (15.9505, 0.8571, 6.37)
v -0.471402 1.536785 0.896947
v -0.474809 1.537282 0.920470
v -0.473836 1.537020 0.912305
v -0.475296 1.536915 0.894226
v -0.475296 1.537229 0.917165
v -0.474809 1.536680 0.880229
v -0.471402 1.536314 0.840571
v -0.471889 1.537229 0.894226
v -0.472862 1.537125 0.913860
v -0.474809 1.536942 0.889366
v -0.473349 1.536680 0.870897
v -0.469941 1.537098 0.880229
v -0.474322 1.536445 0.861955
v -0.471402 1.536785 0.896947
v -0.468968 1.536445 0.871675
v -0.467994 1.536680 0.889949
v -0.467994 1.537046 0.861955
v -0.470428 1.536942 0.898891
v -0.475296 1.537229 0.917165
v -0.474322 1.537334 0.908612
v -0.476270 1.537151 0.908612
v -0.476270 1.537360 0.912305
v -0.474809 1.537282 0.920470
v -0.475783 1.537151 0.904335
v -0.474809 1.536942 0.889366
v -0.475296 1.536915 0.894226
v -0.474809 1.536680 0.880229
v -0.471402 1.536314 0.840571
v -0.473836 1.537020 0.912305
v -0.472862 1.537125 0.913860
v -0.471889 1.537229 0.894226
v -0.473349 1.536680 0.870897
v -0.469941 1.537098 0.880229
v -0.474322 1.536445 0.861955
v -0.482111 1.535346 1.008535
v -0.467994 1.536680 0.889949
v -0.483085 1.535163 1.005813
v -0.467994 1.537046 0.861955
v -0.471402 1.536785 0.896947
v -0.481624 1.535581 1.008729
v -0.484545 1.535294 1.008535
v -0.470428 1.536942 0.898891
v -0.468968 1.536445 0.871675
v -0.484058 1.535320 1.013784
v -0.482598 1.535581 1.000953
v -0.482598 1.535372 1.005035
v -0.485519 1.535503 1.008729
v -0.483085 1.536314 0.971015
v -0.483571 1.535346 1.017866
v -0.484058 1.535581 1.020588
v -0.481137 1.535869 0.999398
v -0.485032 1.535529 1.015728
v -0.486979 1.535791 0.999398
v -0.482598 1.535948 0.990066
v -0.480164 1.536078 0.988317
v -0.485032 1.536366 0.994926
v -0.401791 1.533201 1.064134
v -0.484545 1.535948 1.017088
v -0.402765 1.533149 1.063162
v -0.486005 1.535869 1.017088
v -0.487952 1.535974 0.988317
v -0.404225 1.533070 1.064134
v -0.402765 1.533018 1.065884
v -0.486492 1.536183 1.009701
v -0.403252 1.533123 1.071132
v -0.406172 1.533306 1.063162
v -0.402278 1.533463 1.058691
v -0.404225 1.533096 1.067633
v -0.403252 1.533776 1.046832
v -0.406172 1.534090 1.032057
v -0.404712 1.533384 1.069383
v -0.406172 1.533227 1.058691
v -0.403252 1.533436 1.056747
v -0.404712 1.533750 1.047221
v -0.408606 1.533410 1.046832
v -0.402765 1.534012 1.040028
v -0.406659 1.533672 1.057913
v -0.408120 1.534064 1.040611
v -0.409580 1.533829 1.047026
v -0.410067 1.533593 1.040028
v -0.408120 1.533620 1.056941
v -0.471889 1.540080 1.119344
v -0.474322 1.539871 1.128676
v -0.472862 1.539871 1.124593
v -0.473836 1.539714 1.127315
v -0.473349 1.539897 1.122649
v -0.474809 1.539871 1.124593
v -0.472862 1.540133 1.115262
v -0.475783 1.540107 1.119344
v -0.473836 1.539897 1.128870
v -0.471402 1.540682 1.090767
v -0.470915 1.540290 1.110985
v -0.473836 1.540159 1.124982
v -0.474809 1.540107 1.126537
v -0.476756 1.540316 1.110985
v -0.472375 1.540394 1.104764
v -0.469455 1.540394 1.103792
v -0.474322 1.536445 0.861955
v -0.414448 1.535241 0.767475
v -0.414448 1.535032 0.754644
v -0.468968 1.536445 0.871675
v -0.414935 1.535032 0.759310
v -0.467994 1.537046 0.861955
v -0.470428 1.536942 0.898891
v -0.412987 1.534797 0.729178
v -0.410554 1.535032 0.739481
v -0.413961 1.534770 0.739481
v -0.411527 1.534954 0.774668
v -0.412987 1.535189 0.759310
v -0.413474 1.535137 0.782833
v -0.467994 1.536680 0.889949
v -0.413474 1.534483 0.698073
v -0.412014 1.534875 0.768641
v -0.410067 1.534143 0.653944
v -0.413474 1.535084 0.782444
v -0.471402 1.536785 0.896947
v -0.406172 1.534875 0.658026
v -0.413474 1.534273 0.658026
v -0.412014 1.534483 0.690103
v -0.410554 1.534587 0.744730
v -0.407146 1.534509 0.731122
v -0.408606 1.534927 0.698073
v -0.401791 1.532155 0.829490
v -0.408120 1.534300 0.716736
v -0.403252 1.532338 0.824630
v -0.404225 1.532207 0.839404
v -0.409580 1.534718 0.757366
v -0.404225 1.532129 0.832017
v -0.407146 1.534509 0.735593
v -0.404712 1.532495 0.809077
v -0.405686 1.532416 0.789831
v -0.403739 1.532312 0.814909
v -0.406172 1.532233 0.836294
v -0.406172 1.532129 0.829101
v -0.410067 1.532599 0.736954
v -0.406172 1.532050 0.809077
v -0.404225 1.532076 0.824630
v -0.406659 1.532652 0.792747
v -0.407633 1.532756 0.768253
v -0.407633 1.532521 0.765142
v -0.482598 1.540656 5.288703
v -0.482111 1.540551 -0.299214
v -0.483085 1.540577 5.844113
v -0.409093 1.532312 0.818992
v -0.411527 1.532181 0.813937
v -0.408120 1.531998 0.792747
v -0.484545 1.540734 6.428876
v -0.485032 1.540656 6.230391
v -0.484058 1.540761 6.131634
v -0.483085 1.540551 -0.231561
v -0.409093 1.531919 0.768253
v -0.483085 1.540630 6.206091
v -0.412014 1.532442 0.768836
v -0.485032 1.540473 6.131634
v -0.485032 1.540551 -0.229617
v -0.483085 1.540499 5.288703
v -0.491360 1.540839 6.318650
v -0.408606 1.532129 0.830267
v -0.485519 1.540865 6.386885
v -0.487466 1.540734 6.426932
v -0.488926 1.541022 6.653023
v -0.487466 1.540577 -0.123862
v -0.486492 1.541022 6.423628
v -0.486492 1.540839 6.552906
v -0.445115 1.536732 6.652051
v -0.490386 1.540604 0.062765
v -0.445115 1.537020 6.577011
v -0.446089 1.536994 6.501778
v -0.486492 1.540394 6.386885
v -0.446576 1.536968 6.617058
v -0.487952 1.540316 6.423628
v -0.445602 1.537334 6.416240
v -0.442681 1.537282 6.546879
v -0.443655 1.536994 6.617058
v -0.447062 1.537308 6.410019
v -0.447549 1.537282 6.546879
v -0.445115 1.538328 -0.163715
v -0.443655 1.537308 6.675574
v -0.444142 1.536994 6.674602
v -0.445602 1.537726 5.557757
v -0.441221 1.537569 6.438013
v -0.441708 1.538223 6.729618
v -0.440247 1.537831 6.446373
v -0.447549 1.537674 0.077928
v -0.414935 1.531318 -0.175185
v -0.442681 1.537700 6.673435
v -0.448523 1.538040 0.278163
v -0.413961 1.531318 -0.430436
v -0.413961 1.531396 0.081622
v -0.449010 1.537569 6.438013
v -0.413961 1.531475 -0.381057
v -0.450957 1.537779 6.446373
v -0.407633 1.531318 6.019270
v -0.410554 1.531318 6.049402
v -0.413961 1.531187 -0.381057
v -0.411527 1.531135 6.489336
v -0.412987 1.531056 -0.361617
v -0.412014 1.530978 -0.456680
v -0.408606 1.531030 6.642525
v -0.413961 1.531265 5.925373
v -0.409093 1.531527 0.161716
v -0.411527 1.531658 -0.456680
v -0.412987 1.531579 -0.361617
v -0.431972 1.532835 6.504110
v -0.430999 1.532992 6.275493
v -0.431972 1.533096 6.615114
v -0.433432 1.532913 6.558349
v -0.432459 1.532913 6.639026
v -0.434406 1.532861 6.504110
v -0.431485 1.533280 6.639026
v -0.411040 1.531475 0.122252
v -0.433432 1.533123 6.432181
v -0.433432 1.532756 6.611810
v -0.434406 1.533096 -0.752756
v -0.430025 1.533070 -1.348406
v -0.433919 1.532887 6.429460
v -0.435866 1.533123 -1.348406
v -0.435380 1.533018 6.275493
v -0.426617 1.531919 6.303098
v -0.435380 1.533410 -0.017524
v -0.433432 1.533436 6.338090
v -0.426131 1.531736 6.405354
v -0.427104 1.531762 6.519857
v -0.427591 1.531789 6.324093
v -0.427591 1.531475 6.626195
v -0.427104 1.531632 6.586148
v -0.428078 1.531684 6.397189
v -0.425157 1.531684 -0.581487
v -0.425644 1.531789 -1.199494
v -0.424184 1.531736 6.397189
v -0.428565 1.531553 6.416435
v -0.425157 1.531815 6.324093
v -0.428078 1.531239 6.635916
v -0.426131 1.531632 6.417795
v -0.429051 1.531475 6.364918
v -0.424184 1.531370 -0.234089
v -0.426131 1.531475 6.410603
v -0.424670 1.531527 -0.489340
v -0.422723 1.531527 6.364918
v -0.492820 1.541650 -0.134166
v -0.423210 1.531605 6.416435
v -0.426131 1.531239 6.390773
v -0.491847 1.541624 -0.113170
v -0.491847 1.541571 -0.631837
v -0.492334 1.541545 0.032826
v -0.485519 1.541493 5.887853
v -0.490873 1.541781 -0.095091
v -0.490386 1.541702 0.101451
v -0.491847 1.541676 0.068208
v -0.491847 1.541702 0.032826
v -0.490386 1.541598 -0.215426
v -0.486492 1.541728 0.235783
v -0.489413 1.541310 5.901073
v -0.489900 1.541859 -0.228062
v -0.489413 1.541441 6.279381
v -0.488439 1.541571 -0.472232
v -0.487466 1.541362 6.473200
v -0.491360 1.541441 -0.095091
v -0.488926 1.541728 0.144997
v -0.488926 1.541938 5.901073
v -0.430512 1.535503 6.278020
v -0.490386 1.541362 -0.228062
v -0.490873 1.541519 5.991859
v -0.431485 1.535686 6.213672
v -0.432459 1.535555 6.332064
v -0.431485 1.535608 6.477477
v -0.434893 1.535372 6.118998
v -0.432459 1.535451 -0.362978
v -0.432459 1.535398 6.213672
v -0.435380 1.535477 -0.029966
v -0.434893 1.535660 6.361030
v -0.442681 1.535921 6.120553
v -0.436840 1.535974 6.638248
v -0.433432 1.535895 6.118998
v -0.435380 1.536131 -0.742064
v -0.433919 1.535791 6.570985
v -0.436840 1.536392 0.080844
v -0.442681 1.535634 0.240838
v -0.438300 1.535764 6.319428
v -0.438300 1.535529 0.183683
v -0.440734 1.535398 0.080844
v -0.432459 1.536418 7.404585
v -0.438300 1.535372 -0.742064
v -0.440734 1.536183 6.658661
v -0.441708 1.529120 7.213098
v -0.440247 1.529251 7.210182
v -0.440247 1.529147 7.209987
v -0.438787 1.528859 7.204350
v -0.440247 1.529016 7.220874
v -0.440734 1.528964 7.210182
v -0.438300 1.528937 7.216986
v -0.440247 1.529094 7.221457
v -0.438300 1.529068 7.216597
v -0.435866 1.529199 7.168580
v -0.438787 1.529173 7.201822
v -0.434893 1.529487 7.152250
v -0.438300 1.529304 7.204350
v -0.436840 1.528754 7.181410
v -0.435380 1.528623 7.152250
v -0.433432 1.529251 7.117257
v -0.433432 1.528807 7.184715
v -0.431972 1.529016 7.138058
v -0.435866 1.529042 7.201239
v -0.436353 1.528885 7.208627
v -0.436353 1.529382 7.181410
v -0.435380 1.530428 7.376007
v -0.435866 1.530611 7.375230
v -0.436353 1.530585 7.378729
v -0.434893 1.530559 7.383978
v -0.434893 1.530847 7.390782
v -0.435866 1.531553 7.341209
v -0.434406 1.530559 7.378729
v -0.435380 1.530585 7.388060
v -0.436840 1.530821 7.378923
v -0.435866 1.531187 7.360261
v -0.433432 1.530768 7.378923
v -0.438300 1.531318 7.358511
v -0.433919 1.530795 7.385922
v -0.431972 1.531030 7.369592
v -0.437327 1.531135 7.369592
v -0.435866 1.530847 7.371147
v -0.430999 1.531239 7.358511
v -0.432946 1.531135 7.387283
v -0.433919 1.531632 7.365121
v -0.417855 1.534614 7.433356
v -0.416395 1.534980 7.428885
v -0.418342 1.534927 7.439577
v -0.416882 1.534535 7.436078
v -0.418342 1.534587 7.434328
v -0.415908 1.534692 7.434328
v -0.434406 1.531213 7.387283
v -0.419802 1.534823 7.426941
v -0.432459 1.531448 7.379895
v -0.420289 1.534770 7.428885
v -0.421263 1.535137 7.417415
v -0.416882 1.535006 7.433356
v -0.417369 1.534666 7.441327
v -0.424184 1.535111 7.410222
v -0.422236 1.535006 7.417026
v -0.416395 1.535294 7.417026
v -0.422723 1.535451 7.402252
v -0.416395 1.534692 7.437828
v -0.416395 1.535529 7.410222
v -0.421263 1.535634 7.410806
v -0.418342 1.535346 7.427135
v -0.491847 1.543141 7.489539
v -0.488926 1.543376 7.494788
v -0.489900 1.543533 7.497509
v -0.490873 1.543141 7.496732
v -0.489413 1.543350 7.492844
v -0.490873 1.543376 7.494788
v -0.488439 1.543115 7.485456
v -0.418829 1.535608 7.417221
v -0.487466 1.543167 7.489539
v -0.419802 1.535267 7.428107
v -0.487952 1.542853 7.474958
v -0.489900 1.543089 7.495176
v -0.490386 1.543376 7.498870
v -0.485519 1.542879 7.473986
v -0.486492 1.542958 7.481179
v -0.492334 1.542932 7.481179
v -0.487466 1.542565 7.460961
v -0.489900 1.543350 7.499064
v -0.493307 1.542801 7.473986
v -0.489900 1.542408 7.469126
v -0.491360 1.542827 7.486623
v -0.476756 1.535346 7.522587
v -0.489900 1.542801 7.486234
v -0.492334 1.542539 7.477291
v -0.477730 1.535398 7.528030
v -0.478704 1.535241 7.521226
v -0.477243 1.535372 7.524531
v -0.479190 1.535424 7.522587
v -0.476270 1.535555 7.525309
v -0.478704 1.535424 7.521810
v -0.475783 1.535503 7.521615
v -0.477243 1.535608 7.529586
v -0.477243 1.536131 7.507229
v -0.479190 1.535634 7.521615
v -0.477730 1.535869 7.516561
v -0.479677 1.536000 7.507424
v -0.474322 1.535634 7.515200
v -0.479190 1.535843 7.515200
v -0.478217 1.535634 7.519866
v -0.472862 1.535712 7.507424
v -0.474809 1.535738 7.523365
v -0.474809 1.536183 7.515783
v -0.490386 1.536549 7.512867
v -0.473836 1.535974 7.521032
v -0.476270 1.535817 7.526670
v -0.490873 1.536549 7.516950
v -0.490386 1.536418 7.515394
v -0.490386 1.536549 7.514422
v -0.491360 1.536497 7.512867
v -0.492820 1.536601 7.505285
v -0.491360 1.536523 7.512089
v -0.491847 1.536628 7.507424
v -0.489900 1.536654 7.509368
v -0.489900 1.536706 7.505285
v -0.492334 1.536575 7.509368
v -0.490386 1.536706 7.510729
v -0.490386 1.536889 7.504313
v -0.491847 1.536863 7.501980
v -0.491360 1.536680 7.511701
v -0.492334 1.536785 7.500231
v -0.419316 1.533096 7.443854
v -0.416882 1.533175 7.435884
v -0.416882 1.533123 7.434134
v -0.433432 1.536523 0.935828
v -0.435380 1.536654 0.962461
v -0.437814 1.536575 0.987928
v -0.435380 1.536837 0.977819
v -0.467021 1.536968 0.760865
v -0.466534 1.536968 0.762809
v -0.466047 1.537229 0.751728
v -0.437814 1.536497 0.990066
v -0.440734 1.536706 1.000564
v -0.440247 1.536549 1.002897
v -0.440247 1.536680 1.006979
v -0.432459 1.536732 0.928441
v -0.436353 1.536968 0.975681
v -0.433919 1.537125 0.949242
v -0.439761 1.536628 1.012812
v -0.439274 1.536837 0.990066
v -0.435380 1.536523 0.964988
v -0.436353 1.537255 0.935828
v -0.431485 1.536994 0.927857
v -0.438300 1.536706 1.003675
v -0.438787 1.536811 0.996287
v -0.437814 1.537046 0.964988
v -0.414448 1.532756 7.430829
v -0.410554 1.533253 7.406723
v -0.416882 1.532992 7.444826
v -0.413961 1.532887 7.432967
v -0.413474 1.533070 7.422081
v -0.413474 1.533201 7.420331
v -0.410067 1.532730 7.412166
v -0.417369 1.532861 7.435884
v -0.413474 1.532416 7.406723
v -0.417369 1.532913 7.438800
v -0.440734 1.530873 7.483901
v -0.412014 1.532626 7.420526
v -0.410554 1.533044 7.405168
v -0.438787 1.530768 7.481957
v -0.438300 1.530768 7.483901
v -0.439761 1.530768 7.487400
v -0.438300 1.531108 7.491288
v -0.415421 1.532626 7.420331
v -0.440734 1.530795 7.489344
v -0.438300 1.530454 7.469710
v -0.440247 1.530167 7.452991
v -0.423210 1.533332 7.474570
v -0.442195 1.530088 7.453963
v -0.444142 1.530585 7.461156
v -0.442195 1.530533 7.478263
v -0.438300 1.530298 7.461156
v -0.440734 1.530454 7.473986
v -0.423697 1.533149 7.470682
v -0.439274 1.530454 7.466794
v -0.423697 1.533070 7.474570
v -0.443168 1.530664 7.469710
v -0.423697 1.533253 7.476319
v -0.426131 1.533201 7.457851
v -0.443655 1.530271 7.464655
v -0.429051 1.533253 7.441910
v -0.425644 1.533070 7.463489
v -0.423697 1.533332 7.475736
v -0.427104 1.533044 7.455518
v -0.421263 1.533149 7.482735
v -0.424184 1.533489 7.463489
v -0.425644 1.533436 7.467377
v -0.425157 1.533620 7.455518
v -0.419316 1.532312 7.438994
v -0.427104 1.533567 7.458045
v -0.428078 1.533463 7.452213
v -0.419802 1.532129 7.442688
v -0.426131 1.533358 7.464072
v -0.419316 1.532181 7.446187
v -0.416882 1.532338 7.428885
v -0.421750 1.532259 7.448909
v -0.414935 1.532416 7.415471
v -0.419802 1.532364 7.442688
v -0.416882 1.532626 7.425386
v -0.417855 1.532024 7.434134
v -0.419316 1.532233 7.444632
v -0.413474 1.532181 7.418193
v -0.417369 1.532076 7.438605
v -0.415421 1.532024 7.430829
v -0.416395 1.531893 7.425386
v -0.417855 1.532442 7.434134
v -0.416395 1.532207 7.434328
v -0.430512 1.536366 7.396809
v -0.430512 1.536392 7.398364
v -0.423210 1.535974 7.306606
v -0.429538 1.536026 7.390976
v -0.429051 1.536157 7.384756
v -0.430512 1.536000 7.379895
v -0.428078 1.536261 7.371342
v -0.431972 1.536209 7.398364
v -0.429538 1.535764 7.354623
v -0.428565 1.535555 7.331489
v -0.425644 1.536131 7.337904
v -0.427591 1.535817 7.369203
v -0.426131 1.536314 7.354623
v -0.430999 1.536314 7.400308
v -0.431485 1.536235 7.400308
v -0.425157 1.535608 7.341793
v -0.422723 1.535660 7.310688
v -0.424184 1.536314 7.331489
v -0.426131 1.535974 7.354429
v -0.428078 1.536340 7.379895
v -0.478704 1.539740 7.310882
v -0.480651 1.539767 7.323130
v -0.479190 1.539688 7.311660
v -0.464587 1.538511 7.441716
v -0.464100 1.538249 7.441910
v -0.463126 1.538276 7.436078
v -0.466047 1.538459 7.444632
v -0.464587 1.538223 7.443854
v -0.467994 1.538276 7.433745
v -0.464100 1.538851 7.425386
v -0.467021 1.538354 7.431023
v -0.472375 1.538563 7.420137
v -0.463613 1.538537 7.433745
v -0.464587 1.539086 7.420137
v -0.470428 1.538459 7.425386
v -0.472375 1.538930 7.409056
v -0.467994 1.538799 7.438411
v -0.466047 1.538851 7.438994
v -0.470428 1.539243 7.425191
v -0.467507 1.539217 7.434717
v -0.469455 1.538616 7.423247
v -0.439761 1.534012 7.204155
v -0.440247 1.533907 7.186270
v -0.478704 1.539400 7.317492
v -0.479677 1.539610 7.327601
v -0.481137 1.539557 7.310882
v -0.474809 1.539505 7.286776
v -0.480164 1.539583 7.320408
v -0.476756 1.539610 7.300968
v -0.480164 1.539322 7.300968
v -0.473349 1.539479 7.274335
v -0.479677 1.539348 7.313021
v -0.475296 1.539296 7.270835
v -0.479677 1.539113 7.286776
v -0.472862 1.539034 7.242258
v -0.477243 1.539531 7.294358
v -0.479677 1.538930 7.274335
v -0.473349 1.538642 7.250423
v -0.478217 1.539113 7.303106
v -0.431485 1.530114 7.151472
v -0.433919 1.529931 7.180049
v -0.476756 1.539139 7.296302
v -0.432946 1.530036 7.163719
v -0.477243 1.538877 7.291248
v -0.432459 1.529984 7.172273
v -0.432946 1.529879 7.183937
v -0.430999 1.529853 7.187242
v -0.432459 1.529931 7.192685
v -0.431485 1.529722 7.151472
v -0.430999 1.530010 7.163331
v -0.430512 1.529931 7.187825
v -0.432946 1.529801 7.163719
v -0.426131 1.530167 7.103649
v -0.428565 1.530271 7.111814
v -0.430025 1.530193 7.129310
v -0.428565 1.529565 7.111814
v -0.437327 1.533829 7.026471
v -0.428078 1.529827 7.185104
v -0.430025 1.529644 7.129310
v -0.429051 1.530088 7.138836
v -0.424184 1.529984 7.128533
v -0.436353 1.533855 7.049216
v -0.428078 1.529931 7.176939
v -0.434893 1.533803 7.026471
v -0.436353 1.533724 7.033469
v -0.436840 1.533855 7.022972
v -0.435866 1.533855 7.047272
v -0.426617 1.529748 7.163719
v -0.437814 1.534012 7.014612
v -0.434406 1.533960 7.014612
v -0.436840 1.534038 7.007614
v -0.465560 1.535948 0.664247
v -0.466047 1.536366 0.726262
v -0.467507 1.536366 0.727428
v -0.467994 1.536078 0.670857
v -0.463126 1.536785 0.777390
v -0.464587 1.536732 0.814715
v -0.462153 1.535843 0.701767
v -0.462153 1.536445 0.761060
v -0.461179 1.536575 0.727428
v -0.458745 1.536366 0.670857
v -0.466047 1.536732 0.761060
v -0.464587 1.537020 0.772724
v -0.465560 1.536994 0.801496
v -0.462640 1.536837 0.760477
v -0.467507 1.536706 0.760477
v -0.464100 1.537072 0.760865
v -0.437327 1.534561 6.891361
v -0.438300 1.534221 6.986230
v -0.435866 1.534012 7.043384
v -0.434406 1.534300 7.028415
v -0.434893 1.534038 7.042023
v -0.439274 1.534352 6.944822
v -0.433432 1.534169 6.986230
v -0.435866 1.534326 7.020639
v -0.432459 1.534300 6.944822
v -0.433919 1.534509 7.010336
v -0.435866 1.534666 6.942683
v -0.449496 1.534300 7.282500
v -0.437327 1.534273 6.962707
v -0.449983 1.534509 7.278806
v -0.448036 1.534378 7.278806
v -0.449983 1.534509 7.274529
v -0.449496 1.534770 7.259560
v -0.448523 1.535058 7.241092
v -0.444142 1.534770 7.250423
v -0.449983 1.534770 7.264420
v -0.446089 1.534561 7.264420
v -0.447062 1.534640 7.284055
v -0.450470 1.535241 7.232149
v -0.448523 1.534430 7.290665
v -0.449983 1.535006 7.250423
v -0.449010 1.534483 7.287360
v -0.446576 1.535006 7.267142
v -0.442681 1.534875 7.232149
v -0.448036 1.534718 7.282500
v -0.443655 1.535215 7.260143
v -0.445115 1.535424 7.241869
v -0.445115 1.534927 7.269086
v -0.442681 1.530978 7.137669
v -0.448036 1.535477 7.210765
v -0.443655 1.531135 7.129505
v -0.441221 1.531082 7.129505
v -0.442681 1.531161 7.124839
v -0.440734 1.531370 7.144862
v -0.442195 1.531135 7.152638
v -0.441708 1.531108 7.153027
v -0.441708 1.531396 7.138836
v -0.443655 1.531422 7.109675
v -0.442195 1.532155 7.024138
v -0.436353 1.531658 7.028221
v -0.442681 1.531448 7.099372
v -0.442681 1.531762 7.060297
v -0.439761 1.531318 7.109675
v -0.437814 1.531527 7.068268
v -0.438300 1.531945 7.101316
v -0.444142 1.531684 7.068268
v -0.438300 1.531945 7.105787
v -0.440247 1.532102 7.086930
v -0.440734 1.531736 7.114924
v -0.439761 1.531658 7.127560
v -0.445115 1.531919 7.028221
v -0.438300 1.533855 7.199684
v -0.437814 1.533620 7.185104
v -0.437814 1.533620 7.194824
v -0.436840 1.533175 7.162942
v -0.440734 1.533463 7.199295
v -0.439761 1.533410 7.206488
v -0.441221 1.533515 7.179272
v -0.438300 1.533384 7.160026
v -0.439761 1.533698 7.194824
v -0.444142 1.533306 7.138447
v -0.442681 1.533358 7.162942
v -0.441708 1.533227 7.200462
v -0.436353 1.533018 7.138447
v -0.439761 1.533672 7.202211
v -0.438787 1.532835 7.107148
v -0.439274 1.533620 7.209599
v -0.443168 1.532939 7.184132
v -0.441221 1.532756 7.139030
v -0.438300 1.533123 7.135337
v -0.440734 1.533123 7.189186
v -0.436840 1.533384 7.179272
v -0.479190 1.536758 7.237787
v -0.477730 1.536628 7.232149
v -0.479190 1.536706 7.233510
v -0.481137 1.536863 7.239537
v -0.482598 1.537203 7.233899
v -0.485519 1.537098 7.216403
v -0.478704 1.536811 7.252173
v -0.480651 1.536942 7.241869
v -0.477243 1.537098 7.239537
v -0.485032 1.537491 7.213875
v -0.476756 1.536811 7.233510
v -0.483571 1.537046 7.227872
v -0.477730 1.536837 7.246341
v -0.480651 1.537674 7.244008
v -0.477243 1.537412 7.227872
v -0.478217 1.537072 7.254311
v -0.483571 1.537752 7.237593
v -0.479190 1.537360 7.252367
v -0.481137 1.537334 7.258782
v -0.478217 1.537622 7.216403
v -0.479677 1.537020 7.262865
v -0.437814 1.527551 7.085764
v -0.436353 1.527525 7.067101
v -0.436353 1.527682 7.070212
v -0.434893 1.527237 7.078765
v -0.436353 1.526923 7.058353
v -0.435866 1.527106 7.096650
v -0.436840 1.527342 7.097234
v -0.437814 1.527237 7.070212
v -0.436840 1.527420 7.090624
v -0.433432 1.526740 7.068073
v -0.434893 1.526583 7.035414
v -0.433919 1.526191 7.007614
v -0.431972 1.527289 7.000421
v -0.429051 1.527106 6.906136
v -0.432459 1.527656 7.035414
v -0.434893 1.527682 7.058353
v -0.428565 1.526479 6.981953
v -0.431485 1.526269 7.041246
v -0.432459 1.526923 7.042606
v -0.430025 1.527682 7.007614
v -0.434406 1.527473 7.037552
v -0.465560 1.538171 7.434134
v -0.463613 1.538014 7.436272
v -0.466047 1.538119 7.436078
v -0.438787 1.533907 7.184132
v -0.443168 1.533803 7.191130
v -0.443168 1.533463 7.175384
v -0.443655 1.534038 7.235065
v -0.441221 1.533646 7.187631
v -0.440247 1.534117 7.217569
v -0.442195 1.534666 7.175384
v -0.448523 1.534038 7.225540
v -0.438787 1.534117 7.184132
v -0.446576 1.533672 7.171301
v -0.440734 1.534038 7.220874
v -0.445602 1.534430 7.234093
v -0.461666 1.539139 7.358122
v -0.460692 1.538930 7.377951
v -0.443168 1.534300 7.234093
v -0.440247 1.534457 7.187631
v -0.460206 1.539034 7.367259
v -0.459719 1.539086 7.363177
v -0.457772 1.538825 7.380867
v -0.457285 1.538930 7.375619
v -0.461666 1.538930 7.363177
v -0.460206 1.538956 7.381062
v -0.451930 1.538354 7.360455
v -0.458745 1.538720 7.398558
v -0.453391 1.538066 7.393504
v -0.459719 1.538642 7.389616
v -0.454851 1.538589 7.375813
v -0.459232 1.538119 7.358706
v -0.458259 1.538354 7.392143
v -0.452417 1.538746 7.358706
v -0.454851 1.538746 7.368620
v -0.460692 1.538616 7.375619
v -0.456311 1.538040 7.393698
v -0.456311 1.538406 7.400113
v -0.484545 1.537909 7.153027
v -0.485032 1.537988 7.189575
v -0.460206 1.538302 7.368620
v -0.486492 1.537883 7.153027
v -0.485519 1.537805 7.157499
v -0.488439 1.538092 7.160803
v -0.487952 1.538171 7.144279
v -0.486492 1.537962 7.153416
v -0.486005 1.537988 7.184715
v -0.486492 1.538223 7.187631
v -0.484058 1.538223 7.160803
v -0.485519 1.538223 7.199101
v -0.491360 1.538851 7.070212
v -0.489413 1.538459 7.115119
v -0.485519 1.538563 7.188992
v -0.489413 1.539113 7.115702
v -0.492334 1.538511 7.097817
v -0.490386 1.538328 7.138641
v -0.483085 1.538825 7.097817
v -0.486005 1.538956 7.165275
v -0.487466 1.538589 7.169552
v -0.463126 1.533253 7.385144
v -0.464100 1.533280 7.397586
v -0.483571 1.538537 7.138641
v -0.465074 1.533096 7.386505
v -0.465560 1.533306 7.382812
v -0.466534 1.533593 7.375035
v -0.465560 1.533620 7.366093
v -0.466047 1.533306 7.385144
v -0.464587 1.533332 7.396420
v -0.466047 1.534012 7.336932
v -0.468481 1.534195 7.325074
v -0.460206 1.533776 7.351707
v -0.461666 1.533515 7.375035
v -0.467507 1.533907 7.351707
v -0.460206 1.534221 7.346264
v -0.463613 1.533986 7.368231
v -0.465560 1.534430 7.301551
v -0.464100 1.533620 7.390393
v -0.463126 1.533541 7.394864
v -0.461666 1.533881 7.374647
v -0.458259 1.534012 7.325074
v -0.445115 1.531579 7.448131
v -0.445602 1.531475 7.449103
v -0.463126 1.534509 7.321963
v -0.446089 1.531658 7.450075
v -0.448036 1.531265 7.458823
v -0.449496 1.531318 7.445604
v -0.447062 1.531239 7.460573
v -0.447549 1.531605 7.448131
v -0.445602 1.531213 7.447936
v -0.446089 1.530821 7.441716
v -0.450470 1.531135 7.444632
v -0.444629 1.531187 7.445604
v -0.446576 1.531475 7.457073
v -0.447062 1.531553 7.454157
v -0.444142 1.530978 7.444632
v -0.446089 1.530533 7.431801
v -0.449496 1.530951 7.454741
v -0.448523 1.530481 7.445215
v -0.443655 1.530768 7.436856
v -0.451930 1.530978 7.436856
v -0.448036 1.530873 7.456879
v -0.450470 1.530690 7.450658
v -0.449983 1.531527 7.420526
v -0.452417 1.531082 7.433745
v -0.450957 1.531265 7.430246
v -0.454851 1.531501 7.420526
v -0.453877 1.531553 7.418387
v -0.453391 1.531292 7.429468
v -0.452417 1.531318 7.436856
v -0.453877 1.531265 7.430246
v -0.450957 1.531527 7.426747
v -0.452417 1.531553 7.428302
v -0.454364 1.531841 7.401863
v -0.449010 1.531815 7.403807
v -0.451444 1.531292 7.434911
v -0.455825 1.531762 7.403807
v -0.455338 1.532181 7.365898
v -0.452417 1.532338 7.375035
v -0.450470 1.531867 7.410417
v -0.456798 1.531998 7.379701
v -0.448036 1.532024 7.379701
v -0.461179 1.536758 7.306217
v -0.459719 1.536575 7.304662
v -0.457772 1.537020 7.297274
v -0.449983 1.532233 7.379507
v -0.459232 1.536785 7.316326
v -0.462153 1.536994 7.297274
v -0.461666 1.537046 7.291053
v -0.458745 1.536758 7.306217
v -0.460692 1.536785 7.302718
v -0.452417 1.531893 7.411778
v -0.458745 1.537046 7.312438
v -0.460206 1.537046 7.305828
v -0.462153 1.537334 7.262282
v -0.457285 1.537334 7.274529
v -0.460206 1.536785 7.310494
v -0.463613 1.537255 7.274529
v -0.463126 1.537726 7.225151
v -0.461179 1.537936 7.240509
v -0.458745 1.537412 7.292803
v -0.465074 1.537491 7.246535
v -0.455825 1.537595 7.246535
v -0.436353 1.537491 7.373091
v -0.458259 1.537805 7.265975
v -0.436840 1.537517 7.370759
v -0.460692 1.537412 7.282500
v -0.437327 1.537386 7.379507
v -0.433919 1.537334 7.360261
v -0.435866 1.537360 7.377174
v -0.434893 1.537674 7.360261
v -0.434406 1.537622 7.358122
v -0.435866 1.537308 7.370759
v -0.435866 1.537439 7.383006
v -0.433919 1.537386 7.366482
v -0.433919 1.537517 7.373869
v -0.431972 1.537752 7.332656
v -0.431485 1.537308 7.335183
v -0.431485 1.538014 7.306022
v -0.432946 1.537831 7.335183
v -0.429538 1.537909 7.298635
v -0.430999 1.537439 7.345875
v -0.427104 1.537779 7.298052
v -0.429538 1.537229 7.306022
v -0.403252 1.531501 0.673384
v -0.402765 1.531972 0.690880
v -0.400818 1.532024 0.655305
v -0.402765 1.531187 0.655305
v -0.399357 1.531815 0.683882
v -0.398871 1.531579 0.653555
v -0.402278 1.531815 0.727428
v -0.400818 1.531370 0.610009
v -0.405199 1.531710 0.733455
v -0.404225 1.531370 0.690880
v -0.407146 1.531762 0.736371
v -0.405686 1.531605 0.702933
v -0.405199 1.531919 0.715181
v -0.405199 1.531841 0.743369
v -0.406172 1.531527 0.715181
v -0.409093 1.531815 0.715764
v -0.407633 1.531710 0.713625
v -0.407146 1.531919 0.720818
v -0.407146 1.531841 0.742591
v -0.407633 1.531658 0.720818
v -0.460692 1.536078 0.726067
v -0.463613 1.536366 0.786721
v -0.473349 1.538302 7.142918
v -0.473349 1.538563 7.121923
v -0.472375 1.538354 7.171690
v -0.471402 1.538406 7.133004
v -0.430999 1.537622 7.348013
v -0.428078 1.537543 7.319436
v -0.469941 1.538223 7.131254
v -0.473836 1.538302 7.131060
v -0.471402 1.538459 7.131060
v -0.468968 1.538276 7.130671
v -0.464587 1.537883 7.041051
v -0.471402 1.538092 7.184909
v -0.473349 1.538040 7.130671
v -0.467994 1.537936 7.096456
v -0.472862 1.537726 7.097622
v -0.467021 1.538066 7.097622
v -0.465560 1.537595 7.034442
v -0.472375 1.538040 7.147584
v -0.471402 1.537700 7.131254
v -0.467021 1.537308 7.071961
v -0.472862 1.537412 7.041051
v -0.431485 1.532521 7.083820
v -0.469941 1.537779 7.156915
v -0.430999 1.532547 7.091013
v -0.469941 1.537334 7.096262
v -0.432459 1.532704 7.085958
v -0.433432 1.532286 7.085375
v -0.430025 1.532364 7.085375
v -0.432459 1.532495 7.112786
v -0.433432 1.532521 7.091013
v -0.430512 1.532312 7.073128
v -0.431972 1.532495 7.106565
v -0.431485 1.532286 7.103649
v -0.432459 1.532286 7.113563
v -0.429538 1.532076 7.043578
v -0.433919 1.532050 7.061075
v -0.427104 1.532024 7.025499
v -0.428565 1.532181 7.061075
v -0.428565 1.531789 6.980203
v -0.432459 1.531998 7.097622
v -0.430512 1.531605 7.023749
v -0.434406 1.531815 7.025499
v -0.482598 1.539270 7.322547
v -0.484058 1.539165 7.306022
v -0.482111 1.539296 7.310299
v -0.432946 1.531658 7.054076
v -0.484058 1.539113 7.310299
v -0.484058 1.539505 7.309133
v -0.486492 1.539217 7.295913
v -0.482111 1.539060 7.317298
v -0.430999 1.531998 7.080515
v -0.485519 1.539322 7.290276
v -0.485032 1.539426 7.305439
v -0.483571 1.539217 7.319436
v -0.488439 1.539322 7.274529
v -0.484058 1.539793 7.274529
v -0.483085 1.539557 7.295913
v -0.487952 1.539505 7.261504
v -0.491360 1.539426 7.241481
v -0.490873 1.539714 7.219707
v -0.485519 1.539767 7.287748
v -0.489900 1.540002 7.233704
v -0.484545 1.540107 7.241481
v -0.430512 1.534273 1.034390
v -0.415421 1.524177 0.850679
v -0.417369 1.524229 0.842903
v -0.415421 1.524308 0.839987
v -0.487466 1.540107 7.250423
v -0.486979 1.539662 7.277445
v -0.415908 1.524046 0.851263
v -0.416882 1.523863 0.839987
v -0.416395 1.523941 0.839793
v -0.414935 1.523706 0.831628
v -0.411527 1.522921 0.747063
v -0.413474 1.524255 0.834155
v -0.415908 1.523523 0.834155
v -0.413961 1.522712 0.782055
v -0.412987 1.523340 0.798385
v -0.414448 1.523078 0.811216
v -0.414448 1.523837 0.846403
v -0.413474 1.524072 0.846791
v -0.409580 1.524151 0.782055
v -0.409093 1.523104 0.767864
v -0.411040 1.524177 0.811216
v -0.484058 1.535320 1.013784
v -0.412014 1.523549 0.831045
v -0.484545 1.535294 1.008535
v -0.483085 1.535163 1.005813
v -0.409093 1.523627 0.814521
v -0.411527 1.523863 0.838432
v -0.483571 1.535346 1.017866
v -0.482598 1.535372 1.005035
v -0.482111 1.535346 1.008535
v -0.481624 1.535581 1.008729
v -0.483085 1.536314 0.971015
v -0.485519 1.535503 1.008729
v -0.482598 1.535581 1.000953
v -0.480164 1.536078 0.988317
v -0.482598 1.535948 0.990066
v -0.481137 1.535869 0.999398
v -0.484058 1.535581 1.020588
v -0.485032 1.535529 1.015728
v -0.487952 1.535974 0.988317
v -0.486005 1.535869 1.017088
v -0.486979 1.535791 0.999398
v -0.403252 1.533123 1.071132
v -0.486492 1.536183 1.009701
v -0.404225 1.533070 1.064134
v -0.402765 1.533018 1.065884
v -0.484545 1.535948 1.017088
v -0.485032 1.536366 0.994926
v -0.404225 1.533096 1.067633
v -0.401791 1.533201 1.064134
v -0.402765 1.533149 1.063162
v -0.402278 1.533463 1.058691
v -0.406172 1.534090 1.032057
v -0.406172 1.533227 1.058691
v -0.403252 1.533436 1.056747
v -0.402765 1.534012 1.040028
v -0.404712 1.533750 1.047221
v -0.403252 1.533776 1.046832
v -0.406172 1.533306 1.063162
v -0.404712 1.533384 1.069383
v -0.410067 1.533593 1.040028
v -0.408120 1.534064 1.040611
v -0.408606 1.533410 1.046832
v -0.474322 1.539871 1.128676
v -0.406659 1.533672 1.057913
v -0.474809 1.539871 1.124593
v -0.473836 1.539714 1.127315
v -0.409580 1.533829 1.047026
v -0.408120 1.533620 1.056941
v -0.473836 1.539897 1.128870
v -0.473349 1.539897 1.122649
v -0.472862 1.539871 1.124593
v -0.471889 1.540080 1.119344
v -0.471402 1.540682 1.090767
v -0.475783 1.540107 1.119344
v -0.472862 1.540133 1.115262
v -0.469455 1.540394 1.103792
v -0.472375 1.540394 1.104764
v -0.470915 1.540290 1.110985
v -0.473836 1.540159 1.124982
v -0.474809 1.540107 1.126537
v -0.477730 1.540447 1.103792
v -0.474322 1.540839 1.098932
v -0.476756 1.540316 1.110985
v -0.484058 1.534797 1.157836
v -0.473836 1.540447 1.116039
v -0.483085 1.534718 1.152393
v -0.482598 1.534901 1.151032
v -0.476270 1.540708 1.107097
v -0.475783 1.540420 1.116428
v -0.483571 1.534744 1.154337
v -0.484058 1.534875 1.151615
v -0.484545 1.534901 1.152393
v -0.486005 1.534849 1.151421
v -0.490386 1.534561 1.137035
v -0.484058 1.534561 1.151421
v -0.486005 1.534770 1.149671
v -0.489900 1.534823 1.137229
v -0.487952 1.534666 1.146366
v -0.487952 1.534823 1.145005
v -0.485519 1.534666 1.159391
v -0.484545 1.534587 1.155114
v -0.485519 1.534195 1.137229
v -0.486005 1.534430 1.153170
v -0.485032 1.534378 1.145005
v -0.493794 1.537308 1.145200
v -0.492334 1.537308 1.142673
v -0.493307 1.537439 1.142673
v -0.487952 1.534221 1.150838
v -0.492820 1.537360 1.141895
v -0.491360 1.537334 1.139173
v -0.493307 1.537439 1.144228
v -0.487466 1.534535 1.156475
v -0.490386 1.534273 1.145589
v -0.490386 1.537517 1.130036
v -0.492820 1.537386 1.146755
v -0.491360 1.537412 1.137229
v -0.490873 1.537334 1.135091
v -0.491847 1.537491 1.141506
v -0.492334 1.537543 1.140534
v -0.492820 1.537595 1.135091
v -0.491360 1.537700 1.134119
v -0.493307 1.537543 1.139173
v -0.412014 1.533358 1.073660
v -0.413961 1.533567 1.063939
v -0.490386 1.537622 1.131786
v -0.419316 1.533933 1.034973
v -0.414935 1.533358 1.068605
v -0.416395 1.533855 1.050137
v -0.414935 1.533436 1.074632
v -0.414935 1.533306 1.065689
v -0.413961 1.533620 1.065689
v -0.417855 1.533253 1.050137
v -0.417855 1.534090 1.036529
v -0.416882 1.533750 1.051886
v -0.420776 1.533253 1.036529
v -0.434893 1.532076 1.113707
v -0.421750 1.533724 1.041972
v -0.417855 1.533436 1.060635
v -0.434893 1.532102 1.111763
v -0.437327 1.532024 1.113707
v -0.435380 1.531736 1.121094
v -0.420776 1.533515 1.050331
v -0.417369 1.533567 1.062773
v -0.436840 1.532102 1.119150
v -0.434406 1.532390 1.099515
v -0.435866 1.532102 1.117206
v -0.436840 1.532416 1.103792
v -0.435380 1.532416 1.096599
v -0.437327 1.532809 1.083769
v -0.439274 1.532259 1.099515
v -0.433919 1.532547 1.090961
v -0.435866 1.532704 1.082797
v -0.439274 1.532652 1.094461
v -0.438300 1.532364 1.108069
v -0.440247 1.532364 1.090961
v -0.434893 1.533698 1.112540
v -0.427591 1.533698 1.071716
v -0.432459 1.533672 1.100487
v -0.432459 1.533567 1.104375
v -0.430512 1.533541 1.093294
v -0.430025 1.533672 1.087657
v -0.432459 1.533829 1.105542
v -0.432459 1.533750 1.106125
v -0.432946 1.533829 1.104375
v -0.431485 1.533986 1.093294
v -0.430512 1.534117 1.085324
v -0.429051 1.533489 1.085324
v -0.424184 1.532652 1.072493
v -0.430512 1.533907 1.097182
v -0.428078 1.533907 1.082019
v -0.423697 1.532704 1.068800
v -0.429051 1.534012 1.087851
v -0.424184 1.532913 1.072493
v -0.430025 1.533829 1.093878
v -0.422723 1.532547 1.063939
v -0.426131 1.532809 1.078714
v -0.419802 1.532547 1.045277
v -0.421750 1.532652 1.058691
v -0.421750 1.532364 1.055191
v -0.423697 1.532861 1.075992
v -0.417855 1.532756 1.047998
v -0.420776 1.533096 1.055191
v -0.421750 1.532913 1.068411
v -0.422236 1.532992 1.063939
v -0.423697 1.532783 1.074437
v -0.419316 1.532939 1.060635
v -0.429051 1.534143 1.028169
v -0.421263 1.532756 1.064134
v -0.492334 1.535686 0.935245
v -0.494281 1.535032 0.849513
v -0.491847 1.535948 0.952352
v -0.490386 1.535398 0.917554
v -0.489413 1.535006 0.880229
v -0.492334 1.535346 0.907251
v -0.491847 1.534901 0.863510
v -0.490873 1.536000 0.940105
v -0.492334 1.536157 0.947103
v -0.402278 1.531632 0.710321
v -0.492820 1.535948 0.935828
v -0.490873 1.535686 0.938938
v -0.488926 1.535503 0.904335
v -0.487466 1.535215 0.871286
v -0.493794 1.535974 0.940105
v -0.492334 1.535948 0.949242
v -0.489900 1.535764 0.925719
v -0.493794 1.535398 0.891310
v -0.496715 1.535189 0.871286
v -0.493307 1.535712 0.920081
v -0.494281 1.535712 0.925719
v -0.495254 1.535477 0.904335
v -0.420776 1.533933 0.936411
v -0.428565 1.534326 1.030113
v -0.428565 1.534221 1.030113
v -0.423697 1.533724 0.961295
v -0.427104 1.534012 1.009701
v -0.426617 1.534064 1.001147
v -0.425157 1.533881 0.984429
v -0.429051 1.534169 1.026614
v -0.426131 1.534195 1.014561
v -0.428565 1.534352 1.028169
v -0.423210 1.534352 0.999009
v -0.423697 1.533986 0.967710
v -0.426617 1.534430 1.009701
v -0.418829 1.534117 0.940494
v -0.422236 1.534640 0.961295
v -0.420289 1.534352 0.971598
v -0.424184 1.534509 0.984429
v -0.426131 1.534352 1.020782
v -0.423210 1.534143 0.984234
v -0.458259 1.534901 0.941466
v -0.459232 1.534770 0.952935
v -0.457285 1.535137 0.924164
v -0.460692 1.534927 0.940688
v -0.457772 1.534901 0.940688
v -0.460692 1.535163 0.930773
v -0.459232 1.534927 0.957407
v -0.460206 1.535189 0.942826
v -0.456798 1.535451 0.900641
v -0.459719 1.534954 0.950214
v -0.455338 1.535294 0.916582
v -0.456311 1.535084 0.930773
v -0.453877 1.535398 0.904140
v -0.461179 1.535398 0.916582
v -0.458745 1.535189 0.947298
v -0.460206 1.535451 0.932912
v -0.457285 1.536131 0.880229
v -0.460206 1.535738 0.921053
v -0.462153 1.535555 0.904140
v -0.455825 1.535791 0.872064
v -0.458259 1.535529 0.926108
v -0.427104 1.530324 0.793525
v -0.428078 1.530454 0.809855
v -0.424670 1.530428 0.817631
v -0.425157 1.530638 0.781278
v -0.425157 1.530507 0.817048
v -0.425157 1.530324 0.793136
v -0.425644 1.530245 0.781278
v -0.426617 1.530376 0.802079
v -0.423697 1.530716 0.759116
v -0.423210 1.530245 0.768641
v -0.422236 1.530768 0.741619
v -0.422723 1.530062 0.741619
v -0.427104 1.530559 0.793525
v -0.424184 1.530167 0.759116
v -0.426617 1.530507 0.813743
v -0.422236 1.530507 0.814909
v -0.418342 1.530298 0.758338
v -0.420776 1.530141 0.733455
v -0.420776 1.530559 0.793525
v -0.426617 1.530428 0.822491
v -0.416882 1.530481 0.656277
v -0.422236 1.530402 0.806744
v -0.417855 1.530402 0.663275
v -0.418342 1.530533 0.677078
v -0.415421 1.531213 0.521167
v -0.413961 1.530951 0.574627
v -0.417855 1.530533 0.679022
v -0.415908 1.530638 0.644418
v -0.416882 1.530690 0.637420
v -0.414935 1.530847 0.616035
v -0.417369 1.530533 0.652777
v -0.418829 1.530716 0.671829
v -0.418829 1.530507 0.656277
v -0.418829 1.531004 0.658221
v -0.415908 1.530925 0.592512
v -0.419802 1.530690 0.644418
v -0.416882 1.531344 0.572489
v -0.420776 1.531056 0.574627
v -0.418829 1.531239 0.640141
v -0.420289 1.530899 0.616035
v -0.417855 1.530690 0.673190
v -0.417369 1.531004 0.650444
v -0.476270 1.537151 0.908612
v -0.476270 1.537360 0.912305
v -0.471402 1.536314 0.840571
v -0.475296 1.537229 0.917165
v -0.474809 1.537282 0.920470
v -0.474322 1.536445 0.861955
v -0.475296 1.536915 0.894226
v -0.474809 1.536942 0.889366
v -0.474809 1.536680 0.880229
v -0.475783 1.537151 0.904335
v -0.473836 1.537020 0.912305
v -0.474322 1.537334 0.908612
v -0.470428 1.536942 0.898891
v -0.473349 1.536680 0.870897
v -0.471889 1.537229 0.894226
v -0.468968 1.536445 0.871675
v -0.467994 1.537046 0.861955
v -0.467994 1.536680 0.889949
v -0.469941 1.537098 0.880229
v -0.472862 1.537125 0.913860
v -0.471402 1.536785 0.896947
v -0.414935 1.535032 0.759310
v -0.414448 1.535241 0.767475
v -0.410067 1.534143 0.653944
v -0.413474 1.535084 0.782444
v -0.413474 1.535137 0.782833
v -0.413474 1.534273 0.658026
v -0.413961 1.534770 0.739481
v -0.412987 1.534797 0.729178
v -0.413474 1.534483 0.698073
v -0.414448 1.535032 0.754644
v -0.412014 1.534875 0.768641
v -0.412987 1.535189 0.759310
v -0.408120 1.534300 0.716736
v -0.412014 1.534483 0.690103
v -0.410554 1.535032 0.739481
v -0.407146 1.534509 0.731122
v -0.408606 1.534927 0.698073
v -0.409580 1.534718 0.757366
v -0.406172 1.534875 0.658026
v -0.411527 1.534954 0.774668
v -0.407146 1.534509 0.735593
v -0.401791 1.532155 0.829490
v -0.410554 1.534587 0.744730
v -0.410067 1.532599 0.736954
v -0.404225 1.532129 0.832017
v -0.404225 1.532076 0.824630
v -0.406659 1.532652 0.792747
v -0.404225 1.532207 0.839404
v -0.404712 1.532495 0.809077
v -0.406172 1.532233 0.836294
v -0.403252 1.532338 0.824630
v -0.406172 1.532129 0.829101
v -0.403739 1.532312 0.814909
v -0.412014 1.532442 0.768836
v -0.407633 1.532521 0.765142
v -0.405686 1.532416 0.789831
v -0.409093 1.531919 0.768253
v -0.408120 1.531998 0.792747
v -0.408606 1.532129 0.830267
v -0.407633 1.532756 0.768253
v -0.406172 1.532050 0.809077
v -0.411527 1.532181 0.813937
v -0.456311 1.533332 0.861955
v -0.409093 1.532312 0.818992
v -0.460692 1.532259 0.843681
v -0.455825 1.533149 0.876146
v -0.454851 1.533201 0.863316
v -0.460206 1.532756 0.857678
v -0.456311 1.533123 0.881978
v -0.458745 1.532992 0.869342
v -0.456798 1.532887 0.892671
v -0.457285 1.533227 0.863316
v -0.455338 1.532887 0.884117
v -0.457285 1.533149 0.867593
v -0.458259 1.532076 0.867398
v -0.459232 1.532626 0.863704
v -0.458259 1.532939 0.871675
v -0.453391 1.532364 0.846208
v -0.453391 1.532626 0.857678
v -0.455338 1.532573 0.882173
v -0.462153 1.532626 0.846208
v -0.454364 1.532913 0.869342
v -0.455825 1.532259 0.873813
v -0.417369 1.524883 0.715569
v -0.457285 1.532547 0.888588
v -0.418829 1.525511 0.667358
v -0.418342 1.525171 0.696907
v -0.417369 1.525197 0.700017
v -0.420776 1.524935 0.688159
v -0.418829 1.524831 0.700017
v -0.418829 1.524988 0.727039
v -0.419316 1.526479 0.637420
v -0.418342 1.525066 0.720430
v -0.422236 1.526479 0.535941
v -0.417855 1.525563 0.688159
v -0.420776 1.525955 0.630227
v -0.420289 1.525171 0.726456
v -0.419802 1.525328 0.708571
v -0.425157 1.526374 0.611758
v -0.424670 1.525249 0.637420
v -0.422723 1.525118 0.665219
v -0.422723 1.525458 0.697879
v -0.418829 1.525982 0.665219
v -0.425157 1.525798 0.671051
v -0.438300 1.535084 1.066078
v -0.422236 1.525746 0.672412
v -0.427591 1.534509 1.038862
v -0.436353 1.535137 1.071716
v -0.436353 1.535215 1.065884
v -0.431972 1.534561 1.055191
v -0.436353 1.535058 1.073660
v -0.434893 1.534744 1.063551
v -0.433432 1.535006 1.074437
v -0.436840 1.534901 1.065884
v -0.433432 1.535137 1.071521
v -0.436353 1.534927 1.063939
v -0.430512 1.535137 1.068800
v -0.430999 1.534692 1.053053
v -0.433919 1.534823 1.060829
v -0.428565 1.535372 1.049942
v -0.430999 1.535320 1.055191
v -0.425157 1.534770 1.054997
v -0.430512 1.534378 1.049942
v -0.433919 1.535267 1.063551
v -0.430025 1.534901 1.068216
v -0.443655 1.529774 0.833961
v -0.426617 1.535084 1.064523
v -0.446576 1.529147 0.805189
v -0.444142 1.529670 0.847375
v -0.442681 1.529670 0.813937
v -0.447062 1.529539 0.863899
v -0.444629 1.529748 0.850679
v -0.445115 1.530141 0.817437
v -0.444629 1.529330 0.817437
v -0.442681 1.529853 0.813937
v -0.446576 1.530010 0.820936
v -0.444142 1.529879 0.816076
v -0.452904 1.537229 0.992982
v -0.452417 1.529827 0.855345
v -0.449983 1.530167 0.801107
v -0.451930 1.537412 0.987928
v -0.449983 1.529408 0.863899
v -0.452417 1.537203 0.997065
v -0.447549 1.529774 0.864871
v -0.446576 1.530350 0.805189
v -0.450470 1.537282 0.992982
v -0.451930 1.537177 1.010867
v -0.450957 1.537177 1.007757
v -0.455825 1.536445 0.988511
v -0.449496 1.536968 1.005424
v -0.453877 1.536105 0.990261
v -0.450470 1.536889 1.019421
v -0.452904 1.536889 1.010673
v -0.453877 1.536915 1.005424
v -0.452904 1.536497 1.005619
v -0.454364 1.536601 0.998426
v -0.451444 1.536863 1.028364
v -0.447549 1.536680 0.998426
v -0.463613 1.535137 0.787304
v -0.450470 1.536026 1.023309
v -0.446576 1.536497 0.988511
v -0.465074 1.535215 0.782833
v -0.465560 1.535215 0.783222
v -0.450957 1.536471 1.029919
v -0.448523 1.536209 1.023504
v -0.449496 1.536575 1.021948
v -0.465560 1.535058 0.819381
v -0.465560 1.535111 0.814521
v -0.464587 1.535006 0.782833
v -0.471889 1.534561 0.727622
v -0.467507 1.534980 0.828906
v -0.467021 1.534849 0.790609
v -0.476756 1.535137 0.745508
v -0.467994 1.535111 0.817437
v -0.469941 1.535477 0.768447
v -0.469941 1.534718 0.768447
v -0.467507 1.535346 0.790609
v -0.470915 1.535320 0.744924
v -0.467994 1.535267 0.774085
v -0.474809 1.537674 1.012617
v -0.470428 1.534901 0.818797
v -0.475296 1.535372 0.700017
v -0.474322 1.537465 1.016311
v -0.471402 1.535111 0.799357
v -0.473836 1.537700 1.014950
v -0.474322 1.534823 0.795080
v -0.472375 1.535608 0.727622
v -0.476756 1.537543 1.014950
v -0.475296 1.537674 1.026225
v -0.475783 1.537595 1.027392
v -0.474322 1.538616 0.954879
v -0.478704 1.537726 1.004841
v -0.477730 1.538746 0.931357
v -0.477730 1.537831 1.024670
v -0.475296 1.537988 0.995898
v -0.474322 1.537988 1.004841
v -0.476270 1.538354 0.966738
v -0.474322 1.538302 0.981513
v -0.476756 1.537909 1.020199
v -0.481137 1.537936 0.981513
v -0.446576 1.533280 1.079881
v -0.480651 1.538720 0.951769
v -0.483571 1.538092 0.954879
v -0.447549 1.533201 1.077936
v -0.447062 1.533096 1.078909
v -0.478704 1.538249 0.998037
v -0.482598 1.538354 0.976069
v -0.479677 1.538092 1.004452
v -0.446089 1.533175 1.083963
v -0.446089 1.533096 1.086879
v -0.445115 1.533201 1.077936
v -0.441221 1.532521 1.066661
v -0.445115 1.532835 1.088629
v -0.443168 1.532887 1.075409
v -0.445115 1.532076 1.075020
v -0.446089 1.532835 1.090378
v -0.449496 1.532626 1.074437
v -0.442681 1.532678 1.074437
v -0.448523 1.532835 1.075409
v -0.447549 1.532442 1.071521
v -0.447549 1.532835 1.077742
v -0.453391 1.534954 1.060051
v -0.443655 1.532521 1.084546
v -0.448036 1.532155 1.061607
v -0.451444 1.535058 1.063551
v -0.445602 1.532469 1.086685
v -0.453391 1.534901 1.059274
v -0.443168 1.532259 1.080464
v -0.449983 1.532416 1.066661
v -0.450957 1.534823 1.060051
v -0.452417 1.534849 1.066661
v -0.451444 1.534849 1.064717
v -0.714794 1.472280 -2.755300
v -0.669037 1.530271 -2.755300
v -0.744002 1.484156 -2.755300
v -2.398099 1.505186 -2.755300
v -0.773209 1.469429 -2.755300
v -1.233708 1.506364 -2.755300
v -0.916810 1.481985 -2.755300
v -0.731345 1.532495 -2.755300
v -1.173346 1.449026 -2.755300
v -1.107630 1.477800 -2.755300
v -2.098726 1.449210 -2.755300
v -2.411729 1.451250 -2.755300
v -0.789273 1.421692 -2.755300
v -0.730858 1.531082 -2.755300
v -0.763960 1.458809 -2.755300
v -0.758605 1.427002 -2.755300
v -0.767854 1.528257 -2.755300
v -0.701651 1.529984 -2.755300
v -2.256931 1.521378 -2.755300
v -0.769314 1.489597 -2.755300
v -1.956097 1.524595 -2.755300
v -1.331552 1.516199 -2.755300
v -0.707493 1.488864 -2.755300
v -0.752277 1.499249 -2.755300
v -2.127933 1.481802 -2.755300
v -0.551721 1.530585 -2.755300
v -0.713334 1.495430 -2.755300
v -0.634962 1.533541 -2.755300
v -0.583849 1.532129 -2.755300
v -0.537118 1.535764 -2.755300
v -0.515212 1.534038 -2.755300
v -0.679746 1.537491 -2.755300
v -0.783918 1.548425 -2.755300
v -0.643724 1.538589 -2.755300
v -0.710900 1.554022 -2.755300
v -0.646645 1.554833 -2.755300
v -0.566325 1.543664 -2.755300
v -0.646158 1.542042 -2.755300
v -0.603807 1.554467 -2.755300
v -0.966463 1.474870 -2.755300
v -0.970357 1.483607 -2.755300
v -0.974251 1.494096 -2.755300
v -0.537605 1.552819 -2.755300
v -0.509858 1.548608 -2.755300
v -0.749356 1.520332 -2.755300
v -0.716255 1.525301 -2.755300
v -0.712847 1.519154 -2.755300
v -0.769801 1.514054 -2.755300
v -0.643237 1.509581 -2.755300
v -0.637882 1.493102 -2.755300
v -0.528356 1.514342 -2.755300
v -0.638856 1.526165 -2.755300
v -1.022443 1.453656 -2.755300
v -0.967923 1.518448 -2.755300
v -0.603321 1.508770 -2.755300
v -0.546853 1.520227 -2.755300
v -0.590664 1.525668 -2.755300
v -0.509858 1.537726 -2.755300
v -0.560970 1.538119 -2.755300
v -1.009786 1.504846 -2.755300
v -0.600887 1.537831 -2.755300
v -0.506450 1.539243 -2.755300
v -0.534197 1.538328 -2.755300
v -0.558536 1.540420 -2.755300
v -1.063820 1.499772 -2.755300
v -0.528842 1.540682 -2.755300
v -0.715768 1.535346 -2.755300
v -0.744975 1.471757 -2.755300
v -1.100329 1.503355 -2.755300
v -0.894418 1.516434 -2.755300
v -0.867158 1.524438 -2.755300
v -1.892815 1.543559 -2.755300
v -2.486207 1.552113 -2.755300
v -1.559854 1.552244 -2.755300
v -2.156653 1.548346 -2.755300
v -3.036274 1.548922 -2.755300
v -1.895249 1.545390 -2.755300
v -1.962912 1.554101 -2.755300
v -1.689339 1.553708 -2.755300
v -1.090593 1.513845 -2.755300
v -2.576749 1.484444 -2.755300
v -0.838925 1.509947 -2.755300
v -0.808257 1.510052 -2.755300
v -0.813612 1.515545 -2.755300
v -0.778077 1.510313 -2.755300
v -0.853528 1.482979 -2.755300
v -0.631067 1.490460 -2.755300
v -0.702138 1.528205 -2.755300
v -0.735726 1.528493 -2.755300
v -0.518133 1.487818 -2.755300
v -0.511318 1.482456 -2.755300
v -0.818967 1.506311 -2.755300
v -1.859714 1.451564 -2.755300
v -0.661735 1.483136 -2.755300
v -0.587743 1.461111 -2.755300
v -0.956240 1.550439 -2.755300
v -0.900747 1.549209 -2.755300
v -0.881275 1.546829 -2.755300
v -1.811522 1.321666 -2.755300
v -1.592469 1.448948 -2.755300
v -0.967436 1.541964 -2.755300
v -0.735239 1.542382 -2.755300
v -0.740594 1.537779 -2.755300
v -0.729885 1.540080 -2.755300
v -0.810691 1.448529 -2.755300
v -0.772235 1.537595 -2.755300
v -0.709440 1.537752 -2.755300
v -0.791707 1.482822 -2.755300
v -0.912429 1.288368 -2.755300
v -0.763473 1.539871 -2.755300
v -0.704085 1.448503 -2.755300
v -0.642263 1.449916 -2.755300
v -0.644697 1.464067 -2.755300
v -0.974251 1.427630 -2.755300
v -0.674878 1.452165 -2.755300
v -0.668063 1.472908 -2.755300
v -0.853042 1.548032 -2.755300
v -0.858396 1.554650 -2.755300
v -0.811665 1.553656 -2.755300
v -0.922652 1.552924 -2.755300
v -0.779537 1.551851 -2.755300
v -0.929954 1.551668 -2.755300
v -0.756658 1.544396 -2.755300
v -1.085238 1.548398 -2.755300
v -0.896365 1.544396 -2.755300
v -0.808257 1.542173 -2.755300
v -0.858396 1.545678 -2.755300
v -0.909995 1.541938 -2.755300
v -0.837951 1.542251 -2.755300
v -0.987394 1.549994 -2.755300
v -0.919244 1.449367 -2.755300
v -0.850608 1.464224 -2.755300
v -0.798035 1.545678 -2.755300
v -0.863751 1.449393 -2.755300
v -0.862290 1.540054 -2.755300
v -0.833570 1.518448 -2.755300
v -1.180161 1.518841 -2.755300
v -0.754711 1.534849 -2.755300
v -0.955267 1.523314 -2.755300
v -0.865698 1.533881 -2.755300
v -1.261455 1.555095 -2.755300
v -0.957700 1.540420 -2.755300
v -0.583362 1.494854 -2.755300
v -0.730372 1.420279 -2.755300
v -0.737673 1.489178 -2.755300
v -1.717086 1.481148 -2.755300
v -1.567643 1.516408 -2.755300
v -2.130367 1.489832 -2.755300
v -2.083635 1.467311 -2.755300
v -1.126128 1.546332 -2.755300
v -1.711244 1.467703 -2.755300
v -0.756171 1.552714 -2.755300
v -0.594072 1.531004 -2.755300
v -0.643724 1.530638 -2.755300
v -2.374733 1.542984 -2.755300
v -0.603321 1.529330 -2.755300
v -2.955955 1.540499 -2.755300
v -1.475640 1.549654 -2.755300
v -0.614030 1.532887 -2.755300
v -2.447264 1.540185 -2.755300
v -1.300884 1.449026 -2.755300
v -2.151785 1.540002 -2.755300
v -0.772722 1.530350 -2.755300
v -1.235168 1.463753 -2.755300
v -1.335446 1.488812 -2.755300
v -1.565209 1.475838 -2.755300
v -1.428422 1.450282 -2.755300
v -1.683011 1.498830 -2.755300
v -1.307699 1.507593 -2.755300
v -1.149007 1.500583 -2.755300
v -1.538922 1.484287 -2.755300
v -1.346155 1.499850 -2.755300
v -1.181622 1.554467 -2.755300
v -1.915694 1.535163 -2.755300
v -1.807141 1.525720 -2.755300
v -4.726880 1.534300 -2.755300
v -2.806025 1.531945 -2.755300
v -0.936282 1.497758 -2.755300
v -1.309646 1.525145 -2.755300
v -1.330578 1.545443 -2.755300
v -1.516043 1.540761 -2.755300
v -1.042888 1.542565 -2.755300
v -0.365283 1.538302 1.066661
v -0.416395 1.536785 1.130814
v -0.418829 1.527813 1.249983
v -0.359441 1.538956 1.044888
v -0.423697 1.528205 1.249011
v -0.184198 1.433070 1.170667
v -0.674878 1.545600 0.858067
v -0.644211 1.543089 0.721402
v -0.373071 1.549392 1.070549
v -0.347758 1.532678 0.929607
v -0.357494 1.549314 1.025059
v -0.358954 1.552401 1.021948
v -0.383780 1.532207 1.142867
v -0.373558 1.551642 1.060829
v -0.375992 1.532416 1.119733
v -0.339970 1.532992 0.836099
v -0.386701 1.533986 1.128287
v -0.338996 1.534954 0.844459
v -0.409580 1.527525 1.245512
v -0.338509 1.536026 0.860983
v -0.392056 1.534849 1.137618
v -0.378913 1.534221 1.103598
v -0.371611 1.530193 1.135480
v -0.381346 1.535163 1.101265
v -0.401305 1.534692 0.969654
v -0.329747 1.543978 0.634115
v -0.336562 1.544030 0.822297
v -0.341917 1.546620 0.854956
v -0.333155 1.547509 0.698462
v -0.343377 1.547692 0.876341
v -0.334128 1.548817 0.707793
v -0.345324 1.548922 0.912500
v -0.356034 1.539714 1.034196
v -0.405199 1.536811 1.126148
v -0.395463 1.536837 1.128287
v -0.386214 1.537046 1.128092
v -0.429538 1.528807 1.263591
v -0.424670 1.528885 1.061218
v -0.238718 1.490120 7.552525
v -0.191013 1.473431 7.608708
v -0.034268 1.493442 1.164835
v -0.191987 1.426060 1.008146
v -0.185172 1.421378 0.960517
v -0.047412 1.493834 1.143645
v -0.227522 1.490774 7.535029
v -0.204643 1.491611 7.515200
v -0.375992 1.525275 7.491094
v -0.355060 1.525903 7.388255
v -0.213892 1.491689 7.513839
v -0.207564 1.451381 1.257176
v -0.024533 1.541728 0.435435
v -0.202696 1.460876 1.260675
v -0.195394 1.490617 7.520838
v -0.344351 1.525903 7.272779
v -0.239205 1.444632 1.271951
v -0.225088 1.451825 1.263591
v -0.229469 1.453761 1.276811
v -0.226062 1.441284 1.262619
v -0.191500 1.488420 7.538528
v -0.350192 1.524883 7.304273
v -0.074672 1.478977 1.204493
v -0.071751 1.473562 1.228404
v -0.248941 1.522058 1.220628
v -0.072238 1.489858 1.152976
v -0.354086 1.543272 1.028558
v -0.355060 1.544135 1.031474
v -0.355547 1.540656 1.027975
v -0.415908 1.528493 1.245317
v -0.370637 1.533463 1.093489
v -0.384754 1.533018 1.133147
v -0.365769 1.535581 1.066856
v -0.362849 1.533698 1.053247
v -0.072238 1.481566 1.211297
v -0.067857 1.492736 1.135480
v -0.056661 1.493389 1.145005
v -0.376479 1.526452 7.512284
v -0.392056 1.525485 7.574687
v -0.350679 1.527316 7.357928
v -0.360901 1.524621 7.401474
v -0.023072 1.493206 1.182331
v -0.391082 1.524229 7.548248
v -0.068830 1.474504 1.238513
v -0.386701 1.525746 7.553886
v -0.069317 1.489597 1.168334
v -0.023072 1.494488 1.162307
v -0.070777 1.484941 1.206048
v -0.048385 1.494933 1.124204
v -0.249428 1.520515 1.199438
v -0.279608 1.528545 1.113901
v -0.254295 1.522450 1.187191
v -0.316604 1.523680 0.528554
v -0.282042 1.526740 1.093878
v -0.263544 1.523183 1.138201
v -0.258190 1.527316 1.201577
v -0.247967 1.523470 1.229960
v -0.073211 1.485045 1.193023
v -0.034268 1.494697 1.146950
v -0.250888 1.518501 1.162307
v -0.356034 1.527211 7.408278
v -0.360415 1.525772 7.420331
v -0.360901 1.527028 7.437828
v -0.339970 1.527342 7.227484
v -0.345324 1.527342 7.294747
v -0.338996 1.524648 7.151472
v -0.339970 1.525694 7.214264
v -0.332181 1.528754 7.036191
v -0.334128 1.526662 7.097234
v -0.409093 1.529251 1.236375
v -0.232390 1.431109 1.069577
v -0.330234 1.526505 6.946183
v -0.332668 1.526374 7.038718
v -0.189066 1.484025 7.576242
v -0.070777 1.478375 1.228793
v -0.080026 1.517664 1.087462
v -0.058121 1.494279 1.128092
v -0.065423 1.492003 1.150643
v -0.370637 1.525511 7.469904
v -0.386701 1.524255 7.523948
v -0.349705 1.525929 7.330517
v -0.355547 1.524883 7.359483
v -0.349219 1.543298 0.967710
v -0.352626 1.544998 0.964794
v -0.373071 1.552976 1.087462
v -0.345811 1.549968 0.905307
v -0.335102 1.550700 0.729372
v -0.335102 1.551825 0.706433
v -0.346785 1.552061 0.906668
v -0.338996 1.533960 0.838238
v -0.237258 1.429696 1.067828
v -0.410554 1.535555 0.978597
v -1.426962 1.554676 1.103403
v -1.451301 1.430926 1.182136
v -2.897541 1.525458 0.840959
v -2.150812 1.551197 0.900252
v -1.444486 1.434221 1.182720
v -0.197342 1.467991 1.257176
v -0.410554 1.529408 1.033613
v -0.427591 1.528571 1.253288
v -0.221681 1.432155 0.230729
v -1.394347 1.453473 0.840959
v -1.443999 1.461713 0.968099
v -1.876751 1.505631 7.202989
v -1.388506 1.443664 0.956240
v -0.248454 1.518553 1.182331
v -0.246507 1.524543 1.237152
v -0.753251 1.534587 -2.755300
v -0.755684 1.539296 -2.755300
v -0.714794 1.530638 0.840959
v -3.192046 1.524281 0.956240
v -3.262143 1.528833 0.818020
v -0.657354 1.551223 -2.755300
v -2.984188 1.527368 0.738898
v -1.108117 1.385569 7.529586
v -2.289059 1.527394 7.211154
v -2.807972 1.548895 7.270447
v -0.674391 1.541074 1.038667
v -0.664656 1.522215 1.067828
v -0.694349 1.542382 1.017477
v -0.696297 1.536445 0.979180
v -0.556589 1.530010 0.921637
v -0.727451 1.549288 0.825407
v -0.571680 1.528702 1.033029
v -0.718689 1.553813 0.846986
v -0.577521 1.529748 1.010479
v -0.946504 1.551302 -2.755300
v -0.575574 1.532338 0.855734
v -0.382320 1.529304 1.193023
v -0.388161 1.529068 1.212658
v -0.365769 1.529670 1.115262
v -0.374045 1.550596 1.068605
v -0.373558 1.531527 1.121483
v -0.354086 1.547901 0.980541
v -0.358954 1.546803 1.017866
v -0.342404 1.543272 0.904140
v -0.346785 1.545861 0.924358
v -0.364309 1.547954 1.041778
v -0.206590 1.428205 0.299742
v -0.019665 1.550857 0.230729
v -0.240665 1.429461 1.067439
v -0.007008 1.552898 0.230729
v -0.173002 1.420907 0.912305
v -0.225575 1.432495 1.069772
v -0.025993 1.543036 0.412301
v -1.427935 1.450125 0.952158
v -2.789961 1.527603 0.641308
v -1.445946 1.454179 0.983457
v -0.332668 1.525118 7.024527
v -0.336562 1.526060 7.150500
v -0.333155 1.525825 7.050966
v -0.345324 1.524569 7.237398
v -0.333641 1.526295 7.109675
v -0.335102 1.526165 7.119590
v -0.371611 1.523366 7.431218
v -0.326826 1.528990 6.767138
v -0.375992 1.524229 7.469710
v -0.334615 1.527211 7.103066
v -0.251861 1.520645 1.182136
v -0.281555 1.523130 1.033613
v -0.250888 1.523680 1.218295
v -0.245046 1.526112 1.236764
v -0.323906 1.523863 -2.755300
v -0.302000 1.523340 0.832017
v -0.308329 1.523392 0.718486
v -0.283016 1.525563 1.076964
v -0.259163 1.522843 1.159197
v -0.282529 1.524412 1.056358
v -0.248941 1.524831 1.230737
v -0.251861 1.522241 1.203910
v -0.243099 1.525563 1.242013
v -0.371124 1.526688 7.487595
v -0.024046 1.540264 0.409385
v -0.069317 1.481592 1.224516
v -1.424041 1.458495 0.900252
v -1.450327 1.450727 0.960906
v -1.436211 1.453002 0.943021
v -1.434263 1.442696 0.983457
v -3.275773 1.527577 0.861566
v -0.017718 1.552950 0.880618
v -1.432803 1.447640 0.994538
v -1.402622 1.433751 0.968099
v -0.011876 1.552244 0.230729
v -0.217300 1.521823 0.230729
v -0.020638 1.552191 0.857678
v -0.207564 1.524046 1.074243
v -0.211458 1.522790 0.230729
v -0.015771 1.551642 0.102034
v -0.021612 1.550230 0.230729
v -0.220707 1.521901 0.230729
v -0.226549 1.521639 0.230729
v -0.010416 1.553630 0.944382
v -0.191013 1.480808 7.594711
v -0.375505 1.523418 7.452797
v -0.380860 1.522817 7.473209
v -0.380860 1.524935 7.511701
v -0.338996 1.528623 7.222818
v -0.380860 1.523915 7.488372
v -0.350679 1.546803 0.948075
v -0.342404 1.544056 0.901030
v -0.355060 1.545861 0.983651
v -0.376479 1.529461 1.171639
v -0.203670 1.463727 1.270395
v -0.189553 1.445286 1.218101
v -0.198802 1.456351 1.251538
v -0.730858 1.539348 0.758921
v -0.031348 1.545992 0.394805
v -0.216326 1.435111 1.054608
v -0.210972 1.455984 1.269229
v -0.029401 1.544370 0.292160
v -0.194908 1.465584 1.248817
v -0.193934 1.451773 1.239291
v -0.228983 1.449340 1.262230
v -0.233850 1.435686 1.260481
v -0.235311 1.440211 1.259703
v -0.212919 1.458992 1.276033
v -0.222654 1.455592 1.276811
v -0.338996 1.538145 0.850096
v -0.697270 1.548215 0.925136
v -0.605755 1.530690 1.067244
v -0.219734 1.445992 1.256593
v -0.202696 1.445940 1.245512
v -0.209024 1.441205 1.246678
v -0.238231 1.434431 1.259898
v -0.722583 1.534770 0.816270
v -1.472719 1.433803 1.181553
v -1.499006 1.448503 1.159391
v -1.435724 1.554415 1.083963
v -1.466878 1.439924 1.182720
v -1.448867 1.423915 1.162891
v -1.436697 1.420279 1.182720
v -1.455195 1.426296 1.161141
v -2.715970 1.525851 0.659970
v -1.985791 1.550962 0.956240
v -2.506165 1.526636 -2.643518
v -1.480508 1.424935 1.139562
v -1.456169 1.554702 1.103403
v -1.536002 1.422607 1.101265
v -2.939404 1.528964 0.618174
v -0.692402 1.524229 0.980346
v -0.690942 1.521692 0.991816
v -0.715281 1.520959 0.847958
v -0.753737 1.535974 -2.755300
v -1.444486 1.554310 1.081436
v -0.704572 1.539479 0.958184
v -0.240665 1.432966 1.263591
v -1.536488 1.438668 1.162502
v -1.441565 1.554650 1.101070
v -1.451788 1.554415 1.096016
v -1.440592 1.427394 1.182720
v -0.749356 1.526269 -2.755300
v -0.748383 1.523523 4.048413
v -0.758605 1.550360 -0.856372
v -0.719662 1.533358 0.826768
v -0.679746 1.530951 1.030113
v -0.717228 1.532050 0.837849
v -2.380088 1.526923 7.030359
v -1.064793 1.427944 7.531335
v -1.814930 1.552741 7.364732
v -0.758605 1.547718 -2.755300
v -0.758605 1.552584 5.092940
v -0.758118 1.546280 -2.755300
v -0.701164 1.553944 0.911916
v -0.699704 1.554938 0.927274
v -0.732806 1.540839 0.746674
v -0.197342 1.437282 1.230932
v -0.718689 1.551564 0.863510
v -0.738647 1.551511 0.685048
v -0.687048 1.549733 0.838043
v -0.758605 1.551407 -1.307387
v -0.758605 1.549079 -2.755300
v -0.724530 1.546567 0.851068
v -0.738160 1.550543 0.691075
v -0.742054 1.549131 0.650444
v -0.738647 1.552636 0.681160
v -0.725017 1.536261 0.789637
v -2.154219 1.527263 7.326435
v -0.740594 1.546411 0.667941
v -1.856306 1.551668 7.338293
v -0.689482 1.551093 0.840959
v -0.726964 1.547901 0.832989
v -0.029887 1.548948 0.590180
v -0.412014 1.526871 1.248622
v -0.029887 1.547405 0.517667
v -0.023072 1.539453 0.378669
v -1.698101 1.553604 7.338293
v -0.701651 1.550988 0.914444
v -1.793511 1.552741 7.322352
v -0.070291 1.520044 1.111957
v -0.378913 1.537412 1.112151
v -0.670010 1.544135 0.880618
v -0.694349 1.546829 0.932718
v -0.679259 1.546986 0.858844
v -0.689968 1.545417 0.940299
v -1.776474 1.553421 7.353651
v -0.651026 1.548712 -2.755300
v -1.776960 1.553107 7.313215
v -2.385442 1.529931 7.188214
v -1.724388 1.552924 7.270447
v -0.371611 1.537857 1.089989
v -0.428565 1.528964 1.067439
v -0.634962 1.535634 1.046832
v -0.614030 1.534457 0.997648
v -0.620358 1.535791 0.971209
