# Bind-pose neck using bbox entry 119
# bbox_min = (-7.9752, 1.1535, -2.7553)
# bbox_dim = (15.9505, 0.8571, 6.37)
v -0.651512 1.544423 0.709154
v -0.628633 1.534273 1.063162
v -0.429538 1.528728 1.259314
v -0.356034 1.542251 1.026031
v -0.377939 1.548817 1.108069
v -0.371124 1.547692 1.088240
v -0.364309 1.546698 1.060051
v -0.360901 1.545783 1.045666
v -0.395950 1.533855 0.959545
v -0.357981 1.544841 1.034196
v -0.644697 1.536915 1.043722
v -0.621332 1.533018 1.065689
v -0.700191 1.549628 0.911916
v -0.605755 1.533253 1.008535
v -0.666116 1.548529 0.658804
v -0.728424 1.537805 0.769030
v -0.627173 1.543429 -1.583439
v -0.633988 1.544710 -1.337325
v -0.643237 1.525066 1.092711
v -0.708466 1.546672 0.927080
v -0.590177 1.528519 1.068216
v -0.626200 1.537072 0.959156
v -0.712361 1.548032 0.913277
v -0.633988 1.538328 0.943604
v -0.614517 1.531893 1.070160
v -0.659301 1.536785 1.051886
v -0.582876 1.526348 1.066856
v -0.611109 1.525642 1.098154
v -0.655407 1.538223 1.053442
v -0.420776 1.529016 1.053247
v -0.371124 1.529565 1.145394
v -0.346785 1.535974 0.960517
v -0.356520 1.535869 1.035945
v -0.421750 1.528728 1.249400
v -0.372098 1.534378 1.091545
v -0.377452 1.533253 1.119539
v -0.364309 1.534587 1.060246
v -0.372584 1.530847 1.128676
v -0.392056 1.532887 0.955657
v -0.338509 1.537020 0.857289
v -0.670984 1.526871 1.047610
v -0.577521 1.524491 1.074243
v -0.616951 1.527917 1.083769
v -0.647131 1.527394 1.089406
v -0.648105 1.534064 1.064911
v -0.555616 1.524621 1.043333
v -0.653946 1.535424 1.055386
v -1.675709 1.489335 -2.755300
v -1.740938 1.493442 -2.755300
v -1.808115 1.489047 0.743563
v -0.347271 1.537072 0.948659
v -1.753595 1.485490 0.776418
v -0.355547 1.534823 1.028364
v -0.347271 1.534927 0.942826
v -1.970701 1.489675 0.921637
v -0.641777 1.532783 1.069188
v -0.355547 1.533829 1.013978
v -0.374531 1.535241 1.094850
v -0.336562 1.543298 0.827934
v -0.338996 1.545730 0.845236
v -0.347271 1.533881 0.925330
v -0.336562 1.542539 0.836682
v -0.337536 1.544867 0.829684
v -0.329747 1.544710 0.628477
v -0.330234 1.545573 0.635475
v -1.620215 1.485882 -2.755300
v -0.345811 1.538145 0.924941
v -0.331694 1.546411 0.652777
v -1.831967 1.491323 0.736176
v -1.871397 1.486170 0.882562
v -1.720007 1.491820 -2.755300
v -1.695180 1.482900 0.747452
v -0.742054 1.547745 0.655499
v -0.708953 1.526322 0.880423
v -0.756171 1.540761 -2.755300
v -0.669037 1.549889 0.645390
v -0.672444 1.551171 0.635864
v -1.900117 1.508273 7.226900
v -2.867360 1.547718 7.326435
v -1.026824 1.414551 7.482346
v -2.436555 1.528545 7.011502
v -2.348933 1.528885 7.109092
v -1.792051 1.551511 7.326435
v -3.568818 1.554650 -2.755300
v -0.668063 1.524621 1.055386
v -3.556161 1.532887 0.352619
v -0.685587 1.539557 1.042944
v -0.666116 1.539662 1.042361
v -0.700678 1.537962 0.960128
v -3.447608 1.533332 -2.755300
v -0.738160 1.553761 0.688936
v -0.737673 1.554807 0.696907
v -0.668550 1.533803 1.064523
v -0.492334 1.455017 0.711293
v -0.467994 1.442932 0.880618
v -0.490386 1.447431 0.857678
v -0.470428 1.454572 0.765725
v -0.395463 1.530951 0.984623
v -0.400331 1.529774 1.221989
v -2.733494 1.531762 7.012668
v -3.097609 1.532783 6.722814
v -0.360415 1.530428 1.075409
v -0.366256 1.530350 1.109819
v -0.349219 1.530847 0.977819
v -0.383780 1.529774 1.189524
v -0.358954 1.550282 1.016311
v -0.347271 1.529356 0.959156
v -0.347271 1.531841 0.919304
v -0.359441 1.551197 1.023504
v -0.334128 1.530978 0.718874
v -0.355547 1.531030 1.045082
v -0.360415 1.531893 1.052664
v -0.339970 1.531893 0.837849
v -0.394003 1.536288 1.133536
v -0.409580 1.536288 1.136452
v -0.384267 1.535974 1.108847
v -0.339970 1.540708 0.861955
v -0.386214 1.536706 1.112151
v -0.375505 1.536209 1.097571
v -0.352626 1.538249 1.008535
v -0.353113 1.539531 1.004841
v -0.358954 1.537151 1.043722
v -0.334615 1.530036 0.734427
v -0.326826 1.529513 0.420466
v -0.341917 1.529958 0.885478
v -0.482111 1.455540 0.689131
v -0.134059 1.516251 0.706433
v -0.483571 1.439714 0.880618
v -0.400818 1.528597 1.235597
v -0.155478 1.519076 1.009507
v -0.135520 1.518527 0.731316
v -0.047412 1.550282 0.672023
v -0.049846 1.551694 0.711293
v -0.039136 1.551904 -2.755300
v -0.177870 1.522450 1.094072
v -0.226062 1.524752 0.968488
v -0.267925 1.523784 1.118178
v -0.023559 1.523130 1.041583
v -0.307842 1.525615 0.844070
v -0.315144 1.526322 0.668524
v -0.017718 1.525642 0.968488
v -0.308329 1.527263 0.857289
v -0.258190 1.550779 0.230729
v -0.228496 1.535948 0.956629
v -0.169595 1.517140 1.087462
v -0.262571 1.524124 1.153754
v -0.257216 1.525380 1.204493
v -0.259163 1.553002 0.230729
v -0.261597 1.551145 0.230729
v -0.259163 1.550282 0.230729
v -0.255756 1.551459 0.230729
v -0.328774 1.483214 6.658661
v -0.328774 1.493939 6.635916
v -0.323906 1.528597 -2.755300
v -0.291291 1.523235 0.940299
v -0.081000 1.519861 1.080269
v -0.323906 1.528807 -2.755300
v -0.385241 1.530298 1.186025
v -0.397410 1.529304 1.225683
v -0.390595 1.529539 1.212463
v -0.392542 1.530010 1.212074
v -0.330721 1.540787 0.670857
v -0.330721 1.538066 0.660553
v -0.329747 1.543298 0.631393
v -0.366743 1.530978 1.106903
v -0.071751 1.517925 1.128870
v -0.267925 1.524804 1.141506
v -0.314657 1.525746 0.680771
v -0.302487 1.524491 0.867204
v -0.303461 1.525825 0.902585
v -0.258676 1.524124 1.178054
v -0.327313 1.489178 6.473200
v -0.287397 1.524491 1.031280
v -0.298106 1.525851 0.960323
v -0.287884 1.525642 1.050137
v -0.297619 1.524804 0.934078
v -0.313196 1.527159 0.732871
v -0.315630 1.528728 0.665802
v -0.320985 1.528990 0.396943
v -0.312710 1.526086 0.749396
v -0.277174 1.523235 1.061023
v -0.259163 1.521535 1.143061
v -0.254295 1.520829 1.167167
v -0.253322 1.526976 1.218684
v -0.267925 1.522686 1.103014
v -0.308815 1.528571 0.851652
v -0.323906 1.525328 -2.755300
v -0.323906 1.526714 -2.755300
v -0.311249 1.525955 0.780306
v -0.273280 1.523287 1.082602
v -0.272793 1.525145 1.120900
v -0.277174 1.526557 1.117400
v -0.292265 1.527080 1.038084
v -0.272306 1.526322 1.142089
v -0.327800 1.505788 6.642525
v -0.325853 1.512354 6.653023
v -0.327800 1.502074 6.639026
v -0.343864 1.503695 7.163719
v -0.338509 1.475472 7.054076
v -0.251861 1.553630 0.230729
v -0.255269 1.552976 0.230729
v -0.340456 1.473588 7.061852
v -0.344838 1.473170 7.138058
v -0.349219 1.476544 7.219707
v -0.037676 1.550439 -2.755300
v -0.028427 1.524621 1.043333
v -0.272793 1.524072 1.099515
v -0.314170 1.526217 0.739481
v -0.308329 1.524569 0.781278
v -0.297619 1.527211 0.987734
v -0.262084 1.525615 1.183692
v -0.326340 1.502518 6.275493
v -0.361875 1.532730 1.061995
v -0.368690 1.532573 1.097182
v -0.341430 1.531004 0.872258
v -0.348732 1.530036 0.978985
v -0.354086 1.530298 1.036529
v -0.349219 1.542408 0.972765
v -0.358954 1.529644 1.072299
v -0.406659 1.528153 1.242596
v -0.048385 1.548765 0.230729
v -0.046438 1.548058 0.220231
v -0.257216 1.552296 0.230729
v -2.240867 1.552714 7.606764
v -2.178558 1.552401 7.617261
v -0.043031 1.547300 0.230729
v -2.223343 1.552531 7.610652
v -0.265005 1.553525 1.128870
v -0.065909 1.517507 0.230729
v -0.061042 1.517245 0.230729
v -0.263058 1.552087 0.230729
v -2.194136 1.552793 7.605986
v -1.456656 1.449183 0.978791
v -0.285936 1.523104 0.991816
v -0.247967 1.526583 1.231709
v -0.747896 1.520959 -2.197947
v -1.197686 1.553708 7.409834
v -2.199490 1.552584 7.610263
v -1.780368 1.503460 7.326435
v -2.180506 1.552217 7.610652
v -2.171257 1.552584 7.618622
v -1.214723 1.553002 7.449492
v -1.046782 1.425197 7.513256
v -3.677371 1.554179 6.722814
v -0.688995 1.540996 1.043722
v -0.655893 1.541336 0.936994
v -0.718202 1.550805 0.867009
v -0.555616 1.528990 0.953907
v -0.377452 1.530036 1.162307
v -0.392056 1.531972 0.969654
v -0.355060 1.532887 1.018449
v -0.344351 1.544972 0.906862
v -0.334615 1.549811 0.706238
v -0.346298 1.550936 0.912500
v -0.258190 1.553551 0.230729
v -0.046438 1.520122 0.230729
v -0.061528 1.522633 0.230729
v -0.061042 1.519181 0.230729
v -0.039136 1.521038 0.230729
v -0.053740 1.518710 0.230729
v -0.032321 1.521639 0.230729
v -1.445946 1.449393 0.965377
v -2.155680 1.552087 7.606764
v -0.337536 1.476047 7.025499
v -0.342890 1.476256 7.097234
v -0.345811 1.471653 7.150889
v -0.335102 1.475629 6.980203
v -0.349219 1.474896 7.211543
v -0.337049 1.475079 7.023749
v -0.285936 1.496528 1.040611
v -0.279121 1.499066 1.074243
v -0.285936 1.499406 1.038473
v -1.472233 1.471391 -2.755300
v -1.463957 1.471522 -2.755300
v -1.460550 1.472542 0.073262
v -1.457142 1.474504 -2.755300
v -0.343377 1.474582 7.117257
v -0.345811 1.475341 7.152250
v -0.277661 1.525380 1.099710
v -0.328287 1.508090 6.729618
v -0.302974 1.527263 0.924553
v -0.268899 1.528074 1.162696
v -0.264518 1.522215 1.119539
v -0.253809 1.518396 1.141701
v -0.253322 1.523915 1.202354
v -0.263544 1.527682 1.182331
v -0.296159 1.523261 0.889171
v -0.266952 1.526008 1.163474
v -0.274254 1.528362 1.137813
v -0.277661 1.524229 1.078520
v -0.290318 1.528728 1.056163
v -0.302000 1.528597 0.943021
v -0.295672 1.528728 1.028364
v -0.251861 1.525145 1.221795
v -0.284963 1.528650 1.087657
v -0.287397 1.526897 1.067633
v -0.292751 1.525798 1.018060
v -0.292751 1.524752 0.989289
v -0.315144 1.525066 0.654333
v -0.179330 1.519704 1.111957
v -0.313683 1.526609 0.727039
v -0.317578 1.526452 0.575988
v -1.455682 1.451354 0.981124
v -2.977860 1.529801 0.571711
v -2.188294 1.552479 7.616484
v -2.205332 1.552374 7.614540
v -2.151298 1.552427 7.619983
v -2.242327 1.553238 7.599182
v -0.052279 1.520986 0.230729
v -0.027453 1.521875 0.230729
v -0.039623 1.524491 1.074243
v -0.022586 1.522058 0.230729
v -0.069804 1.553055 0.944382
v -0.034755 1.523026 0.230729
v -0.051306 1.523654 1.108652
v -0.287397 1.551276 1.023504
v -0.272306 1.550700 1.068605
v -0.287884 1.550360 1.016311
v -0.346785 1.474373 7.184715
v -0.351653 1.477250 7.241481
v -0.348245 1.477564 7.193074
v -0.356034 1.479814 7.298635
v -0.344351 1.478061 7.126977
v -0.349705 1.544135 0.964211
v -0.253322 1.533175 0.230729
v -0.153531 1.521378 0.991816
v -0.142822 1.518658 0.871092
v -0.140874 1.520776 0.847958
v -0.216813 1.524072 1.043333
v -0.166674 1.521849 1.067828
v -0.039623 1.546411 0.230729
v -0.027940 1.551930 0.711293
v -0.168621 1.519468 1.080269
v -0.178844 1.517454 1.128870
v -0.027940 1.550491 0.672023
v -0.220707 1.522764 1.041583
v -0.038163 1.545861 0.230729
v -0.221681 1.536418 0.457986
v -0.225088 1.536261 0.721402
v -0.401791 1.535634 1.153365
v -2.688223 1.529199 -2.755300
v -2.811380 1.552479 -2.755300
v -0.227035 1.522947 0.944382
v -0.144282 1.516513 0.906668
v -1.896223 1.521483 7.435689
v -2.972506 1.546254 7.409834
v -3.048444 1.545155 7.438216
v -1.982384 1.515205 7.204155
v -0.938229 1.542801 0.663275
v -1.917641 1.518317 7.365510
v -1.851925 1.495430 7.004698
v -1.925917 1.510889 7.227484
v -1.786696 1.501054 7.263448
v -1.862635 1.503015 7.143502
v -1.794971 1.495979 7.196185
v -1.858254 1.499955 7.069628
v -1.825152 1.514342 7.428885
v -1.865555 1.516277 7.407501
v -1.708324 1.514943 7.545332
v -1.954637 1.513008 7.215431
v -2.112356 1.519678 7.131254
v -1.983844 1.520410 7.310688
v -0.703112 1.552819 0.899280
v -0.654433 1.550046 -2.755300
v -0.690942 1.553892 0.861372
v -1.834401 1.521090 7.482346
v -2.928695 1.546934 7.361038
v -2.048587 1.517350 7.164303
v -3.002199 1.543742 7.482346
v -2.939891 1.544423 7.461350
v -1.984818 1.525223 7.409834
v -2.122091 1.525145 7.296691
v -2.072926 1.525903 7.361038
v -1.173833 1.553395 7.437050
v -1.156309 1.554807 7.438216
v -1.149494 1.553996 7.461156
v -1.032179 1.433829 7.552914
v -1.146573 1.553421 7.466210
v -1.093514 1.419155 7.552914
v -1.149494 1.553055 7.471265
v -1.876265 1.522136 7.461350
v -1.056518 1.413479 7.509757
v -1.918615 1.523392 7.438216
v -1.085238 1.430664 7.552914
v -1.967294 1.523601 7.389616
v -0.155965 1.516774 1.021948
v -1.076476 1.428624 7.552331
v -1.160690 1.552819 7.473598
v -1.070635 1.433881 7.552914
v -1.044348 1.375603 7.471459
v -2.227724 1.522189 7.089846
v -2.096292 1.522581 7.246341
v -2.255471 1.524308 7.123672
v -1.164097 1.553839 7.431995
v -1.180648 1.552819 7.475736
v -1.182595 1.554519 7.389616
v -1.126615 1.554781 7.449492
v -0.999077 1.427865 7.529586
v -1.080857 1.356586 7.532696
v -1.154849 1.553395 7.451630
v -1.078423 1.416513 7.551748
v -0.394490 1.528833 1.227821
v -0.477730 1.423706 0.944382
v -0.401791 1.530114 1.036529
v -0.466047 1.425668 0.968488
v -1.060899 1.431056 7.533085
v -1.159716 1.553159 7.454157
v -1.056031 1.436706 7.552914
v -0.015771 1.523549 0.944382
v -0.387188 1.531187 1.160558
v -2.916525 1.531998 6.767138
v -2.719377 1.530978 6.895249
v -1.801786 1.553238 7.331100
v -2.473550 1.530638 7.115313
v -1.835861 1.552688 7.353651
v -1.801300 1.553395 7.351318
v -1.728282 1.552113 7.211154
v -0.380860 1.531292 1.144033
v -0.378913 1.530638 1.156670
v -2.967638 1.532913 6.921882
v -2.593786 1.530324 6.941906
v -3.261169 1.533070 6.523745
v -2.641491 1.531318 7.042606
v -1.810062 1.553055 7.335572
v -0.326340 1.531422 0.405108
v -0.331694 1.532939 0.640919
v -0.326826 1.530821 0.429797
v -0.366743 1.531789 1.085129
v -0.354086 1.531945 1.004841
v -0.360901 1.531056 1.076770
v -0.331694 1.531893 0.660748
v -0.330234 1.536968 0.658609
v -1.800326 1.537334 7.297469
v -2.833285 1.532286 6.966206
v -1.792051 1.538459 7.258977
v -2.816247 1.531475 6.930825
v -1.826126 1.553368 7.348985
v -1.820771 1.553055 7.356956
v -2.693091 1.541258 7.560107
v -1.681550 1.538145 7.067101
v -3.351225 1.526008 0.900252
v -2.998305 1.531736 -2.755300
v -3.184744 1.533175 6.722814
v -1.725848 1.538982 7.089652
v -1.848031 1.537962 7.336349
v -1.690799 1.516225 7.560107
v -1.744346 1.537700 7.230400
v -0.642263 1.522817 1.094072
v -0.680233 1.542487 1.014561
v -0.663682 1.532495 1.072688
v -1.908392 1.494907 -2.755300
v -0.330234 1.536026 0.659581
v -0.331208 1.534954 0.655499
v -0.331694 1.533907 0.655305
v -0.329747 1.542592 0.640919
v -0.404225 1.536366 1.130620
v -0.331208 1.539374 0.672218
v -0.341430 1.539400 0.877313
v -0.347758 1.540630 0.940494
v -0.392542 1.535764 1.128481
v -0.349219 1.539453 0.958379
v -0.941637 1.552374 -2.755300
v -0.673905 1.535189 1.050137
v -0.677799 1.536601 1.046443
v -0.688021 1.533593 1.010090
v -0.692402 1.534980 0.992010
v -0.711874 1.542330 0.916388
v -0.683640 1.532312 1.024864
v -0.707979 1.540944 0.943798
v -0.896852 1.552348 0.870703
v -0.715768 1.549445 0.886450
v -0.717715 1.554807 0.860205
v -0.927520 1.551040 0.658221
v -0.595532 1.532050 1.012034
v -0.357007 1.538563 1.035362
v -0.370637 1.537491 1.071910
v -0.549287 1.527629 0.967321
v -0.565351 1.531004 0.870703
v -0.367716 1.536680 1.066078
v -0.377939 1.537072 1.094266
v -0.363822 1.538040 1.047415
v -0.352139 1.540604 0.986762
v -0.405199 1.528937 1.235986
v -0.326826 1.530036 0.436990
v -0.412987 1.528859 1.242596
v -0.339970 1.529434 0.859233
v -0.342890 1.542487 0.915804
v -0.919731 1.552244 0.671051
v -0.332668 1.529513 0.676494
v -0.352626 1.529591 1.028169
v -0.584823 1.530847 0.988511
v -0.564865 1.526871 1.042361
v -0.534684 1.525642 0.968488
v -0.909022 1.550805 0.855734
v -1.135864 1.553264 7.473598
v -0.716255 1.523994 0.840376
v -0.691429 1.552845 0.854762
v -1.129049 1.553813 7.475736
v -2.301228 1.529304 7.231760
v -2.470630 1.529591 6.988368
v -2.207766 1.528780 7.270447
v -1.830994 1.553028 7.351318
v -0.662222 1.542748 0.920665
v -1.909853 1.539767 7.337127
v -2.247682 1.541938 7.455713
v -1.914721 1.541807 7.218930
v -2.093858 1.544109 7.245952
v -0.160346 1.411334 0.832211
v -0.389622 1.552139 0.230729
v -0.388648 1.550622 0.230729
v -0.383780 1.551930 0.230729
v -2.143510 1.512197 4.215599
v -1.591982 1.540159 0.719458
v -2.190728 1.514158 -2.755300
v -1.480995 1.541336 0.965960
v -3.628206 1.532442 0.551688
v -2.595734 1.528283 3.629086
v -3.216872 1.531710 0.396943
v -0.588717 1.533489 0.903751
v -3.337108 1.532966 -2.755300
v -1.466878 1.540420 0.927274
v -2.091911 1.509999 4.545501
v -1.493651 1.539845 0.860205
v -3.395522 1.532547 0.352619
v -2.775844 1.529984 -2.755300
v -2.854703 1.530638 -2.755300
v -3.427650 1.532939 0.153551
v -3.449069 1.531710 0.596012
v -0.592611 1.538851 -2.755300
v -0.603807 1.535948 0.887616
v -0.682180 1.538040 1.041389
v -0.596992 1.534483 0.929413
v -0.626686 1.540159 0.758533
v -0.604294 1.537726 0.767086
v -0.668550 1.538119 1.046054
v -3.359013 1.531135 0.642474
v -0.611109 1.538589 0.720430
v -1.980437 1.552714 7.600154
v -1.907419 1.553813 7.571771
v -0.188093 1.522320 0.230729
v -2.299768 1.546881 7.169357
v -0.185172 1.517114 0.230729
v -0.208051 1.521116 0.230729
v -0.213405 1.521639 0.230729
v -0.196368 1.520881 0.230729
v -2.068545 1.552924 7.614929
v -2.095805 1.553185 7.608513
v -0.647618 1.539871 0.954685
v -0.417369 1.536209 0.956629
v -0.026967 1.547457 0.230729
v -0.423697 1.536706 0.457986
v -1.526753 1.540787 0.888782
v -3.239264 1.532626 -2.755300
v -2.865900 1.545626 7.449492
v -2.923827 1.531187 -2.755300
v -1.655751 1.539479 5.019067
v -1.613887 1.538616 -0.895836
v -1.821258 1.538851 7.278612
v -2.774871 1.546908 7.391754
v -1.751648 1.539426 7.103066
v -2.190241 1.545469 7.217375
v -2.530991 1.547823 7.269280
v -2.769516 1.548294 7.338293
v -0.382320 1.553368 1.128870
v -0.203670 1.522084 0.230729
v -0.196855 1.523314 1.108652
v -0.202696 1.520227 0.230729
v -0.389135 1.553395 0.230729
v -1.616808 1.544527 1.046054
v -1.448380 1.448268 0.986762
v -3.303033 1.530611 0.672412
v -1.451788 1.445861 0.981124
v -3.052338 1.530559 0.525055
v -0.189553 1.518971 0.230729
v -0.196855 1.518736 0.230729
v -0.191013 1.517010 0.230729
v -2.036417 1.540813 7.416249
v -1.829533 1.540630 7.136503
v -4.030777 1.509686 1.189913
v -1.555473 1.548189 1.189913
v -1.553039 1.539243 0.696907
v -0.420289 1.536549 0.721402
v -0.025019 1.548268 0.220231
v -0.394976 1.553447 0.230729
v -0.387675 1.552845 0.230729
v -0.392056 1.552819 0.230729
v -0.391082 1.551302 0.230729
v -0.029887 1.545940 0.230729
v -0.024046 1.549000 0.230729
v -0.393516 1.533384 0.230729
v -0.385241 1.551014 0.230729
v -0.028914 1.546515 0.230729
v -0.387188 1.550151 0.230729
v -0.395463 1.520855 7.537362
v -0.384754 1.522320 7.489733
v -0.352139 1.528780 7.398558
v -0.374045 1.528493 7.508007
v -0.362362 1.523235 7.362010
v -0.357007 1.523366 7.310494
v -0.401305 1.526740 7.601904
v -0.397410 1.525249 7.591989
v -0.395950 1.527106 7.588879
v -0.384754 1.527786 7.552525
v -0.390595 1.521613 7.513256
v -0.395950 1.523994 7.572549
v -0.379399 1.528205 7.532891
v -0.357494 1.528780 7.426358
v -0.362849 1.528702 7.457851
v -0.381833 1.526139 7.533668
v -0.371124 1.524360 7.448714
v -0.345811 1.528650 7.313215
v -0.351653 1.523392 7.259366
v -0.395463 1.518422 7.511895
v -0.016257 1.429121 1.067439
v -0.025019 1.430769 1.069577
v -0.056174 1.550491 0.230729
v -0.028427 1.454415 1.276811
v -0.286910 1.530376 1.075409
v -0.288370 1.529591 1.072299
v -0.271333 1.529356 1.171639
v -0.236771 1.528623 1.242596
v -0.238718 1.529173 1.033613
v -0.062502 1.468958 1.257176
v -0.223141 1.528048 1.253288
v -0.055687 1.464616 1.270395
v -0.235311 1.535320 0.978597
v -0.045951 1.459777 1.276033
v -2.058809 1.552584 7.612013
v -2.002342 1.552008 7.582074
v -1.961939 1.551956 7.560107
v -2.078767 1.552008 7.599182
v -0.031348 1.542958 -2.755300
v -0.036702 1.542932 0.412301
v -2.111869 1.554310 7.545332
v -1.718546 1.517480 7.546499
v -1.810549 1.519285 7.471459
v -1.756515 1.517036 7.511117
v -3.127303 1.531135 0.560630
v -1.744346 1.518867 7.532696
v -2.016459 1.553787 7.589851
v -2.239893 1.554232 7.560107
v -0.607702 1.536942 0.872841
v -2.126472 1.553839 7.568272
v -0.588717 1.538537 -2.755300
v -1.946362 1.554545 7.551942
v -2.481339 1.540996 7.564189
v -1.912774 1.552793 7.564189
v -0.061528 1.552505 0.880618
v -0.065909 1.551720 0.230729
v -0.300540 1.550020 0.905307
v -0.260137 1.528964 1.212658
v -0.273280 1.551773 1.060829
v -0.072238 1.552244 0.230729
v -2.797263 1.541859 7.546499
v -0.274740 1.537386 1.071910
v -0.242613 1.527839 1.242596
v -0.278148 1.536575 1.066078
v -0.057147 1.551851 0.857678
v -0.014797 1.521927 0.230729
v -0.023559 1.435660 1.260481
v -0.044004 1.522241 0.230729
v -0.028914 1.449733 1.262230
v -0.022099 1.440499 1.259703
v -0.031834 1.441545 1.262619
v -0.052279 1.427787 0.299742
v -0.053253 1.549916 0.230729
v -0.035729 1.456272 1.276811
v -0.020152 1.429330 1.067828
v -0.036702 1.431841 0.230729
v -0.293238 1.530219 1.036529
v -0.300540 1.529304 0.959156
v -0.281555 1.529591 1.115262
v -0.299566 1.531789 0.919304
v -0.300053 1.550988 0.912500
v -0.288857 1.538511 1.035362
v -2.168336 1.553264 7.595099
v -2.225777 1.553735 7.582074
v -3.285995 1.529722 0.745119
v -0.270359 1.529931 1.162307
v -0.265978 1.529199 1.193023
v -0.264031 1.529670 1.189524
v -0.017718 1.445260 1.271951
v -0.018691 1.434404 1.259898
v -0.240179 1.529042 1.236375
v -0.032321 1.432207 1.069772
v -0.061528 1.551197 0.102034
v -0.286910 1.537072 1.043722
v -0.305408 1.530951 0.872258
v -0.298106 1.530795 0.977819
v -0.281555 1.530271 1.109819
v -0.323906 1.529644 -2.755300
v -0.312223 1.549837 0.706238
v -0.312710 1.530010 0.734427
v -0.298593 1.529984 0.978985
v -0.294699 1.529513 1.028169
v -0.311736 1.550726 0.729372
v -0.306868 1.532966 0.836099
v -0.323906 1.529094 -2.755300
v -0.354086 1.482586 7.307578
v -0.357007 1.480468 7.306022
v -0.337049 1.481436 7.034442
v -0.338023 1.484365 7.065352
v -0.346298 1.480991 7.201628
v -0.352139 1.476204 7.250423
v -0.338509 1.478794 7.032886
v -0.340456 1.481645 7.096262
v -0.332668 1.482796 6.868616
v -0.348732 1.483580 7.265975
v -0.357007 1.478924 7.298052
v -0.346785 1.484574 7.246535
v -0.345324 1.483764 7.225151
v -0.342890 1.483816 7.175578
v -0.338023 1.482273 7.041051
v -0.338996 1.480912 7.071961
v -0.346785 1.483057 7.240509
v -0.351653 1.480520 7.259754
v -0.350192 1.475759 7.233704
v -0.358468 1.479474 7.319436
v -1.883566 1.484156 0.913083
v -2.139129 1.489466 0.953907
v -2.317779 1.488393 0.967321
v -1.805194 1.483293 0.879451
v -0.334615 1.497287 7.007614
v -0.342890 1.503277 7.128533
v -0.345324 1.496947 7.213875
v -0.333641 1.500923 6.938018
v -2.143997 1.467258 -2.755300
v -1.991146 1.467651 -2.755300
v -1.992120 1.475969 0.713625
v -1.916181 1.468043 -2.755300
v -2.321187 1.484705 0.947103
v -1.987252 1.485098 0.933106
v -2.541214 1.485411 0.968488
v -0.993236 1.540185 -2.755300
v -2.138155 1.484993 0.933690
v -0.996156 1.540420 -2.755300
v -0.969383 1.540761 -2.755300
v -0.993723 1.540394 0.230340
v -0.972791 1.541048 0.401998
v -0.997130 1.540264 -2.755300
v -0.977659 1.541336 0.605732
v -0.991289 1.541728 -2.755300
v -1.496085 1.476466 0.543134
v -1.500466 1.470946 -2.755300
v -1.481482 1.478218 -2.755300
v -1.464444 1.473719 0.272331
v -1.562288 1.478114 0.662303
v -1.499493 1.474347 0.437379
v -1.591495 1.474164 0.471594
v -1.630438 1.479918 0.714792
v -1.579812 1.476126 0.590763
v -1.521885 1.480912 -2.755300
v -0.986421 1.540211 -2.755300
v -1.575431 1.483371 -2.755300
v -1.720980 1.543612 0.848735
v -1.612914 1.540656 0.732871
v -1.488297 1.543324 1.079297
v -1.494138 1.545338 1.146950
v -1.674735 1.539871 -2.755300
v -1.768685 1.549602 1.104570
v -1.839756 1.550230 1.079297
v -1.488783 1.541859 0.993954
v -1.745806 1.541284 -2.755300
v -2.267153 1.548739 -2.755300
v -1.914234 1.547117 0.847180
v -1.837322 1.546044 0.875757
v -1.703943 1.509816 7.519477
v -1.749700 1.496241 7.271030
v -1.711244 1.495874 7.297469
v -1.701995 1.500766 7.336349
v -1.642608 1.512615 7.571771
v -1.674735 1.509162 7.517144
v -2.934536 1.550334 7.188214
v -2.870767 1.549602 7.231760
v -1.710271 1.509084 7.536584
v -2.434608 1.540316 7.571771
v -2.491562 1.549340 7.096067
v -2.700879 1.548974 7.278612
v -2.230644 1.539531 7.517144
v -3.415480 1.554389 -2.755300
v -2.983702 1.554467 0.551688
v -0.074672 1.420515 0.960517
v -0.067857 1.425694 1.008146
v -0.043031 1.548817 0.590180
v -0.226549 1.527682 1.249011
v -0.238231 1.526583 1.248622
v -0.221681 1.528623 1.067439
v -0.289344 1.539688 1.034196
v -0.259163 1.536889 1.128092
v -0.249914 1.536654 1.128287
v -0.266952 1.537308 1.112151
v -1.276545 1.554702 1.240457
v -0.284476 1.545835 1.045666
v -1.286767 1.554545 1.246289
v -2.236973 1.499667 0.956240
v -2.027655 1.492814 0.825990
v -2.086069 1.501420 0.773307
v -1.468338 1.345522 1.159391
v -1.929324 1.498909 -1.400701
v -1.291635 1.554624 1.247067
v -1.271677 1.553735 1.224905
v -1.261941 1.552767 1.175138
v -4.146145 1.511150 1.176304
v -2.104567 1.491768 0.900835
v -3.162352 1.506704 1.181748
v -2.737388 1.503905 1.167362
v -2.698445 1.504062 1.166390
v -2.266180 1.493860 0.965960
v -2.157140 1.490434 0.927274
v -2.449698 1.501080 1.082991
v -2.219448 1.495639 0.971015
v -2.474037 1.500295 1.079297
v -2.294900 1.498019 1.025059
v -1.588088 1.548712 1.176304
v -1.294069 1.551720 1.181748
v -4.395866 1.512641 1.162502
v -1.288715 1.553473 1.238319
v -1.252692 1.553578 1.211880
v -1.323763 1.553316 1.229960
v -1.326684 1.551982 1.201577
v -1.578352 1.542827 0.966932
v -1.773553 1.544998 0.878285
v -1.659158 1.546254 1.085518
v -1.785723 1.506311 7.394087
v -1.708810 1.505788 7.453185
v -1.727308 1.505919 7.446770
v -3.144828 1.552061 7.015390
v -2.757833 1.549680 7.221068
v -1.287741 1.554415 1.248428
v -1.285794 1.554702 1.244345
v -2.944759 1.551302 7.071961
v -2.597681 1.549968 7.064185
v -2.643925 1.542016 7.539500
v -2.826957 1.543115 7.529586
v -1.876265 1.538302 7.364149
v -1.992606 1.542958 7.248479
v -2.393231 1.548215 7.108120
v -1.977029 1.538746 7.449492
v -2.404914 1.544370 7.420720
v -2.269101 1.550360 0.725873
v -2.182940 1.550910 0.908417
v -1.514583 1.546908 1.201577
v -2.461381 1.552479 0.701767
v -1.988712 1.553342 7.604042
v -1.773066 1.509424 7.449881
v -2.812840 1.550517 7.128533
v -2.792882 1.544501 7.474764
v -2.321673 1.543193 7.431995
v -1.925917 1.549209 0.976847
v -2.528557 1.520933 0.719652
v -0.323419 1.549026 -2.755300
v -2.372786 1.521692 -2.226135
v -1.462010 1.553918 1.090961
v -2.248169 1.516565 4.154168
v -1.447407 1.553787 1.061801
v -2.312911 1.519259 -1.809724
v -1.475640 1.553159 1.068022
v -3.458317 1.552401 7.012668
v -3.746008 1.553735 6.921882
v -1.695667 1.502492 7.364149
v -1.699075 1.509084 7.537556
v -3.273826 1.552584 7.000421
v -3.405745 1.553133 6.972038
v -3.248513 1.554572 0.352619
v -2.269101 1.551328 0.850874
v -2.337737 1.550936 0.693991
v -1.611453 1.548294 1.169306
v -1.670354 1.549236 1.159391
v -1.959992 1.493991 0.634503
v -2.250116 1.506390 0.856706
v -2.140102 1.496554 0.893254
v -2.174664 1.503879 0.832794
v -1.277032 1.554258 1.235792
v -1.267783 1.554493 1.236569
v -3.422782 1.508901 1.175138
v -2.354775 1.549602 -2.755300
v -2.443370 1.515649 0.794108
v -2.414163 1.513295 0.833961
v -1.924943 1.550883 0.990844
v -1.875291 1.550779 1.039639
v -3.385300 1.521326 1.039639
v -3.218819 1.519808 1.019421
v -1.388019 1.553656 1.079297
v -1.411385 1.554362 1.105542
v -0.323419 1.549706 -2.755300
v -1.502413 1.553682 1.079297
v -2.953521 1.522398 0.926497
v -3.204215 1.522607 0.990844
v -0.302974 1.547745 0.876341
v -0.313196 1.547535 0.698462
v -1.741912 1.501524 7.341209
v -3.707065 1.552950 6.966206
v -2.365484 1.511098 0.845236
v -0.291291 1.533776 1.013978
v -0.274254 1.534247 1.091545
v -1.750187 1.550046 1.091156
v -3.305954 1.517036 1.065495
v -3.774241 1.515780 1.112151
v -1.699562 1.549968 1.112151
v -2.773897 1.510183 1.058691
v -2.033010 1.507514 -2.755300
v -2.805538 1.512380 1.037306
v -1.980437 1.504742 -1.289308
v -1.950256 1.502152 5.297063
v -2.320700 1.508901 0.857289
v -1.279952 1.554519 1.240069
v -3.482170 1.513975 1.101265
v -2.643925 1.553761 0.642474
v -2.238920 1.551642 0.861566
v -2.421951 1.552741 0.745119
v -3.070836 1.553551 -2.755300
v -2.600601 1.553133 0.645196
v -2.487667 1.550883 -2.755300
v -2.637597 1.551642 -2.755300
v -3.366315 1.551930 7.042606
v -3.099557 1.551145 7.115313
v -2.772924 1.554179 0.596012
v -3.302546 1.554101 -2.755300
v -2.376193 1.551799 0.758338
v -2.785580 1.504585 1.149282
v -2.523689 1.553447 0.672412
v -3.508456 1.505971 1.201577
v -2.851783 1.553918 0.601844
v -1.333499 1.553970 1.211880
v -1.320842 1.554310 1.228988
v -0.069804 1.445600 1.218101
v -0.035242 1.547326 -2.755300
v -1.311107 1.553839 1.241818
v -1.346155 1.553708 1.189913
v -1.258534 1.554022 1.228988
v -1.268270 1.553133 1.198077
v -1.299911 1.553578 1.244734
v -2.727166 1.553525 0.630227
v -2.329462 1.552113 0.818020
v -2.475984 1.546332 7.347041
v -0.312223 1.548843 0.707793
v -0.273280 1.549497 1.070549
v -0.307355 1.535974 0.860983
v -0.254295 1.534666 1.137618
v -1.464931 1.416879 1.143061
v -1.937600 1.550386 1.021560
v -1.802273 1.548085 1.050526
v -1.545251 1.541336 0.908417
v -1.733150 1.547143 1.061801
v -3.486551 1.518893 1.068022
v -3.594617 1.517245 1.091156
v -1.794485 1.550543 1.068022
v -2.809919 1.514812 0.995315
v -2.421951 1.550256 -2.755300
v -2.003802 1.497758 0.699628
v -1.294069 1.554807 1.240457
v -1.305752 1.554702 1.236569
v -1.296990 1.554467 1.249789
v -1.241010 1.553290 1.189913
v -3.455397 1.511333 1.140923
v -1.290175 1.552688 1.219656
v -1.307212 1.552898 1.233848
v -1.619242 1.549288 1.162502
v -2.695038 1.507881 1.072688
v -2.350881 1.503015 1.023892
v -2.427306 1.501786 1.076576
v -2.523203 1.505343 1.079686
v -1.996987 1.548294 0.799163
v -1.825639 1.542853 -2.755300
v -2.146431 1.547588 -2.755300
v -2.010617 1.546254 -2.755300
v -2.146917 1.549366 0.737926
v -1.934679 1.544972 -2.755300
v -1.668407 1.542095 0.766309
v -0.368690 1.500792 7.425191
v -0.351166 1.506730 7.306606
v -0.340943 1.503905 7.111814
v -0.336562 1.506494 7.086930
v -0.185659 1.478323 7.575076
v -0.188579 1.488760 7.523170
v -0.188093 1.472568 7.598793
v -0.400818 1.522084 7.590823
v -0.400818 1.520515 7.569633
v -0.331694 1.504297 6.891361
v -0.355060 1.506782 7.341793
v -0.360901 1.505500 7.370564
v -0.352626 1.505343 7.271613
v -0.365769 1.524543 7.426552
v -0.398871 1.518501 7.532502
v -0.406659 1.525694 7.612207
v -0.397897 1.520672 7.552331
v -0.366256 1.526871 7.464072
v -0.397897 1.522293 7.574104
v -0.365769 1.525668 7.447159
v -0.368203 1.528597 7.484095
v -0.354573 1.503852 7.291248
v -0.352139 1.503198 7.250423
v -0.342890 1.505370 7.166052
v -0.353600 1.507305 7.331489
v -0.390595 1.527420 7.571771
v -0.331208 1.523627 6.898748
v -0.390109 1.522921 7.529391
v -0.366743 1.523235 7.403807
v -0.401791 1.523523 7.600154
v -0.212919 1.492840 7.494399
v -0.400331 1.524909 7.600932
v -0.239205 1.491428 7.532502
v -0.203183 1.492552 7.498287
v -0.398871 1.523758 7.588490
v -0.193447 1.491401 7.505674
v -0.339483 1.523392 7.088680
v -0.345811 1.523418 7.202211
v -0.394976 1.522503 7.557385
v -0.385727 1.523314 7.508396
v -0.404712 1.526243 7.606958
v -2.073900 1.550857 0.968099
v -1.883566 1.543978 -2.755300
v -2.052481 1.549968 0.899086
v -2.825010 1.503565 1.146950
v -0.189553 1.477721 7.598988
v -0.227522 1.492055 7.517144
v -0.188093 1.480808 7.581880
v -0.187119 1.484156 7.563801
v -0.366743 1.503434 7.415277
v -0.333155 1.504088 6.942683
v -0.402765 1.524595 7.607347
v -0.401305 1.518527 7.552525
v -0.336075 1.496528 7.041246
v -0.331694 1.496868 6.906136
v -0.342890 1.494645 7.192102
v -0.360901 1.493756 7.393504
v -0.368690 1.492108 7.436856
v -0.370637 1.491218 7.450658
v -0.369177 1.490538 7.445215
v -0.367230 1.491088 7.431801
v -1.731203 1.477460 0.678244
v -1.670354 1.474948 0.541773
v -2.152759 1.476021 0.709349
v -2.639544 1.476518 0.765725
v -1.768685 1.475184 0.657832
v -1.750674 1.477250 0.691658
v -2.345526 1.476021 0.705655
v -1.912774 1.475942 0.705655
v -1.835861 1.475629 0.685826
v -1.821258 1.479160 0.788471
v -1.902551 1.479866 0.843487
v -2.330922 1.480625 0.867204
v -2.151298 1.480415 0.872841
v -1.989199 1.480311 0.860983
v -1.743372 1.481122 0.807716
v -2.587458 1.481095 0.880618
v -1.485376 1.403277 1.112151
v -1.474180 1.554415 1.105542
v -1.447893 1.401394 1.182720
v -1.417226 1.553368 1.039639
v -1.429396 1.553996 1.066856
v -1.447893 1.552950 1.019421
v -2.413676 1.523314 -2.755300
v -2.672159 1.522790 0.753478
v -2.493995 1.518030 0.761060
v -2.777305 1.517533 0.940494
v -2.922367 1.553028 -2.755300
v -0.245533 1.518239 7.507424
v -0.391082 1.495377 7.507424
v -0.337536 1.506704 7.101316
v -0.338023 1.506782 7.105787
v -0.342404 1.508299 7.241869
v -1.554013 1.547405 1.193995
v -1.345668 1.552767 1.193995
v -2.327515 1.495561 0.993954
v -2.772437 1.520175 0.876729
v -0.963055 1.542356 0.685243
v -0.964515 1.544030 0.640919
v -0.974251 1.543010 0.487146
v -0.972304 1.543481 0.569573
v -0.342890 1.496947 7.173440
v -0.342890 1.500818 7.128338
v -0.934822 1.544501 0.868176
v -0.948452 1.543664 0.810049
v -0.915350 1.543821 0.767086
v -0.912429 1.544841 0.872841
v -0.950885 1.542304 0.637808
v -0.958674 1.543141 0.716930
v -0.909509 1.546097 0.887616
v -0.975712 1.545076 -2.755300
v -0.957700 1.541938 0.549744
v -0.944070 1.541467 -2.755300
v -0.952346 1.541310 -2.755300
v -0.989341 1.540604 0.429408
v -0.985934 1.541650 0.364867
v -0.995670 1.540630 -2.755300
v -1.664026 1.477015 0.668524
v -1.742399 1.474948 0.551493
v -1.712705 1.480206 0.746480
v -1.666460 1.469665 -2.755300
v -1.746293 1.469089 -2.755300
v -1.670841 1.481802 0.708960
v -1.777934 1.468880 -2.755300
v -1.597823 1.470162 -2.755300
v -0.253322 1.535581 1.128481
v -0.251861 1.536105 1.133536
v -0.322932 1.535948 -2.755300
v -0.322932 1.536889 -2.755300
v -0.315144 1.540787 0.670857
v -0.323419 1.534927 -2.755300
v -0.322932 1.539374 -2.755300
v -0.315144 1.538066 0.660553
v -0.316117 1.542592 0.640919
v -0.296646 1.539426 0.958379
v -0.322932 1.543245 -2.755300
v -0.316117 1.543298 0.631393
v -0.075645 1.432966 1.170667
v -0.056174 1.446306 1.245512
v -1.689826 1.512615 7.551942
v -0.036216 1.541624 0.435435
v -0.042057 1.434980 1.054608
v -1.690313 1.505657 7.449492
v -0.034755 1.540159 0.409385
v -0.315630 1.536942 0.658609
v -0.322932 1.542565 -2.755300
v -0.030374 1.541755 -2.755300
v -0.322932 1.538014 -2.755300
v -0.322932 1.540813 -2.755300
v -0.225088 1.528597 1.061218
v -0.231416 1.527394 1.249983
v -0.273767 1.537752 1.089989
v -0.289831 1.540630 1.027975
v -0.281555 1.546777 1.060051
v -0.229469 1.528728 1.053247
v -0.322932 1.543873 -2.755300
v -0.259650 1.533803 1.128287
v -0.250888 1.533646 0.959545
v -0.307355 1.536994 0.857289
v -0.322932 1.547221 -2.755300
v -0.306868 1.538119 0.850096
v -0.322932 1.544632 -2.755300
v -0.491847 1.465689 -2.755300
v -0.485032 1.481462 0.880618
v -0.469941 1.481095 0.880618
v -0.483085 1.475707 0.689131
v -0.482598 1.466003 -2.755300
v -0.471402 1.476518 0.765725
v -0.123837 1.515519 -2.755300
v -0.255756 1.529853 1.212074
v -0.470915 1.466369 -2.755300
v -0.266465 1.531161 1.144033
v -0.268899 1.530507 1.156670
v -0.240665 1.527211 1.245512
v -0.233850 1.528074 1.245317
v -0.323419 1.551407 -2.755300
v -0.289831 1.535791 1.035945
v -0.290318 1.544161 1.031474
v -0.323419 1.532835 -2.755300
v -0.267439 1.536942 1.094266
v -0.241639 1.536131 1.130620
v -0.270359 1.536078 1.097571
v -1.792051 1.512144 7.442882
v -1.737531 1.503251 7.395253
v -0.035729 1.544318 0.292160
v -2.914578 1.542461 7.532696
v -0.049846 1.441362 1.246678
v -0.282042 1.534509 1.060246
v -0.254782 1.532678 0.955657
v -0.056661 1.461634 1.260675
v -0.068830 1.463099 1.235792
v -0.038649 1.446463 1.256593
v -0.051306 1.451773 1.257176
v -0.065423 1.452113 1.239291
v -0.036216 1.545966 0.394805
v -0.032808 1.544370 3.614894
v -0.060555 1.456874 1.251538
v -0.033782 1.545887 -2.579171
v -0.303948 1.539374 0.877313
v -0.259650 1.536549 1.112151
v -0.016257 1.432887 1.263591
v -0.305895 1.540708 0.861955
v -0.034268 1.539348 0.378669
v -0.064936 1.466447 1.248817
v -0.032808 1.452348 1.263591
v -0.261597 1.535817 1.108847
v -0.282042 1.548032 1.041778
v -0.288857 1.549392 1.025059
v -0.302974 1.543298 0.904140
v -0.301027 1.548974 0.912500
v -0.291778 1.547980 0.980541
v -0.303461 1.544083 0.901030
v -0.293238 1.545024 0.964794
v -0.270846 1.532286 1.119733
v -0.040597 1.547300 0.517667
v -0.036216 1.548922 -2.755300
v -0.062015 1.437308 1.230932
v -0.323419 1.533803 -2.755300
v -0.280582 1.530899 1.106903
v -0.316117 1.536000 0.659581
v -0.280582 1.531710 1.085129
v -0.285936 1.530978 1.076770
v -0.292751 1.531893 1.004841
v -0.265005 1.535032 1.101265
v -0.267439 1.534064 1.103598
v -0.269386 1.533096 1.119539
v -0.309302 1.543298 0.827934
v -0.276201 1.533358 1.093489
v -0.290804 1.534744 1.028364
v -0.308815 1.542539 0.836682
v -0.306868 1.545757 0.845236
v -0.308329 1.544893 0.829684
v -0.315630 1.545600 0.635475
v -0.322932 1.546306 -2.755300
v -0.273767 1.553081 1.087462
v -0.311736 1.551851 0.706433
v -0.286910 1.546881 1.017866
v -0.263544 1.532050 1.142867
v -0.273767 1.531422 1.121483
v -0.299080 1.545914 0.924358
v -0.296159 1.543324 0.967710
v -0.300053 1.552113 0.906668
v -0.314657 1.546437 0.652777
v -0.220707 1.528467 1.263591
v -0.221194 1.528310 1.259314
v -0.274740 1.530768 1.128676
v -0.245046 1.534457 0.969654
v -0.322932 1.545626 -2.755300
v -0.309302 1.544056 0.822297
v -0.316117 1.544710 0.628477
v -0.300053 1.538119 0.924941
v -0.276201 1.530114 1.135480
v -0.280582 1.535477 1.066856
v -0.262084 1.532835 1.133147
v -0.307355 1.534927 0.844459
v -0.299080 1.534875 0.942826
v -0.298593 1.537020 0.948659
v -0.268412 1.548922 1.108069
v -0.247967 1.528414 1.235597
v -0.260137 1.531030 1.160558
v -0.251375 1.529147 1.225683
v -0.262571 1.530167 1.186025
v -0.257703 1.529408 1.212463
v -0.298106 1.540604 0.940494
v -0.314657 1.539348 0.672218
v -0.315144 1.534927 0.655499
v -0.314657 1.533881 0.655305
v -0.306868 1.531867 0.837849
v -0.323419 1.531422 -2.755300
v -0.320985 1.531422 0.405108
v -0.323419 1.531998 -2.755300
v -0.312710 1.530951 0.718874
v -0.320498 1.530821 0.429797
v -0.286423 1.531815 1.052664
v -0.291778 1.530951 1.045082
v -0.240179 1.536601 1.126148
v -0.228983 1.536497 1.130814
v -0.280095 1.538249 1.066661
v -0.285936 1.538903 1.044888
v -0.315144 1.532913 0.640919
v -0.275227 1.547797 1.088240
v -0.289344 1.542251 1.026031
v -0.291291 1.543272 1.028558
v -0.246994 1.529905 1.036529
v -0.248454 1.529591 1.221989
v -0.047412 1.456612 1.269229
v -0.292265 1.539505 1.004841
v -0.293238 1.538197 1.008535
v -0.281555 1.537962 1.047415
v -0.293238 1.540604 0.986762
v -0.287884 1.552479 1.021948
v -0.307355 1.533907 0.838238
v -0.299080 1.533829 0.925330
v -0.304434 1.546646 0.854956
v -0.316117 1.544004 0.634115
v -0.271820 1.535111 1.094850
v -0.283503 1.533620 1.053247
v -0.299080 1.535921 0.960517
v -0.276688 1.529513 1.145394
v -0.323419 1.550360 -2.755300
v -0.228496 1.528414 1.249400
v -0.287397 1.544893 1.034196
v -0.252348 1.530768 0.984623
v -0.253809 1.528702 1.227821
v -0.492334 1.479317 0.857678
v -0.468481 1.485411 0.968488
v -0.480164 1.485595 0.944382
v -0.113614 1.516460 0.706433
v -0.320498 1.530036 0.436990
v -0.314657 1.529487 0.676494
v -0.307355 1.529382 0.859233
v -0.302487 1.542487 0.915804
v -0.244073 1.528754 1.235986
v -0.305408 1.529905 0.885478
v -0.320498 1.529513 0.420466
v -0.349705 1.503591 7.242258
v -0.339970 1.503565 7.103649
v -0.358954 1.491663 7.386116
v -0.345324 1.493128 7.234093
v -0.352139 1.491846 7.317492
v -0.334615 1.488969 7.011502
v -0.343864 1.492239 7.225540
v -0.334615 1.507828 7.040468
v -0.333155 1.503591 6.931602
v -0.334615 1.506991 7.028221
v -0.340943 1.492866 7.171301
v -0.334128 1.496110 6.981953
v -0.334615 1.494645 7.011502
v -0.336562 1.489230 7.070212
v -0.343377 1.486301 7.205516
v -0.339483 1.489570 7.165275
v -0.337049 1.490381 7.097817
v -0.358954 1.484522 7.375035
v -0.359928 1.503329 7.348402
v -0.352626 1.504192 7.274335
v -0.353600 1.489570 7.346264
v -0.350192 1.489544 7.301551
v -0.352139 1.490303 7.325074
v -0.338023 1.488446 7.115702
v -0.071751 1.522817 1.094072
v -0.093656 1.519442 1.009507
v -0.343864 1.488943 7.228067
v -0.093169 1.517271 1.021948
v -0.106313 1.518919 0.871092
v -0.082947 1.522215 1.067828
v -0.358468 1.481932 7.334405
v -0.357494 1.485490 7.365898
v -0.358468 1.488655 7.386116
v -0.359441 1.486065 7.379701
v -0.360901 1.485176 7.379507
v -0.235798 1.536026 1.136452
v -0.296159 1.542408 0.972765
v -0.244073 1.535398 1.153365
v -0.493307 1.475602 0.711293
v -0.108260 1.520959 0.847958
v -0.096090 1.521692 0.991816
v -0.103879 1.516879 0.906668
v -0.338509 1.486510 7.094123
v -0.363822 1.488132 7.412555
v -0.353113 1.506468 7.310688
v -0.334128 1.491951 7.008586
v -0.341917 1.493834 7.175384
v -0.347758 1.497732 7.216403
v -0.349705 1.497130 7.244008
v -0.367230 1.494279 7.417415
v -0.361875 1.494488 7.393698
v -0.358954 1.495377 7.358706
v -0.352139 1.494593 7.290276
v -0.357981 1.494279 7.360455
v -0.347758 1.496371 7.237593
v -0.910969 1.542330 -2.755300
v -0.928980 1.541885 -2.755300
v -0.928493 1.545233 0.888005
v -0.935795 1.547980 0.764753
v -0.909022 1.547901 0.929413
v -0.909509 1.549209 0.903751
v -0.930927 1.549549 0.721207
v -0.953319 1.549837 -2.555648
v -0.960621 1.548294 4.420500
v -0.921678 1.546123 0.895003
v -0.951372 1.545652 0.722957
v -0.957700 1.544867 0.673578
v -0.979606 1.544318 -2.755300
v -0.982040 1.543742 -2.755300
v -0.984960 1.543167 -2.755300
v -0.945531 1.546358 0.751534
v -0.323419 1.530245 -2.755300
v -0.299080 1.532626 0.929607
v -0.291778 1.532809 1.018449
v -0.323419 1.530899 -2.755300
v -0.284963 1.532652 1.061995
v -0.255269 1.531789 0.969654
v -0.278148 1.532469 1.097182
v -0.301514 1.544998 0.906862
v -0.296159 1.544161 0.964211
v -0.295672 1.546855 0.948075
v -0.315144 1.531867 0.660748
v -0.368203 1.502204 7.420137
v -0.366256 1.501551 7.409056
v -0.370637 1.501734 7.434717
v -0.335589 1.504349 7.010336
v -0.334128 1.506390 7.024138
v -0.112641 1.518684 0.731316
v -0.124810 1.520959 -2.197947
v -0.124324 1.518396 -2.755300
v -0.290318 1.545914 0.983651
v -0.365769 1.491532 7.422470
v -0.993236 1.543769 0.569573
v -1.016601 1.541702 0.605732
v -1.053597 1.547692 0.887616
v -0.997130 1.541781 0.364867
v -0.992262 1.546227 0.722957
v -0.995670 1.543298 0.487146
v -2.301228 1.446515 0.867204
v -1.062846 1.544030 0.663275
v -1.721467 1.450831 0.807716
v -1.120287 1.544370 -2.755300
v -0.924112 1.537962 -2.755300
v -0.867645 1.548660 -2.755300
v -0.849147 1.549863 0.645390
v -2.528557 1.442932 0.880618
v -0.826268 1.553944 0.861372
v -0.780997 1.520776 0.847958
v -0.785378 1.531919 0.837849
v -1.049216 1.543272 0.637808
v -1.064793 1.542304 -2.755300
v -0.991289 1.546986 0.751534
v -0.920705 1.538302 -2.755300
v -0.914377 1.532783 0.903751
v -0.841845 1.537857 1.046054
v -0.861317 1.551223 -2.755300
v -0.781484 1.523811 0.840376
v -0.805823 1.521378 0.991816
v -2.279810 1.430062 0.947103
v -1.857767 1.437596 0.913083
v -1.779881 1.443089 0.879451
v -1.973135 1.449576 0.860983
v -1.805194 1.453813 0.788471
v -1.886000 1.451407 0.843487
v -1.738018 1.458574 0.691658
v -1.761383 1.462471 0.657832
v -0.783918 1.534666 0.816270
v -0.782944 1.536157 0.789637
v -0.775643 1.546384 0.667941
v -0.778563 1.551511 0.685048
v -0.816046 1.553996 0.911916
v -0.826755 1.545312 0.940299
v -0.792193 1.546515 0.851068
v -0.837951 1.546908 0.858844
v -0.804850 1.548006 0.913277
v -0.877381 1.537909 0.943604
v -0.864724 1.536523 1.043722
v -0.817019 1.549628 0.911916
v -0.886143 1.531396 1.070160
v -0.849634 1.536445 1.051886
v -0.827242 1.526479 1.047610
v -0.883709 1.536601 0.959156
v -0.790246 1.547875 0.832989
v -0.817019 1.555016 0.927274
v -0.872513 1.535189 1.046832
v -0.831136 1.549706 0.838043
v -0.815559 1.550988 0.914444
v -0.881762 1.532521 1.065689
v -0.872026 1.542827 0.721402
v -0.372584 1.505788 7.452213
v -0.371124 1.512484 7.485067
v -0.365769 1.505657 7.418193
v -0.201723 1.493468 7.484095
v -0.346298 1.522869 7.173634
v -0.373558 1.522058 7.413722
v -0.381833 1.521561 7.456101
v -0.346298 1.522215 7.213681
v -0.373558 1.522267 7.418193
v -0.354573 1.522372 7.277445
v -0.390595 1.520227 7.490705
v -0.239205 1.492892 7.511895
v -0.249428 1.490564 7.490705
v -0.227522 1.493023 7.501980
v -0.332181 1.522764 6.919355
v -0.355060 1.522660 7.262865
v -0.364796 1.522555 7.360261
v -0.333155 1.521247 7.028415
v -2.136208 1.457371 0.709349
v -2.605956 1.454572 0.765725
v -2.120631 1.448503 0.872841
v -0.858396 1.553970 -2.755300
v -0.985934 1.554676 0.921637
v -0.964029 1.553342 0.736176
v -0.860343 1.554964 -2.755300
v -0.857909 1.553055 -2.755300
v -0.798035 1.552714 0.856706
v -0.824808 1.555016 0.900835
v -0.874460 1.522320 0.230729
v -0.859370 1.551982 -2.755300
v -0.844766 1.551904 0.638003
v -0.898799 1.529094 1.070355
v -0.787812 1.528833 0.857484
v -0.218273 1.509869 7.545332
v -0.349705 1.516748 7.380479
v -0.348245 1.519076 7.325657
v -0.377939 1.507750 7.483512
v -0.908048 1.540054 -1.572747
v -0.847200 1.554990 0.634503
v -0.842332 1.530951 1.078520
v -0.834057 1.555016 0.825990
v -0.873000 1.547221 -2.755300
v -0.878354 1.545835 -1.611239
v -0.827242 1.551799 0.846791
v -0.824808 1.529042 1.044305
v -0.843306 1.552924 0.645196
v -0.776616 1.545050 0.680188
v -0.815072 1.551720 0.904723
v -0.842332 1.553918 0.660942
v -0.846227 1.529277 1.082408
v -0.892958 1.523314 1.108652
v -0.872026 1.529487 1.075020
v -0.865211 1.531161 1.075215
v -0.794141 1.545129 0.863121
v -0.365769 1.522346 7.371147
v -0.218273 1.502414 7.554858
v -0.214379 1.512772 7.503536
v -0.225088 1.502361 7.572354
v -0.145255 1.513557 7.028804
v -0.331208 1.414708 6.610838
v -0.225088 1.506337 7.559135
v -0.211945 1.493651 7.480013
v -0.232877 1.508561 7.582074
v -0.207077 1.507305 7.524920
v -0.155478 1.513060 7.202211
v -0.230930 1.506390 7.561662
v -0.244560 1.511176 7.575076
v -0.778563 1.552636 0.681160
v -0.807284 1.539322 0.958184
v -0.339483 1.522895 7.048244
v -0.215353 1.509529 7.543000
v -0.249428 1.491114 7.487789
v -0.212919 1.504925 7.547276
v -0.208538 1.514551 7.476319
v -0.332668 1.457423 6.819821
v -0.338023 1.463230 7.008586
v -1.983844 1.458286 0.713625
v -1.904011 1.459202 0.705655
v -1.827586 1.460745 0.685826
v -1.718059 1.458391 0.678244
v -1.663539 1.464302 0.541773
v -0.203670 1.512929 7.480207
v -0.213892 1.508848 7.545332
v -0.218273 1.507671 7.541833
v -0.213405 1.504114 7.549998
v -0.197342 1.513269 7.454352
v -0.194908 1.512354 7.459406
v -0.333155 1.486929 6.947349
v -0.193447 1.514342 7.440355
v -0.211945 1.513766 7.491288
v -0.364309 1.516722 7.466794
v -0.343377 1.467075 7.089846
v -0.331208 1.427002 6.663715
v -0.372098 1.514629 7.492066
v -0.350679 1.512563 7.368815
v -0.220220 1.514629 7.509951
v -0.334615 1.516826 7.132615
v -0.335102 1.514865 7.133781
v -0.364796 1.506076 7.415471
v -0.334615 1.511647 7.138447
v -0.360901 1.508221 7.412166
v -0.335102 1.510915 7.139030
v -0.348245 1.511935 7.341209
v -0.336562 1.511229 7.184132
v -0.348732 1.510758 7.333628
v -0.340943 1.510601 7.236815
v -0.362849 1.508430 7.420526
v -0.361388 1.508535 7.406723
v -0.367230 1.506311 7.425386
v -0.371124 1.505997 7.441910
v -0.369664 1.508273 7.452991
v -0.369177 1.507933 7.443854
v -0.356520 1.511333 7.417221
v -0.362849 1.510209 7.428107
v -0.355060 1.511098 7.410806
v -0.366256 1.512066 7.460961
v -0.340456 1.508325 7.210765
v -0.341917 1.508901 7.232149
v -0.343864 1.508561 7.260143
v -0.346785 1.508535 7.287943
v -0.353600 1.508378 7.346847
v -0.359441 1.508456 7.405168
v -0.356034 1.511673 7.410222
v -0.349219 1.511883 7.365121
v -0.368203 1.511778 7.469126
v -0.369664 1.512170 7.477291
v -0.355060 1.510706 7.405168
v -0.353600 1.511255 7.402252
v -0.349219 1.512484 7.358511
v -0.350679 1.512144 7.379895
v -0.333155 1.505213 6.921688
v -0.342404 1.516748 7.289304
v -0.333641 1.504716 6.944822
v -0.784892 1.533253 0.826768
v -0.814586 1.552845 0.899280
v -0.183225 1.514106 7.417610
v -0.381346 1.521430 7.451436
v -0.336075 1.427028 7.004115
v -0.332181 1.450962 6.793771
v -0.390109 1.520018 7.487789
v -0.333641 1.476623 6.907302
v -0.371124 1.508639 7.461156
v -0.379399 1.509607 7.501980
v -0.378426 1.509764 7.500231
v -0.370637 1.510156 7.466016
v -0.370637 1.507959 7.453963
v -0.379886 1.510026 7.505285
v -0.367716 1.506023 7.430829
v -0.373071 1.508195 7.464655
v -0.375505 1.511726 7.507229
v -0.377452 1.511543 7.515783
v -0.376479 1.512197 7.507424
v -0.351653 1.488707 7.321963
v -0.378426 1.511935 7.521032
v -0.373071 1.506337 7.455518
v -0.356034 1.485516 7.349569
v -0.350192 1.486013 7.286193
v -0.340943 1.519128 7.237787
v -0.380860 1.519651 7.473209
v -0.334128 1.519076 7.094901
v -0.242613 1.499118 7.580130
v -0.211945 1.495822 7.512867
v -0.356034 1.519233 7.394670
v -0.274740 1.541336 7.363371
v -0.233850 1.498752 7.582852
v -0.265491 1.541022 7.433356
v -0.213892 1.498516 7.544555
v -0.211458 1.503512 7.547860
v -0.208538 1.502126 7.528808
v -0.200262 1.498229 7.505091
v -0.144769 1.514734 7.011502
v -0.165214 1.514158 7.289693
v -0.154991 1.514420 7.198712
v -0.218760 1.504009 7.555052
v -0.253322 1.493049 7.492649
v -0.237258 1.512641 7.577992
v -0.333155 1.479107 6.864922
v -2.092397 1.430376 0.933690
v -2.475984 1.425668 0.968488
v -1.962426 1.431527 0.933106
v -2.266180 1.408666 0.967321
v -1.005405 1.540237 -2.755300
v -1.018549 1.540447 -2.755300
v -1.002485 1.540447 0.230340
v -2.079741 1.402859 0.953907
v -2.329949 1.456534 0.705655
v -0.338023 1.521639 7.106371
v -1.032179 1.547405 0.895003
v -0.995183 1.544449 0.640919
v -1.020009 1.543821 0.716930
v -0.975712 1.550151 0.721207
v -0.998590 1.550413 0.903751
v -0.985447 1.548660 0.764753
v -0.901233 1.538119 0.720430
v -0.908535 1.533829 0.929413
v -0.907075 1.537177 0.767086
v -0.904641 1.535346 0.887616
v -0.846227 1.539400 1.042361
v -0.864238 1.550020 -2.755300
v -0.809718 1.537779 0.960128
v -0.845740 1.551197 0.635864
v -0.826268 1.552871 0.854762
v -0.789273 1.526112 0.880423
v -0.786352 1.530507 0.840959
v -0.805337 1.523967 0.980346
v -0.993723 1.545364 0.673578
v -1.021956 1.549288 0.929413
v -1.036073 1.546463 0.888005
v -1.071121 1.546515 0.872841
v -0.887117 1.539767 0.758533
v -0.902207 1.536366 0.872841
v -0.781484 1.537700 0.769030
v -0.808257 1.546620 0.927080
v -0.780024 1.540761 0.746674
v -0.780997 1.539270 0.758921
v -0.775156 1.547718 0.655499
v -0.779537 1.550543 0.691075
v -0.775156 1.549131 0.650444
v -0.842332 1.545495 0.858067
v -0.855475 1.537883 1.053442
v -0.897339 1.532652 1.008535
v -0.819940 1.548163 0.925136
v -0.828216 1.551093 0.840959
v -0.798522 1.551564 0.863510
v -0.876894 1.533803 1.063162
v -0.822861 1.546777 0.932718
v -0.865698 1.544213 0.709154
v -0.891498 1.533907 0.997648
v -0.846713 1.543978 0.880618
v -0.383780 1.493991 7.493621
v -0.373071 1.491611 7.454352
v -0.371124 1.482743 7.430440
v -0.363335 1.481122 7.354623
v -0.230930 1.504376 7.575659
v -0.229956 1.502361 7.580714
v -0.257703 1.498412 7.541055
v -0.204643 1.512092 7.486817
v -0.206104 1.511046 7.491288
v -0.186632 1.511700 7.433356
v -0.224602 1.511804 7.546110
v -0.231416 1.510339 7.560301
v -0.245533 1.504402 7.596849
v -0.246020 1.506756 7.585574
v -0.211945 1.510418 7.524142
v -0.231416 1.512197 7.566328
v -0.225088 1.510052 7.551748
v -0.224602 1.504323 7.560496
v -1.096434 1.543455 -2.755300
v -1.085238 1.545547 0.767086
v -1.029258 1.544527 0.810049
v -0.854989 1.547064 0.694380
v -0.775643 1.543559 0.678439
v -0.859857 1.545652 0.704294
v -1.573484 1.441572 -2.755300
v -0.811665 1.545207 0.950019
v -0.878841 1.541388 0.739675
v -0.779050 1.542121 0.732288
v -0.898313 1.541807 -1.576246
v -1.455195 1.468828 -2.755300
v -1.459576 1.470632 0.073262
v -0.831136 1.543795 0.968682
v -0.835031 1.548320 0.848541
v -0.243099 1.493232 7.515005
v -0.238231 1.506573 7.579936
v -0.238231 1.504428 7.591795
v -0.239205 1.508796 7.591017
v -1.462984 1.469325 0.272331
v -0.815559 1.543664 0.979374
v -0.797548 1.543638 0.886644
v -1.494625 1.467598 0.437379
v -1.490731 1.464015 0.543134
v -1.498519 1.454703 -2.755300
v -1.455195 1.470580 -2.755300
v -1.545251 1.448870 -2.755300
v -1.474180 1.461007 -2.755300
v -1.610480 1.454964 0.714792
v -1.570077 1.463361 0.590763
v -1.546711 1.459646 0.662303
v -1.586141 1.466317 0.471594
v -1.735097 1.463308 0.551493
v -1.692747 1.453107 0.746480
v -1.651857 1.460248 0.668524
v -1.646015 1.450544 0.708960
v -0.244073 1.502388 7.594322
v -0.216813 1.511595 7.522198
v -0.222168 1.513374 7.520838
v -0.219247 1.506416 7.551553
v -0.224602 1.508142 7.545916
v -0.365283 1.483528 7.390588
v -0.241639 1.514995 7.565161
v -0.243099 1.513138 7.582269
v -0.369177 1.480075 7.410611
v -0.248941 1.499144 7.572549
v -0.380373 1.516905 7.517922
v -0.389622 1.517140 7.541055
v -0.239692 1.517036 7.549998
v -0.236771 1.502335 7.592183
v -0.246507 1.517323 7.513061
v -0.333641 1.427107 6.870365
v -0.865698 1.539557 0.954685
v -0.828216 1.537805 1.041389
v -0.826268 1.539348 1.042944
v -0.884196 1.544501 -1.337325
v -0.890037 1.543167 -1.583439
v -0.333155 1.464642 6.816905
v -0.368203 1.512589 7.473986
v -0.364796 1.512406 7.454741
v -0.364796 1.514603 7.462711
v -0.357494 1.512511 7.420720
v -0.334615 1.511124 7.107148
v -0.372098 1.516826 7.492066
v -0.334128 1.510627 7.100538
v -0.338509 1.468618 6.998866
v -0.332668 1.471025 6.804268
v -0.357981 1.514577 7.435884
v -0.351166 1.514786 7.391948
v -0.357007 1.516800 7.426747
v -0.234824 1.516356 7.548637
v -0.236284 1.514420 7.568077
v -0.226549 1.515545 7.519477
v -0.229469 1.513897 7.544166
v -0.386214 1.509921 7.512478
v -0.252835 1.504663 7.585574
v -0.384754 1.507462 7.503730
v -0.262084 1.504663 7.544749
v -0.374531 1.494253 7.454352
v -0.380860 1.491506 7.472431
v -0.390595 1.500426 7.527058
v -0.391082 1.497418 7.513061
v -0.374531 1.503172 7.449103
v -0.383780 1.503382 7.507424
v -0.259650 1.509686 7.503730
v -0.261597 1.507227 7.512478
v -0.253322 1.506913 7.551553
v -0.252835 1.509215 7.538528
v -0.379886 1.512432 7.517727
v -0.260137 1.502492 7.557969
v -0.251375 1.502518 7.594127
v -0.389135 1.514734 7.557969
v -0.386701 1.512511 7.544749
v -0.380373 1.514682 7.522198
v -0.255756 1.513949 7.507424
v -0.249914 1.513714 7.553108
v -0.259163 1.511830 7.490511
v -0.380373 1.509712 7.504313
v -0.247967 1.515963 7.527058
v -0.374045 1.506050 7.458045
v -0.251375 1.511517 7.543972
v -0.382807 1.505422 7.490511
v -0.343377 1.514760 7.284638
v -0.334615 1.512694 7.112397
v -0.821887 1.530716 1.030113
v -0.852068 1.548503 0.658804
v -0.342890 1.512641 7.272196
v -0.338023 1.442513 7.067101
v -0.337049 1.434666 7.033858
v -0.365769 1.519913 7.414305
v -0.333155 1.485071 6.914106
v -0.332668 1.480677 6.853452
v -0.346785 1.465846 7.175384
v -0.382807 1.497235 7.505091
v -0.349705 1.463047 7.234288
v -0.383294 1.500557 7.510729
v -0.367716 1.487033 7.426941
v -0.365769 1.477276 7.379701
v -0.378426 1.489466 7.458629
v -0.357007 1.475759 7.278806
v -0.345811 1.458862 7.202406
v -0.342404 1.462393 7.096845
v -0.361875 1.473928 7.333822
v -0.360415 1.478506 7.318075
v -0.353600 1.472882 7.236621
v -0.358468 1.470136 7.301940
v -0.354086 1.466264 7.263254
v -0.350192 1.469325 7.211543
v -0.226062 1.498987 7.572938
v -0.228009 1.494880 7.530752
v -0.270359 1.541388 7.399141
v -0.372584 1.519547 7.451241
v -0.227522 1.553918 7.459406
v -0.219734 1.554729 7.486817
v -0.224602 1.554886 7.480207
v -0.175436 1.512275 7.363371
v -0.229956 1.554389 7.454352
v -0.189553 1.512798 7.439577
v -0.175436 1.514054 7.368815
v -1.030718 1.541545 0.401998
v -1.043375 1.542748 0.549744
v -1.025850 1.542984 0.685243
v -1.042401 1.541362 -2.755300
v -1.076963 1.542670 -2.755300
v -1.006866 1.540761 0.429408
v -1.038020 1.545652 0.868176
v -0.238231 1.510706 7.570799
v -0.245533 1.509032 7.575854
v -0.887603 1.535267 0.971209
v -0.390109 1.519625 7.492649
v -0.200262 1.495717 7.503730
v -0.335589 1.417899 6.962124
v -0.333155 1.416199 6.833235
v -0.207564 1.506337 7.527447
v -0.165214 1.512615 7.293581
v -0.180791 1.512694 7.399141
v -0.913890 1.524046 1.074243
v -0.892471 1.530193 1.067244
v -0.280095 1.505710 1.071716
v -0.283989 1.506050 1.055191
v -0.271820 1.511700 1.150838
v -0.283503 1.511830 1.090767
v -0.292265 1.519076 1.024476
v -0.314170 1.518998 0.724706
v -0.267925 1.521326 1.081241
v -0.034268 1.497418 1.160558
v -0.062015 1.497313 1.133536
v -0.293238 1.522503 0.892671
v -0.029401 1.501341 1.212658
v -0.293238 1.522215 0.907251
v -0.327800 1.414394 0.240643
v -0.275227 1.522136 1.047998
v -0.049846 1.495691 1.109819
v -0.259163 1.520148 1.120511
v -0.287397 1.509999 1.057913
v -0.294699 1.510496 1.034973
v -0.273767 1.511935 1.137229
v -0.278148 1.506023 1.085324
v -0.315630 1.507724 0.670274
v -0.318064 1.504009 0.572489
v -0.324879 1.507881 -0.163715
v -0.311249 1.503408 0.733455
v -0.308329 1.503120 0.758338
v -0.301514 1.503382 0.872064
v -0.308815 1.500478 0.758144
v -0.046438 1.508613 1.171639
v -0.099984 1.512981 0.923386
v -0.133086 1.515283 -2.755300
v -0.273280 1.507436 1.113318
v -0.072238 1.514995 1.070160
v -0.057634 1.515362 1.106125
v -0.120916 1.514891 0.641308
v -0.323906 1.522764 -2.755300
v -0.100471 1.514525 0.919498
v -0.315144 1.521195 0.658221
v -0.090249 1.514525 0.998620
v -0.046925 1.510758 1.175138
v -0.303461 1.489047 0.931357
v -0.295185 1.485385 1.009507
v -0.309789 1.488603 0.857872
v -0.295672 1.488001 1.015922
v -0.314170 1.489335 0.795080
v -0.300053 1.489021 0.976069
v -0.683153 1.554938 0.825990
v -0.659788 1.553892 -2.755300
v -0.657354 1.554859 -2.755300
v -0.670497 1.554886 0.634503
v -0.758118 1.553708 5.532096
v -1.458116 1.471626 -2.755300
v -0.749843 1.528676 -2.755300
v -0.711387 1.528937 0.857484
v -0.673418 1.551851 0.638003
v -0.690455 1.551773 0.846791
v -0.300053 1.518945 0.955463
v -0.301514 1.522738 0.803440
v -0.267439 1.521430 1.085907
v -0.048385 1.500557 1.174360
v -0.307355 1.518998 0.867593
v -0.049846 1.497836 1.142673
v -0.100471 1.511673 0.912305
v -0.089762 1.512746 0.993177
v -0.110207 1.514682 0.828518
v -0.268412 1.519495 1.103014
v -0.084407 1.513217 1.028947
v -0.082460 1.514655 1.047415
v -0.070291 1.493442 1.121872
v -0.287397 1.508221 1.050331
v -0.289344 1.508325 1.036529
v -0.309789 1.508195 0.840571
v -0.034268 1.495639 1.131786
v -0.278635 1.512249 1.114873
v -0.059581 1.495142 1.113901
v -0.327800 1.465950 -2.755300
v -0.298593 1.516591 1.010284
v -0.308329 1.522817 0.678050
v -0.301514 1.522084 0.843487
v -0.315630 1.522712 0.549161
v -0.282529 1.522241 1.000953
v -0.275227 1.521901 1.043527
v -0.303948 1.485516 0.915999
v -0.282042 1.511543 1.098932
v -0.282042 1.507671 1.073660
v -0.314657 1.511569 0.768253
v -0.299080 1.511961 1.009701
v -0.313196 1.511124 0.813937
v -0.300053 1.512301 0.988317
v -0.308329 1.508744 0.861955
v -0.318064 1.503539 0.561408
v -0.325853 1.503565 -2.755300
v -0.302974 1.496685 0.873813
v -0.296646 1.508168 0.976653
v -0.291291 1.508247 1.034973
v -0.309789 1.496607 0.803245
v -0.304921 1.497339 0.846208
v -0.316604 1.496345 0.671051
v -0.262571 1.494305 1.137229
v -0.290318 1.505239 1.000370
v -0.020152 1.519181 1.137229
v -0.298106 1.505134 0.901419
v -0.312710 1.506651 0.735593
v -0.016257 1.514734 1.182914
v -0.299566 1.502989 0.880229
v -0.270359 1.496293 1.134897
v -0.315630 1.504271 0.640141
v -0.283989 1.501891 1.049942
v -0.297133 1.503617 0.921053
v -0.284963 1.489727 1.075020
v -0.293238 1.511150 1.047026
v -0.286423 1.493546 1.047221
v -0.329260 1.426950 -2.755300
v -0.278148 1.507907 1.094461
v -0.013337 1.494043 1.120511
v -0.276201 1.519390 1.081047
v -0.283016 1.519756 1.044110
v -0.325853 1.415205 0.463040
v -0.328774 1.435869 -2.755300
v -0.259650 1.519468 1.122455
v -0.319525 1.441258 0.696907
v -0.309302 1.491872 0.855345
v -0.318064 1.494488 0.641308
v -0.283503 1.490407 1.080464
v -0.284963 1.491323 1.066661
v -0.328774 1.444606 -2.755300
v -0.327313 1.481749 -2.755300
v -0.327313 1.477250 -2.755300
v -0.320985 1.433567 0.663664
v -0.328774 1.451093 -2.755300
v -0.316604 1.506285 0.653944
v -0.307842 1.505213 0.795858
v -0.299566 1.506547 0.936411
v -0.316117 1.506887 0.658026
v -0.319525 1.504245 0.521167
v -0.306381 1.508404 0.889949
v -0.295672 1.506573 0.971598
v -0.303461 1.508351 0.917748
v -0.289344 1.507985 1.041972
v -0.281069 1.507985 1.082797
v -0.294699 1.510889 1.040611
v -0.314657 1.510810 0.768836
v -0.301027 1.491323 0.947298
v -0.285450 1.505370 1.047998
v -0.272306 1.509476 1.130036
v -0.271820 1.509293 1.131786
v -0.279121 1.505474 1.082019
v -0.283503 1.505736 1.060635
v -0.279608 1.508378 1.090961
v -0.280095 1.507671 1.083769
v -0.270846 1.509764 1.135091
v -0.329260 1.413479 -2.755300
v -0.279608 1.509895 1.095822
v -0.298106 1.484888 0.979374
v -0.023072 1.495901 1.141701
v -0.283503 1.522398 0.990066
v -0.309789 1.521535 0.736176
v -0.323906 1.520986 -2.755300
v -0.331694 1.435660 6.716204
v -0.373558 1.485778 7.446187
v -0.370150 1.489597 7.443660
v -0.335102 1.443743 6.960763
v -0.304921 1.475210 0.863510
v -0.309789 1.474922 0.782055
v -0.317578 1.481331 0.664247
v -0.306381 1.473876 0.841348
v -0.296646 1.478767 0.949242
v -0.296159 1.481252 0.964211
v -0.296646 1.484836 0.995704
v -0.297619 1.479814 0.935828
v -0.305895 1.483136 0.895781
v -0.295185 1.483842 1.004841
v -0.316117 1.484208 0.695157
v -0.308815 1.483397 0.854956
v -0.299080 1.479186 0.928441
v -0.302974 1.475629 0.880229
v -0.311736 1.473850 0.747063
v -0.326340 1.508744 6.446373
v -0.373558 1.497025 7.446964
v -0.323419 1.508508 0.278163
v -0.311249 1.483528 0.805384
v -0.303461 1.476701 0.871286
v -0.315144 1.472987 0.691658
v -0.307355 1.503539 0.793525
v -0.325366 1.506102 -0.456680
v -0.324393 1.501891 -0.017524
v -0.327313 1.494671 6.364918
v -0.373558 1.499824 7.444437
v -0.331694 1.444658 6.761694
v -0.334128 1.435372 6.912940
v -0.326826 1.489858 5.901073
v -0.367230 1.497208 7.410806
v -0.326826 1.491218 -2.755300
v -0.351653 1.497522 7.255283
v -0.338996 1.449236 7.105982
v -0.326340 1.483816 0.080844
v -0.327313 1.482848 6.120553
v -0.351166 1.500452 7.236426
v -0.336075 1.450413 7.004892
v -0.358468 1.500504 7.327407
v -0.358468 1.497261 7.337516
v -0.338023 1.457266 7.034053
v -0.802416 1.542225 0.916388
v -0.811665 1.536235 0.979180
v -0.819453 1.532076 1.024864
v -0.832597 1.521849 1.067828
v -0.621332 1.522633 0.230729
v -0.853528 1.524648 1.092711
v -0.758118 1.554807 -0.895836
v -0.597479 1.529565 1.070355
v -0.658814 1.551956 -2.755300
v -0.833083 1.534901 1.050137
v -0.858396 1.541074 0.936994
v -0.834544 1.542304 1.014561
v -0.854502 1.522450 1.094072
v -0.719176 1.552688 0.856706
v -0.913890 1.552714 0.736176
v -0.606728 1.540499 -1.572747
v -0.814099 1.534744 0.992010
v -0.853042 1.542539 0.920665
v -0.829189 1.524255 1.055386
v -0.824321 1.540813 1.043722
v -0.659788 1.552976 -2.755300
v -0.882249 1.553368 0.921637
v -0.658814 1.531265 1.078520
v -0.839412 1.532181 1.072688
v -0.817019 1.533384 1.010090
v -0.820427 1.542251 1.017477
v -0.645671 1.547300 -2.755300
v -0.721609 1.545181 0.863121
v -0.704572 1.545286 0.950019
v -0.639830 1.545992 -1.611239
v -0.674391 1.552871 0.645196
v -0.601373 1.523654 1.108652
v -0.757632 1.544893 -2.755300
v -0.675365 1.553839 0.660942
v -0.652973 1.529565 1.082408
v -0.662708 1.547143 0.694380
v -1.844624 1.468461 -2.755300
v -0.657841 1.545809 0.704294
v -1.608046 1.485071 -2.755300
v -0.617924 1.542147 -1.576246
v -0.635935 1.531579 1.075215
v -0.756658 1.542016 -2.755300
v -2.334817 1.466840 -2.755300
v -2.623967 1.466369 -2.755300
v -0.751303 1.531789 -1.738184
v -0.750817 1.530402 -2.755300
v -0.752277 1.533123 4.120925
v -0.971817 1.545914 -2.755300
v -0.699704 1.543795 0.979374
v -0.739621 1.543586 0.678439
v -0.636422 1.541702 0.739675
v -0.968410 1.546698 -2.755300
v -0.286423 1.505814 1.045277
v -0.280582 1.511935 1.107097
v -0.272793 1.511281 1.145589
v -0.296159 1.511072 1.032057
v -0.318064 1.497130 0.637420
v -0.326340 1.497679 -2.755300
v -0.325853 1.500975 -2.755300
v -0.318551 1.495953 0.611758
v -0.322445 1.426060 0.633920
v -0.327800 1.473745 -2.755300
v -0.294212 1.491035 1.015922
v -0.307355 1.484182 0.876341
v -0.302974 1.479997 0.889560
v -0.801929 1.549419 0.886450
v -0.830649 1.536340 1.046443
v -0.940663 1.552662 -2.755300
v -0.702625 1.551720 0.904723
v -0.302000 1.488184 0.951769
v -0.301027 1.494096 0.920081
v -0.295185 1.493677 0.990261
v -0.293725 1.511490 1.040028
v -0.308815 1.510470 0.866621
v -0.300053 1.511726 0.994926
v -0.307355 1.496581 0.843681
v -0.054713 1.503015 1.158614
v -0.072724 1.496371 1.110596
v -0.062015 1.499824 1.134897
v -0.312710 1.506573 0.731122
v -0.298593 1.503957 0.904140
v -0.301514 1.511778 0.971015
v -0.301514 1.510601 0.963433
v -0.294212 1.494802 0.988511
v -0.320498 1.496738 0.535941
v -0.291778 1.503068 0.978208
v -0.284963 1.503146 1.045082
v -0.297133 1.507096 0.961295
v -0.298106 1.506259 0.940494
v -0.274740 1.511464 1.137035
v -0.021125 1.501812 1.209936
v -0.324393 1.519050 -2.755300
v -0.259163 1.519861 1.117595
v -0.323419 1.416199 0.591929
v -0.321472 1.476518 0.537108
v -0.075645 1.513426 1.069383
v -0.301514 1.489780 0.954879
v -0.315630 1.488263 0.745508
v -0.317091 1.489100 0.700017
v -0.285936 1.500923 1.038862
v -0.283989 1.500138 1.054997
v -0.282042 1.501080 1.064523
v -0.302000 1.471653 0.866426
v -0.302000 1.465009 0.893059
v -0.307842 1.508168 0.871675
v -0.314170 1.506390 0.716736
v -0.310276 1.503748 0.741619
v -0.318064 1.500766 0.567823
v -0.682667 1.548372 0.848541
v -0.036702 1.501341 1.202743
v -0.024533 1.515989 1.194967
v -0.033782 1.507462 1.191468
v -0.022586 1.514158 1.212074
v -0.040597 1.509110 1.175721
v -0.326826 1.486876 -2.755300
v -0.315144 1.511046 0.736954
v -0.320985 1.486876 0.577155
v -0.320985 1.485045 0.543912
v -0.026480 1.507698 1.209742
v -0.026480 1.505631 1.221600
v -0.013337 1.494514 1.117595
v -0.322932 1.464355 0.446710
v -0.006522 1.501603 1.170861
v -0.033782 1.503539 1.210519
v -0.026480 1.517977 1.179804
v -0.068343 1.513949 1.084157
v -0.032321 1.509581 1.211880
v -0.039136 1.507358 1.188941
v -0.020152 1.503722 1.224127
v -0.285936 1.479160 1.040417
v -0.004088 1.508508 1.142284
v -0.012850 1.510366 1.168334
v -0.010416 1.514969 1.137229
v -0.281069 1.484836 1.075992
v -0.275714 1.488472 1.088434
v -0.323906 1.434692 0.542745
v -0.297619 1.468671 0.931746
v -0.324393 1.514629 -2.755300
v -0.291291 1.514394 1.065689
v -0.324393 1.516774 -2.755300
v -0.314170 1.516774 0.762421
v -0.317578 1.504637 0.574627
v -0.306868 1.512511 0.902002
v -0.327313 1.485333 3.624420
v -0.305895 1.514629 0.914444
v -0.312710 1.466290 0.719652
v -0.322932 1.470816 0.434074
v -0.299080 1.512380 0.998620
v -0.324879 1.426479 0.500171
v -0.316117 1.490224 0.727622
v -0.315630 1.486327 0.723929
v -0.310763 1.485961 0.835322
v -0.312223 1.492579 0.801107
v -0.965489 1.551564 0.658221
v -1.789617 1.396685 0.736176
v -1.841703 1.429513 0.882562
v -0.983987 1.551799 0.855734
v -0.924599 1.531579 0.855734
v -0.912916 1.530245 0.988511
v -0.981066 1.553421 0.870703
v -1.937113 1.404454 0.921637
v -1.721467 1.435425 0.776418
v -0.856936 1.533672 1.064911
v -0.025993 1.509895 1.220823
v -0.019665 1.496319 1.144811
v -0.044978 1.503434 1.184664
v -0.284963 1.516539 1.096599
v -0.053740 1.514603 1.121094
v -0.277174 1.516643 1.121872
v -0.314657 1.512615 0.742203
v -0.045464 1.515519 1.139757
v -0.317578 1.505134 0.551493
v -0.324879 1.509921 -2.755300
v -0.281555 1.512354 1.103792
v -0.326826 1.426740 0.293521
v -0.048872 1.512484 1.152004
v -0.007008 1.512929 1.120316
v -0.268899 1.502937 1.137229
v -0.003114 1.506076 1.174555
v -0.050819 1.513609 1.133341
v -0.119943 1.513714 0.658609
v -0.109720 1.513321 0.832017
v -0.059094 1.511830 1.121094
v -0.027453 1.511726 1.200605
v -0.260624 1.516931 1.170861
v -0.028427 1.513635 1.207798
v -0.009929 1.496424 1.122455
v -0.044978 1.505003 1.184858
v -0.038163 1.503460 1.202160
v -0.289344 1.482691 1.020393
v -0.279121 1.493389 1.084157
v -0.031348 1.517297 1.178443
v -0.265005 1.509633 1.142284
v -0.261110 1.514498 1.187774
v -0.270359 1.512170 1.147533
v -0.266952 1.507122 1.133536
v -0.277661 1.502832 1.078909
v -0.306381 1.461948 0.864093
v -0.309302 1.464904 0.805189
v -0.029401 1.515388 1.197883
v -0.012850 1.503931 1.223933
v -0.291291 1.480311 0.984429
v -0.011876 1.505997 1.215379
v -0.011876 1.508168 1.181359
v -0.269386 1.514446 1.152004
v -0.310763 1.457920 0.832211
v -0.018204 1.516931 1.156864
v -0.318064 1.448556 0.735787
v -0.318551 1.456717 0.663858
v -0.313683 1.461634 0.726650
v -0.286423 1.490329 1.061607
v -0.292751 1.493128 1.023309
v -0.287884 1.490800 1.052275
v -0.310763 1.493494 0.805189
v -0.307842 1.492736 0.863899
v -0.317091 1.468095 0.628671
v -0.297619 1.514629 1.021754
v -0.291778 1.512327 1.050526
v -0.314170 1.514786 0.763587
v -0.321959 1.480703 0.483258
v -0.327313 1.479264 -2.755300
v -0.328287 1.456743 -2.755300
v -0.321959 1.479055 0.494728
v -0.324879 1.450753 0.423576
v -0.315630 1.452924 0.769808
v -0.283989 1.488760 1.073465
v -0.322932 1.442958 0.590568
v -0.262571 1.499379 1.156864
v -0.305895 1.468226 0.841348
v -0.269873 1.499667 1.140534
v -0.262084 1.496345 1.142867
v -0.268899 1.505029 1.120316
v -0.277661 1.505710 1.087851
v -0.283503 1.481828 1.060246
v -0.036216 1.514839 1.173972
v -0.004574 1.503983 1.187774
v -0.290318 1.487373 1.042361
v -0.015284 1.501891 1.202354
v -0.034268 1.513164 1.196133
v -0.108747 1.511857 0.840182
v -0.043517 1.514289 1.150643
v -0.033295 1.505500 1.205465
v -0.040110 1.510993 1.181553
v -0.040597 1.512720 1.175916
v -0.118969 1.512432 0.675717
v -0.132599 1.514289 -2.755300
v -0.132599 1.513426 -2.755300
v -0.039136 1.505370 1.190301
v -0.044978 1.507384 1.181359
v -0.269386 1.516722 1.147727
v -0.019178 1.518291 1.142867
v -0.027453 1.503591 1.221795
v -0.305895 1.476047 0.849513
v -0.318551 1.474792 0.653555
v -0.320011 1.475472 0.610009
v -0.309789 1.470763 0.780694
v -0.310276 1.477695 0.756783
v -0.308815 1.473457 0.814521
v -0.316117 1.478584 0.662692
v -0.307355 1.482639 0.870314
v -0.300540 1.482011 0.937383
v -0.298106 1.478244 0.927857
v -0.321472 1.482848 0.498421
v -0.293725 1.484470 1.009312
v -0.316604 1.482142 0.670857
v -0.314170 1.481409 0.726067
v -0.308329 1.480598 0.831434
v -0.306868 1.477120 0.822880
v -0.310763 1.472333 0.767864
v -0.317578 1.475838 0.655305
v -0.312223 1.475916 0.727039
v -0.316604 1.475236 0.683882
v -0.315630 1.480729 0.701767
v -0.323906 1.505710 0.161716
v -0.325853 1.512537 6.423628
v -0.325366 1.512066 6.318650
v -0.324879 1.512249 0.062765
v -0.326340 1.501708 6.338090
v -0.325366 1.489100 0.235783
v -0.326826 1.489047 5.887853
v -0.325366 1.502361 -1.348406
v -0.325853 1.494200 -0.234089
v -0.326340 1.483188 0.240838
v -0.327313 1.493729 6.390773
v -0.366256 1.500060 7.408667
v -0.341430 1.453682 7.140002
v -0.935795 1.528231 0.953907
v -0.950885 1.524752 0.968488
v -0.917784 1.529173 1.010479
v -0.926059 1.526034 1.042361
v -0.921192 1.527891 1.033029
v -0.936769 1.529277 0.921637
v -0.932388 1.524072 1.043333
v -0.931414 1.530271 0.870703
v -1.769659 1.417010 0.743563
v -0.799495 1.550805 0.867009
v -0.778563 1.553787 0.688936
v -0.779050 1.554833 0.696907
v -0.798522 1.553839 0.846986
v -0.940176 1.526557 0.967321
v -0.905128 1.531448 1.012034
v -0.962568 1.552793 0.671051
v -0.789759 1.549262 0.825407
v -0.799008 1.554859 0.860205
v -0.805337 1.540813 0.943798
v -0.836491 1.533515 1.064523
v -0.839412 1.540865 1.038667
v -0.692402 1.554938 0.900835
v -0.674391 1.529251 1.044305
v -1.670354 1.398961 -2.755300
v -0.626686 1.529879 1.075020
v -0.739621 1.545076 0.680188
v -1.583707 1.437779 -2.755300
v -1.688365 1.373222 -2.755300
v -1.631412 1.421849 -2.755300
v -1.668407 1.447745 0.747452
v -0.860830 1.532364 1.069188
v -0.884196 1.525145 1.098154
v -0.757632 1.543533 -2.461752
v -0.879328 1.527263 1.083769
v -0.850608 1.526897 1.089406
v -0.909995 1.525668 1.066856
v -0.904154 1.527682 1.068216
v -0.754711 1.537569 -2.755300
v -0.717715 1.543716 0.886644
v -0.734753 1.542173 0.732288
v -0.685101 1.543926 0.968682
v -1.456169 1.472777 -2.755300
v -0.014797 1.512589 1.173777
v -0.273280 1.490512 1.102237
v -0.019178 1.505683 1.226655
v -0.021125 1.512249 1.204882
v -0.020152 1.510156 1.205659
v -0.309789 1.494305 0.821908
v -0.304921 1.495953 0.867398
v -0.853528 1.535058 1.055386
v -0.019178 1.507933 1.215379
v -0.264031 1.512249 1.174555
v -0.270359 1.509398 1.134119
v -0.270359 1.492997 1.123427
v -0.281069 1.490748 1.084157
v -0.305895 1.516617 0.919109
v -0.284476 1.514394 1.092517
v -0.318551 1.462707 0.638392
v -0.301027 1.500033 0.866232
v -0.326340 1.435320 0.346010
v -0.006035 1.510863 1.133536
v -0.039623 1.516460 1.149282
v -0.291778 1.493860 1.023504
v -0.294699 1.477747 0.947881
v -0.289344 1.476413 1.009507
v -0.298106 1.475079 0.908612
v -0.286423 1.486222 1.056747
v -0.033782 1.511333 1.190107
v -0.323906 1.457161 0.449626
v -0.284963 1.512170 1.084546
v -0.291778 1.516643 1.056552
v -0.315630 1.510523 0.730344
v -0.277661 1.514420 1.121872
v -0.319038 1.491846 0.638392
v -0.319038 1.488890 0.641308
v -0.320985 1.449942 0.634698
v -0.301027 1.497051 0.885089
v -0.294212 1.496711 0.967321
v -0.293725 1.472359 0.963628
v -0.325853 1.444240 0.391500
v -0.279608 1.496241 1.076770
v -0.294212 1.499981 0.957212
v -0.325853 1.505317 6.019270
v 13.591344 1.544946 1.132953
v 13.566518 1.543376 1.099321
v 13.325559 1.544449 1.088629
v 13.688214 1.543089 1.103792
v 13.272986 1.544004 1.083185
v 13.591831 1.544056 1.101070
v 12.615826 1.535895 1.270784
v 14.016795 1.544239 1.142673
v 13.846907 1.543586 1.108069
v 13.882442 1.544580 1.143450
v 13.596212 1.545469 1.155309
v 13.334808 1.545260 1.127898
v 12.756994 1.534718 1.298389
v 12.691278 1.533410 1.296640
v 12.530152 1.532286 1.280504
v 13.720342 1.544789 1.143839
v 13.814292 1.542827 1.108458
v 13.259843 1.546175 1.156086
v 13.732025 1.543795 1.104570
v 13.517353 1.542801 1.114679
v 12.982862 1.542984 1.127120
v 13.724723 1.541676 1.135674
v 13.521247 1.537491 1.242013
v 13.487172 1.528623 1.155309
v 12.732655 1.530088 1.234820
v 12.614366 1.531135 1.259314
v 13.177090 1.538746 1.216935
v 13.247674 1.540002 1.163474
v 14.328337 1.508430 1.280504
v 14.142872 1.510078 1.303638
v 14.199339 1.518893 1.219462
v 13.627366 1.525328 1.258537
v 15.427499 1.531736 1.118956
v 14.130216 1.507985 1.313164
v 15.424091 1.531972 1.104375
v 15.128613 1.394305 1.262619
v 15.116443 1.414865 1.282060
v 13.499828 1.521195 1.288864
v 15.100866 1.425459 1.298973
v 15.409488 1.523000 1.274089
v 15.400726 1.522764 1.276811
v 15.408028 1.522189 1.278171
v 15.399265 1.521666 1.281088
v 13.653653 1.518893 1.287114
v 15.423605 1.521378 1.294501
v 15.410948 1.520933 1.289641
v 15.343772 1.528728 1.291974
v 15.345232 1.527577 1.287697
v 15.353994 1.526714 1.294307
v 15.420197 1.532259 1.088823
v 14.099061 1.509372 1.308693
v 13.569439 1.522110 1.277005
v 14.042594 1.510470 1.296640
v 14.015821 1.514760 1.269423
v 14.153095 1.515440 1.250177
v 14.569296 1.506651 1.149866
v 14.471452 1.508665 1.234820
v 14.561994 1.515649 1.141895
v 15.346693 1.526609 1.285170
v 15.419710 1.519939 1.294501
v 14.587794 1.500452 1.151032
v 13.690162 1.527760 1.256398
v 14.260674 1.528754 1.185636
v 13.744195 1.545129 1.165223
v 14.213456 1.517376 1.217907
v 15.215747 1.444240 1.185636
v 15.409975 1.519599 1.294307
v 15.424091 1.520776 1.296057
v 15.430420 1.520175 1.294307
v 15.148571 1.453290 1.268646
v 15.418737 1.520724 1.295279
v 15.431393 1.521090 1.295279
v 15.398292 1.520619 1.284392
v 15.339878 1.526557 1.276811
v 15.340364 1.527420 1.281088
v 15.413382 1.522215 1.279338
v 15.401213 1.519521 1.291974
v 15.339878 1.528257 1.284392
v 15.430906 1.522058 1.292752
v 13.607408 1.521770 1.277977
v 15.124232 1.428074 1.279143
v 13.181958 1.516696 1.296834
v 13.447742 1.514289 1.287114
v 15.104760 1.439348 1.302472
v 13.082653 1.518527 1.302472
v 15.139809 1.412563 1.256398
v 13.705252 1.525354 1.250177
v 13.869785 1.527473 1.248817
v 14.511855 1.508744 1.196522
v 15.424091 1.531972 1.104375
v 14.328337 1.508430 1.280504
v 15.427499 1.531736 1.118956
v 13.499828 1.521195 1.288864
v 13.723263 1.492919 1.387037
v 15.033203 1.467075 1.387037
v 15.383202 1.520829 1.399090
v 15.039531 1.463779 1.378483
v 15.045372 1.460562 1.368958
v 15.092104 1.475419 1.345240
v 13.817699 1.503434 1.350878
v 15.073119 1.478611 1.371679
v 13.082653 1.518527 1.302472
v 14.142872 1.510078 1.303638
v 14.153095 1.515440 1.250177
v 14.199339 1.518893 1.219462
v 14.099061 1.509372 1.308693
v 13.987101 1.512066 1.284587
v 14.252886 1.518213 1.191273
v 14.311787 1.518317 1.159780
v 14.107824 1.516042 1.252316
v 14.079103 1.538223 1.211297
v 13.696003 1.513191 1.288086
v 13.474029 1.513295 1.284198
v 14.154555 1.543769 1.139173
v 14.421313 1.349733 1.175916
v 14.164291 1.344318 1.127315
v 14.466098 1.524386 1.128676
v 14.223678 1.543376 1.129842
v 14.534248 1.513871 1.145200
v 14.468532 1.515283 1.136452
v 14.359005 1.520567 1.155503
v 14.500659 1.515937 1.124982
v 14.406223 1.516983 1.133341
v 14.420340 1.518108 1.128092
v 14.531814 1.501551 1.186802
v 14.386265 1.521509 1.149671
v 14.247531 1.521613 1.205659
v 14.293289 1.520541 1.181748
v 14.319575 1.525929 1.188163
v 14.455875 1.520070 1.117983
v 14.252886 1.524595 1.205854
v 14.289881 1.527499 1.186802
v 15.368598 1.521326 1.382371
v 15.366651 1.519704 1.378678
v 15.373466 1.520489 1.384510
v 13.487172 1.528623 1.155309
v 13.631261 1.528780 1.165223
v 13.637589 1.528336 1.143839
v 15.150031 1.479238 1.294890
v 15.373953 1.520986 1.387815
v 15.220128 1.465401 1.184080
v 15.392937 1.523000 1.390536
v 15.375413 1.519651 1.384510
v 15.385149 1.524386 1.385871
v 15.386122 1.521927 1.397146
v 15.384662 1.523314 1.390925
v 15.434314 1.528205 1.116623
v 15.427499 1.528754 1.117400
v 15.426039 1.528048 1.098738
v 15.385149 1.522529 1.394424
v 15.391964 1.522372 1.393647
v 13.473542 1.529434 1.191468
v 15.390990 1.521587 1.396952
v 14.159910 1.530271 1.159391
v 14.861854 1.378454 1.235986
v 14.209562 1.530298 1.161919
v 14.152121 1.530899 1.204882
v 14.015821 1.531370 1.237347
v 14.088352 1.540185 1.141312
v 13.772428 1.534535 1.272534
v 13.740787 1.535895 1.256204
v 15.653854 1.435765 1.265924
v 13.567005 1.534587 1.280310
v 14.567836 1.514289 1.151032
v 14.587794 1.500452 1.151032
v 14.039674 1.540630 1.138007
v 14.031885 1.537308 1.237541
v 14.112691 1.541702 1.102237
v 15.443076 1.528362 1.118956
v 15.434801 1.528650 1.123427
v 14.451007 1.523575 1.135091
v 14.205667 1.541911 1.126537
v 14.920755 1.347169 1.169695
v 15.390503 1.525406 1.399284
v 15.397318 1.525851 1.398118
v 15.389530 1.526243 1.390342
v 14.555179 1.517768 1.125371
v 14.332232 1.523235 1.184858
v 14.332718 1.519416 1.157642
v 14.498712 1.518527 1.110596
v 14.162344 1.524020 1.226655
v 14.021663 1.521875 1.239874
v 14.073262 1.524281 1.237347
v 14.186683 1.527080 1.207020
v 14.261648 1.526792 1.193801
v 14.100522 1.521352 1.231709
v 13.824514 1.516303 1.281865
v 13.751010 1.520436 1.273311
v 14.530353 1.524177 1.079686
v 13.925279 1.524648 1.242013
v 13.991482 1.535895 1.250955
v 14.148227 1.532756 1.256204
v 14.137517 1.531448 1.236569
v 14.052817 1.535948 1.255038
v 14.092246 1.532599 1.260092
v 14.183275 1.531684 1.235792
v 15.686956 1.433515 1.220823
v 15.360809 1.521692 1.374790
v 13.717908 1.494959 1.385871
v 15.044399 1.465061 1.375762
v 13.672637 1.496973 1.383149
v 15.047320 1.461451 1.368180
v 13.633208 1.503460 1.344657
v 15.080421 1.474242 1.355544
v 15.046833 1.472333 1.386648
v 15.351560 1.519521 1.368958
v 15.062410 1.470449 1.370902
v 15.051214 1.467232 1.377900
v 15.351560 1.520645 1.366236
v 15.089670 1.466343 1.337076
v 15.056568 1.475681 1.381788
v 15.139322 1.474687 1.296445
v 15.191408 1.477172 1.241818
v 15.351074 1.522136 1.367208
v 15.127639 1.477957 1.314914
v 15.151978 1.473091 1.283809
v 15.058516 1.461896 1.362931
v 13.953513 1.527133 1.247650
v 13.604001 1.519547 1.289058
v 13.997323 1.526949 1.246289
v 13.690648 1.520933 1.276033
v 13.845933 1.524935 1.243762
v 13.912623 1.514211 1.283226
v 14.580005 1.524098 1.086101
v 15.614425 1.440107 1.254260
v 15.685982 1.414080 1.214991
v 14.462203 1.525903 1.149866
v 15.427012 1.525982 1.088629
v 15.039044 1.469874 1.383927
v 15.394398 1.523837 1.387037
v 13.325559 1.544449 1.088629
v 14.292802 1.517140 1.162891
v 15.181186 1.485045 1.272534
v 13.177090 1.538746 1.216935
v 13.247674 1.540002 1.163474
v 13.505183 1.510444 1.296445
v 13.942316 1.510183 1.297029
v 13.727157 1.511595 1.288086
v 13.819160 1.507305 1.316663
v 13.594265 1.506704 1.320163
v 14.053304 1.517036 1.254260
v 14.111231 1.518919 1.238902
v 14.076182 1.514158 1.264952
v 14.064013 1.512223 1.277588
v 14.396001 1.503120 1.270784
v 13.462346 1.542199 1.130231
v 13.136687 1.543507 1.105153
v 12.895728 1.541336 1.137813
v 13.591831 1.541938 1.132953
v 13.641970 1.542513 1.118372
v 13.554348 1.539976 1.155892
v 13.524655 1.538694 1.213241
v 13.248647 1.540996 1.142478
v 14.079103 1.538223 1.211297
v 14.154555 1.543769 1.139173
v 14.088839 1.537465 1.237152
v 14.098088 1.530742 1.202354
v 13.721803 1.531422 1.242790
v 13.665822 1.532442 1.258731
v 13.772915 1.530533 1.221406
v 13.769508 1.529670 1.182136
v 13.407339 1.531265 1.249400
v 13.325559 1.532338 1.267674
v 13.470621 1.530350 1.228988
v 13.637589 1.528336 1.143839
v 13.473542 1.529434 1.191468
v 14.564428 1.519651 1.117789
v 14.045028 1.529958 1.167556
v 13.965682 1.529801 1.173583
v 14.152121 1.530899 1.204882
v 13.696003 1.513191 1.288086
v 13.292458 1.533436 1.285559
v 13.474029 1.513295 1.284198
v 14.102469 1.536235 1.253677
v 14.296210 1.541911 1.145783
v 14.312760 1.529330 1.145783
v 14.082024 1.544056 1.141117
v 14.276738 1.530376 1.169695
v 14.032859 1.532338 1.256204
v 14.103929 1.542853 1.104181
v 13.987588 1.540891 1.137424
v 14.008519 1.543245 1.109235
v 13.984667 1.542461 1.105542
v 13.972010 1.532390 1.256010
v 13.887310 1.541205 1.139173
v 14.038700 1.530638 1.207020
v 14.057198 1.542068 1.102237
v 15.667484 1.383267 1.251733
v 15.529237 1.364041 1.135285
v 13.958867 1.530585 1.213435
v 14.237795 1.529251 1.134313
v 14.031398 1.528780 1.141117
v 14.105390 1.530141 1.160947
v 14.173540 1.529094 1.129842
v 13.631261 1.528780 1.165223
v 14.102469 1.528911 1.139173
v 13.760745 1.539793 1.164835
v 13.501289 1.512170 1.286920
v 13.248647 1.534614 1.289836
v 13.903374 1.539610 1.166779
v 13.922845 1.531370 1.239096
v 14.015821 1.531370 1.237347
v 15.678680 1.378454 1.235986
v 13.899966 1.535921 1.250955
v 14.564915 1.520855 1.110596
v 13.211651 1.535948 1.263786
v 13.036409 1.527734 1.156086
v 12.826117 1.529042 1.196522
v 14.265055 1.531265 1.209158
v 14.243150 1.532024 1.235986
v 14.217350 1.533018 1.251733
v 13.872706 1.532416 1.256204
v 13.788492 1.528702 1.143450
v 13.656573 1.514603 1.288086
v 14.193498 1.540656 1.127315
v 14.240229 1.541179 1.135285
v 14.140925 1.539793 1.142478
v 14.089812 1.539034 1.175916
v 14.079590 1.531344 1.236764
v 13.967629 1.528754 1.142673
v 13.732025 1.543795 1.104570
v 13.814292 1.542827 1.108458
v 13.688214 1.543089 1.103792
v 13.259843 1.546175 1.156086
v 13.591831 1.544056 1.101070
v 13.724723 1.541676 1.135674
v 13.272986 1.544004 1.083185
v 13.591831 1.541938 1.132953
v 13.882442 1.544580 1.143450
v 13.596212 1.545469 1.155309
v 13.334808 1.545260 1.127898
v 14.016795 1.544239 1.142673
v 13.846907 1.543586 1.108069
v 12.732655 1.530088 1.234820
v 12.826117 1.529042 1.196522
v 13.292458 1.533436 1.285559
v 13.325559 1.532338 1.267674
v 12.615826 1.535895 1.270784
v 14.185222 1.520724 1.221017
v 14.471452 1.508665 1.234820
v 14.500173 1.517245 1.118567
v 14.561994 1.515649 1.141895
v 14.559560 1.516722 1.132758
v 14.233414 1.526243 1.200799
v 13.493500 1.503748 1.343491
v 13.161026 1.537543 1.245901
v 12.498024 1.538930 1.217907
v 13.473055 1.502701 1.352239
v 12.895728 1.541336 1.137813
v 12.866521 1.540002 1.166195
v 13.641970 1.542513 1.118372
v 13.248647 1.540996 1.142478
v 13.136687 1.543507 1.105153
v 13.462346 1.542199 1.130231
v 13.591344 1.544946 1.132953
v 13.566518 1.543376 1.099321
v 13.554348 1.539976 1.155892
v 13.720342 1.544789 1.143839
v 13.517353 1.542801 1.114679
v 12.982862 1.542984 1.127120
v 13.521247 1.537491 1.242013
v 13.696977 1.510287 1.296057
v 13.524655 1.538694 1.213241
v 13.492527 1.511020 1.289447
v 13.627853 1.507881 1.312192
v 12.577370 1.537543 1.250177
v 14.550798 1.509633 1.156086
v 14.410117 1.508430 1.259314
v 14.511855 1.508744 1.196522
v 14.042594 1.510470 1.296640
v 14.569296 1.506651 1.149866
v 14.015821 1.514760 1.269423
v 13.609355 1.523575 1.264563
v 15.425065 1.522607 1.285170
v 15.417763 1.522921 1.276811
v 15.407541 1.521587 1.282060
v 15.347666 1.528388 1.294307
v 15.351074 1.527603 1.294501
v 13.666796 1.523287 1.260286
v 13.717422 1.505317 1.330077
v 14.237308 1.528257 1.190690
v 14.567836 1.514289 1.151032
v 15.167556 1.449210 1.246289
v 15.418250 1.521875 1.286920
v 14.361439 1.523941 1.179609
v 14.359978 1.517768 1.146561
v 14.550798 1.509633 1.156086
v 14.410117 1.508430 1.259314
v 13.583556 1.527289 1.262619
v 13.440441 1.507384 1.322495
v 14.159910 1.499589 1.331632
v 15.129586 1.457371 1.289836
v 14.213456 1.527760 1.195745
v 14.559560 1.516722 1.132758
v 14.233414 1.526243 1.200799
v 14.500173 1.517245 1.118567
v 14.185222 1.520724 1.221017
v 14.064500 1.526766 1.242401
v 15.145650 1.474190 1.289447
v 14.276738 1.530376 1.169695
v 13.972010 1.532390 1.256010
v 14.193498 1.540656 1.127315
v 13.872706 1.532416 1.256204
v 14.082024 1.544056 1.141117
v 14.032859 1.532338 1.256204
v 14.008519 1.543245 1.109235
v 14.103929 1.542853 1.104181
v 13.887310 1.541205 1.139173
v 14.057198 1.542068 1.102237
v 14.140925 1.539793 1.142478
v 14.102469 1.536235 1.253677
v 14.213456 1.517376 1.217907
v 14.213456 1.527760 1.195745
v 14.064500 1.526766 1.242401
v 15.148571 1.453290 1.268646
v 14.359978 1.517768 1.146561
v 14.130216 1.507985 1.313164
v 15.145650 1.474190 1.289447
v 15.129586 1.457371 1.289836
v 14.159910 1.499589 1.331632
v 15.167556 1.449210 1.246289
v 14.361439 1.523941 1.179609
v 13.440441 1.507384 1.322495
v 14.237308 1.528257 1.190690
v 14.260674 1.528754 1.185636
v 13.744195 1.545129 1.165223
v 15.215747 1.444240 1.185636
v 15.637304 1.436288 1.266119
v 13.958867 1.530585 1.213435
v 13.987588 1.540891 1.137424
v 13.984667 1.542461 1.105542
v 14.237795 1.529251 1.134313
v 13.972010 1.502858 1.356516
v 15.084315 1.479474 1.361182
v 15.378334 1.520489 1.390148
v 15.384662 1.519468 1.390342
v 15.393911 1.520515 1.399284
v 14.481188 1.522633 1.104958
v 14.507961 1.519939 1.102626
v 13.581122 1.501995 1.357877
v 15.367138 1.520593 1.378483
v 15.420197 1.532259 1.088823
v 13.609355 1.523575 1.264563
v 13.569439 1.522110 1.277005
v 15.339878 1.526557 1.276811
v 15.239113 1.473117 1.151032
v 15.208446 1.472176 1.194384
v 14.194471 1.531030 1.205659
v 14.964566 1.350178 1.145783
v 13.974444 1.537282 1.237736
v 14.027991 1.538302 1.211102
v 15.418737 1.520724 1.295279
v 13.447742 1.514289 1.287114
v 13.869785 1.527473 1.248817
v 13.717422 1.505317 1.330077
v 15.340364 1.527420 1.281088
v 15.430420 1.520175 1.294307
v 15.401213 1.519521 1.291974
v 13.583556 1.527289 1.262619
v 14.147740 1.517664 1.237541
v 14.260187 1.519625 1.190496
v 12.870902 1.543821 1.114484
v 13.627366 1.525328 1.258537
v 15.128613 1.394305 1.262619
v 14.098088 1.530742 1.202354
v 13.656573 1.514603 1.288086
v 13.501289 1.512170 1.286920
v 13.769508 1.529670 1.182136
v 14.079590 1.531344 1.236764
v 13.036409 1.527734 1.156086
v 12.614366 1.531135 1.259314
v 12.530152 1.532286 1.280504
v 13.211651 1.535948 1.263786
v 13.248647 1.534614 1.289836
v 13.788492 1.528702 1.143450
v 13.721803 1.531422 1.242790
v 13.772915 1.530533 1.221406
v 14.088839 1.537465 1.237152
v 13.967629 1.528754 1.142673
v 13.407339 1.531265 1.249400
v 13.665822 1.532442 1.258731
v 15.399265 1.521666 1.281088
v 15.410948 1.520933 1.289641
v 15.423605 1.521378 1.294501
v 13.653653 1.518893 1.287114
v 15.400726 1.522764 1.276811
v 15.408028 1.522189 1.278171
v 14.115612 1.524098 1.232098
v 14.101495 1.526714 1.237347
v 15.667971 1.418972 1.252899
v 13.825001 1.491558 1.386648
v 13.787519 1.493154 1.383927
v 14.887167 1.384888 1.209158
v 14.454415 1.528205 1.159586
v 14.474860 1.524909 1.125565
v 14.495792 1.524046 1.097960
v 14.359492 1.529094 1.173194
v 13.500802 1.524203 1.269812
v 13.543152 1.522267 1.278366
v 13.584042 1.516879 1.292752
v 13.710120 1.518265 1.284976
v 13.291484 1.515989 1.293335
v 13.385921 1.515231 1.289836
v 13.288077 1.520776 1.294696
v 13.475489 1.508613 1.312775
v 13.656087 1.509162 1.304221
v 13.183418 1.502178 1.362931
v 13.290024 1.501367 1.368180
v 13.499828 1.509869 1.303249
v 13.437033 1.502100 1.359237
v 13.534390 1.517611 1.295473
v 15.430906 1.523183 1.283226
v 13.511511 1.526348 1.270201
v 13.560677 1.526479 1.266896
v 13.061235 1.521535 1.293529
v 15.349613 1.525249 1.282837
v 15.401699 1.524674 1.270201
v 15.401213 1.523784 1.273117
v 13.622012 1.515806 1.290419
v 13.440927 1.523209 1.280893
v 14.415959 1.529330 1.163085
v 14.441272 1.525668 1.158808
v 13.082167 1.520829 1.291974
v 13.545100 1.520515 1.289058
v 14.456849 1.529251 1.148116
v 14.407197 1.525014 1.166973
v 13.772428 1.502701 1.356127
v 15.678194 1.433515 1.239680
v 13.764640 1.506207 1.324051
v 13.710120 1.537439 1.239485
v 14.005112 1.509293 1.306749
v 13.718395 1.538616 1.209547
v 15.595927 1.445574 1.239096
v 13.879521 1.508482 1.309276
v 15.708374 1.430219 1.154920
v 15.696205 1.432181 1.186413
v 13.363529 1.522346 1.289252
v 13.953999 1.534483 1.263397
v 15.339878 1.525066 1.270201
v 15.339391 1.525746 1.273117
v 15.110115 1.401995 1.281671
v 14.174513 1.509032 1.305388
v 15.114983 1.359254 1.270201
v 15.422144 1.527839 1.089795
v 14.020689 1.534561 1.262036
v 14.141899 1.535006 1.263008
v 14.181815 1.437726 1.140729
v 13.615683 1.533515 1.274672
v 14.161857 1.506730 1.317635
v 13.842525 1.533489 1.268451
v 14.291342 1.506468 1.292752
v 14.208588 1.508142 1.307138
v 14.057198 1.533593 1.269423
v 15.423118 1.531475 1.125565
v 15.229377 1.386484 1.148116
v 13.991482 1.533410 1.266507
v 14.113178 1.533803 1.271173
v 15.636817 1.388864 1.263008
v 14.180841 1.534012 1.265730
v 15.652394 1.387060 1.265730
v 14.082024 1.534692 1.265341
v 15.233272 1.366369 1.145978
v 15.417277 1.529356 1.115067
v 15.410948 1.530193 1.123427
v 15.386609 1.528388 1.092711
v 15.412409 1.527002 1.088823
v 14.104903 1.433541 1.147144
v 14.967000 1.430219 1.154920
v 15.419710 1.526636 1.087657
v 14.991339 1.431553 1.147144
v 14.286961 1.441467 1.154531
v 15.432854 1.532547 1.088629
v 14.502607 1.524752 1.100487
v 14.531327 1.525092 1.089017
v 15.412895 1.528780 1.091739
v 15.242521 1.392919 1.115456
v 14.469992 1.517062 1.126537
v 14.476320 1.503303 1.239096
v 14.262621 1.502911 1.306554
v 14.520618 1.504716 1.193801
v 14.213943 1.499641 1.319968
v 13.027160 1.544135 1.096599
v 13.692596 1.500897 1.365653
v 13.995376 1.503565 1.351073
v 13.754417 1.498935 1.373623
v 14.017768 1.507436 1.324634
v 14.033345 1.504376 1.343296
v 13.869785 1.504245 1.345046
v 13.976391 1.506259 1.331827
v 13.924305 1.505108 1.339020
v 15.444536 1.528833 1.125565
v 15.420197 1.529016 1.109235
v 14.264568 1.542775 1.134313
v 14.161370 1.542487 1.111763
v 15.138835 1.478584 1.304805
v 15.119851 1.482325 1.331632
v 15.374926 1.523235 1.389759
v 13.722776 1.501864 1.362931
v 15.133481 1.483920 1.319968
v 15.121798 1.472280 1.312775
v 15.103787 1.476256 1.335132
v 15.358862 1.523680 1.376734
v 15.408514 1.528388 1.087073
v 14.577572 1.522215 1.103403
v 14.345375 1.526400 1.185830
v 14.524999 1.522581 1.091739
v 15.394884 1.519495 1.398118
v 13.533417 1.499903 1.367208
v 13.601567 1.498124 1.376734
v 15.104760 1.439348 1.302472
v 13.558730 1.505814 1.326578
v 13.347951 1.506364 1.329688
v 13.677018 1.504454 1.336104
v 15.139809 1.412563 1.256398
v 13.705252 1.525354 1.250177
v 14.273817 1.515989 1.166195
v 14.337586 1.516591 1.149282
v 13.093849 1.545338 1.118761
v 15.409488 1.523000 1.274089
v 15.116443 1.414865 1.282060
v 11.998095 1.543324 1.156086
v 12.543782 1.543978 1.129259
v 14.457336 1.513688 1.129259
v 14.592175 1.502937 1.145200
v 14.349269 1.514682 1.137813
v 15.390017 1.526845 1.096599
v 13.035435 1.545835 1.129259
v 14.596069 1.504637 1.139368
v 14.526459 1.503198 1.190301
v 15.353994 1.528336 1.090767
v 15.370545 1.528467 1.114873
v 15.372979 1.527185 1.129259
v 14.133136 1.502885 1.333771
v 14.089812 1.502074 1.344463
v 14.118046 1.505945 1.326578
v 14.377016 1.515833 1.135674
v 15.362270 1.529068 1.106319
v 14.018255 1.493991 1.371679
v 13.899479 1.497104 1.379844
v 14.020689 1.499641 1.361959
v 15.375413 1.528231 1.123621
v 15.382228 1.529225 1.122455
v 14.267002 1.500400 1.308110
v 14.395027 1.501629 1.272534
v 14.530840 1.515780 1.133341
v 14.377503 1.518814 1.142867
v 14.302051 1.522346 1.190301
v 14.156989 1.526636 1.218490
v 14.013387 1.517847 1.258731
v 13.842039 1.522372 1.249594
v 13.982233 1.524386 1.240263
v 13.972010 1.516068 1.270979
v 14.527433 1.523575 1.081436
v 14.420340 1.527682 1.172222
v 13.599619 1.525223 1.262814
v 13.764640 1.517297 1.283420
v 13.372777 1.519495 1.298389
v 13.031541 1.520070 1.298973
v 13.239398 1.505370 1.337076
v 15.412895 1.524909 1.266896
v 13.523681 1.504951 1.333188
v 15.411435 1.523889 1.270395
v 15.426039 1.524752 1.269812
v 13.220900 1.521770 1.293724
v 15.438208 1.523967 1.280893
v 15.348153 1.525903 1.283809
v 15.397805 1.529905 1.100487
v 14.467558 1.528937 1.145978
v 14.550798 1.525668 1.092711
v 15.413869 1.532076 1.090184
v 14.431536 1.522973 1.139368
v 14.309840 1.528676 1.179415
v 14.384318 1.524517 1.173388
v 13.879521 1.508482 1.309276
v 14.485082 1.445469 1.221795
v 13.764640 1.506207 1.324051
v 13.581122 1.501995 1.357877
v 15.095998 1.479866 1.350684
v 15.148084 1.484862 1.308110
v 15.164635 1.464878 1.263008
v 15.107681 1.481331 1.341158
v 15.425552 1.532390 1.087657
v 15.573048 1.349733 1.175916
v 15.586191 1.385098 1.211297
v 15.598361 1.404742 1.237152
v 14.491411 1.523366 1.102237
v 15.707401 1.350178 1.145783
v 14.209562 1.530298 1.161919
v 14.194471 1.531030 1.205659
v 14.159910 1.530271 1.159391
v 14.471939 1.521561 1.109041
v 14.039187 1.539348 1.174944
v 14.451007 1.523575 1.135091
v 14.481188 1.522633 1.104958
v 15.721031 1.364538 1.135285
v 14.039674 1.540630 1.138007
v 14.088352 1.540185 1.141312
v 14.027991 1.538302 1.211102
v 13.973958 1.538537 1.207020
v 13.987588 1.539610 1.171250
v 13.974444 1.537282 1.237736
v 14.465124 1.520881 1.113318
v 14.031885 1.537308 1.237541
v 14.466098 1.524386 1.128676
v 14.519644 1.521090 1.097182
v 14.507961 1.519939 1.102626
v 15.229864 1.448791 1.151615
v 15.227430 1.454833 1.159586
v 15.210393 1.452505 1.195745
v 15.248849 1.443743 1.110596
v 14.205667 1.541911 1.126537
v 15.557471 1.353552 1.142478
v 14.223678 1.543376 1.129842
v 15.707887 1.407985 1.150449
v 14.161370 1.542487 1.111763
v 15.720544 1.431553 1.147144
v 14.264568 1.542775 1.134313
v 15.685009 1.384888 1.209158
v 14.155042 1.541231 1.110402
v 15.693771 1.347169 1.169695
v 15.533618 1.433541 1.147144
v 15.412409 1.527002 1.088823
v 15.543354 1.437726 1.140729
v 15.419710 1.526636 1.087657
v 15.556497 1.441467 1.154531
v 15.432854 1.532547 1.088629
v 15.425552 1.532390 1.087657
v 15.540920 1.344318 1.127315
v 14.112691 1.541702 1.102237
v 15.695231 1.408195 1.178054
v 15.206012 1.455618 1.207020
v 15.153926 1.456167 1.266313
v 15.173397 1.452610 1.244345
v 15.155386 1.432443 1.248817
v 15.142729 1.449602 1.270979
v 15.124232 1.453866 1.293335
v 15.222562 1.462210 1.175916
v 15.241060 1.463282 1.132758
v 15.241060 1.458574 1.125371
v 15.212340 1.449680 1.190690
v 15.245441 1.450701 1.117789
v 15.224996 1.458940 1.167556
v 15.240573 1.467781 1.141895
v 15.233272 1.440133 1.144228
v 15.243007 1.413845 1.125954
v 14.312760 1.529330 1.145783
v 14.296210 1.541911 1.145783
v 14.217350 1.533018 1.251733
v 14.089812 1.539034 1.175916
v 15.115469 1.477093 1.325023
v 15.145163 1.469063 1.286920
v 15.073119 1.478611 1.371679
v 13.601567 1.498124 1.376734
v 15.389530 1.526243 1.390342
v 15.099406 1.468697 1.329688
v 13.347951 1.506364 1.329688
v 13.558730 1.505814 1.326578
v 15.092104 1.475419 1.345240
v 15.039531 1.463779 1.378483
v 13.817699 1.503434 1.350878
v 13.938422 1.502231 1.361765
v 13.849827 1.500897 1.369930
v 13.972010 1.502858 1.356516
v 15.084315 1.479474 1.361182
v 15.451351 1.529984 1.145978
v 15.446970 1.529356 1.134897
v 15.425552 1.529565 1.132953
v 15.417763 1.531161 1.134897
v 15.405107 1.531265 1.116428
v 15.095998 1.401891 1.293529
v 13.551428 1.535895 1.257759
v 15.100379 1.413583 1.291974
v 15.105734 1.392474 1.282837
v 15.393911 1.520515 1.399284
v 13.442875 1.500347 1.366236
v 13.533417 1.499903 1.367208
v 13.308035 1.500897 1.368958
v 13.677018 1.504454 1.336104
v 15.045372 1.460562 1.368958
v 15.386122 1.521404 1.399284
v 15.033203 1.467075 1.387037
v 13.723263 1.492919 1.387037
v 15.384662 1.519468 1.390342
v 15.378334 1.520489 1.390148
v 15.394884 1.519495 1.398118
v 15.383202 1.520829 1.399090
v 15.389530 1.529120 1.089017
v 15.399752 1.531710 1.092711
v 15.407541 1.531919 1.091545
v 15.244468 1.373562 1.116428
v 15.369085 1.526688 1.373429
v 15.375413 1.526583 1.378678
v 15.381741 1.525197 1.396952
v 15.384175 1.525851 1.391897
v 15.375900 1.525877 1.386648
v 15.363730 1.525014 1.387037
v 14.260187 1.509450 1.296640
v 14.404276 1.506416 1.264369
v 15.362757 1.526740 1.368958
v 15.370058 1.525903 1.382177
v 15.397318 1.525851 1.398118
v 15.390503 1.525406 1.399284
v 15.375413 1.525145 1.393647
v 15.382228 1.526452 1.384510
v 15.364217 1.525903 1.378483
v 15.370545 1.525118 1.390536
v 14.397461 1.504480 1.269229
v 14.073262 1.505108 1.335326
v 15.584731 1.445469 1.221795
v 15.571101 1.443795 1.190107
v 14.259701 1.504637 1.304805
v 13.857616 1.537360 1.238513
v 15.423605 1.527185 1.087073
v 14.057198 1.508456 1.316663
v 13.868325 1.538563 1.207798
v 15.420197 1.527394 1.085907
v 14.087865 1.507201 1.321718
v 13.786058 1.499536 1.374012
v 15.417763 1.528440 1.090184
v 15.358862 1.519704 1.373429
v 15.414843 1.527813 1.085907
v 15.616859 1.398438 1.253677
v 15.371519 1.524360 1.383149
v 15.365190 1.522660 1.381594
v 15.375413 1.519651 1.384510
v 15.366651 1.519704 1.378678
v 15.390990 1.521587 1.396952
v 15.381741 1.521849 1.397535
v 15.376387 1.521535 1.395396
v 15.220128 1.465401 1.184080
v 15.391964 1.522372 1.393647
v 15.386122 1.521927 1.397146
v 15.070198 1.463596 1.353989
v 15.373466 1.520489 1.384510
v 15.368598 1.521326 1.382371
v 15.678194 1.413609 1.237930
v 15.385149 1.522529 1.394424
v 15.239113 1.473117 1.151032
v 15.367138 1.520593 1.378483
v 15.373953 1.520986 1.387815
v 15.372005 1.522058 1.391314
v 15.378334 1.522424 1.394619
v 14.131676 1.512354 1.270784
v 13.470621 1.530350 1.228988
v 15.378334 1.522424 1.394619
v 15.381741 1.521849 1.397535
v 15.372005 1.522058 1.391314
v 12.756994 1.534718 1.298389
v 12.691278 1.533410 1.296640
v 14.183762 1.510732 1.298389
v 15.668945 1.435869 1.254066
v 14.099061 1.510967 1.290613
v 13.602053 1.502649 1.351267
v 15.376387 1.521535 1.395396
v 15.205525 1.482194 1.239680
v 15.231324 1.479761 1.186802
v 15.440642 1.527551 1.112735
v 15.364217 1.525903 1.378483
v 15.369085 1.526688 1.373429
v 15.431880 1.526792 1.096988
v 13.987588 1.539610 1.171250
v 15.436748 1.525511 1.096210
v 14.471939 1.521561 1.109041
v 15.430906 1.532207 1.100682
v 15.422631 1.528702 1.104181
v 15.435288 1.529042 1.130620
v 15.426039 1.529068 1.124204
v 15.432854 1.527839 1.110791
v 15.436748 1.532155 1.108069
v 15.370058 1.525903 1.382177
v 15.431880 1.531945 1.112735
v 15.440642 1.532573 1.096210
v 15.362757 1.526740 1.368958
v 15.375900 1.525877 1.386648
v 15.363730 1.525014 1.387037
v 15.370545 1.525118 1.390536
v 15.382228 1.526452 1.384510
v 15.238626 1.429879 1.137035
v 15.224509 1.404663 1.163085
v 15.257124 1.416304 1.086101
v 15.141756 1.464329 1.284198
v 15.159767 1.460405 1.263980
v 15.135914 1.460823 1.287114
v 15.136888 1.444109 1.273311
v 15.200170 1.458783 1.218490
v 15.185080 1.458862 1.237347
v 15.191408 1.462550 1.236958
v 15.177778 1.455932 1.242401
v 15.404620 1.527446 1.090184
v 13.799202 1.495796 1.381011
v 13.837658 1.496450 1.382955
v 15.160741 1.441938 1.247650
v 15.117417 1.450413 1.296834
v 15.110115 1.470397 1.322495
v 15.132994 1.474582 1.303249
v 15.174857 1.468906 1.262230
v 15.165122 1.478611 1.278560
v 15.429933 1.528310 1.112346
v 14.295236 1.353552 1.142478
