# runtime 8054 family mesh: back
v -0.030267821 2.452647530 0.224032198
v -0.352000921 2.271953713 -0.268258447
v 0.191195594 2.289347215 -1.355361806
v -0.105097181 2.044268613 -1.803531728
v 0.187135086 2.244405994 -1.267049312
v 0.172260368 2.275028807 -1.290281963
v -0.229605611 2.201130450 -0.880335791
v 0.133229772 2.208305669 -1.389962115
v 0.171804597 2.259653336 -1.263852158
v -0.154320480 2.149302299 -1.444171635
v 0.205241637 2.299213142 -1.311312130
v 0.134804255 2.279096901 -1.286587474
v -0.244065992 2.020180375 -1.554437919
v -0.147401044 2.093822475 -1.562963663
v 0.510318367 1.803706555 -1.328932001
v 0.480651799 1.701876092 -1.594508914
v 0.356723441 1.827602600 -1.747119725
v 0.427160823 1.704054284 -1.682892456
v -0.234080457 1.976039960 -1.753300889
v -0.240129785 1.965565420 -1.710885314
v -0.251731236 1.980172118 -1.651560348
v 0.481149004 1.960216038 -1.312733088
v 0.444811602 1.926005615 -1.425557095
v 0.478994449 1.890225612 -1.389322684
v 0.474022399 1.793712499 -1.540654634
v 0.443941493 1.788138891 -1.609002678
v 0.490885937 1.747906408 -1.624562160
v 0.482019113 1.700819028 -1.594082627
v -0.599650468 1.922674263 -0.411490940
v -0.382123260 2.256193855 -0.339519454
v -0.358754623 2.295913822 -0.281544398
v 0.171514561 2.260390078 -1.262360153
v -0.139901534 2.209779152 -1.304775727
v -0.168449391 2.022230438 -1.636498201
v -0.103522698 2.273042809 -1.245450761
v -0.133272133 2.128993865 -1.489571220
v 0.455501511 1.713375663 -1.635645627
v 0.657159591 2.268942683 -0.880335791
v -0.118190247 2.341527720 -0.751597062
v -0.187798954 2.243092673 -0.870460138
v 0.482143414 1.757195755 -1.393017173
v -0.173752911 2.277783579 -0.826836750
v 0.476052653 1.706136379 -1.485166252
v 0.541476550 1.949677434 -1.286232235
v 0.455335776 1.713375663 -1.635503531
v 0.373959883 1.784647378 -1.781293747
v 0.401471895 1.748835343 -1.722039829
v 0.402797776 1.756298853 -1.769215610
v 0.362026962 1.807454326 -1.780228029
v 0.405242367 2.137674599 -1.292981782
v 0.294987148 1.994842880 -1.592164335
v 0.429729716 1.849993130 -1.707972352
v 0.401596197 1.766068684 -1.692483918
v 0.354693187 1.869885145 -1.653904928
v 0.477502834 1.633070859 -1.545556936
v 0.476384123 1.713311599 -1.561187466
v 0.370976653 1.825936924 -1.691986583
v 0.317900014 1.904832310 -1.809926036
v 0.282142684 1.991735753 -1.717990101
v -0.125482588 2.036452748 -1.813407381
v -0.089393788 2.209298669 -1.379802271
v -0.063746294 2.073898427 -1.743993619
v -0.251689802 2.052084477 -1.507546329
v -0.465902310 1.665615606 -1.447795076
v 0.444563000 1.752551082 -1.635716675
v 0.453471257 1.673623664 -1.668043453
v 0.444521566 1.752519050 -1.635787723
v 0.265279146 1.992344366 -1.614970699
v 0.324073643 1.982990954 -1.587759367
v 0.464865539 1.925364970 -1.363177071
v 0.473815230 1.793776564 -1.541151969
v 0.521754083 1.796371174 -1.574615512
v 0.483635030 1.786088828 -1.561613753
v 0.483925066 1.783878604 -1.560263844
v 0.534267077 1.912103626 -1.341436425
v 0.466771492 1.926005615 -1.363958597
v 0.500581435 1.819017962 -1.350388455
v 0.503854702 1.880519846 -1.305344110
v 0.508205246 1.832471499 -1.265770450
v -0.233914722 2.176273438 -1.173621371
v -0.100663769 2.076076619 -1.704775198
v 0.171555995 2.274292066 -1.290353011
v 0.190408353 2.229190684 -1.299233994
v 0.500498567 1.953937720 -1.108683624
v 0.149596105 2.398609156 -0.788968239
v 0.543341069 2.051219607 -0.780868782
v 0.533231233 2.081458033 -0.733195666
v 0.295650088 2.243829414 -0.793017967
v 0.485499549 1.904127601 -1.130282174
v 0.308038780 2.311065068 -0.734687671
v 0.122954201 2.319073125 -1.251418782
v 0.455750113 2.137514438 -0.905273591
v 0.397038484 2.193474746 -0.890069348
v 0.486825429 1.871390660 -1.186054747
v 0.489725791 1.948844596 -1.282964033
v 0.489560056 1.950382143 -1.284100799
v 0.507418004 1.877252559 -1.304633631
v 0.485126645 1.854349513 -1.376107782
v 0.469879023 1.897144574 -1.132200467
v 0.509116788 1.906433921 -1.285948043
v 0.104681916 2.231625134 -1.374189490
v 0.425503473 2.014350509 -1.621507102
v 0.241164701 1.958550362 -1.787403863
v 0.437933599 2.085750352 -1.647084333
v 0.439259479 2.072008525 -1.598487594
v 0.074269540 2.313435453 -0.950815271
v 0.356309104 1.827762761 -1.747119725
v 0.218168968 1.984048018 -1.796924277
v 0.370438014 1.828979986 -1.693052301
v 0.418874072 1.792078855 -1.698451938
v 0.417631060 2.099267954 -1.606373907
v 0.317651411 1.890289677 -1.749109065
v 0.286037457 1.914249786 -1.760618819
v 0.258939782 1.938145830 -1.745130385
v 0.316864170 1.970690577 -1.578807336
v 0.375078594 1.923987584 -1.661578097
v 0.324778017 2.069029528 -1.639198020
v 0.246012451 1.969537417 -1.710672171
v 0.491963214 1.878565880 -1.209216351
v 0.506423594 1.823822797 -1.316001289
v 0.505222015 1.906626115 -1.288292623
v 0.471080602 1.887534905 -1.388754302
v 0.498219711 1.953617398 -1.282821937
v 0.482806355 1.963707551 -1.316143385
v 0.478621545 1.794577369 -1.542075591
v 0.457034560 1.802136976 -1.568150157
v 0.484380837 1.855951125 -1.376463021
v 0.476342689 1.712606889 -1.558132408
v 0.388130227 2.220798240 -0.839909557
v 0.381666561 2.226628106 -0.838985934
v 0.615270066 2.282107930 -0.910815324
v 0.398157195 1.801912750 -1.679837398
v 0.310317637 1.945673405 -1.759624149
v 0.544169744 2.011083221 -0.848222157
v 0.467765902 2.188349589 -0.728435459
v 0.560370342 2.006951063 -0.692058953
v 0.564265115 2.255072727 -0.770282650
v 0.500208531 2.153979005 -0.708613105
v 0.495692252 2.094046700 -0.887511625
v 0.564596585 2.329835955 -0.909536463
v 0.651275998 2.303345300 -0.776819054
v -0.235613506 2.219901337 -0.826978845
v -0.191900895 2.295753661 -0.717920375
v 0.254962141 2.234636164 -1.001330302
v 0.309281793 2.235501034 -1.151241294
v 0.406816850 2.214808212 -0.663923999
v -0.357304441 2.192962231 -0.722112199
v -0.251234031 2.224257721 -0.785415845
v 0.407728392 2.132901797 -1.293337021
v 0.328921392 2.132325217 -1.272946284
v 0.453595558 2.066691175 -1.470601440
v 0.302362356 2.294152049 -0.843319854
v 0.456785957 1.889873258 -1.088577079
v 0.630227651 2.330828954 -0.777884772
v 0.424094725 2.029950205 -1.298878754
v 0.550923446 1.986226210 -0.760335950
v 0.406153910 2.085814417 -1.261365482
v 0.436110514 2.069445947 -1.317209103
v 0.326849705 1.995707750 -1.509890909
v 0.404579427 2.179893080 -1.335823643
v 0.300414969 2.024568791 -1.515077403
v 0.280195298 2.123836675 -1.333905351
v 0.384732659 2.121242065 -1.255326414
v -0.450281785 2.202347674 -0.377885301
v -0.145992296 2.242772350 -1.052129525
v 0.242076244 2.281371189 -1.145983752
v 0.603875784 2.187708945 -0.891774497
v 0.394759627 2.221246691 -0.771490464
v 0.467392998 2.214808212 -1.398558907
v 0.558630124 2.246263864 -1.352164652
v 0.507956643 2.198663968 -1.321756166
v 0.512472922 2.196389679 -1.317848534
v 0.519392359 2.141870822 -1.376676165
v 0.317319941 1.893588997 -1.747474964
v 0.412286105 1.991479496 -1.406729411
v 0.558298654 2.221823271 -1.374971016
v 0.559375932 2.345147362 -0.823781692
v 0.674437467 2.271985745 -0.847795869
v 0.564430850 2.327561667 -0.905060447
v 0.630683422 2.347966198 -0.847724822
v 0.444231530 1.967967838 -1.054687248
v 0.209053542 2.276246032 -0.852271885
v 0.222933850 2.293671566 -1.085024685
v 0.160658917 2.301103044 -0.873017861
v 0.630227651 2.330828954 -0.777884772
v 0.488399911 2.001569648 -0.975113641
v -0.267807533 2.219132564 -0.719767620
v 0.599898143 2.345403620 -0.786339468
v 0.399773112 1.897240671 -1.056747636
v 0.106090663 2.264874590 -1.332626489
v 0.383323911 2.121113936 -1.257102611
v 0.259146951 1.938434120 -1.745059337
v 0.285374517 1.912712239 -1.760689867
v 0.273897367 2.012492639 -1.659943996
v 0.365093059 1.971267158 -1.488221310
v 0.322457727 2.133702603 -1.421365271
v 0.379843476 2.041545873 -1.504064984
v 0.395339700 2.225539010 -0.719625524
v 0.404993765 2.252574213 -0.688080272
v 0.435033236 2.168009122 -1.453763097
v 0.674934672 2.271825584 -0.847511678
v 0.444397265 1.787466214 -1.607155434
v 0.599069468 2.345371587 -0.785913180
v 0.653803457 2.266732459 -0.877849116
v -0.213405014 2.254207857 -0.789110334
v 0.666233583 2.321091156 -0.815255948
v -0.221650331 2.185050270 -1.063070896
v -0.372510629 2.060637083 -1.052484764
v -0.242077171 2.174287440 -0.981650044
v -0.042035007 2.367217569 -0.771561512
v -0.288855880 2.196998292 -0.800975327
v 0.251937477 2.306452426 -0.713941695
v 0.328507055 2.233226745 -0.828541898
v 0.185643471 2.322372445 -0.783426505
v 0.151170588 2.275605388 -1.113514879
v 0.394303856 2.218331758 -0.771703608
v 0.151087720 2.301487430 -1.175752807
v 0.147192947 2.295369274 -0.985699772
v 0.469754722 1.999199263 -1.099944737
v 0.373877015 2.170699830 -1.044030068
v 0.207810529 2.280698512 -0.983710432
v 0.162606304 2.277719515 -1.027404868
v 0.070001864 2.352482743 -0.844953955
v 0.011828873 2.315965999 -0.953870330
v 0.557387112 2.351329582 -0.823781692
v 0.112595763 2.322756832 -0.898452996
v 0.329915802 2.232265779 -0.709607775
v -0.367248542 2.196165454 -0.769572172
v 0.452062509 2.065794272 -1.611205162
v 0.385188430 2.060092535 -1.698380890
v 0.462959586 2.105450175 -1.598913882
v 0.442449878 2.069253753 -1.599624360
v 0.349845438 1.909509016 -1.595645680
v 0.357096345 1.869981242 -1.655041694
v 0.348312389 1.920912490 -1.727936802
v 0.329169995 1.980204150 -1.587688319
v 0.455418643 1.988948949 -1.392164599
v 0.416470914 1.903134601 -1.526942396
v 0.395878339 1.801304138 -1.678984824
v 0.415932276 1.965693549 -1.455468245
v 0.370479447 1.827986987 -1.692483918
v 0.394469591 1.756523079 -1.762750255
v 0.453927028 1.855278448 -1.529784310
v 0.421484399 1.663853833 -1.765876361
v 0.355770465 1.803962813 -1.774117913
v 0.401720498 1.749475988 -1.721826685
v 0.350052607 1.909989499 -1.596569302
v 0.274270271 2.044428774 -1.491276369
v 0.352041427 1.808543422 -1.809073462
v 0.264864809 2.085269869 -1.433372360
v 0.245349510 1.985297275 -1.656959986
v 0.439218045 2.057305731 -1.230672805
v 0.408929971 1.988436434 -1.404740071
v 0.436027646 2.009033158 -1.285521756
v 0.423721821 2.029597851 -1.298665611
v 0.077542807 2.373656048 -0.764172534
v 0.268925316 2.243188769 -0.874651962
v 0.316242664 1.970434320 -1.579730958
v -0.060307293 2.408378986 -0.318205095
v -0.116242861 2.394829353 -0.149466420
v -0.071121502 2.447362212 -0.286872988
v 0.021192901 2.418116785 -0.019661973
v 0.390823421 2.232425940 -0.597849486
v 0.062792390 2.447170019 -0.143285256
v 0.317609977 2.284702541 -0.576464079
v -0.021028094 2.404695280 -0.439483798
v 0.082597725 2.422665362 -0.507831843
v 0.090718741 2.410557178 -0.550105322
v 0.561530487 1.982062020 -0.651987958
v 0.582703135 1.958358168 -0.567583096
v 0.115206089 2.409371986 -0.646304129
v 0.588628162 2.052757154 -0.554723433
v 0.425337738 2.215993405 -0.583213626
v 0.379843476 2.280794609 -0.511739475
v 0.564596585 2.130723605 -0.503568971
v -0.068635477 2.435125900 -0.381863981
v -0.376156799 2.191136393 -0.588684311
v 0.609427907 1.918990556 -0.514510342
v -0.592358128 1.956372170 -0.566304235
v -0.616099669 1.942630343 -0.479554793
v -0.089973861 2.401524089 -0.639199342
v -0.040336223 2.443870699 0.120444413
v -0.029397712 2.468055033 0.327975222
v -0.199607574 2.314108130 -0.690353804
v -0.506300221 2.144721690 -0.578098180
v -0.557885244 2.122170999 -0.453267084
v -0.161115616 2.255168824 -0.946836591
v -0.114419775 2.274708485 -1.001827637
v -0.180672348 2.212565956 -1.210139973
v -0.147649646 2.257090758 -1.111028203
v -0.032008039 2.483206279 0.419555918
v -0.072405949 2.469112097 0.433907587
v -0.383283405 2.221086530 -0.569217197
v -0.614069415 1.969761643 -0.405096632
v -0.070499996 2.427342067 -0.427121470
v -0.291176170 2.330893019 -0.491419786
v -0.075140577 2.416066722 -0.509679087
v -0.613820812 1.902301763 -0.452982892
v -0.602012192 1.923731326 -0.497600951
v -0.361572118 2.179893080 -0.645948889
v -0.603586675 1.885901261 -0.478773267
v -0.585148654 2.025273500 -0.583568865
v -0.542969093 2.119159970 -0.515789204
v -0.046841323 2.305075040 -0.951738894
v -0.392647433 2.190752007 -0.559270496
v -0.553534700 2.015439605 -0.343213943
v 0.442781348 2.230343845 -0.465416268
v 0.609593642 1.952976753 -0.496606280
v -0.063414824 2.375193595 -0.573622164
v 0.576529506 1.944296019 -0.534830031
v -0.079905458 2.411838467 -0.552947236
v 0.512597224 2.160449516 -0.607156756
v 0.328548488 2.281595415 -0.489004159
v -0.022892613 2.420615299 -0.080976279
v 0.389663276 2.239857417 -0.533622217
v 0.065609886 2.411101726 -0.017175298
v 0.354403151 2.254400050 -0.606091038
v 0.116863439 2.395822352 -0.150105851
v 0.070913406 2.436567350 -0.374759195
v 0.068841718 2.409756372 -0.316642042
v -0.019080707 2.418821494 -0.304492858
v 0.066562862 2.394637159 -0.453906515
v -0.008929438 2.368626987 -0.631526173
v 0.086451064 2.373976370 -0.579803329
v 0.119929537 2.399249801 -0.022503888
v 0.409302875 2.220253692 -0.610922293
v 0.581957328 2.000064134 -0.617956031
v 0.583987582 1.952752528 -0.582645243
v 0.613405547 1.923154746 -0.469181805
v 0.197534958 2.365840183 -0.282112781
v 0.223223886 2.356134417 -0.215540933
v 0.172840441 2.374681079 -0.296677593
v 0.224798368 2.347101328 -0.484954431
v 0.606983315 1.897432864 -0.500229722
v 0.220116354 2.359689995 -0.408293786
v 0.239548785 2.318208255 -0.555504959
v 0.241330436 2.352931194 -0.291491099
v 0.150631949 2.380222655 -0.348826725
v 0.029935423 2.388486971 -0.479767937
v 0.055417182 2.380542977 -0.685238358
v 0.189621111 2.400659219 -0.364244111
v 0.024051830 2.434100868 -0.218595991
v 0.340564277 2.303633590 -0.608790857
v 0.302072320 2.285150992 -0.601828166
v 0.045928853 2.441884700 0.001297146
v 0.169277138 2.383778233 -0.117352785
v 0.034285968 2.414465110 0.100408916
v 0.030764099 2.404278861 -0.435007783
v -0.555026315 2.504475680 -0.743000271
v -0.506880293 2.425035747 -0.834438871
v -0.553534700 2.474333351 -0.814900709
v -0.541187441 2.443486312 -0.753799546
v -0.538825717 2.491919046 -0.779092585
v 0.352621500 1.826577569 -1.827759050
v 0.193681619 2.003299389 -1.802466010
v 0.125274491 2.038695005 -1.814473099
v -0.608558725 2.389512002 -0.813621847
v -0.004703195 2.665629836 -0.848151109
v -0.085250413 2.276822612 -0.972200678
v -0.046965624 2.304594557 -0.951809941
v 0.011663138 2.318848900 -0.955007095
v -0.196044271 2.001473552 -1.793513980
v -0.467476793 1.642552400 -1.526089822
v -0.480238389 1.629483249 -1.578452097
v -0.475307773 1.661355319 -1.506054324
v -0.110690738 2.045037386 -1.822501508
v 0.386141406 1.751718244 -1.818807019
v -0.090678234 2.056184603 -1.826480188
v 0.024051830 2.080977550 -1.839268804
v 0.485126645 1.627497251 -1.576178565
v 0.061839414 2.069413914 -1.832235065
v -0.120386236 2.247096702 -1.426196526
v -0.125814058 2.187869106 -1.380725893
v -0.464576430 1.720134464 -1.304207344
v 0.067515838 2.450501371 -0.236286909
v 0.224756935 2.373239629 -0.531561829
v 0.092707561 2.404887473 -0.292698912
v 0.073399431 2.414785433 -0.081757806
v 0.073192263 2.449412275 -0.285309935
v 0.002879182 2.502906101 -0.957706914
v -0.137871280 2.264009720 -1.193798964
v -0.083924532 2.460271201 -1.075220080
v -0.114502643 2.274804582 -1.001827637
v -0.126808468 2.304850815 -1.076427894
v -0.055791013 2.314108130 -0.977813459
v -0.044935370 2.591731479 -0.936747794
v -0.039010343 2.503226423 -0.958204249
v 0.002216242 2.641765824 -0.846517008
v 0.014480633 2.661753936 -0.871312712
v -0.016760417 2.662010194 -0.871952143
v 0.085539521 2.355205482 -1.219447243
v 0.162896340 2.278360159 -1.027546964
v 0.147607285 2.294087985 -0.984634054
v 0.000931796 2.430385129 -0.977245077
v -0.150632876 2.244470059 -1.053550482
v -0.000311217 2.642822888 -0.850495688
v 0.010585860 2.333455597 -0.977031933
v -0.053802193 2.485352438 -1.132271515
v -0.102196818 2.272594358 -1.247155910
v 0.148850297 2.300526464 -1.175752807
v 0.122291261 2.316894934 -1.251702973
v 0.003832158 2.319841899 -1.293052830
v 0.074725312 2.313019034 -0.949678506
v 0.011663138 2.318848900 -0.955007095
v -0.102072517 2.295625532 -1.011774338
v 0.153739480 2.279417223 -1.113301735
v -0.361737853 2.263913623 -0.500158674
v 0.061010739 2.446977825 -0.105061505
v 0.027407965 2.429328066 -0.158631594
v -0.006360545 2.413440079 0.020622165
v -0.009509510 2.631323317 -0.988896926
v 0.001097531 2.502681876 -0.957849010
v 0.044354370 2.579335005 -0.913088856
v 0.001511868 2.430224968 -0.983284145
v 0.044147201 2.434132900 -0.990957314
v 0.008431305 2.333327468 -0.976463550
v -0.004205990 2.565977565 -1.076641038
v 0.050859469 2.552652156 -1.048221892
v 0.135342894 2.328618730 -1.080548670
v 0.096478032 2.464563520 -1.042538063
v 0.077335638 2.324582669 -0.985131389
v 0.265444881 2.344634846 -0.359057617
v 0.292335387 2.334768919 -0.297956454
v 0.146488573 2.412927563 -0.136393613
v 0.274353138 2.373752144 -0.276357904
v 0.295318618 2.356582868 -0.427476709
v 0.366294638 2.277271064 -0.480975751
v 0.178185395 2.405528118 -0.249288668
v -0.074021865 2.383425878 -1.458310160
v -0.053056386 2.478945992 -1.400690343
v -0.054009362 2.411197823 -1.529215928
v -0.043982394 2.429392130 -1.400548247
v -0.019412177 2.538429846 -1.324811224
v -0.079532555 2.181847046 -1.476356317
v -0.006567714 2.531254626 -1.325095416
v -0.000518386 2.217883307 -1.445876784
v -0.006236244 2.309239230 -1.446018880
v -0.047835733 2.314204226 -1.438558854
v -0.048415805 2.213687084 -1.450850134
v -0.055542411 2.234155680 -1.679126919
v 0.080981808 2.415362013 -0.218951230
v 0.099005491 2.388070552 -0.424776891
v 0.127470480 2.387750229 -0.252698965
v 0.100870010 2.382336782 -0.466624082
v 0.197286356 2.369716083 -0.424066412
v 0.208804939 2.333968113 -0.604456937
v 0.189248208 2.346300522 -0.555007624
v 0.273938801 2.304338299 -0.535966797
v 0.270458365 2.327049151 -0.459021961
v -0.066895260 2.078543100 -1.747546012
v -0.130081734 2.063039500 -1.633727335
v -0.007810726 2.549641127 -1.338807654
v -0.109281990 2.188349589 -1.556356211
v -0.106174458 2.077902456 -1.706977682
v -0.147856815 2.092445089 -1.562182136
v -0.006277677 2.530806175 -1.323248171
v -0.133396435 2.129057929 -1.489642268
v -0.079325386 2.182904110 -1.474793264
v -0.001802832 2.502745940 -1.445237353
v 0.319474496 2.305331298 -0.440407421
v 0.282557022 2.366384731 -0.388116193
v 0.155065361 2.358600899 -0.746126377
v 0.148518827 2.352066324 -0.688364464
v 0.122001225 2.365455796 -0.558204778
v 0.341102916 2.252862503 -0.656961308
v 0.308660287 2.252830471 -0.688648655
v 0.220572126 2.313307324 -0.668186871
v 0.246882559 2.348510746 -0.363249441
v 0.310151902 2.262151850 -0.648861852
v 0.517859310 2.173614763 -0.737600633
v 0.502735990 2.157534583 -0.708826249
v 0.414274925 2.241170739 -0.593018231
v 0.168365596 2.213334730 -1.351312078
v -0.230309985 2.188637879 -0.949039075
v -0.066729525 2.431089838 0.245985988
v -0.032463810 2.426445165 0.202930983
v -0.595465659 2.065217692 -0.454830137
v -0.135592424 2.262151850 -1.193159534
v -0.278248839 2.177907082 -0.886090668
v 0.248829946 2.316894934 -0.940158092
v 0.526767567 2.009129255 -0.918204302
v 0.430641258 2.066018498 -1.044314260
v 0.168987102 2.378300721 -0.831596957
v 0.399027304 2.192545812 -0.891348210
v 0.489228586 2.188541783 -0.906197213
v 0.468636011 2.191520780 -0.729430129
v 0.453927028 2.137514438 -0.906055117
v -0.087156365 2.214487890 -1.416462968
v -0.059437184 2.220798240 -1.410139708
v 0.097182406 2.196197486 -1.511809201
v 0.003334953 2.423049748 -1.554864206
v 0.025460578 2.373047435 -1.435787987
v 0.020198491 2.514181447 -1.360548300
v -0.086161955 2.216922340 -1.415113059
v -0.005946207 2.238063612 -1.706125108
v -0.088855149 2.208593960 -1.379518079
v 0.111352750 2.177522695 -1.485663587
v 0.075471119 2.276726516 -1.579162576
v 0.114418848 2.131972862 -1.542715022
v -0.059437184 2.220798240 -1.410139708
v 0.084255075 2.098210890 -1.692128678
v -0.049285914 2.211604989 -1.448292411
v 0.041412573 2.094687345 -1.739446555
v -0.133396435 2.129057929 -1.489642268
v -0.010545354 2.308086070 -1.442892774
v -0.140067269 2.210772151 -1.304136296
v -0.186680242 2.199048355 -1.242324655
v -0.208805867 2.252253891 -1.281329932
v -0.123659503 2.187548784 -1.477279939
v -0.386349503 2.171724861 -0.662076754
v -0.109489159 2.339541721 -0.676428423
v -0.007686425 2.076653199 -1.774544200
v -0.003584483 2.220541982 -1.440761338
v 0.041454007 2.191552812 -1.706267203
v 0.055127146 2.398224769 -1.474580121
v -0.186845977 2.217050469 -1.268399221
v -0.179346468 2.249274893 -1.303781057
v -0.186017302 2.198439742 -1.242964086
v -0.155729228 2.140269210 -1.439411428
v -0.069174116 2.454665561 0.360444096
v -0.170396777 2.213302698 -1.006232605
v -0.346614533 2.104072789 -0.975326784
v 0.517859310 2.173614763 -0.737600633
v 0.531242413 2.059035471 -0.830744382
v 0.564223681 2.255168824 -0.770069507
v 0.170478717 2.366673021 -0.488293680
v 0.612038233 2.183576787 -0.854474369
v -0.147773947 2.198215517 -1.339944419
v -0.187881821 2.199945257 -1.243674564
v -0.124778214 2.187644880 -1.381223228
v -0.147401044 2.201803127 -1.344420435
v -0.174457285 2.168297413 -1.357564290
v -0.211126157 2.242644221 -1.311951561
v -0.209924578 2.148469461 -1.337173553
v -0.231262962 2.141358306 -1.295042170
v -0.231594432 2.180982176 -1.241969416
v -0.173172839 2.166375479 -1.355645997
v -0.209841711 2.148405397 -1.337031457
v -0.230558588 2.142799756 -1.295823696
v -0.227989695 2.181622821 -1.244456091
v -0.067268163 2.421384072 -0.092130794
v -0.040957730 2.415938593 -0.031100679
v -0.204331022 2.360362672 -0.166375811
v -0.025005734 2.431217967 -0.158631594
v 0.383945418 2.294856759 -0.346695289
v 0.064822644 2.406681278 0.144955926
v 0.070871972 2.462609554 0.421190019
v 0.031385605 2.468759743 0.328117318
v 0.051356674 2.448195050 0.321012532
v 0.258691179 2.336947111 -0.188897984
v 0.329584332 2.340694882 -0.316855186
v 0.612618306 1.878053364 -0.489998829
v 0.603420012 1.936992670 -0.530780303
v -0.004330291 2.210387765 -1.438061519
v -0.504394268 2.038470779 -0.291349003
v -0.474106194 2.085173772 -0.272521319
v -0.636195039 1.973989897 -0.606304182
v -0.066563790 2.406072666 0.149787181
v -0.079656856 2.415874529 0.102540352
v 0.158918700 2.108749494 -1.544562266
v -0.632341700 1.933853511 -0.517565400
v 0.276300525 2.047503868 -1.492484182
v 0.280899671 2.219581015 -1.076427894
v 0.210835193 2.233515036 -1.222573349
v -0.552250254 2.082194775 -0.377459014
v 0.008887076 2.456587495 0.364635920
v -0.029149110 2.472731739 0.475328491
v 0.034244534 2.481668732 0.419769062
v 0.105179121 2.234860389 -1.376605117
v 0.109198195 2.178035211 -1.488931789
v 0.115288957 2.134151054 -1.542999213
v 0.131779591 2.206415768 -1.388185919
v 0.076879867 2.094206861 -1.689286764
v 0.621650864 1.884395746 -0.495753706
v 0.170603018 2.050354737 -1.626409405
v -0.597454479 1.982702664 -0.600265113
v -0.318232411 2.308982973 -0.244315317
v 0.011083065 2.449604468 0.323854446
v -0.123990973 2.399986542 -0.039626423
v -0.069588454 2.365455796 -0.699234787
v -0.144707850 2.412062693 -0.136180469
v -0.235282036 2.349055294 -0.210780726
v -0.200394815 2.361483800 -0.283675834
v -0.361654985 2.223745205 -0.516641778
v 0.010130089 2.421480169 0.118099834
v -0.246759186 2.346268490 -0.287867658
v -0.328135078 2.245334929 -0.503568971
v -0.295070943 2.269166909 -0.574901026
v -0.215559569 2.345115330 -0.405380824
v -0.148312586 2.374200596 -0.349963490
v -0.206982782 2.358632931 -0.343071848
v -0.209883145 2.342648848 -0.472805246
v 0.598696564 1.948364112 -0.443817718
v 0.554486749 2.030334592 -0.441402091
v 0.432215741 2.202603932 -0.328791227
v 0.337249577 2.322308381 -0.361828484
v 0.600188180 1.972260157 -0.622716238
v 0.586142137 1.964123970 -0.615114117
v 0.594843225 1.962746584 -0.596215385
v 0.589581139 1.940003700 -0.545913498
v -0.027823230 2.445888729 0.306447720
v 0.032545750 2.455562463 0.222966480
v -0.020530889 2.435221996 -0.219590661
v 0.318852990 2.317279321 -0.250780673
v 0.081810483 2.415169819 0.100408916
v 0.064615476 2.411646274 0.178064231
v 0.634453894 1.978442377 -0.706979004
v -0.155646361 2.356102385 -0.485025479
v -0.090636801 2.379710139 -0.472521055
v -0.100705203 2.359209511 -0.560052023
v -0.250115320 2.337908077 -0.356215702
v -0.253885791 2.300334270 -0.525806952
v -0.205408299 2.370997372 -0.496890472
v -0.212493471 2.354276548 -0.533053834
v -0.198820332 2.381119558 -0.399696995
v -0.050777529 2.414657304 0.119307648
v -0.075596348 2.406649246 0.025240276
v -0.044976804 2.441308120 0.001368194
v -0.176611840 2.405592182 -0.250354386
v 0.439300913 2.222816270 -0.398631277
v -0.263001217 2.255425082 -0.648435565
v -0.418170626 1.947947693 -1.030033639
v -0.605036856 2.306580555 -0.836072972
v -0.413157142 1.961209037 -1.006516796
v -0.617549850 2.286464314 -0.792875871
v -0.523868132 2.328810924 -0.897671470
v -0.223431982 2.243477059 -1.171205744
v -0.221153126 2.248698313 -1.105912757
v -0.500043724 2.405720311 -0.781366117
v -0.537748440 2.379165591 -0.754723168
v -0.565136151 1.978794732 -0.643035927
v -0.481647137 1.945673405 -1.017387119
v -0.536049656 2.379037463 -0.755930982
v -0.446138410 2.039623939 -1.414686772
v -0.427824691 2.053461863 -1.354438184
v -0.441704998 2.042538872 -1.459517974
v -0.371184749 2.208273637 -0.683533209
v -0.391155818 1.903230698 -1.040406627
v -0.052061976 2.217819242 -1.449073938
v -0.368781591 2.103336047 -1.421294223
v -0.409469537 2.072841363 -1.335468404
v -0.483594523 2.324870959 -0.736392820
v -0.600313408 2.363085411 -0.765451396
v -0.054175097 2.392491000 -0.458382530
v -0.270044955 2.271825584 -0.605096368
v -0.395837832 1.919278846 -1.417812878
v -0.343134097 2.121434258 -1.197706597
v -0.465570840 1.737592030 -1.264420541
v -0.380963115 1.898938379 -1.048506084
v -0.619911574 1.976808734 -0.690637996
v 0.390740553 1.899803249 -1.597635020
v 0.460473561 1.914249786 -1.503993936
v -0.599650468 1.980428376 -0.708257866
v -0.441995034 1.929401031 -1.031880884
v -0.582041123 1.988916917 -0.932769114
v -0.420615217 1.918606169 -1.034722798
v -0.588049017 1.978922861 -0.807227539
v 0.151004853 2.025689919 -1.811631185
v 0.495857987 1.803514362 -1.302502195
v 0.483966500 1.714721017 -1.446942502
v 0.475762616 1.666416412 -1.618025757
v -0.616804042 1.974950864 -0.660797893
v -0.600810613 2.001697777 -0.894687459
v 0.588628162 1.994490525 -0.943852581
v 0.621153659 1.977993926 -0.775113905
v -0.638225293 1.977000927 -0.640549252
v 0.634868232 1.984240211 -0.868044510
v -0.639882643 1.885324681 -0.481686229
v -0.653762951 1.901917377 -0.489004159
v -0.352125222 2.201674998 -0.575185217
v -0.191486558 2.356775062 -0.420940306
v -0.225835140 2.322724800 -0.646730416
v -0.461966104 2.249915538 -0.896108417
v -0.433169645 2.088216834 -0.921117264
v -0.496853325 2.126335189 -0.897600422
v -0.523660963 2.039655971 -0.764527773
v -0.507543233 2.052981380 -0.835433541
v -0.478208135 2.135272182 -0.672520790
v -0.462256140 2.076364909 -0.896250512
v -0.528260110 2.079343906 -0.696819160
v -0.533729366 2.119896711 -0.717707231
v -0.270666462 2.338612787 -0.348400437
v -0.297847004 2.322724800 -0.284315265
v -0.280196225 2.375417820 -0.270105692
v -0.279823321 2.317951997 -0.437494458
v -0.190699316 2.387013488 -0.363107345
v -0.336794733 2.181014208 -0.837636025
v -0.369030194 2.194403681 -0.770922081
v -0.478083834 2.135272182 -0.672733934
v -0.426705979 2.174447601 -0.713089120
v -0.488400839 2.170379508 -0.699021643
v -0.396956544 2.218844274 -0.857103140
v -0.488773743 2.172077216 -0.694900867
v -0.378021318 2.233290810 -0.809216880
v -0.140771643 2.377339754 -0.283249547
v -0.146779537 2.384386845 -0.164883806
v -0.079118217 2.414176820 -0.220159044
v -0.255335973 2.321923994 -0.448080590
v -0.227202454 2.273331099 -0.692840479
v 0.328382753 2.134727634 -1.271880566
v -0.180920951 2.308502489 -0.662289898
v -0.522003613 2.041738067 -0.765735587
v -0.335551720 2.173166312 -0.870602234
v -0.435614236 2.011275414 -0.952520420
v -0.402881571 2.122811644 -0.914580861
v -0.463001948 2.077293843 -0.896392608
v -0.538908585 2.003395486 -0.777458485
v -0.501162435 2.021077277 -0.896463656
v -0.526395591 2.027707949 -0.833870488
v -0.478746774 2.135720633 -0.672591838
v -0.531160473 2.080272841 -0.698169069
v -0.275845681 2.311321325 -0.463497976
v 0.596707744 1.957333137 -0.568009383
v 0.363228541 1.976168089 -1.488292358
v 0.274021668 2.157246293 -1.340654898
v 0.207727662 1.988340337 -1.782856800
v 0.315123952 1.968352225 -1.578949432
v -0.219040004 2.319393448 -0.542361105
v -0.007437823 2.075564103 -1.772199621
v 0.081147543 2.055159571 -1.812625855
v -0.659315074 1.964476325 -0.557494299
v -0.456745451 2.166663769 -0.256322406
v -0.383283405 2.275509291 -0.372130424
v -0.336256094 2.326440539 -0.298382742
v 0.171763163 2.140141081 -1.498381155
v 0.042241248 2.094431087 -1.740228082
v 0.154858192 2.159328388 -1.446871454
v 0.151336323 2.093406056 -1.626551500
v 0.249285717 2.255393050 -1.062005178
v 0.194966066 2.254560212 -1.045237882
v 0.169069969 2.279225030 -0.950460032
v 0.011000198 2.360811123 -0.865699931
v 0.108991026 2.266380105 -1.335042117
v 0.236482687 2.094142797 -1.438914093
v 0.248249873 2.203436770 -1.279980023
v 0.187135086 2.244694284 -1.267049312
v 0.205365938 2.218523951 -1.366516320
v -0.386680973 2.098082761 -1.464207133
v -0.387592515 1.725547911 -1.829464198
v -0.425131496 1.663020995 -1.754792894
v -0.327513572 1.954898687 -1.520050753
v -0.391321553 1.744286766 -1.767084174
v -0.274644102 1.997789845 -1.491205321
v -0.407232115 1.961721553 -1.326587421
v -0.433459681 2.054198604 -1.352022556
v -0.382247561 2.027611852 -1.278345922
v -0.406444873 1.960728553 -1.326374277
v -0.213363580 2.114931715 -1.367439943
v -0.276052850 2.121626451 -1.249713633
v -0.423557014 1.924884487 -1.278345922
v -0.434039754 1.997277329 -1.146481087
v -0.365632626 1.819914864 -1.693265444
v -0.392315963 1.795634433 -1.679269015
v -0.400892750 1.762897493 -1.694331162
v -0.469341312 1.754985532 -1.536320714
v -0.345578689 1.866713954 -1.650707774
v -0.437810225 1.958101910 -1.068896820
v -0.371930556 1.920399974 -1.469464674
v -0.426001605 1.989653658 -1.243816660
v -0.348893389 2.081842420 -1.161116947
v 0.001719037 2.273971744 -1.350601599
v 0.003956460 2.322084155 -1.293479117
v -0.426540244 1.695725904 -1.684455509
v -0.312721722 2.122074903 -1.154438448
v -0.374333714 2.065762240 -1.234580438
v -0.399691172 1.863094312 -1.530423741
v 0.265734917 2.257603274 -0.814190230
v 0.172757573 2.271729488 -1.164029910
v 0.134058447 2.026907143 -1.802679154
v 0.244810872 1.984144115 -1.656533699
v 0.264864809 2.085269869 -1.433372360
v 0.327346910 1.995931976 -1.509393574
v 0.239383050 2.321155220 -0.687298746
v -0.274809837 1.998430490 -1.490707986
v -0.321588545 1.943431149 -1.575183895
v -0.330455369 1.957525330 -1.510956627
v -0.344087074 1.893685093 -1.600903222
v -0.385355093 1.907875372 -1.544491218
v 0.064864078 2.474493512 0.444067431
v 0.067557272 2.431410161 0.243570361
v 0.031592774 2.426637358 0.202859935
v 0.040003826 2.444991827 0.120302318
v 0.596044804 1.896632059 -0.497174663
v 0.032960088 2.462129071 0.397886320
v 0.028609543 2.475614640 0.471776098
v -0.201223490 2.267277007 -0.904989399
v -0.220034414 2.242548125 -0.945415634
v -0.129253059 2.366192538 -0.847014343
v -0.115165583 2.380126558 -0.804669816
v -0.074519070 2.350432680 -0.845309194
v -0.442285071 1.907330824 -1.389393732
v -0.252394176 2.299213142 -0.738097968
v -0.261426735 2.274324098 -0.774332379
v -0.337209071 2.180565757 -0.836854498
v -0.281232069 2.242580157 -0.836783451
v -0.425918738 2.175056213 -0.711455019
v -0.141683186 2.268942683 -0.889643061
v -0.459852982 1.836219270 -1.303567913
v -0.456372547 1.856111286 -1.313443566
v -0.339197891 2.174575730 -0.868044510
v -0.457201222 1.906305792 -1.182360258
v -0.417797722 1.879622944 -1.068044246
v -0.458941440 1.815558481 -1.164811436
v -0.474852001 1.776094772 -1.329997719
v -0.519517588 1.858641832 -1.305557254
v -0.470542891 1.806173037 -1.303070578
v -0.452104870 1.846373488 -1.386836009
v -0.470832927 1.765460071 -1.372839580
v -0.456745451 1.702740962 -1.638203350
v -0.468471203 1.783269992 -1.393585556
v -0.468761239 1.737303740 -1.283319272
v -0.457698427 1.855118287 -1.312662040
v -0.471330132 1.805660522 -1.301152286
v -0.505430112 1.805244103 -1.354438184
v -0.467311058 1.782949669 -1.394793370
v -0.479575449 1.717603918 -1.538167958
v -0.444522493 1.739417867 -1.640903169
v -0.471578735 1.765492103 -1.372839580
v -0.463789189 1.752358889 -1.534047182
v -0.463126249 1.752775308 -1.536107570
v -0.466440949 1.732851260 -1.347546541
v -0.442077902 1.738617061 -1.638061254
v -0.519103251 1.774781451 -1.580583533
v -0.442782276 1.775165837 -1.605023998
v -0.473360386 1.715489790 -1.537883767
v -0.441663564 1.668082088 -1.679908446
v -0.364472481 1.809664550 -1.778522880
v -0.453099280 1.703029252 -1.635006196
v -0.365384023 1.819370317 -1.694331162
v -0.429647776 1.836827883 -1.709748549
v -0.410629683 1.760943527 -1.693194396
v -0.319309689 1.890001387 -1.787901198
v -0.391031517 1.741499962 -1.767936749
v -0.364721083 1.806269134 -1.773549530
v -0.365964096 1.818089027 -1.692768109
v -0.471744470 1.679645723 -1.599624360
v -0.421153856 1.780771478 -1.756355947
v -0.355895694 1.822061024 -1.749251161
v -0.393849012 1.796531336 -1.681258355
v -0.468554071 1.681791883 -1.599766456
v -0.471454433 1.655877808 -1.620228241
v -0.325939089 1.889008387 -1.749606400
v -0.400188377 2.121178000 -0.912662569
v -0.345247219 1.915531075 -1.727084227
v -0.278000236 1.914602140 -1.767794653
v -0.319889761 1.885196552 -1.749180113
v -0.249493813 1.943270987 -1.740085986
v -0.439716178 2.054807217 -1.588896133
v -0.434661260 2.056280700 -1.588682989
v -0.272033776 1.986130113 -1.718345340
v -0.344087074 1.893172578 -1.600050647
v -0.288897313 1.970370255 -1.582075538
v -0.346780268 1.867706954 -1.651489301
v -0.339115023 1.875330625 -1.716427048
v -0.326394861 1.943431149 -1.570281593
v -0.370563242 1.912488013 -1.655752172
v -0.243237317 1.954354139 -1.780228029
v -0.304103501 1.977577507 -1.606302859
v -0.242118605 1.967583451 -1.711169506
v -0.323038727 1.943559277 -1.575823326
v -0.414855926 2.086615223 -1.609571061
v -0.085208979 2.277431225 -0.971987535
v -0.454756631 2.094815474 -1.593372148
v -0.385935165 2.022807018 -1.719268962
v -0.447464290 2.062046501 -1.639198020
v -0.083178725 2.303185139 -0.909110176
v -0.435034164 2.000480553 -1.474864312
v -0.441912167 2.042795130 -1.459517974
v -0.260017987 2.032704977 -1.432803977
v -0.448914471 1.999231296 -1.411276474
v -0.364928252 2.048272642 -1.275290864
v -0.249286645 1.984080050 -1.651489301
v -0.318729616 2.057497924 -1.288079479
v -0.379181463 2.104264982 -1.355361806
v -0.270542160 2.053525928 -1.332342298
v -0.366419867 2.111344105 -1.422928324
v -0.275431343 1.913352883 -1.758842622
v -0.409345236 2.074058588 -1.334189542
v -0.447049952 2.040681003 -1.414686772
v -0.409676706 2.073193718 -1.334402686
v -0.366046963 2.046831191 -1.275148768
v -0.422604038 2.060829276 -1.477919370
v -0.399649738 1.922385973 -1.419304883
v -0.380797380 1.921104683 -1.472448685
v -0.353161066 1.961337166 -1.591240712
v -0.132940663 2.066402885 -1.635148292
v -0.437561623 1.771033679 -1.602608371
v -0.318646749 2.058715149 -1.287440048
v -0.415601733 2.000352424 -1.016321401
v -0.366585602 2.047984352 -1.275646103
v -0.456123944 1.844932037 -1.385415052
v -0.474106194 1.686308428 -1.393372413
v -0.459231476 1.837148205 -1.304420488
v 0.264367604 2.335345499 -0.221508953
v 0.074559577 2.431474225 -0.419377253
v 0.258608312 2.334064210 -0.641686018
v -0.222686175 2.045870224 -1.443674300
v -0.090263897 2.381824267 -0.431952725
v -0.088399378 2.401107670 -0.293196247
v -0.062461848 2.447330180 -0.143356304
v -0.067765368 2.452167047 -0.240194541
v -0.308081141 2.294055953 -0.601543975
v -0.061343137 2.448707566 -0.104279979
v -0.289187350 2.359593898 -0.396712984
v -0.385935165 2.244309898 -0.423711173
v -0.308992684 2.299469400 -0.422077072
v 0.388876034 2.126591447 -1.259447190
v -0.302197548 2.313723743 -0.519341597
v 0.145742766 2.385347812 -0.164670663
v 0.431594235 1.912455981 -1.051632190
v 0.618584766 2.284222058 -0.912165234
v -0.420698085 2.060444890 -1.474011738
v -0.387261045 2.093982636 -1.456605011
v 0.612742607 1.981677633 -0.719838667
v 0.595837635 1.985329307 -0.791383866
v -0.380093006 2.101574275 -1.356214380
v 0.521091143 1.961369198 -0.992307224
v 0.651110263 2.304562525 -0.776819054
v -0.312680288 2.085910514 -1.272875236
v -0.272738149 2.052596993 -1.333692207
v -0.261343867 2.030879140 -1.431880355
v 0.540192104 2.123196031 -0.856534757
v 0.531408148 2.080785357 -0.733053570
v 0.541642285 2.050194576 -0.780726686
v 0.589125367 2.221470917 -0.784492223
v 0.502735990 2.157534583 -0.708826249
v 0.547981650 2.118775583 -0.757707179
v 0.491714612 2.091804444 -0.886303811
v 0.331365984 2.235244776 -0.940655427
v 0.403709318 1.945737469 -1.544846458
v 0.188626701 2.229222717 -1.299518185
v 0.267226533 2.241555126 -0.944705155
v 0.211083796 1.992632656 -1.707403969
v 0.246012451 1.969537417 -1.710672171
v 0.297970378 1.997725781 -1.593159005
v 0.158835832 2.266091815 -1.262999583
v 0.310939143 2.227749234 -0.892769167
v 0.512017151 2.061149599 -0.395505171
v -0.317362302 2.195652938 -0.681543869
v 0.317319941 2.331597728 -0.512663098
v 0.016096550 2.388903390 -0.729643273
v 0.043898599 2.377788206 -0.562751841
v 0.280443900 2.123228063 -1.333834303
v 0.263580362 2.376186594 -0.238844632
v -0.292294881 1.972900801 -1.583709639
v 0.106919338 2.369844212 -0.708968344
v 0.340688578 2.157951002 -1.251134590
f -1965 -2002 -2003
f -2002 -1965 -1971
f -1971 -1905 -2002
f -1872 -2002 -1905
f -2002 -1872 -2025
f -2025 -2003 -2002
f -2003 -2025 -2004
f -1999 -2004 -2025
f -2004 -1999 -2005
f -1932 -1971 -1965
f -1971 -1932 -1938
f -1938 -1910 -1971
f -1905 -1971 -1910
f -1910 -1844 -1905
f -1812 -1905 -1844
f -1905 -1812 -1872
f -1977 -1872 -1812
f -1872 -1977 -1839
f -1839 -2025 -1872
f -2025 -1839 -1999
f -1998 -1938 -1932
f -1938 -1998 -1806
f -1806 -1877 -1938
f -1910 -1938 -1877
f -1877 -1849 -1910
f -1844 -1910 -1849
f -1849 -1982 -1844
f -1949 -1844 -1982
f -1844 -1949 -1812
f -1916 -1812 -1949
f -1812 -1916 -1977
f -1964 -1806 -1998
f -1806 -1964 -1838
f -1838 -1943 -1806
f -1877 -1806 -1943
f -1943 -1817 -1877
f -1849 -1877 -1817
f -1817 -1987 -1849
f -1982 -1849 -1987
f -1987 -1921 -1982
f -1888 -1982 -1921
f -1982 -1888 -1949
f -1997 -1838 -1964
f -1838 -1997 -1871
f -1871 -1976 -1838
f -1943 -1838 -1976
f -1976 -1882 -1943
f -1817 -1943 -1882
f -1882 -1954 -1817
f -1987 -1817 -1954
f -1954 -1926 -1987
f -1921 -1987 -1926
f -1963 -1871 -1997
f -1871 -1963 -1904
f -1904 -1811 -1871
f -1976 -1871 -1811
f -1811 -1915 -1976
f -1882 -1976 -1915
f -1915 -1822 -1882
f -1954 -1882 -1822
f -1822 -1893 -1954
f -1926 -1954 -1893
f -1996 -1904 -1963
f -1904 -1996 -1937
f -1937 -1843 -1904
f -1811 -1904 -1843
f -1843 -1948 -1811
f -1915 -1811 -1948
f -1948 -1854 -1915
f -1822 -1915 -1854
f -1854 -1960 -1822
f -1893 -1822 -1960
f -1995 -1937 -1996
f -1937 -1995 -1970
f -1970 -1876 -1937
f -1843 -1937 -1876
f -1876 -1981 -1843
f -1948 -1843 -1981
f -1981 -1887 -1948
f -1854 -1948 -1887
f -1887 -1991 -1854
f -1960 -1854 -1991
f -1994 -1970 -1995
f -1970 -1994 -1805
f -1805 -1909 -1970
f -1876 -1970 -1909
f -1909 -1816 -1876
f -1981 -1876 -1816
f -1816 -1920 -1981
f -1887 -1981 -1920
f -1920 -1827 -1887
f -1991 -1887 -1827
f -1993 -1805 -1994
f -1805 -1993 -1837
f -1837 -1942 -1805
f -1909 -1805 -1942
f -1942 -1848 -1909
f -1816 -1909 -1848
f -1848 -1953 -1816
f -1920 -1816 -1953
f -1953 -1859 -1920
f -1827 -1920 -1859
f -2024 -1837 -1993
f -1837 -2024 -1870
f -1870 -1975 -1837
f -1942 -1837 -1975
f -1975 -1881 -1942
f -1848 -1942 -1881
f -1881 -1986 -1848
f -1953 -1848 -1986
f -1986 -1892 -1953
f -1859 -1953 -1892
f -2023 -1870 -2024
f -1870 -2023 -1903
f -1903 -1810 -1870
f -1975 -1870 -1810
f -1810 -1914 -1975
f -1881 -1975 -1914
f -1914 -1821 -1881
f -1986 -1881 -1821
f -1821 -1925 -1986
f -1892 -1986 -1925
f -2022 -1903 -2023
f -1903 -2022 -1936
f -1936 -1842 -1903
f -1810 -1903 -1842
f -1842 -1947 -1810
f -1914 -1810 -1947
f -1947 -1853 -1914
f -1821 -1914 -1853
f -1853 -1958 -1821
f -1925 -1821 -1958
f -2021 -1936 -2022
f -1936 -2021 -1969
f -1969 -1875 -1936
f -1842 -1936 -1875
f -1875 -1980 -1842
f -1947 -1842 -1980
f -1980 -1886 -1947
f -1853 -1947 -1886
f -1886 -1992 -1853
f -1958 -1853 -1992
f -2020 -1969 -2021
f -1969 -2020 -1804
f -1804 -1908 -1969
f -1875 -1969 -1908
f -1908 -1815 -1875
f -1980 -1875 -1815
f -1815 -1919 -1980
f -1886 -1980 -1919
f -1919 -1826 -1886
f -1992 -1886 -1826
f -2019 -1804 -2020
f -1804 -2019 -1836
f -1836 -1941 -1804
f -1908 -1804 -1941
f -1941 -1847 -1908
f -1815 -1908 -1847
f -1847 -1952 -1815
f -1919 -1815 -1952
f -1952 -1858 -1919
f -1826 -1919 -1858
f -2018 -1836 -2019
f -1836 -2018 -1869
f -1869 -1974 -1836
f -1941 -1836 -1974
f -1974 -1880 -1941
f -1847 -1941 -1880
f -1880 -1985 -1847
f -1952 -1847 -1985
f -1985 -1891 -1952
f -1858 -1952 -1891
f -2017 -1869 -2018
f -1869 -2017 -1902
f -1902 -1809 -1869
f -1974 -1869 -1809
f -1809 -1913 -1974
f -1880 -1974 -1913
f -1913 -1820 -1880
f -1985 -1880 -1820
f -1820 -1924 -1985
f -1891 -1985 -1924
f -2016 -1902 -2017
f -1902 -2016 -1935
f -1935 -1841 -1902
f -1809 -1902 -1841
f -1841 -1946 -1809
f -1913 -1809 -1946
f -1946 -1852 -1913
f -1820 -1913 -1852
f -1852 -1957 -1820
f -1924 -1820 -1957
f -2015 -1935 -2016
f -1935 -2015 -1968
f -1968 -1874 -1935
f -1841 -1935 -1874
f -1874 -1979 -1841
f -1946 -1841 -1979
f -1979 -1885 -1946
f -1852 -1946 -1885
f -1885 -1990 -1852
f -1957 -1852 -1990
f -2014 -1968 -2015
f -1968 -2014 -1868
f -1868 -1907 -1968
f -1874 -1968 -1907
f -1907 -1814 -1874
f -1979 -1874 -1814
f -1814 -1918 -1979
f -1885 -1979 -1918
f -1918 -1825 -1885
f -1990 -1885 -1825
f -2013 -1868 -2014
f -1868 -2013 -1901
f -1901 -1940 -1868
f -1907 -1868 -1940
f -1940 -1846 -1907
f -1814 -1907 -1846
f -1846 -1951 -1814
f -1918 -1814 -1951
f -1951 -1857 -1918
f -1825 -1918 -1857
f -2012 -1901 -2013
f -1901 -2012 -1934
f -1934 -1973 -1901
f -1940 -1901 -1973
f -1973 -1879 -1940
f -1846 -1940 -1879
f -1879 -1984 -1846
f -1951 -1846 -1984
f -1984 -1890 -1951
f -1857 -1951 -1890
f -2011 -1934 -2012
f -1934 -2011 -1967
f -1967 -1808 -1934
f -1973 -1934 -1808
f -1808 -1912 -1973
f -1879 -1973 -1912
f -1912 -1819 -1879
f -1984 -1879 -1819
f -1819 -1923 -1984
f -1890 -1984 -1923
f -2010 -1967 -2011
f -1967 -2010 -2000
f -2000 -1840 -1967
f -1808 -1967 -1840
f -1840 -1945 -1808
f -1912 -1808 -1945
f -1945 -1851 -1912
f -1819 -1912 -1851
f -1851 -1956 -1819
f -1923 -1819 -1956
f -2009 -2000 -2010
f -2000 -2009 -2001
f -2001 -1873 -2000
f -1840 -2000 -1873
f -1873 -1978 -1840
f -1945 -1840 -1978
f -1978 -1884 -1945
f -1851 -1945 -1884
f -1884 -1989 -1851
f -1956 -1851 -1989
f -2008 -2001 -2009
f -2001 -2008 -1900
f -1900 -1906 -2001
f -1873 -2001 -1906
f -1906 -1813 -1873
f -1978 -1873 -1813
f -1813 -1917 -1978
f -1884 -1978 -1917
f -1917 -1824 -1884
f -1989 -1884 -1824
f -2007 -1900 -2008
f -1900 -2007 -1933
f -1933 -1939 -1900
f -1906 -1900 -1939
f -1939 -1845 -1906
f -1813 -1906 -1845
f -1845 -1950 -1813
f -1917 -1813 -1950
f -1950 -1856 -1917
f -1824 -1917 -1856
f -2006 -1933 -2007
f -1933 -2006 -1966
f -1966 -1972 -1933
f -1939 -1933 -1972
f -1972 -1878 -1939
f -1845 -1939 -1878
f -1878 -1983 -1845
f -1950 -1845 -1983
f -1983 -1889 -1950
f -1856 -1950 -1889
f -2005 -1966 -2006
f -1966 -2005 -1999
f -1999 -1807 -1966
f -1972 -1966 -1807
f -1807 -1911 -1972
f -1878 -1972 -1911
f -1911 -1818 -1878
f -1983 -1878 -1818
f -1818 -1922 -1983
f -1889 -1983 -1922
f -1922 -1861 -1889
f -1829 -1889 -1861
f -1889 -1829 -1856
f -1807 -1999 -1839
f -1839 -1944 -1807
f -1911 -1807 -1944
f -1944 -1850 -1911
f -1818 -1911 -1850
f -1850 -1955 -1818
f -1922 -1818 -1955
f -1955 -1894 -1922
f -1861 -1922 -1894
f -1831 -1861 -1894
f -1831 -1829 -1861
f -1831 -1931 -1829
f -1931 -1856 -1829
f -1856 -1931 -1824
f -1944 -1839 -1977
f -1977 -1883 -1944
f -1850 -1944 -1883
f -1883 -1988 -1850
f -1955 -1850 -1988
f -1988 -1928 -1955
f -1894 -1955 -1928
f -1831 -1894 -1928
f -1883 -1977 -1916
f -1916 -1823 -1883
f -1988 -1883 -1823
f -1823 -1959 -1988
f -1928 -1988 -1959
f -1831 -1928 -1959
f -1823 -1916 -1855
f -1855 -1961 -1823
f -1959 -1823 -1961
f -1831 -1959 -1961
f -1949 -1855 -1916
f -1855 -1949 -1888
f -1888 -1962 -1855
f -1961 -1855 -1962
f -1831 -1961 -1962
f -1962 -1888 -1828
f -1831 -1962 -1828
f -1921 -1828 -1888
f -1828 -1921 -1860
f -1831 -1828 -1860
f -1926 -1860 -1921
f -1860 -1926 -1833
f -1831 -1860 -1833
f -1893 -1833 -1926
f -1833 -1893 -1801
f -1831 -1833 -1801
f -1960 -1801 -1893
f -1801 -1960 -1863
f -1831 -1801 -1863
f -1991 -1863 -1960
f -1863 -1991 -1865
f -1831 -1863 -1865
f -1827 -1865 -1991
f -1865 -1827 -1866
f -1831 -1865 -1866
f -1859 -1866 -1827
f -1866 -1859 -1834
f -1831 -1866 -1834
f -1892 -1834 -1859
f -1834 -1892 -1802
f -1831 -1834 -1802
f -1925 -1802 -1892
f -1802 -1925 -1835
f -1831 -1802 -1835
f -1958 -1835 -1925
f -1835 -1958 -1803
f -1831 -1835 -1803
f -1992 -1803 -1958
f -1803 -1992 -1832
f -1831 -1803 -1832
f -1826 -1832 -1992
f -1832 -1826 -1864
f -1831 -1832 -1864
f -1858 -1864 -1826
f -1864 -1858 -1895
f -1831 -1864 -1895
f -1891 -1895 -1858
f -1895 -1891 -1897
f -1831 -1895 -1897
f -1924 -1897 -1891
f -1897 -1924 -1898
f -1831 -1897 -1898
f -1957 -1898 -1924
f -1898 -1957 -1899
f -1831 -1898 -1899
f -1990 -1899 -1957
f -1899 -1990 -1867
f -1831 -1899 -1867
f -1825 -1867 -1990
f -1867 -1825 -1830
f -1831 -1867 -1830
f -1857 -1830 -1825
f -1830 -1857 -1862
f -1831 -1830 -1862
f -1831 -1862 -1896
f -1831 -1896 -1927
f -1831 -1927 -1929
f -1831 -1929 -1930
f -1831 -1930 -1931
f -1930 -1824 -1931
f -1890 -1862 -1857
f -1862 -1890 -1896
f -1923 -1896 -1890
f -1896 -1923 -1927
f -1956 -1927 -1923
f -1927 -1956 -1929
f -1989 -1929 -1956
f -1929 -1989 -1930
f -1824 -1930 -1989
f -1991 -1929 -2019
f -1929 -1991 -1859
f -1859 -2023 -1929
f -2023 -1859 -1826
f -1826 -1961 -2023
f -1961 -1826 -1891
f -1891 -1993 -1961
f -2019 -1959 -1991
f -1954 -1991 -1959
f -1991 -1954 -1986
f -1986 -1859 -1991
f -1859 -1986 -1981
f -1981 -1826 -1859
f -1826 -1981 -1949
f -1949 -1891 -1826
f -1959 -2019 -2018
f -2018 -2020 -1959
f -1922 -1959 -2020
f -1959 -1922 -1954
f -1853 -1954 -1922
f -1954 -1853 -1885
f -1885 -1986 -1954
f -1986 -1885 -1917
f -1917 -1981 -1986
f -1981 -1917 -1912
f -1912 -1949 -1981
f -2020 -2018 -2017
f -2017 -2025 -2020
f -1890 -2020 -2025
f -2020 -1890 -1922
f -1820 -1922 -1890
f -1922 -1820 -1853
f -1943 -1853 -1820
f -1853 -1943 -1975
f -1975 -1885 -1853
f -1885 -1975 -1815
f -1815 -1917 -1885
f -2025 -2017 -2016
f -2016 -2024 -2025
f -1858 -2025 -2024
f -2025 -1858 -1890
f -1980 -1890 -1858
f -1890 -1980 -1820
f -1911 -1820 -1980
f -1820 -1911 -1943
f -1842 -1943 -1911
f -1943 -1842 -1874
f -1874 -1975 -1943
f -2024 -2016 -2015
f -2015 -1992 -2024
f -1825 -2024 -1992
f -2024 -1825 -1858
f -1948 -1858 -1825
f -1858 -1948 -1980
f -1879 -1980 -1948
f -1980 -1879 -1911
f -1809 -1911 -1879
f -1911 -1809 -1842
f -1992 -2015 -2014
f -2014 -1960 -1992
f -1985 -1992 -1960
f -1992 -1985 -1825
f -1916 -1825 -1985
f -1825 -1916 -1948
f -1847 -1948 -1916
f -1948 -1847 -1879
f -1969 -1879 -1847
f -1879 -1969 -1809
f -1960 -2014 -2013
f -2013 -1928 -1960
f -1953 -1960 -1928
f -1960 -1953 -1985
f -1884 -1985 -1953
f -1985 -1884 -1916
f -1814 -1916 -1884
f -1916 -1814 -1847
f -1937 -1847 -1814
f -1847 -1937 -1969
f -1928 -2013 -2012
f -2012 -2021 -1928
f -1921 -1928 -2021
f -1928 -1921 -1953
f -1852 -1953 -1921
f -1953 -1852 -1884
f -1974 -1884 -1852
f -1884 -1974 -1814
f -1905 -1814 -1974
f -1814 -1905 -1937
f -2021 -2012 -2011
f -2011 -2022 -2021
f -1889 -2021 -2022
f -2021 -1889 -1921
f -1819 -1921 -1889
f -1921 -1819 -1852
f -1942 -1852 -1819
f -1852 -1942 -1974
f -1873 -1974 -1942
f -1974 -1873 -1905
f -2022 -2011 -2010
f -2010 -1990 -2022
f -1857 -2022 -1990
f -2022 -1857 -1889
f -1979 -1889 -1857
f -1889 -1979 -1819
f -1910 -1819 -1979
f -1819 -1910 -1942
f -1841 -1942 -1910
f -1942 -1841 -1873
f -1990 -2010 -2009
f -2009 -1958 -1990
f -1824 -1990 -1958
f -1990 -1824 -1857
f -1947 -1857 -1824
f -1857 -1947 -1979
f -1878 -1979 -1947
f -1979 -1878 -1910
f -1808 -1910 -1878
f -1910 -1808 -1841
f -1958 -2009 -2008
f -2008 -1926 -1958
f -1984 -1958 -1926
f -1958 -1984 -1824
f -1915 -1824 -1984
f -1824 -1915 -1947
f -1846 -1947 -1915
f -1947 -1846 -1878
f -1968 -1878 -1846
f -1878 -1968 -1808
f -1926 -2008 -2007
f -2007 -1894 -1926
f -1952 -1926 -1894
f -1926 -1952 -1984
f -1883 -1984 -1952
f -1984 -1883 -1915
f -1813 -1915 -1883
f -1915 -1813 -1846
f -1936 -1846 -1813
f -1846 -1936 -1968
f -1894 -2007 -2006
f -2006 -1989 -1894
f -1920 -1894 -1989
f -1894 -1920 -1952
f -1851 -1952 -1920
f -1952 -1851 -1883
f -1973 -1883 -1851
f -1883 -1973 -1813
f -1904 -1813 -1973
f -1813 -1904 -1936
f -1989 -2006 -2005
f -2005 -1957 -1989
f -1888 -1989 -1957
f -1989 -1888 -1920
f -1818 -1920 -1888
f -1920 -1818 -1851
f -1941 -1851 -1818
f -1851 -1941 -1973
f -1872 -1973 -1941
f -1973 -1872 -1904
f -1957 -2005 -2004
f -2004 -1925 -1957
f -1856 -1957 -1925
f -1957 -1856 -1888
f -1978 -1888 -1856
f -1888 -1978 -1818
f -1909 -1818 -1978
f -1818 -1909 -1941
f -1840 -1941 -1909
f -1941 -1840 -1872
f -1925 -2004 -2003
f -2003 -1893 -1925
f -1823 -1925 -1893
f -1925 -1823 -1856
f -1946 -1856 -1823
f -1856 -1946 -1978
f -1877 -1978 -1946
f -1978 -1877 -1909
f -1807 -1909 -1877
f -1909 -1807 -1840
f -1893 -2003 -2002
f -2002 -1861 -1893
f -1983 -1893 -1861
f -1893 -1983 -1823
f -1914 -1823 -1983
f -1823 -1914 -1946
f -1845 -1946 -1914
f -1946 -1845 -1877
f -1967 -1877 -1845
f -1877 -1967 -1807
f -1861 -2002 -2001
f -2001 -1828 -1861
f -1951 -1861 -1828
f -1861 -1951 -1983
f -1882 -1983 -1951
f -1983 -1882 -1914
f -1812 -1914 -1882
f -1914 -1812 -1845
f -1935 -1845 -1812
f -1845 -1935 -1967
f -1828 -2001 -2000
f -2000 -1988 -1828
f -1919 -1828 -1988
f -1828 -1919 -1951
f -1850 -1951 -1919
f -1951 -1850 -1882
f -1972 -1882 -1850
f -1882 -1972 -1812
f -1903 -1812 -1972
f -1812 -1903 -1935
f -1988 -2000 -1999
f -1999 -1956 -1988
f -1887 -1988 -1956
f -1988 -1887 -1919
f -1817 -1919 -1887
f -1919 -1817 -1850
f -1940 -1850 -1817
f -1850 -1940 -1972
f -1871 -1972 -1940
f -1972 -1871 -1903
f -1956 -1999 -1998
f -1998 -1924 -1956
f -1855 -1956 -1924
f -1956 -1855 -1887
f -1977 -1887 -1855
f -1887 -1977 -1817
f -1908 -1817 -1977
f -1817 -1908 -1940
f -1839 -1940 -1908
f -1940 -1839 -1871
f -1924 -1998 -1997
f -1997 -1892 -1924
f -1822 -1924 -1892
f -1924 -1822 -1855
f -1945 -1855 -1822
f -1855 -1945 -1977
f -1876 -1977 -1945
f -1977 -1876 -1908
f -1806 -1908 -1876
f -1908 -1806 -1839
f -1892 -1997 -1996
f -1996 -1860 -1892
f -1982 -1892 -1860
f -1892 -1982 -1822
f -1913 -1822 -1982
f -1822 -1913 -1945
f -1844 -1945 -1913
f -1945 -1844 -1876
f -1966 -1876 -1844
f -1876 -1966 -1806
f -1860 -1996 -1995
f -1995 -1827 -1860
f -1950 -1860 -1827
f -1860 -1950 -1982
f -1881 -1982 -1950
f -1982 -1881 -1913
f -1811 -1913 -1881
f -1913 -1811 -1844
f -1934 -1844 -1811
f -1844 -1934 -1966
f -1827 -1995 -1963
f -1963 -1987 -1827
f -1918 -1827 -1987
f -1827 -1918 -1950
f -1849 -1950 -1918
f -1950 -1849 -1881
f -1971 -1881 -1849
f -1881 -1971 -1811
f -1902 -1811 -1971
f -1811 -1902 -1934
f -1987 -1963 -1994
f -1994 -1955 -1987
f -1886 -1987 -1955
f -1987 -1886 -1918
f -1816 -1918 -1886
f -1918 -1816 -1849
f -1939 -1849 -1816
f -1849 -1939 -1971
f -1870 -1971 -1939
f -1971 -1870 -1902
f -1955 -1994 -1962
f -1962 -1923 -1955
f -1854 -1955 -1923
f -1955 -1854 -1886
f -1976 -1886 -1854
f -1886 -1976 -1816
f -1907 -1816 -1976
f -1816 -1907 -1939
f -1838 -1939 -1907
f -1939 -1838 -1870
f -1923 -1962 -1993
f -1993 -1891 -1923
f -1821 -1923 -1891
f -1923 -1821 -1854
f -1944 -1854 -1821
f -1854 -1944 -1976
f -1875 -1976 -1944
f -1976 -1875 -1907
f -1805 -1907 -1875
f -1907 -1805 -1838
f -1863 -1838 -1805
f -1838 -1863 -1832
f -1832 -1870 -1838
f -1891 -1949 -1821
f -1880 -1821 -1949
f -1821 -1880 -1944
f -1810 -1944 -1880
f -1944 -1810 -1875
f -1965 -1875 -1810
f -1875 -1965 -1805
f -1831 -1805 -1965
f -1805 -1831 -1863
f -1833 -1863 -1831
f -1833 -1832 -1863
f -1833 -1864 -1832
f -1870 -1832 -1864
f -1864 -1902 -1870
f -1949 -1912 -1880
f -1843 -1880 -1912
f -1880 -1843 -1810
f -1964 -1810 -1843
f -1810 -1964 -1965
f -1801 -1965 -1964
f -1965 -1801 -1831
f -1833 -1831 -1801
f -1912 -1848 -1843
f -1970 -1843 -1848
f -1843 -1970 -1964
f -1933 -1964 -1970
f -1964 -1933 -1801
f -1833 -1801 -1933
f -1848 -1912 -1917
f -1917 -1815 -1848
f -1938 -1848 -1815
f -1848 -1938 -1970
f -1901 -1970 -1938
f -1970 -1901 -1933
f -1833 -1933 -1901
f -1815 -1906 -1938
f -1869 -1938 -1906
f -1938 -1869 -1901
f -1833 -1901 -1869
f -1906 -1815 -1975
f -1975 -1874 -1906
f -1837 -1906 -1874
f -1906 -1837 -1869
f -1833 -1869 -1837
f -1874 -1804 -1837
f -1833 -1837 -1804
f -1804 -1874 -1842
f -1842 -1930 -1804
f -1833 -1804 -1930
f -1930 -1842 -1809
f -1809 -1931 -1930
f -1833 -1930 -1931
f -1931 -1809 -1969
f -1969 -1932 -1931
f -1833 -1931 -1932
f -1932 -1969 -1937
f -1937 -1900 -1932
f -1833 -1932 -1900
f -1900 -1937 -1905
f -1905 -1868 -1900
f -1833 -1900 -1868
f -1868 -1905 -1873
f -1873 -1836 -1868
f -1833 -1868 -1836
f -1836 -1873 -1841
f -1841 -1803 -1836
f -1833 -1836 -1803
f -1803 -1841 -1808
f -1808 -1927 -1803
f -1833 -1803 -1927
f -1927 -1808 -1968
f -1968 -1897 -1927
f -1833 -1927 -1897
f -1897 -1968 -1936
f -1936 -1898 -1897
f -1833 -1897 -1898
f -1898 -1936 -1904
f -1904 -1899 -1898
f -1833 -1898 -1899
f -1899 -1904 -1872
f -1872 -1867 -1899
f -1833 -1899 -1867
f -1867 -1872 -1840
f -1840 -1835 -1867
f -1833 -1867 -1835
f -1835 -1840 -1807
f -1807 -1802 -1835
f -1833 -1835 -1802
f -1802 -1807 -1967
f -1967 -1896 -1802
f -1833 -1802 -1896
f -1896 -1967 -1935
f -1935 -1895 -1896
f -1833 -1896 -1895
f -1895 -1935 -1903
f -1903 -1865 -1895
f -1833 -1895 -1865
f -1833 -1865 -1866
f -1833 -1866 -1834
f -1833 -1834 -1829
f -1833 -1829 -1862
f -1833 -1862 -1830
f -1833 -1830 -1864
f -1865 -1903 -1871
f -1871 -1866 -1865
f -1866 -1871 -1839
f -1839 -1834 -1866
f -1834 -1839 -1806
f -1806 -1829 -1834
f -1829 -1806 -1966
f -1966 -1862 -1829
f -1862 -1966 -1934
f -1934 -1830 -1862
f -1830 -1934 -1902
f -1902 -1864 -1830
f -1667 -1668 -1674
f -1667 -1670 -1668
f -1670 -1677 -1668
f -1677 -1670 -1678
f -1678 -1687 -1677
f -1687 -1678 -1684
f -1684 -1686 -1687
f -1670 -1667 -1669
f -1669 -1664 -1670
f -1683 -1670 -1664
f -1670 -1683 -1678
f -1681 -1678 -1683
f -1678 -1681 -1684
f -1681 -1686 -1684
f -1693 -1686 -1681
f -1691 -1686 -1693
f -1693 -1682 -1691
f -1664 -1669 -1671
f -1671 -1675 -1664
f -1676 -1664 -1675
f -1664 -1676 -1683
f -1693 -1683 -1676
f -1683 -1693 -1681
f -1675 -1671 -1680
f -1673 -1675 -1680
f -1675 -1673 -1679
f -1679 -1676 -1675
f -1676 -1679 -1682
f -1682 -1693 -1676
f -1381 -1385 -1380
f -1375 -1381 -1380
f -1381 -1375 -1373
f -1382 -1373 -1375
f -1373 -1382 -1378
f -1383 -1378 -1382
f -1378 -1383 -1388
f -1383 -1384 -1388
f -1396 -1375 -1380
f -1375 -1396 -1394
f -1389 -1375 -1394
f -1375 -1389 -1382
f -1397 -1382 -1389
f -1382 -1397 -1383
f -1397 -1390 -1383
f -1384 -1383 -1390
f -1393 -1394 -1396
f -1394 -1393 -1392
f -1387 -1394 -1392
f -1394 -1387 -1389
f -1402 -1389 -1387
f -1389 -1402 -1397
f -1402 -1395 -1397
f -1390 -1397 -1395
f -1392 -1393 -1403
f -1387 -1392 -1403
f -1402 -1387 -1403
f -1400 -1402 -1403
f -1395 -1402 -1400
f -1066 -1059 -1070
f -1059 -1066 -1067
f -1068 -1059 -1067
f -1059 -1068 -1065
f -1068 -1060 -1065
f -1060 -1068 -1071
f -1071 -1063 -1060
f -1063 -1071 -1054
f -1095 -1067 -1066
f -1067 -1095 -1094
f -1069 -1067 -1094
f -1067 -1069 -1068
f -1069 -1071 -1068
f -1071 -1069 -1062
f -1064 -1071 -1062
f -1071 -1064 -1054
f -1095 -1096 -1094
f -1094 -1096 -1069
f -1069 -1096 -1062
f -1062 -1096 -1064
f -855 -856 -860
f -855 -850 -856
f -850 -857 -856
f -857 -850 -866
f -866 -868 -857
f -868 -866 -864
f -864 -871 -868
f -850 -855 -853
f -853 -851 -850
f -863 -850 -851
f -850 -863 -866
f -865 -866 -863
f -866 -865 -864
f -865 -871 -864
f -867 -871 -865
f -869 -871 -867
f -867 -862 -869
f -851 -853 -852
f -852 -858 -851
f -859 -851 -858
f -851 -859 -863
f -867 -863 -859
f -863 -867 -865
f -858 -852 -861
f -849 -858 -861
f -858 -849 -854
f -854 -859 -858
f -859 -854 -862
f -862 -867 -859
f -412 -410 -405
f -410 -412 -404
f -404 -407 -410
f -407 -404 -414
f -407 -414 -415
f -414 -409 -415
f -409 -411 -415
f -411 -408 -415
f -412 -395 -404
f -409 -404 -395
f -404 -409 -414
f -395 -412 -401
f -396 -395 -401
f -395 -396 -400
f -400 -409 -395
f -409 -400 -411
f -400 -408 -411
f -408 -400 -406
f -400 -403 -406
f -403 -400 -396
f -209 -206 -208
f -207 -209 -208
f -209 -207 -204
f -202 -204 -207
f -204 -202 -212
f -211 -212 -202
f -212 -211 -222
f -211 -219 -222
f -210 -207 -208
f -207 -210 -205
f -214 -207 -205
f -207 -214 -202
f -217 -202 -214
f -202 -217 -211
f -217 -216 -211
f -219 -211 -216
f -213 -205 -210
f -205 -213 -220
f -221 -205 -220
f -205 -221 -214
f -215 -214 -221
f -214 -215 -217
f -215 -218 -217
f -216 -217 -218
f -220 -213 -223
f -221 -220 -223
f -215 -221 -223
f -224 -215 -223
f -218 -215 -224
f -2025 -2023 -2021
f -2021 -2023 -2016
f -2011 -2021 -2016
f -2021 -2011 -2015
f -2019 -2021 -2015
f -2021 -2019 -2025
f -2016 -2023 -2024
f -2017 -2016 -2024
f -2016 -2017 -2011
f -2012 -2011 -2017
f -2011 -2012 -2007
f -2008 -2011 -2007
f -2011 -2008 -2015
f -2014 -2015 -2008
f -2015 -2014 -2019
f -2024 -2023 -2022
f -2022 -2017 -2024
f -2017 -2022 -2018
f -2009 -2017 -2018
f -2017 -2009 -2012
f -2010 -2012 -2009
f -2012 -2010 -2006
f -2006 -2007 -2012
f -2007 -2006 -2005
f -2020 -2007 -2005
f -2007 -2020 -2008
f -2013 -2008 -2020
f -2008 -2013 -2014
f -2003 -2000 -2001
f -1997 -2000 -2003
f -2000 -1997 -1994
f -1999 -2000 -1994
f -2000 -1999 -1996
f -2000 -1996 -2001
f -1996 -2004 -2001
f -2004 -2002 -2001
f -1995 -2002 -2004
f -2002 -1995 -1998
f -1993 -1994 -1997
f -1994 -1993 -1988
f -1988 -1999 -1994
f -1999 -1988 -1985
f -1984 -1999 -1985
f -1999 -1984 -1995
f -1995 -1996 -1999
f -1996 -1995 -2004
f -1987 -1988 -1993
f -1988 -1987 -1992
f -1992 -1985 -1988
f -1985 -1992 -1990
f -1986 -1985 -1990
f -1985 -1986 -1984
f -1991 -1984 -1986
f -1984 -1991 -1989
f -1989 -1995 -1984
f -1995 -1989 -1998
f -1975 -1980 -1976
f -1976 -1980 -1979
f -1970 -1976 -1979
f -1976 -1970 -1983
f -1981 -1976 -1983
f -1976 -1981 -1975
f -1979 -1980 -1982
f -1977 -1979 -1982
f -1979 -1977 -1970
f -1969 -1970 -1977
f -1970 -1969 -1965
f -1966 -1970 -1965
f -1970 -1966 -1983
f -1973 -1983 -1966
f -1983 -1973 -1981
f -1982 -1980 -1974
f -1974 -1977 -1982
f -1977 -1974 -1972
f -1968 -1977 -1972
f -1977 -1968 -1969
f -1967 -1969 -1968
f -1969 -1967 -1964
f -1964 -1965 -1969
f -1965 -1964 -1963
f -1978 -1965 -1963
f -1965 -1978 -1966
f -1971 -1966 -1978
f -1966 -1971 -1973
f -1961 -1958 -1959
f -1955 -1958 -1961
f -1958 -1955 -1952
f -1957 -1958 -1952
f -1958 -1957 -1954
f -1958 -1954 -1959
f -1954 -1962 -1959
f -1962 -1960 -1959
f -1953 -1960 -1962
f -1960 -1953 -1956
f -1951 -1952 -1955
f -1952 -1951 -1946
f -1946 -1957 -1952
f -1957 -1946 -1943
f -1942 -1957 -1943
f -1957 -1942 -1953
f -1953 -1954 -1957
f -1954 -1953 -1962
f -1945 -1946 -1951
f -1946 -1945 -1950
f -1950 -1943 -1946
f -1943 -1950 -1948
f -1944 -1943 -1948
f -1943 -1944 -1942
f -1949 -1942 -1944
f -1942 -1949 -1947
f -1947 -1953 -1942
f -1953 -1947 -1956
f -1941 -1939 -1937
f -1937 -1939 -1933
f -1936 -1937 -1933
f -1937 -1936 -1931
f -1934 -1937 -1931
f -1937 -1934 -1941
f -1933 -1939 -1940
f -1932 -1933 -1940
f -1933 -1932 -1936
f -1927 -1936 -1932
f -1936 -1927 -1922
f -1925 -1936 -1922
f -1936 -1925 -1931
f -1929 -1931 -1925
f -1931 -1929 -1934
f -1940 -1939 -1938
f -1938 -1932 -1940
f -1932 -1938 -1935
f -1926 -1932 -1935
f -1932 -1926 -1927
f -1928 -1927 -1926
f -1927 -1928 -1923
f -1923 -1922 -1927
f -1922 -1923 -1921
f -1930 -1922 -1921
f -1922 -1930 -1925
f -1924 -1925 -1930
f -1925 -1924 -1929
f -1916 -1915 -1920
f -1920 -1915 -1913
f -1908 -1920 -1913
f -1920 -1908 -1919
f -1917 -1920 -1919
f -1920 -1917 -1916
f -1913 -1915 -1912
f -1911 -1913 -1912
f -1913 -1911 -1908
f -1906 -1908 -1911
f -1908 -1906 -1901
f -1905 -1908 -1901
f -1908 -1905 -1919
f -1903 -1919 -1905
f -1919 -1903 -1917
f -1912 -1915 -1918
f -1918 -1911 -1912
f -1911 -1918 -1914
f -1910 -1911 -1914
f -1911 -1910 -1906
f -1907 -1906 -1910
f -1906 -1907 -1902
f -1902 -1901 -1906
f -1901 -1902 -1900
f -1909 -1901 -1900
f -1901 -1909 -1905
f -1904 -1905 -1909
f -1905 -1904 -1903
f -1897 -1895 -1898
f -1898 -1895 -1891
f -1891 -1899 -1898
f -1889 -1898 -1899
f -1898 -1889 -1897
f -1891 -1895 -1892
f -1892 -1894 -1891
f -1899 -1891 -1894
f -1894 -1883 -1899
f -1888 -1899 -1883
f -1899 -1888 -1889
f -1892 -1895 -1896
f -1893 -1892 -1896
f -1892 -1893 -1890
f -1894 -1892 -1890
f -1885 -1894 -1890
f -1894 -1885 -1880
f -1883 -1894 -1880
f -1880 -1887 -1883
f -1882 -1883 -1887
f -1883 -1882 -1888
f -1884 -1890 -1893
f -1890 -1884 -1885
f -1886 -1885 -1884
f -1885 -1886 -1881
f -1881 -1880 -1885
f -1880 -1881 -1879
f -1887 -1880 -1879
f -1877 -1875 -1874
f -1874 -1875 -1870
f -1864 -1874 -1870
f -1874 -1864 -1868
f -1871 -1874 -1868
f -1874 -1871 -1877
f -1870 -1875 -1878
f -1869 -1870 -1878
f -1870 -1869 -1864
f -1865 -1864 -1869
f -1864 -1865 -1860
f -1861 -1864 -1860
f -1864 -1861 -1868
f -1866 -1868 -1861
f -1868 -1866 -1871
f -1878 -1875 -1876
f -1876 -1869 -1878
f -1869 -1876 -1872
f -1862 -1869 -1872
f -1869 -1862 -1865
f -1863 -1865 -1862
f -1865 -1863 -1859
f -1859 -1860 -1865
f -1860 -1859 -1858
f -1873 -1860 -1858
f -1860 -1873 -1861
f -1867 -1861 -1873
f -1861 -1867 -1866
f -1856 -1854 -1853
f -1853 -1854 -1849
f -1852 -1853 -1849
f -1853 -1852 -1847
f -1850 -1853 -1847
f -1853 -1850 -1856
f -1849 -1854 -1857
f -1848 -1849 -1857
f -1849 -1848 -1852
f -1843 -1852 -1848
f -1852 -1843 -1838
f -1841 -1852 -1838
f -1852 -1841 -1847
f -1845 -1847 -1841
f -1847 -1845 -1850
f -1857 -1854 -1855
f -1855 -1848 -1857
f -1848 -1855 -1851
f -1842 -1848 -1851
f -1848 -1842 -1843
f -1844 -1843 -1842
f -1843 -1844 -1839
f -1839 -1838 -1843
f -1838 -1839 -1837
f -1846 -1838 -1837
f -1838 -1846 -1841
f -1840 -1841 -1846
f -1841 -1840 -1845
f -1835 -1833 -1832
f -1832 -1833 -1828
f -1831 -1832 -1828
f -1832 -1831 -1826
f -1829 -1832 -1826
f -1832 -1829 -1835
f -1828 -1833 -1836
f -1827 -1828 -1836
f -1828 -1827 -1831
f -1822 -1831 -1827
f -1831 -1822 -1817
f -1820 -1831 -1817
f -1831 -1820 -1826
f -1824 -1826 -1820
f -1826 -1824 -1829
f -1836 -1833 -1834
f -1834 -1827 -1836
f -1827 -1834 -1830
f -1821 -1827 -1830
f -1827 -1821 -1822
f -1823 -1822 -1821
f -1822 -1823 -1818
f -1818 -1817 -1822
f -1817 -1818 -1816
f -1825 -1817 -1816
f -1817 -1825 -1820
f -1819 -1820 -1825
f -1820 -1819 -1824
f -1813 -1815 -1814
f -1814 -1815 -1811
f -1805 -1814 -1811
f -1814 -1805 -1810
f -1812 -1814 -1810
f -1814 -1812 -1813
f -1811 -1815 -1808
f -1804 -1811 -1808
f -1811 -1804 -1805
f -1795 -1805 -1804
f -1805 -1795 -1790
f -1802 -1805 -1790
f -1805 -1802 -1810
f -1806 -1810 -1802
f -1810 -1806 -1812
f -1808 -1815 -1807
f -1807 -1804 -1808
f -1804 -1807 -1803
f -1801 -1804 -1803
f -1804 -1801 -1795
f -1794 -1795 -1801
f -1795 -1794 -1797
f -1797 -1790 -1795
f -1790 -1797 -1799
f -1809 -1790 -1799
f -1790 -1809 -1802
f -1800 -1802 -1809
f -1802 -1800 -1806
f -1796 -1793 -1798
f -1798 -1793 -1787
f -1789 -1798 -1787
f -1798 -1789 -1782
f -1788 -1798 -1782
f -1798 -1788 -1796
f -1787 -1793 -1791
f -1784 -1787 -1791
f -1787 -1784 -1789
f -1771 -1789 -1784
f -1789 -1771 -1777
f -1781 -1789 -1777
f -1789 -1781 -1782
f -1785 -1782 -1781
f -1782 -1785 -1788
f -1791 -1793 -1792
f -1792 -1784 -1791
f -1784 -1792 -1783
f -1780 -1784 -1783
f -1784 -1780 -1771
f -1775 -1771 -1780
f -1771 -1775 -1774
f -1774 -1777 -1771
f -1777 -1774 -1770
f -1786 -1777 -1770
f -1777 -1786 -1781
f -1779 -1781 -1786
f -1781 -1779 -1785
f -1776 -1773 -1767
f -1767 -1773 -1772
f -1772 -1761 -1767
f -1761 -1776 -1767
f -1776 -1761 -1766
f -1761 -1764 -1766
f -1764 -1761 -1760
f -1760 -1758 -1764
f -1758 -1760 -1765
f -1772 -1773 -1769
f -1769 -1763 -1772
f -1761 -1772 -1763
f -1763 -1760 -1761
f -1760 -1763 -1757
f -1757 -1765 -1760
f -1765 -1757 -1753
f -1757 -1755 -1753
f -1755 -1757 -1756
f -1756 -1754 -1755
f -1769 -1773 -1778
f -1762 -1769 -1778
f -1769 -1762 -1768
f -1763 -1769 -1768
f -1768 -1757 -1763
f -1757 -1768 -1756
f -1768 -1759 -1756
f -1754 -1756 -1759
f -1759 -1768 -1762
f -1751 -1748 -1747
f -1747 -1748 -1752
f -1752 -1745 -1747
f -1746 -1747 -1745
f -1747 -1746 -1751
f -1752 -1748 -1749
f -1741 -1752 -1749
f -1752 -1741 -1742
f -1745 -1752 -1742
f -1742 -1739 -1745
f -1743 -1745 -1739
f -1745 -1743 -1746
f -1749 -1748 -1750
f -1750 -1741 -1749
f -1741 -1750 -1740
f -1738 -1741 -1740
f -1741 -1738 -1735
f -1735 -1742 -1741
f -1742 -1735 -1736
f -1739 -1742 -1736
f -1736 -1744 -1739
f -1737 -1739 -1744
f -1739 -1737 -1743
