# Primary_39 phase0-skinned
v 0.226192167 0.051226240 -0.552471163
v 0.252745073 0.101481063 -0.387611466
v -0.043325899 0.103329299 -0.569125538
v -0.047566937 0.105836517 -0.571375171
v 0.212817662 0.026190505 -0.397628425
v 0.218880629 0.022094203 -0.399491380
v 0.265594728 -0.041306482 -0.637296525
v 0.237449732 0.081421365 -0.366546837
v 0.238322843 0.082894270 -0.364406882
v 0.280469910 0.005557625 -0.613482937
v 0.265894573 -0.040775074 -0.644787616
v 0.248717799 0.090555164 -0.552454529
v 0.265872634 -0.041865951 -0.637354107
v 0.252094203 0.003872247 -0.611087003
v 0.218164198 0.117101776 -0.467036955
v 0.279808830 0.003214498 -0.610308623
v 0.243348742 0.059756853 -0.399106114
v 0.244170001 0.046369584 -0.384014940
v 0.246565828 0.061165338 -0.394996410
v 0.222753810 0.024253974 -0.471627441
v 0.272885263 0.062282828 -0.394198516
v 0.272211852 0.081660369 -0.378096901
v 0.304054593 0.023486986 -0.390944115
v 0.223179274 0.079381987 -0.399349858
v 0.228021740 0.125002912 -0.389179651
v 0.252419389 0.081412478 -0.389474156
v 0.265439043 0.028236919 -0.398140287
v 0.508609816 0.094748356 -0.564244684
v 0.265407619 0.005653682 -0.636110085
v 0.265349816 0.138220521 -0.363718059
v 0.248443277 0.075995935 -0.384048601
v 0.251844995 0.133210668 -0.347304799
v 0.297598433 0.080593566 -0.398251157
v 0.300889303 0.049632670 -0.540426688
v 0.273884111 0.061222595 -0.396647753
v 0.221018455 0.123637943 -0.464779744
v 0.225243850 0.049234397 -0.542846092
v 0.130930266 0.124492847 -0.500050821
v 0.338050780 0.077094817 -0.536988953
v 0.230765522 0.074421525 -0.562355979
v 0.230119158 0.053031380 -0.565762663
v 0.281248308 0.126274199 -0.398014077
v 0.262231156 0.084527068 -0.390164940
v 0.253727278 0.086693766 -0.389874748
v 0.220551582 0.106748281 -0.396409510
v 0.269676870 0.104916352 -0.368779619
v 0.272969775 0.062975286 -0.368542505
v 0.282379636 0.004786624 -0.612894540
v 0.272841755 0.047513072 -0.379931477
v 0.302344962 0.023725982 -0.394681715
v 0.251424729 0.027732150 -0.392968602
v 0.250079696 0.004685900 -0.612859568
v 0.251526283 0.005925123 -0.613775706
v 0.251628188 0.004484393 -0.611021686
v 0.279853745 0.004115540 -0.610301730
v 0.565464999 0.112237934 -0.559644207
v 0.266455700 0.137556564 -0.353242691
v 0.308599252 0.118237673 -0.464239827
v 0.307731437 0.105337418 -0.389171520
v 0.265454830 0.097536970 -0.383605966
v 0.271544567 -0.007173464 -0.487775789
v 0.261425422 0.088368936 -0.389435832
v 0.210690126 0.135066236 -0.479059046
v 0.255576166 0.189005795 -0.296721148
v 0.314627692 0.137456903 -0.475771205
v 0.562298413 0.103613478 -0.572699241
v 0.283696261 0.089792607 -0.552118273
v 0.393644700 0.128381804 -0.494821271
v 0.432956660 0.137546615 -0.500306974
v 0.268098521 0.057666473 -0.611663899
v 0.311143888 0.131007690 -0.463022255
v 0.304382508 0.057759782 -0.562094785
v 0.265647189 -0.042151674 -0.643356621
v 0.252133524 0.026697659 -0.393488563
v 0.280412995 0.045063144 -0.378411858
v 0.277027842 0.010728525 -0.402301305
v 0.278709724 0.081282742 -0.356879726
v 0.313611489 0.046326757 -0.542190801
v 0.265180582 0.000937164 -0.639164797
v 0.302753439 0.074939209 -0.561729961
f 1 15 3
f 54 55 13
f 11 10 53
f 7 16 14
f 31 6 8
f 50 77 51
f 44 2 32
f 45 32 2
f 45 17 32
f 26 32 17
f 4 38 41
f 41 38 36
f 41 36 12
f 73 52 29
f 48 73 29
f 18 9 5
f 18 27 9
f 34 39 58
f 58 39 28
f 28 56 58
f 43 35 57
f 33 57 35
f 57 33 42
f 62 57 42
f 47 30 22
f 74 47 22
f 49 74 22
f 49 22 76
f 22 75 76
f 22 23 75
f 22 46 23
f 69 66 72
f 68 69 72
f 71 68 72
f 71 72 67
f 21 60 25
f 25 60 64
f 25 64 63
f 25 63 24
f 24 63 20
f 24 20 19
f 59 64 60
f 59 65 64
f 63 64 65
f 65 70 63
f 70 40 63
f 40 70 79
f 37 40 79
f 37 79 20
f 20 63 37
f 65 59 78
f 59 61 78
f 79 78 61
f 78 79 80
f 79 70 80
f 61 59 21
f 61 21 19
f 61 19 20
f 20 79 61
f 25 19 21
