# Primary_42 phase0-skinned
v -0.091383416 0.154506106 -0.220951832
v -0.095392646 0.149271607 -0.161257757
v -0.040653627 0.108484511 -0.322459644
v -0.040475460 0.129809441 -0.116071898
v -0.044370500 0.129544726 -0.105772764
v -0.052320080 0.115868988 -0.172494459
v 0.003189088 0.071665765 -0.218025119
v -0.014351349 0.090166611 -0.192876976
v -0.041737356 0.117998042 -0.172858339
v -0.016900343 0.080660348 -0.186293870
v -0.014263019 0.091660965 -0.191019443
v -0.069900065 0.084136213 -0.189150015
v -0.079574011 0.065227685 -0.215400383
v -0.084621482 0.073862546 -0.223115566
v -0.083815960 0.066046886 -0.214236201
v -0.067998480 0.092821933 -0.196543634
v -0.049650501 0.094962354 -0.165690526
v -0.060081941 0.106878519 -0.163988336
v -0.061332334 0.115639849 -0.130283649
v -0.056625855 0.096225516 -0.162896570
v -0.052267250 0.133327929 -0.120339823
v -0.034441725 0.093051055 -0.153809030
v -0.008975895 0.082802456 -0.182832859
v -0.032715256 0.080573871 -0.185255031
v -0.011997212 0.082336635 -0.184054927
v -0.036016312 0.090761591 -0.172141179
v -0.051124557 0.134772767 -0.121938263
v -0.047493912 0.137099873 -0.123251477
v -0.031335111 0.121482005 -0.155564033
v 0.003418528 0.067258609 -0.209701986
v 0.167799523 0.316480777 -0.315831600
v -0.031700832 0.093206754 -0.162221997
v 0.079556717 0.211018105 -0.256669900
v -0.063932544 0.129245624 -0.159954079
v -0.058925292 0.103679540 -0.209718944
v -0.077368331 0.188808633 -0.238535163
v -0.088447273 0.152112242 -0.219826227
v -0.043015511 0.141841243 -0.111253700
v -0.084553377 0.094702974 -0.193233261
v -0.040286071 0.082505596 -0.236583735
v -0.049167687 0.129700020 -0.118571025
v -0.074266179 0.084246529 -0.189504367
v -0.048823676 0.084053053 -0.189638891
v -0.060920910 0.111950486 -0.183649592
v -0.044090979 0.095523957 -0.176234228
v -0.038234604 0.111187184 -0.148972640
v -0.061435044 0.096212333 -0.163708117
v -0.060964458 0.103834369 -0.166687914
v -0.046976317 0.108231232 -0.166918315
v -0.046085699 0.094668266 -0.175271989
v -0.047337083 0.094453656 -0.166187990
v -0.050582091 0.089315582 -0.197342761
v -0.237486479 0.244659582 -0.326277237
v -0.269053114 0.279211108 -0.316922599
v -0.122422419 0.171859100 -0.250450195
v -0.052000148 0.131694192 -0.107897712
v -0.044455735 0.128035412 -0.116096381
v -0.045371319 0.103781110 -0.167308312
v -0.051142259 0.097973995 -0.158324858
v -0.050111514 0.125946941 -0.106153143
v -0.243035142 0.238911278 -0.306453989
v -0.222937544 0.232649480 -0.326733136
v -0.055259094 0.152065427 -0.067388614
v -0.099640511 0.146930608 -0.161807467
v -0.053567372 0.100901578 -0.186127429
v -0.086399864 0.164430848 -0.119224690
v -0.047456622 0.111566621 -0.171961978
v -0.061707618 0.127160666 -0.160121962
v -0.034125812 0.131314493 -0.160288909
v -0.048159611 0.111461433 -0.171824621
v -0.022579252 0.105509348 -0.206016516
v -0.036855319 0.106625817 -0.186490904
v -0.055314777 0.137551244 -0.116633347
v -0.028327752 0.173317023 -0.386592414
v -0.044890880 0.164366466 -0.428497062
v -0.048433274 0.175658948 -0.387534522
v -0.018606032 0.101444477 -0.156909787
v -0.037726885 0.090665944 -0.171885461
v -0.037551750 0.141700555 -0.430861901
v -0.055686258 0.172706327 -0.410148687
v -0.054474096 0.166565269 -0.377070710
v -0.079604013 0.173924707 -0.235297742
v -0.036328692 0.103375090 -0.185769118
v -0.046860783 0.141685158 -0.395199623
v -0.066457405 0.111416449 -0.230435381
v -0.059740847 0.123490925 -0.112058508
v -0.066462446 0.083619662 -0.190520147
v 0.006299820 0.157794391 -0.215071485
v -0.037698570 0.082377995 -0.236444983
v -0.019327765 0.175352994 -0.411302346
v -0.033835424 0.109488826 -0.322087392
v 0.011089248 0.162801570 -0.255934062
v -0.021105456 0.183376493 -0.134716952
v -0.010026100 0.190308327 -0.234886832
v -0.041870251 0.136955379 -0.109053736
v -0.048578483 0.128061918 -0.107768391
v -0.079921105 0.141663252 -0.249011655
v -0.080155436 0.169227221 -0.233745315
v -0.072327866 0.106599138 -0.231331643
v -0.165620757 0.193771569 -0.260518010
v -0.118812018 0.178339254 -0.299457392
v -0.067556081 0.178043589 -0.300232655
v -0.016231582 0.190866407 -0.235749988
v -0.001894281 0.143689589 -0.245987393
v -0.009538466 0.112245935 -0.228379112
v -0.072473386 0.148437630 -0.304296953
v -0.001702622 0.153452370 -0.158215473
v -0.042124073 0.153307516 -0.066798907
v -0.046445168 0.211948581 -0.212387797
v -0.041446643 0.198505966 -0.303581939
v -0.050881438 0.162789587 -0.084561377
v 0.136758341 0.262167814 -0.319668870
v 0.143749343 0.280006736 -0.319856380
v -0.012826176 0.181306357 -0.299226208
v 0.170163344 0.314316704 -0.305301209
v 0.131490726 0.266240293 -0.318407296
v -0.000810151 0.144935708 -0.245267772
v 0.004622257 0.158451680 -0.215584774
v -0.008289900 0.109716471 -0.227018424
v -0.006433849 0.120844953 -0.158880111
v -0.007036445 0.150943343 -0.302127143
v -0.024497589 0.188638007 -0.397411602
v -0.037552517 0.152206479 -0.433716835
v -0.039337818 0.174823742 -0.448202959
v -0.040312958 0.152324884 -0.395643690
v -0.026476350 0.168531215 -0.376357635
v -0.039157901 0.149962953 -0.432434494
v -0.003124130 0.176789576 -0.230147361
v -0.042584722 0.223448804 -0.363339942
v -0.041951216 0.225270946 -0.418133942
v -0.016197388 0.204692485 -0.390185063
v -0.069787184 0.202980923 -0.395474234
v -0.020565371 0.179010362 -0.405087266
v -0.039249758 0.144194464 -0.428541297
v -0.048313045 0.188882255 -0.394314636
v -0.060704601 0.183572509 -0.405312243
v -0.039174845 0.162992982 -0.451958445
v -0.038748723 0.099347941 -0.162099251
v -0.034693195 0.080061053 -0.188066869
v -0.048365719 0.104470804 -0.144503697
v -0.022011414 0.104736053 -0.125248776
v -0.032795140 0.090264621 -0.159776967
v -0.025852093 0.091503508 -0.157999506
v -0.021671061 0.093000154 -0.158400469
v -0.025087982 0.104137144 -0.158169771
v -0.027046000 0.111309695 -0.126840371
v -0.035358476 0.089567593 -0.160826424
v -0.006145341 0.155337602 -0.160037005
v -0.041500530 0.156630432 -0.375008799
v -0.033171278 0.167497661 -0.426015975
v -0.061059705 0.176937983 -0.405966714
v -0.024189494 0.136638864 -0.158613276
v -0.005664301 0.177187516 -0.229295014
v 0.081849269 0.205814778 -0.258820638
v -0.015162825 0.176443675 -0.298071148
v -0.006271595 0.151686941 -0.303182786
v 0.067375965 0.222195758 -0.301105988
v -0.066393293 0.177393088 -0.303034033
v -0.069840007 0.187722504 -0.238265058
v -0.074846938 0.145778769 -0.252374430
v -0.071806927 0.145623347 -0.303862753
v -0.038901369 0.154632197 -0.432832890
f 82 55 160
f 101 160 55
f 101 161 160
f 158 161 101
f 158 101 159
f 101 98 159
f 100 98 101
f 55 62 101
f 62 100 101
f 62 53 100
f 54 100 53
f 61 54 53
f 62 61 53
f 62 55 61
f 80 162 84
f 80 84 132
f 132 137 80
f 137 134 80
f 134 137 90
f 84 106 132
f 106 102 132
f 129 132 102
f 130 132 129
f 130 137 132
f 137 130 131
f 90 137 131
f 84 99 106
f 97 106 99
f 37 97 99
f 97 37 36
f 99 84 3
f 3 40 99
f 99 40 65
f 67 65 40
f 65 67 68
f 68 67 60
f 68 60 64
f 60 63 64
f 63 66 64
f 36 64 66
f 37 64 36
f 111 66 63
f 111 109 66
f 66 109 36
f 36 109 102
f 102 109 110
f 102 110 129
f 131 129 110
f 130 129 131
f 111 93 109
f 94 109 93
f 109 94 110
f 110 94 114
f 131 110 114
f 90 131 114
f 111 108 93
f 107 93 108
f 93 107 88
f 93 88 94
f 117 94 88
f 117 88 119
f 117 119 156
f 69 107 108
f 96 69 108
f 70 69 96
f 70 83 69
f 83 70 89
f 89 119 83
f 91 119 89
f 91 156 119
f 156 91 90
f 90 114 156
f 125 90 91
f 125 123 90
f 19 18 47
f 18 19 20
f 16 87 13
f 16 13 14
f 15 16 14
f 16 15 12
f 46 58 17
f 58 46 51
f 49 50 52
f 52 44 49
f 44 41 49
f 41 44 56
f 56 44 48
f 48 45 56
f 57 56 45
f 42 44 52
f 48 44 42
f 48 42 59
f 42 43 59
f 6 5 35
f 34 5 6
f 5 34 86
f 2 86 34
f 86 2 39
f 39 4 86
f 39 85 4
f 85 39 1
f 1 39 2
f 128 155 103
f 155 128 33
f 33 157 155
f 157 121 155
f 121 157 92
f 104 121 92
f 92 153 104
f 92 154 153
f 157 33 116
f 112 157 116
f 92 157 112
f 112 154 92
f 112 115 154
f 112 113 115
f 31 115 113
f 113 33 31
f 33 113 116
f 145 141 144
f 145 146 141
f 146 145 143
f 142 138 140
f 138 147 140
f 24 23 22
f 77 22 23
f 23 8 77
f 77 8 29
f 32 77 29
f 32 29 38
f 27 32 38
f 32 27 26
f 29 8 139
f 139 78 29
f 28 29 78
f 29 28 38
f 25 30 11
f 11 30 7
f 10 11 7
f 72 71 73
f 73 9 72
f 73 152 9
f 152 73 95
f 152 95 148
f 120 148 95
f 120 118 148
f 105 118 120
f 105 120 21
f 95 21 120
f 124 79 122
f 136 79 124
f 136 124 122
f 75 149 76
f 74 76 149
f 76 74 150
f 75 76 150
f 149 150 74
f 127 151 81
f 151 135 81
f 126 81 135
f 127 81 126
f 133 127 126
f 135 133 126
