# Primary_39 cluster-placed
v -31.706503935 -105.228680986 -223.145643998
v -31.674371995 -105.178426163 -222.981780286
v -31.976431933 -105.176577927 -223.153142994
v -31.980746867 -105.174070709 -223.155247416
v -31.714616326 -105.253716722 -222.990436585
v -31.708620068 -105.257813024 -222.992504207
v -31.670002519 -105.321213709 -223.231757589
v -31.688943724 -105.198485862 -222.960208758
v -31.687998499 -105.197012957 -222.958099663
v -31.654327816 -105.274349601 -223.208462488
v -31.669957047 -105.320682301 -223.239254542
v -31.683990711 -105.189352063 -223.146391755
v -31.669726726 -105.321773177 -223.231824569
v -31.682605878 -105.276034980 -223.205105037
v -31.711628168 -105.162805450 -223.059986571
v -31.654880798 -105.276692728 -223.205267569
v -31.684152972 -105.220150374 -222.992949460
v -31.682820085 -105.233537643 -222.977894846
v -31.680798281 -105.218741888 -222.988951291
v -31.707196972 -105.255653252 -223.064730157
v -31.654466928 -105.217624398 -222.989046977
v -31.654593562 -105.198246857 -222.972931784
v -31.623205114 -105.256420241 -222.986852146
v -31.704319096 -105.200525239 -222.992508636
v -31.699134305 -105.154904314 -222.982508610
v -31.674760700 -105.198494748 -222.983630851
v -31.662042619 -105.251670307 -222.992733798
v -31.424648451 -105.185158870 -223.166994259
v -31.670149259 -105.274253545 -223.230565484
v -31.660963716 -105.141686705 -222.958328367
v -31.678550412 -105.203911292 -222.978073497
v -31.673903794 -105.146696558 -222.941466288
v -31.629905512 -105.199313660 -222.993935897
v -31.631441102 -105.230274557 -223.136141221
v -31.653551767 -105.218684632 -222.991528698
v -31.708698959 -105.156269284 -223.057827516
v -31.707125090 -105.230672829 -223.135992290
v -31.799932151 -105.155414379 -223.090021241
v -31.594184370 -105.202812409 -223.133966498
v -31.702268644 -105.205485702 -223.155678313
v -31.703030237 -105.226875847 -223.159061101
v -31.646238176 -105.153633027 -222.993144131
v -31.664978024 -105.195380159 -222.984654189
v -31.673467158 -105.193213461 -222.984075594
v -31.706845498 -105.173158945 -222.989480814
v -31.656810912 -105.174990875 -222.963533845
v -31.653511857 -105.216931941 -222.963408609
v -31.652399223 -105.275120603 -223.207939234
v -31.654026276 -105.232394155 -222.974786678
v -31.625040592 -105.256181244 -222.990529579
v -31.675873367 -105.252175076 -222.987089533
v -31.684679375 -105.275221327 -223.206808221
v -31.683264709 -105.273982104 -223.207772919
v -31.683069408 -105.275422833 -223.205023944
v -31.654835676 -105.275791687 -223.205262205
v -31.367669900 -105.167669293 -223.164325747
v -31.659502999 -105.142350662 -222.947896558
v -31.621150279 -105.161669554 -223.060259865
v -31.619470236 -105.174569808 -222.985205341
v -31.661533636 -105.182370256 -222.978208384
v -31.658982289 -105.287080690 -223.082524863
v -31.665758553 -105.191538291 -222.983898159
v -31.719505892 -105.144840990 -223.071748115
v -31.668458273 -105.090901432 -222.891038382
v -31.615516615 -105.142450324 -223.071989170
v -31.371277669 -105.176293749 -223.177265808
v -31.649020983 -105.190114619 -223.147242646
v -31.537191555 -105.151525422 -223.093709617
v -31.498088385 -105.142360612 -223.100526167
v -31.666630353 -105.222240754 -223.206224689
v -31.618565791 -105.148899536 -223.059129343
v -31.628685191 -105.222147445 -223.157915377
v -31.670155730 -105.322058901 -223.237815976
v -31.675182625 -105.253209568 -222.987633246
v -31.646407829 -105.234844082 -222.973524855
v -31.650601694 -105.269178701 -222.997285673
v -31.647379451 -105.198624485 -222.951947325
v -31.618786106 -105.233580470 -223.138336031
v -31.670479823 -105.278970062 -223.233610733
v -31.630300941 -105.204968017 -223.157495483
f 1 15 3
f 54 55 13
f 11 10 53
f 7 16 14
f 31 6 8
f 50 77 51
f 44 2 32
f 45 32 2
f 45 17 32
f 26 32 17
f 4 38 41
f 41 38 36
f 41 36 12
f 73 52 29
f 48 73 29
f 18 9 5
f 18 27 9
f 34 39 58
f 58 39 28
f 28 56 58
f 43 35 57
f 33 57 35
f 57 33 42
f 62 57 42
f 47 30 22
f 74 47 22
f 49 74 22
f 49 22 76
f 22 75 76
f 22 23 75
f 22 46 23
f 69 66 72
f 68 69 72
f 71 68 72
f 71 72 67
f 21 60 25
f 25 60 64
f 25 64 63
f 25 63 24
f 24 63 20
f 24 20 19
f 59 64 60
f 59 65 64
f 63 64 65
f 65 70 63
f 70 40 63
f 40 70 79
f 37 40 79
f 37 79 20
f 20 63 37
f 65 59 78
f 59 61 78
f 79 78 61
f 78 79 80
f 79 70 80
f 61 59 21
f 61 21 19
f 61 19 20
f 20 79 61
f 25 19 21
