# Primary_41 phase0-skinned
v -0.036036504 0.152258932 -0.111913429
v -0.017524964 0.132798329 -0.023837927
v -0.061578898 0.152576590 -0.112906477
v 0.002616523 0.128011358 -0.053300646
v -0.103953997 0.124607336 -0.043529526
v -0.039631612 0.155235120 -0.095932054
v -0.079377236 0.142929034 -0.068876393
v -0.016132285 0.142839781 -0.070963442
v -0.059611123 0.158274505 -0.094920994
v -0.039749728 0.146068305 -0.044047194
v -0.065493041 0.144706349 -0.046426389
f 4 1 2
f 1 3 2
f 3 5 2
f 6 9 8
f 10 8 9
f 11 10 9
f 7 11 9
