# Primary_41 cluster-placed
v -32.984040071 0.323706686 -15.617786825
v -32.960899110 0.304246083 -15.530812880
v -33.009599249 0.324024344 -15.617428422
v -32.942343052 0.299459112 -15.561299008
v -33.048248143 0.296055090 -15.545908682
v -32.986785446 0.326682874 -15.601637767
v -33.025045464 0.314376788 -15.572519141
v -32.961999232 0.314287535 -15.577946132
v -33.006683588 0.329722259 -15.599572088
v -32.984160984 0.317516059 -15.549819191
v -33.009994066 0.316154103 -15.550834378
f 4 1 2
f 1 3 2
f 3 5 2
f 6 9 8
f 10 8 9
f 11 10 9
f 7 11 9
