# Primary_42 cluster-placed
v -33.045072924 0.325953860 -15.723747405
v -33.045921374 0.320719360 -15.663924863
v -32.999779320 0.279932265 -15.827794687
v -32.988692621 0.301257195 -15.621704857
v -32.992037848 0.300992480 -15.611214244
v -33.003502942 0.287316742 -15.677422491
v -32.950477924 0.243113519 -15.725823485
v -32.966664618 0.261614365 -15.699783382
v -32.992954244 0.289445796 -15.678345220
v -32.968862094 0.252108101 -15.693074750
v -32.966478231 0.263108719 -15.697933115
v -33.021938695 0.255583967 -15.693125561
v -33.032986600 0.236675439 -15.718827912
v -33.038434808 0.245310300 -15.726265522
v -33.037161087 0.237494640 -15.717441146
v -33.020430563 0.264269687 -15.700609356
v -33.000477467 0.266410108 -15.670769172
v -33.010804354 0.278326273 -15.668517999
v -33.010271513 0.287087603 -15.634794336
v -33.007295394 0.267673270 -15.667610433
v -33.000693512 0.304775682 -15.625343551
v -32.984661945 0.264498809 -15.659708155
v -32.960765789 0.254250210 -15.690037429
v -32.984599992 0.252021625 -15.691201454
v -32.963847476 0.253784389 -15.691098095
v -32.987203290 0.262209345 -15.677931453
v -32.999636903 0.306220521 -15.627000155
v -32.996080744 0.308547627 -15.628503434
v -32.981652436 0.292929759 -15.661624907
v -32.949808880 0.238706363 -15.717524113
v -32.791267225 0.487928530 -15.832193856
v -32.982369557 0.264654508 -15.668254234
v -32.876259644 0.382465859 -15.768450715
v -33.014436342 0.300693378 -15.664285855
v -33.012066448 0.275127294 -15.714245818
v -33.032006810 0.360256387 -15.742046936
v -33.042081390 0.323559996 -15.722778566
v -32.990974452 0.313288997 -15.616759137
v -33.036787347 0.266150728 -15.696428588
v -32.994873241 0.253953350 -15.742058247
v -32.997504791 0.301147774 -15.623741056
v -33.026317434 0.255694283 -15.693248644
v -33.000917607 0.255500807 -15.694727762
v -33.012681362 0.283398240 -15.688107428
v -32.995483012 0.266971711 -15.681591987
v -32.988193892 0.282634938 -15.654678050
v -33.012140756 0.267660087 -15.668166652
v -33.011828326 0.275282123 -15.671167157
v -32.997871917 0.279678986 -15.672136590
v -32.997424084 0.266116020 -15.680525661
v -32.998193577 0.265901409 -15.671388217
v -33.003080757 0.260763336 -15.702327921
v -33.196538811 0.416107336 -15.821203194
v -33.227566874 0.450658862 -15.810193154
v -33.077627697 0.343306854 -15.751563944
v -32.999769147 0.303141946 -15.612932951
v -32.992668627 0.299483166 -15.621518924
v -32.996289776 0.275228864 -15.672610875
v -33.001577822 0.269421749 -15.663334952
v -32.997790942 0.297394695 -15.611290645
v -33.201031945 0.410359032 -15.801114377
v -33.182034310 0.404097234 -15.822427450
v -33.000882398 0.323513181 -15.572308224
v -33.050192357 0.318378362 -15.664249281
v -33.005469071 0.272349332 -15.690970478
v -33.034719473 0.335878602 -15.622425872
v -32.998618137 0.283014375 -15.677147816
v -33.012223400 0.298608420 -15.664571103
v -32.984688972 0.302762247 -15.666195674
v -32.999312884 0.282909187 -15.676973494
v -32.975575520 0.276957102 -15.712469663
v -32.988799591 0.278073571 -15.692216773
v -33.003540871 0.308998998 -15.621481178
v -32.990860461 0.344764777 -15.892489302
v -33.009615338 0.335814220 -15.933459918
v -33.010987674 0.347106702 -15.892367401
v -32.969012280 0.272892231 -15.663641586
v -32.988897956 0.262113698 -15.677585679
v -33.002411462 0.313148309 -15.936209366
v -33.019425808 0.344154081 -15.914566593
v -33.016466979 0.338013023 -15.881598923
v -33.034068251 0.345372461 -15.738695871
v -32.988235549 0.274822844 -15.691523831
v -33.009822526 0.313132911 -15.900104902
v -33.020683015 0.282864203 -15.734535182
v -33.007718947 0.294938679 -15.616678790
v -33.018578300 0.255067416 -15.694675476
v -32.947215424 0.329242145 -15.723038400
v -32.992282024 0.253825749 -15.742056452
v -32.983179116 0.346800748 -15.917640394
v -32.992950972 0.280936580 -15.827783336
v -32.944592513 0.334249324 -15.764097006
v -32.970335192 0.354824247 -15.641347664
v -32.964565878 0.361756081 -15.741963129
v -32.989714513 0.308403133 -15.614622782
v -32.996345430 0.299509672 -15.612984665
v -33.035109758 0.313111006 -15.752373854
v -33.034536849 0.340674975 -15.737116469
v -33.026592644 0.278046892 -15.735119902
v -33.121297792 0.365219322 -15.759334405
v -33.076612656 0.349787008 -15.800693467
v -33.025469344 0.349491343 -15.804176818
v -32.970808308 0.362314161 -15.742497083
v -32.957032154 0.315137343 -15.753477986
v -32.963734956 0.283693689 -15.735490280
v -33.030594596 0.319885384 -15.807975527
v -32.952201512 0.324900124 -15.665838888
v -32.987734569 0.324755270 -15.572413602
v -32.999744834 0.383396335 -15.717570587
v -32.999573432 0.369953720 -15.808901454
v -32.997418541 0.334237341 -15.589688366
v -32.822467838 0.433615568 -15.834385057
v -32.815496519 0.451454490 -15.834941820
v -32.970762746 0.352754111 -15.806064569
v -32.788350117 0.485764458 -15.821803127
v -32.827661408 0.437688047 -15.832846823
v -32.955911504 0.316383462 -15.752816674
v -32.948917772 0.329899434 -15.723462302
v -32.962416215 0.281164225 -15.734197488
v -32.956961256 0.292292707 -15.666252525
v -32.965134440 0.322391096 -15.809267469
v -32.987607507 0.360085761 -15.903495813
v -33.002563127 0.323654233 -15.939060269
v -33.005111608 0.346271496 -15.953431780
v -33.003307325 0.323772638 -15.900894439
v -32.988470680 0.339978969 -15.882366687
v -33.004098489 0.321410707 -15.937694866
v -32.957423047 0.348237330 -15.737595092
v -33.003868474 0.394896557 -15.868515771
v -33.006132032 0.396718700 -15.923266661
v -32.978936945 0.376140239 -15.896718089
v -33.032731393 0.374428677 -15.899167337
v -32.984086489 0.350458116 -15.911368588
v -33.003984439 0.315642218 -15.933802256
v -33.011225980 0.360330009 -15.899144392
v -33.024181502 0.355020263 -15.909471661
v -33.005147361 0.334440736 -15.957190630
v -32.989401108 0.270795695 -15.667759138
v -32.986723787 0.251508807 -15.693904815
v -32.998074635 0.275918558 -15.649679867
v -32.970739436 0.276183807 -15.631844838
v -32.983333102 0.261712375 -15.665754782
v -32.976305811 0.262951262 -15.664346785
v -32.972151817 0.264447908 -15.664968180
v -32.975551767 0.275584898 -15.664557200
v -32.975851110 0.282757449 -15.633168101
v -32.985948325 0.261015347 -15.666667284
v -32.956734299 0.326785356 -15.667423051
v -33.003402564 0.328078186 -15.880225622
v -32.997780978 0.338945415 -15.931601746
v -33.024570702 0.348385737 -15.910106448
v -32.974677977 0.308086618 -15.665047575
v -32.959914617 0.348635270 -15.736609674
v -32.874083976 0.377262532 -15.770719621
v -32.973035077 0.347891429 -15.804787617
v -32.964426456 0.323134695 -15.810362063
v -32.890772073 0.393643511 -15.812180865
v -33.024456251 0.348840842 -15.807035740
v -33.024474733 0.359170258 -15.742175124
v -33.030220426 0.317226523 -15.756000128
v -33.029906119 0.317071101 -15.807577160
v -33.003863373 0.326079951 -15.938106265
f 82 55 160
f 101 160 55
f 101 161 160
f 158 161 101
f 158 101 159
f 101 98 159
f 100 98 101
f 55 62 101
f 62 100 101
f 62 53 100
f 54 100 53
f 61 54 53
f 62 61 53
f 62 55 61
f 80 162 84
f 80 84 132
f 132 137 80
f 137 134 80
f 134 137 90
f 84 106 132
f 106 102 132
f 129 132 102
f 130 132 129
f 130 137 132
f 137 130 131
f 90 137 131
f 84 99 106
f 97 106 99
f 37 97 99
f 97 37 36
f 99 84 3
f 3 40 99
f 99 40 65
f 67 65 40
f 65 67 68
f 68 67 60
f 68 60 64
f 60 63 64
f 63 66 64
f 36 64 66
f 37 64 36
f 111 66 63
f 111 109 66
f 66 109 36
f 36 109 102
f 102 109 110
f 102 110 129
f 131 129 110
f 130 129 131
f 111 93 109
f 94 109 93
f 109 94 110
f 110 94 114
f 131 110 114
f 90 131 114
f 111 108 93
f 107 93 108
f 93 107 88
f 93 88 94
f 117 94 88
f 117 88 119
f 117 119 156
f 69 107 108
f 96 69 108
f 70 69 96
f 70 83 69
f 83 70 89
f 89 119 83
f 91 119 89
f 91 156 119
f 156 91 90
f 90 114 156
f 125 90 91
f 125 123 90
f 19 18 47
f 18 19 20
f 16 87 13
f 16 13 14
f 15 16 14
f 16 15 12
f 46 58 17
f 58 46 51
f 49 50 52
f 52 44 49
f 44 41 49
f 41 44 56
f 56 44 48
f 48 45 56
f 57 56 45
f 42 44 52
f 48 44 42
f 48 42 59
f 42 43 59
f 6 5 35
f 34 5 6
f 5 34 86
f 2 86 34
f 86 2 39
f 39 4 86
f 39 85 4
f 85 39 1
f 1 39 2
f 128 155 103
f 155 128 33
f 33 157 155
f 157 121 155
f 121 157 92
f 104 121 92
f 92 153 104
f 92 154 153
f 157 33 116
f 112 157 116
f 92 157 112
f 112 154 92
f 112 115 154
f 112 113 115
f 31 115 113
f 113 33 31
f 33 113 116
f 145 141 144
f 145 146 141
f 146 145 143
f 142 138 140
f 138 147 140
f 24 23 22
f 77 22 23
f 23 8 77
f 77 8 29
f 32 77 29
f 32 29 38
f 27 32 38
f 32 27 26
f 29 8 139
f 139 78 29
f 28 29 78
f 29 28 38
f 25 30 11
f 11 30 7
f 10 11 7
f 72 71 73
f 73 9 72
f 73 152 9
f 152 73 95
f 152 95 148
f 120 148 95
f 120 118 148
f 105 118 120
f 105 120 21
f 95 21 120
f 124 79 122
f 136 79 124
f 136 124 122
f 75 149 76
f 74 76 149
f 76 74 150
f 75 76 150
f 149 150 74
f 127 151 81
f 151 135 81
f 126 81 135
f 127 81 126
f 133 127 126
f 135 133 126
