# Primary_40 cluster-placed
v -31.920954944 0.334510753 -16.996277276
v -31.898113948 0.349152999 -16.984896624
v -31.916145746 0.316559507 -16.960805664
v -31.934484468 0.359447093 -16.977397890
v -31.907054593 0.217765781 -16.677172291
v -31.824202407 0.294325595 -16.753190471
v -31.828490337 0.220207042 -16.716839640
v -31.819255206 0.295148301 -16.751836807
v -31.826184634 0.288368205 -16.679725737
v -31.903587547 0.307321220 -17.022758947
v -31.877085284 0.197440672 -16.711716061
v -31.837869051 0.177057256 -16.748290172
v -31.834306827 0.176400099 -16.747040101
v -31.875673629 0.198217406 -16.710804368
v -31.873371136 0.209451794 -16.677958162
v -31.876476734 0.225952772 -16.676821179
v -31.876378658 0.209382858 -16.679161337
v -31.843360360 0.197639563 -16.710060469
v -31.878003884 0.208109475 -16.676275078
v -31.865530400 0.214963349 -16.671374914
v -31.881723994 0.210467703 -16.690221649
v -31.896687004 0.357382120 -16.987438776
v -31.923096676 0.324102673 -16.775884593
v -31.911683861 0.338372815 -16.773908449
v -31.919903037 0.338131079 -16.990566729
v -31.905094904 0.338879803 -17.032794230
v -31.931276942 0.280620796 -16.787197361
v -31.845287753 0.288079655 -16.864233776
v -31.877077856 0.333685990 -17.002770507
v -31.921576406 0.326557373 -16.767441569
v -31.909150056 0.324235594 -17.018928397
v -31.885333947 0.216223004 -16.859400516
v -31.861673053 0.349871045 -16.971008704
v -31.854791706 0.323342978 -16.860064324
v -31.885188530 0.273120055 -16.615224678
v -31.885659677 0.268997678 -16.622953729
v -31.863964732 0.269098291 -16.611861440
v -31.875286254 0.224677348 -16.709650338
v -31.835872147 0.278767838 -16.790842162
v -31.868340817 0.263081632 -16.685249495
v -31.839607770 0.267268170 -16.670847960
v -31.868892972 0.276697127 -16.613656516
v -31.856754202 0.210059076 -16.724418413
v -31.878036330 0.271721731 -16.627329700
v -31.877553742 0.224594196 -16.685611838
v -31.727332850 0.225548141 -16.878866058
v -31.853169660 0.324230711 -16.862313760
v -31.848244805 0.197238800 -16.710791408
v -31.852790267 0.210868674 -16.719640946
v -31.833220487 0.186980652 -16.758569149
v -31.879024850 0.245340075 -16.693981481
v -31.855686711 0.196582917 -16.713150802
v -31.886522018 0.228714223 -16.654719537
v -31.861594768 0.228436144 -16.739130606
v -31.731162464 0.279897678 -16.861063197
v -31.727240230 0.227845292 -16.868375938
v -31.806379379 0.336615340 -16.756693631
v -31.851412487 0.238641249 -16.768012629
v -31.855609434 0.219832324 -16.679793880
v -31.882237542 0.269021782 -16.623334224
v -31.735829892 0.277867043 -16.889023509
v -31.725541602 0.222564748 -16.866901876
v -31.814333627 0.308714899 -16.830957668
v -31.837651520 0.303225383 -16.596144571
v -31.739712069 0.300751704 -16.887708693
v -31.747701405 0.295347077 -16.883529543
v -31.869360370 0.286306572 -16.555950946
v -31.826917305 0.284671940 -16.679826313
v -31.897193561 0.312013985 -17.021553068
v -31.904361642 0.305927361 -17.030315705
v -31.880181768 0.316709026 -16.962355020
v -31.880654602 0.335424138 -16.995668335
v -31.848526674 0.286605684 -16.864007432
v -31.855654826 0.342463670 -16.778476308
v -31.836757357 0.277127817 -16.790767947
v -31.841195155 0.321126636 -16.768345682
v -31.864648999 0.210605363 -16.676763402
v -31.856440831 0.221873754 -16.679255884
v -31.857544343 0.210332623 -16.674291217
v -31.879640874 0.334394672 -16.996661008
v -31.845357630 0.232179987 -16.767103373
v -31.885595909 0.201828745 -16.803793278
v -31.886870306 0.234155438 -16.688145407
v -31.849652899 0.265202898 -16.672816323
v -31.888269611 0.213592132 -16.681867680
v -31.889872018 0.231680255 -16.681737002
v -31.899394834 0.222344688 -16.675716838
v -31.898252701 0.203740897 -16.715068285
v -31.891189518 0.215197060 -16.683303581
v -31.906431011 0.235532885 -16.633256600
v -31.924242342 0.326959478 -16.854531248
v -31.942769383 0.222866942 -16.712339456
v -31.891689745 0.393394975 -16.950200374
v -31.897074450 0.383622595 -17.023938005
v -31.929916249 0.207189363 -16.707827623
v -31.907974405 0.214120646 -16.726202231
v -31.918617347 0.203824852 -16.712015596
v -31.948580419 0.194962369 -16.753283456
v -31.942528540 0.183176492 -16.743803034
v -31.890522900 0.228547429 -16.691621493
v -31.927175800 0.206727775 -16.708877710
v -31.920021390 0.241381626 -16.765255359
v -31.920748598 0.218466417 -16.720199813
v -31.875609478 0.234877837 -16.661895082
v -31.789521677 0.333910243 -16.817978493
v -31.735394092 0.311238525 -16.850685162
v -31.889377044 0.215048128 -16.694359231
v -31.893921241 0.215476953 -16.681649539
v -31.911214316 0.228719239 -16.679827244
v -31.819428705 0.339880719 -16.766887598
v -31.841704091 0.343476849 -16.777970504
v -31.899547887 0.242806825 -16.636652709
v -31.942287803 0.292401696 -16.671658526
v -31.941014063 0.299383613 -16.747729593
v -31.905739042 0.322113094 -17.023555919
v -31.976531965 0.336171965 -16.803481266
v -31.902080589 0.262086699 -16.680528641
v -31.910476861 0.230995551 -16.736171692
v -31.925757363 0.268022719 -16.662291903
v -31.892444424 0.244824777 -16.690886786
v -31.869724190 0.259968482 -16.621385219
v -31.884899898 0.366089606 -16.857740795
v -31.905236519 0.260695871 -16.672113639
v -31.880942508 0.290439655 -16.553119497
v -31.882984206 0.261129219 -16.670603193
v -31.936710365 0.309769484 -16.796012893
v -32.040696168 0.295270708 -16.869663874
v -31.873926101 0.308457220 -16.575882884
v -31.946559687 0.184387571 -16.741740308
v -31.881292345 0.263650882 -16.623969063
v -31.913982382 0.227038940 -16.680580158
v -31.894935325 0.197148517 -16.806412528
v -31.940431711 0.296847974 -16.747033852
v -31.924208059 0.237333524 -16.763869968
v -31.873794086 0.262024645 -16.621698034
v -31.892926360 0.219654147 -16.685788224
v -31.882640157 0.265992633 -16.608128410
v -32.050566252 0.242492151 -16.855835550
v -31.989548102 0.326930420 -16.821599179
v -32.026898647 0.310876501 -16.863145128
v -32.029429163 0.315961396 -16.866267824
v -31.944946002 0.346188966 -16.742976529
v -31.939094544 0.323604756 -16.663470788
v -31.944923904 0.289631182 -16.670614681
v -31.897833234 0.225200015 -16.709532535
v -31.884759289 0.238019504 -16.691420248
v -31.917589534 0.342829594 -16.775255531
v -31.870471613 0.262298056 -16.622044947
v -31.932379086 0.283434934 -16.786236320
v -31.880741129 0.265305116 -16.607414922
v -31.891685170 0.259576523 -16.614172006
v -31.855894323 0.233654918 -16.632131878
v -31.840240621 0.320093418 -16.781030184
v -31.926551531 0.335390476 -17.000549706
v -31.933458328 0.291028064 -16.857118805
v -31.919842393 0.328163819 -16.855209130
v -31.995772272 0.348020677 -16.763599187
v -31.926968968 0.292094134 -16.855687667
v -31.899087205 0.298949102 -16.962405193
v -31.903743261 0.326978721 -17.019322975
v -31.885948726 0.327614013 -16.984967865
v -31.913419022 0.327197994 -16.973886903
f 74 153 110
f 110 47 74
f 105 47 110
f 105 63 47
f 63 73 47
f 63 75 73
f 63 76 75
f 76 63 57
f 110 106 105
f 106 65 105
f 66 105 65
f 66 57 105
f 57 63 105
f 62 65 106
f 62 61 65
f 61 62 46
f 46 56 61
f 66 61 56
f 55 66 56
f 55 57 66
f 152 79 78
f 78 77 152
f 50 12 52
f 49 50 52
f 48 50 49
f 50 48 13
f 43 11 21
f 43 21 44
f 43 44 42
f 42 59 43
f 59 18 43
f 59 19 18
f 18 19 14
f 45 59 42
f 59 45 20
f 45 42 60
f 17 53 16
f 53 15 16
f 35 51 54
f 40 51 35
f 35 37 40
f 41 40 37
f 7 41 37
f 7 9 41
f 9 7 6
f 58 6 7
f 58 7 36
f 7 37 36
f 31 29 32
f 28 32 29
f 32 28 81
f 81 82 32
f 38 82 81
f 82 38 83
f 83 38 84
f 83 84 67
f 28 29 33
f 28 33 34
f 93 34 33
f 93 122 34
f 122 111 34
f 33 29 94
f 93 33 94
f 4 93 94
f 4 91 93
f 122 93 91
f 94 29 70
f 154 94 70
f 154 4 94
f 4 154 91
f 154 155 91
f 115 155 154
f 155 115 132
f 132 134 155
f 155 134 149
f 133 149 134
f 149 133 147
f 147 133 143
f 143 122 147
f 122 91 147
f 132 145 134
f 145 132 146
f 123 145 146
f 146 125 123
f 123 125 124
f 124 144 123
f 144 124 143
f 144 143 133
f 128 143 124
f 122 143 128
f 64 122 128
f 122 64 111
f 8 111 64
f 8 39 111
f 39 8 81
f 39 81 28
f 64 128 67
f 67 84 64
f 64 84 68
f 64 68 8
f 23 24 157
f 24 156 157
f 116 157 156
f 157 116 139
f 139 141 157
f 141 127 157
f 127 138 157
f 127 140 138
f 138 140 142
f 116 156 158
f 158 142 116
f 116 142 139
f 139 142 140
f 139 140 141
f 126 142 158
f 126 30 142
f 30 126 27
f 27 126 158
f 109 5 90
f 90 112 109
f 109 112 87
f 86 108 104
f 104 89 86
f 107 96 130
f 131 130 96
f 130 131 137
f 136 137 131
f 135 137 136
f 136 100 135
f 131 96 95
f 85 131 95
f 88 85 95
f 98 129 101
f 101 103 98
f 97 98 103
f 98 97 99
f 120 121 118
f 117 121 120
f 121 117 150
f 119 150 117
f 151 150 119
f 119 92 151
f 151 92 148
f 92 102 148
f 114 102 92
f 92 113 114
f 113 92 119
f 26 10 80
f 10 26 25
f 22 25 26
f 26 80 22
f 69 71 72
f 69 3 71
f 2 71 3
f 72 71 2
f 1 3 69
f 1 2 3
f 159 161 162
f 160 161 159
f 162 161 160
f 159 162 160
