# Primary_40 phase0-skinned
v 0.037126972 0.163062999 -0.439415592
v 0.058890210 0.177705245 -0.426089235
v 0.038829128 0.145111753 -0.403659946
v 0.022004872 0.187999339 -0.421786034
v 0.023187699 0.046318027 -0.120312312
v 0.112344637 0.122877841 -0.188827189
v 0.104907660 0.048759288 -0.152987817
v 0.117155172 0.123700547 -0.187047877
v 0.103972823 0.116920451 -0.115814116
v 0.056734354 0.135873467 -0.464284366
v 0.056051151 0.025992918 -0.152115220
v 0.098303200 0.005609502 -0.185135559
v 0.101743040 0.004952345 -0.183580047
v 0.057378056 0.026769652 -0.151084067
v 0.056811642 0.038004040 -0.118162131
v 0.053618835 0.054505018 -0.117299895
v 0.053920313 0.037935105 -0.119622623
v 0.089503808 0.026191809 -0.147529239
v 0.052049933 0.036661721 -0.116888848
v 0.064049343 0.043515595 -0.110921140
v 0.049558384 0.039019949 -0.131106381
v 0.060533098 0.185934366 -0.428497476
v 0.015802159 0.152654919 -0.220046561
v 0.026999546 0.166925062 -0.217084125
v 0.037677625 0.166683325 -0.433635139
v 0.056106570 0.167432050 -0.474412787
v 0.008638052 0.109173042 -0.232028674
v 0.101008742 0.116631901 -0.301284755
v 0.081402808 0.162238236 -0.442063457
v 0.016581459 0.155109619 -0.211503226
v 0.050859420 0.152787840 -0.460952735
v 0.060693796 0.044775250 -0.299956972
v 0.093983362 0.178423291 -0.409080891
v 0.091177825 0.151895224 -0.297958720
v 0.039576469 0.101672301 -0.056695967
v 0.039780137 0.097549924 -0.064436685
v 0.060426787 0.097650537 -0.051497392
v 0.057663470 0.053229594 -0.149900689
v 0.103997834 0.107320084 -0.227352032
v 0.062457763 0.091633878 -0.124987741
v 0.089827621 0.095820416 -0.108138913
v 0.055673577 0.105249373 -0.053714786
v 0.077411093 0.038611322 -0.162998946
v 0.047755575 0.100273977 -0.068132213
v 0.053311385 0.053146442 -0.126150946
v 0.219789738 0.054100387 -0.305590254
v 0.092989585 0.152782957 -0.300058369
v 0.084701564 0.025791046 -0.148682727
v 0.080943963 0.039420920 -0.157894456
v 0.103829173 0.015532898 -0.194970707
v 0.052574672 0.073892322 -0.134616897
v 0.077493375 0.025135164 -0.151681180
v 0.041687155 0.057266469 -0.096156922
v 0.073870013 0.056988390 -0.178076759
v 0.214424444 0.108449924 -0.288188489
v 0.218968554 0.056397538 -0.295131915
v 0.130405010 0.165167586 -0.190765059
v 0.086528588 0.067193495 -0.205962428
v 0.074665726 0.048384570 -0.118444235
v 0.043222405 0.097574028 -0.064517744
v 0.212209456 0.106419289 -0.316449022
v 0.220532372 0.051116994 -0.293515540
v 0.128947694 0.137267145 -0.265439642
v 0.085271465 0.131777630 -0.033548936
v 0.208227534 0.129303950 -0.315477250
v 0.199904636 0.123899323 -0.312009665
v 0.050183105 0.114858818 0.003730890
v 0.103251693 0.113224186 -0.115978109
v 0.062999048 0.140566231 -0.462526296
v 0.056621222 0.134479607 -0.471879826
v 0.074791412 0.145261272 -0.402071767
v 0.077221210 0.163976385 -0.435299717
v 0.097762415 0.115157930 -0.301341308
v 0.083213513 0.171015916 -0.216755772
v 0.103109524 0.105680063 -0.227355180
v 0.096736111 0.149678882 -0.205404517
v 0.065396611 0.039157609 -0.116212409
v 0.073790640 0.050426000 -0.117980678
v 0.072259009 0.038884869 -0.113130960
v 0.078317526 0.162946918 -0.436200346
v 0.092481270 0.060732233 -0.204529384
v 0.055590696 0.030380991 -0.244583767
v 0.044250827 0.062707684 -0.129486153
v 0.079992048 0.093755144 -0.110974502
v 0.042310189 0.042144378 -0.123354120
v 0.040702489 0.060232501 -0.123363472
v 0.030691626 0.050896934 -0.118195397
v 0.035256041 0.032293143 -0.157297914
v 0.039526408 0.043749307 -0.125038824
v 0.019984849 0.064085131 -0.076509134
v 0.021509190 0.155511724 -0.298494240
v -0.009329165 0.051419188 -0.158455846
v 0.062268753 0.221947221 -0.390965375
v 0.063325381 0.212174841 -0.464891802
v 0.003082268 0.035741609 -0.152841935
v 0.026540779 0.042672892 -0.169236109
v 0.014702929 0.032377098 -0.156030121
v -0.011552832 0.023514615 -0.199750332
v -0.006349471 0.011728738 -0.189778939
v 0.040914796 0.057099675 -0.133267093
v 0.005903746 0.035280022 -0.153649402
v 0.017940198 0.069933872 -0.209189914
v 0.013292434 0.047018663 -0.164368833
v 0.053183071 0.063430083 -0.102354976
v 0.152535204 0.162462489 -0.250349208
v 0.209305197 0.139790771 -0.278218354
v 0.042294694 0.043600374 -0.135894654
v 0.036661032 0.044029199 -0.123628937
v 0.019274963 0.057271485 -0.123319399
v 0.118292916 0.168432966 -0.202056606
v 0.097067213 0.172029095 -0.215037097
v 0.027137552 0.071359071 -0.079292979
v -0.012391802 0.120953943 -0.117887507
v -0.004498832 0.127935859 -0.193558706
v 0.054660430 0.150665340 -0.465265657
v -0.035027111 0.164724211 -0.252191414
v 0.028435072 0.090638945 -0.123222790
v 0.024915944 0.059547797 -0.179385608
v 0.003260225 0.096574966 -0.107117035
v 0.038936594 0.073377023 -0.132702499
v 0.055518512 0.088520728 -0.061486513
v 0.060981671 0.194641852 -0.298265760
v 0.024558373 0.089248117 -0.115114563
v 0.038398407 0.118991901 0.005543042
v 0.046594636 0.089681465 -0.111672181
v 0.003992901 0.138321730 -0.241283849
v -0.093184580 0.123822954 -0.323709879
v 0.047370338 0.137009466 -0.016522908
v -0.010544922 0.012939817 -0.188075070
v 0.044219292 0.092203128 -0.065067867
v 0.016582973 0.055591186 -0.124310489
v 0.046514833 0.025700763 -0.248006321
v -0.003979276 0.125400220 -0.192814898
v 0.013648796 0.065885770 -0.208174349
v 0.051491314 0.090576891 -0.062152536
v 0.038012519 0.048206393 -0.127665268
v 0.041497237 0.094544879 -0.049404748
v -0.104221307 0.071044397 -0.310793543
v -0.046416146 0.155482666 -0.271373918
v -0.080007104 0.139428747 -0.316014443
v -0.082256092 0.144513642 -0.319345628
v -0.008829720 0.174741212 -0.189166079
v -0.009923641 0.152157002 -0.109452809
v -0.015108786 0.118183428 -0.117077172
v 0.035191876 0.053752261 -0.151746665
v 0.046638989 0.066571750 -0.132564733
v 0.021233606 0.171381840 -0.218940341
v 0.054831375 0.090850302 -0.062208818
v 0.007456409 0.111987180 -0.231167256
v 0.043326924 0.093857362 -0.048528608
v 0.033012842 0.088128770 -0.056213004
v 0.070231637 0.062207164 -0.070988083
v 0.098791553 0.148645664 -0.217957719
v 0.031923676 0.163942722 -0.444159129
v 0.012553528 0.119580310 -0.301874473
v 0.025951454 0.156716065 -0.298786412
v -0.057667161 0.176572923 -0.214136221
v 0.018893618 0.120646381 -0.299883694
v 0.055962156 0.127501348 -0.403767986
v 0.056280036 0.155530967 -0.460875004
v 0.071015427 0.156166259 -0.425100890
v 0.042684575 0.155750240 -0.416454060
f 74 153 110
f 110 47 74
f 105 47 110
f 105 63 47
f 63 73 47
f 63 75 73
f 63 76 75
f 76 63 57
f 110 106 105
f 106 65 105
f 66 105 65
f 66 57 105
f 57 63 105
f 62 65 106
f 62 61 65
f 61 62 46
f 46 56 61
f 66 61 56
f 55 66 56
f 55 57 66
f 152 79 78
f 78 77 152
f 50 12 52
f 49 50 52
f 48 50 49
f 50 48 13
f 43 11 21
f 43 21 44
f 43 44 42
f 42 59 43
f 59 18 43
f 59 19 18
f 18 19 14
f 45 59 42
f 59 45 20
f 45 42 60
f 17 53 16
f 53 15 16
f 35 51 54
f 40 51 35
f 35 37 40
f 41 40 37
f 7 41 37
f 7 9 41
f 9 7 6
f 58 6 7
f 58 7 36
f 7 37 36
f 31 29 32
f 28 32 29
f 32 28 81
f 81 82 32
f 38 82 81
f 82 38 83
f 83 38 84
f 83 84 67
f 28 29 33
f 28 33 34
f 93 34 33
f 93 122 34
f 122 111 34
f 33 29 94
f 93 33 94
f 4 93 94
f 4 91 93
f 122 93 91
f 94 29 70
f 154 94 70
f 154 4 94
f 4 154 91
f 154 155 91
f 115 155 154
f 155 115 132
f 132 134 155
f 155 134 149
f 133 149 134
f 149 133 147
f 147 133 143
f 143 122 147
f 122 91 147
f 132 145 134
f 145 132 146
f 123 145 146
f 146 125 123
f 123 125 124
f 124 144 123
f 144 124 143
f 144 143 133
f 128 143 124
f 122 143 128
f 64 122 128
f 122 64 111
f 8 111 64
f 8 39 111
f 39 8 81
f 39 81 28
f 64 128 67
f 67 84 64
f 64 84 68
f 64 68 8
f 23 24 157
f 24 156 157
f 116 157 156
f 157 116 139
f 139 141 157
f 141 127 157
f 127 138 157
f 127 140 138
f 138 140 142
f 116 156 158
f 158 142 116
f 116 142 139
f 139 142 140
f 139 140 141
f 126 142 158
f 126 30 142
f 30 126 27
f 27 126 158
f 109 5 90
f 90 112 109
f 109 112 87
f 86 108 104
f 104 89 86
f 107 96 130
f 131 130 96
f 130 131 137
f 136 137 131
f 135 137 136
f 136 100 135
f 131 96 95
f 85 131 95
f 88 85 95
f 98 129 101
f 101 103 98
f 97 98 103
f 98 97 99
f 120 121 118
f 117 121 120
f 121 117 150
f 119 150 117
f 151 150 119
f 119 92 151
f 151 92 148
f 92 102 148
f 114 102 92
f 92 113 114
f 113 92 119
f 26 10 80
f 10 26 25
f 22 25 26
f 26 80 22
f 69 71 72
f 69 3 71
f 2 71 3
f 72 71 2
f 1 3 69
f 1 2 3
f 159 161 162
f 160 161 159
f 162 161 160
f 159 162 160
