# Primary_44 cluster-placed
v -34.446378501 -57.939734752 -130.793615245
v -34.447807766 -57.893076062 -130.755354877
v -34.396853529 -58.092650566 -130.885163913
v -34.371386531 -57.959259396 -130.712159773
v -34.387123470 -58.033814336 -130.971659677
v -34.396729323 -57.860329384 -130.704888619
v -34.359446441 -57.932111764 -130.811821317
v -34.394000327 -57.952063869 -130.707548783
v -34.423028071 -58.010669090 -130.832966086
v -34.365392648 -57.973932939 -130.758552686
v -34.418808176 -57.984028449 -130.859403414
v -34.431398620 -57.969787603 -130.799006185
v -34.428195078 -57.977215930 -130.760302429
v -34.138882688 -57.966917699 -130.860796246
v -34.397699180 -57.958324129 -130.705342766
v -34.400935021 -57.864574966 -130.717992301
v -34.403588092 -57.814995024 -130.723661723
v -34.184647260 -57.977841527 -130.866825301
v -34.389074362 -57.923753429 -130.706059639
v -34.396633327 -57.814236163 -130.699202434
v -34.409192215 -57.862281581 -130.700098015
v -34.439532575 -57.939083997 -130.790478729
v -34.426028059 -57.928186474 -130.839214315
v -34.407944115 -57.959139025 -130.744329758
v -34.407712263 -57.815287345 -130.696604122
v -34.415787919 -57.905940050 -130.735468327
v -34.456967216 -57.893105323 -130.754477328
v -34.404292994 -57.924145058 -130.722815449
v -34.396643648 -58.001626795 -130.738260739
v -34.363830699 -58.076659240 -130.923460245
v -34.354685796 -57.967436788 -130.794404055
v -34.279309074 -57.968639813 -130.855396926
v -34.363664346 -57.974166294 -130.755420205
v -34.387883114 -58.108054697 -130.923004209
v -34.422589054 -58.014244457 -130.824705946
v -34.414361901 -57.992444214 -130.856342857
v -34.430004975 -57.933540046 -130.808361147
v -34.652777794 -57.980813787 -130.890023976
v -34.466272951 -57.986994296 -130.848889802
v -34.387464609 -58.115623600 -130.912258133
v -34.387282627 -58.116063733 -130.942272830
v -34.281222705 -57.929512918 -130.836775663
v -34.415077848 -57.904304527 -130.738029315
v -34.436616696 -57.977918241 -130.763129415
v -34.371910618 -57.933418286 -130.814545385
v -34.358337658 -58.009970421 -130.830604501
v -34.393193852 -57.999435633 -130.738771629
v -34.359870840 -57.889844627 -130.752096125
v -34.338392243 -57.935574275 -130.786092194
v -34.365326369 -57.990876218 -130.848745399
v -34.362953413 -57.968536501 -130.801623911
v -34.371699216 -58.059649258 -130.922010293
v -34.360635893 -57.983398464 -130.857485960
v -34.389225829 -58.117552416 -130.919390669
v -34.386681588 -58.105168017 -130.948191156
v -34.391902934 -58.110165861 -130.917251014
v -34.398839316 -57.921567169 -130.732181972
v -34.384835401 -57.958075011 -130.739807612
v -34.346578684 -57.935059501 -130.786248015
v -34.404013734 -57.924493153 -130.723660735
v -34.387767396 -57.905247264 -130.733841311
v -34.358340951 -57.925774386 -130.834852119
v -34.350893639 -57.891107291 -130.750184362
v -34.405617146 -57.866847039 -130.714002718
v -34.406412559 -57.926072110 -130.722669882
v -34.437981422 -57.959455523 -130.719903970
v -34.415005711 -57.930280602 -130.709305551
v -34.389020817 -58.112161988 -130.912548249
v -34.408006803 -58.066794962 -130.924714640
v -34.378060904 -58.056606157 -130.889200818
v -34.417041251 -58.076971541 -130.926438044
v -34.407393195 -58.053497905 -130.914263040
v -34.368288374 -58.071252298 -130.918833157
v -34.426090484 -57.927487708 -130.818283904
v -34.359239626 -58.009449744 -130.829487399
v -34.412778464 -57.959920160 -130.720593356
v -34.411557269 -57.958063149 -130.714636962
f 71 34 3
f 3 9 71
f 9 11 71
f 5 71 11
f 5 41 71
f 41 68 71
f 68 41 30
f 3 13 9
f 12 9 13
f 22 12 13
f 12 22 23
f 3 29 13
f 28 13 29
f 13 28 26
f 26 28 27
f 28 25 27
f 25 17 27
f 23 27 17
f 22 27 23
f 17 62 23
f 23 62 11
f 11 62 53
f 11 53 5
f 30 5 53
f 41 5 30
f 17 63 62
f 63 59 62
f 31 62 59
f 31 59 33
f 31 33 46
f 17 20 63
f 61 63 20
f 60 61 20
f 60 33 61
f 33 60 47
f 47 46 33
f 46 47 30
f 30 53 46
f 54 30 47
f 76 66 65
f 66 64 65
f 64 66 67
f 66 77 67
f 43 21 24
f 2 21 43
f 1 21 2
f 44 21 1
f 10 49 6
f 6 49 48
f 57 6 48
f 57 58 6
f 50 45 42
f 42 32 50
f 32 75 50
f 51 75 32
f 32 7 51
f 18 7 32
f 18 14 7
f 18 42 14
f 32 42 18
f 15 16 4
f 19 4 16
f 8 4 19
f 55 40 52
f 69 40 55
f 69 55 52
f 39 35 37
f 36 35 39
f 36 39 74
f 38 74 39
f 37 38 39
f 56 72 70
f 72 73 70
f 73 56 70
