# Primary_41 pre-dequantized
v 0.010782575 0.166958817 0.044570558
v 0.031908208 0.145650488 0.130519479
v -0.011609050 0.166959798 0.042744495
v 0.050820772 0.138961999 0.101591660
v -0.054733302 0.142221324 0.112966685
v 0.010115755 0.166522931 0.057344739
v -0.029700168 0.158123297 0.086421287
v 0.032265778 0.154684316 0.083906663
v -0.009550605 0.170002162 0.058859573
v 0.010170518 0.158938128 0.109857144
v -0.015400582 0.158037887 0.107940191
f 4 1 2
f 1 3 2
f 3 5 2
f 6 9 8
f 10 8 9
f 11 10 9
f 7 11 9
