# Primary_44 phase0-skinned
v -0.068211259 0.151817982 0.043594186
v -0.068324458 0.198476673 0.081881075
v -0.021862590 -0.001097832 -0.049602825
v 0.009536468 0.132293338 0.122423630
v -0.015111620 0.057738398 -0.136381947
v -0.015541397 0.231223350 0.130561659
v 0.018043582 0.159440970 0.022410538
v -0.012905459 0.139488865 0.127809257
v -0.046227335 0.080883644 0.003463918
v 0.013932027 0.117619795 0.075852092
v -0.042918731 0.107524286 -0.023102847
v -0.053425547 0.121765132 0.037691492
v -0.048893436 0.114336804 0.076262251
v 0.236793445 0.124635035 -0.034117446
v -0.016526292 0.133228605 0.130141120
v -0.020195055 0.226977768 0.117610295
v -0.023041448 0.276557711 0.112035423
v 0.190848668 0.113711208 -0.038569756
v -0.007931214 0.167799305 0.129128188
v -0.015249992 0.277316572 0.136241184
v -0.027832244 0.229271153 0.135777851
v -0.061261559 0.152468737 0.046493516
v -0.049440336 0.163366261 -0.002677492
v -0.028105371 0.132413710 0.091529344
v -0.026233062 0.276265390 0.139218805
v -0.035639923 0.185612684 0.100655173
v -0.077448329 0.198447411 0.083072966
v -0.023716843 0.167407677 0.112905429
v -0.016602957 0.089925939 0.097206317
v 0.009824267 0.014893494 -0.089011701
v 0.023400141 0.124115947 0.039653857
v 0.096635654 0.122912921 -0.023894084
v 0.015766988 0.117386440 0.078923311
v -0.014198257 -0.016501962 -0.087729120
v -0.045504631 0.077308277 0.011704085
v -0.038369875 0.099108520 -0.020196942
v -0.052354307 0.158012689 0.028294151
v -0.277802674 0.110738948 -0.045662481
v -0.089994043 0.104558438 -0.010963821
v -0.013410597 -0.024070865 -0.077003782
v -0.014260494 -0.024510998 -0.107006996
v 0.095363270 0.162039817 -0.005218043
v -0.035018308 0.187248208 0.098071290
v -0.057407256 0.113634493 0.073726433
v 0.005493130 0.158134448 0.020116542
v 0.018506027 0.081582313 0.003600339
v -0.013172762 0.092117101 0.096577140
v 0.019672519 0.201708107 0.082115022
v 0.039969790 0.155978460 0.047400706
v 0.010897844 0.100676517 -0.014289597
v 0.014889224 0.123016234 0.032722471
v 0.002010243 0.031903477 -0.087292122
v 0.015285086 0.108154271 -0.023186229
v -0.015415961 -0.025999682 -0.084071560
v -0.013863256 -0.013615282 -0.112942485
v -0.018017932 -0.018613126 -0.081841143
v -0.018588367 0.169985565 0.103356969
v -0.004854864 0.133477724 0.095254443
v 0.031782831 0.156493233 0.047526391
v -0.023466804 0.167059581 0.112051042
v -0.007580031 0.186305471 0.101318007
v 0.018356722 0.165778348 -0.000644655
v 0.028710133 0.200445444 0.083717059
v -0.024737270 0.224705695 0.121758471
v -0.025830151 0.165480624 0.113123771
v -0.057285278 0.132097211 0.116973245
v -0.033958819 0.161272132 0.126775598
v -0.014975858 -0.020609254 -0.077240231
v -0.034368850 0.024757772 -0.088746778
v -0.003219842 0.034946577 -0.054283351
v -0.043457202 0.014581193 -0.090158599
v -0.033396325 0.038054829 -0.078322448
v 0.005528284 0.020300436 -0.084234114
v -0.048783230 0.164065026 0.018242695
v 0.017642994 0.082102991 0.004747787
v -0.032120912 0.131632575 0.115417901
v -0.030695684 0.133489585 0.121328796
f 71 34 3
f 3 9 71
f 9 11 71
f 5 71 11
f 5 41 71
f 41 68 71
f 68 41 30
f 3 13 9
f 12 9 13
f 22 12 13
f 12 22 23
f 3 29 13
f 28 13 29
f 13 28 26
f 26 28 27
f 28 25 27
f 25 17 27
f 23 27 17
f 22 27 23
f 17 62 23
f 23 62 11
f 11 62 53
f 11 53 5
f 30 5 53
f 41 5 30
f 17 63 62
f 63 59 62
f 31 62 59
f 31 59 33
f 31 33 46
f 17 20 63
f 61 63 20
f 60 61 20
f 60 33 61
f 33 60 47
f 47 46 33
f 46 47 30
f 30 53 46
f 54 30 47
f 76 66 65
f 66 64 65
f 64 66 67
f 66 77 67
f 43 21 24
f 2 21 43
f 1 21 2
f 44 21 1
f 10 49 6
f 6 49 48
f 57 6 48
f 57 58 6
f 50 45 42
f 42 32 50
f 32 75 50
f 51 75 32
f 32 7 51
f 18 7 32
f 18 14 7
f 18 42 14
f 32 42 18
f 15 16 4
f 19 4 16
f 8 4 19
f 55 40 52
f 69 40 55
f 69 55 52
f 39 35 37
f 36 35 39
f 36 39 74
f 38 74 39
f 37 38 39
f 56 72 70
f 72 73 70
f 73 56 70
