# Primary_40 pre-dequantized
v -0.015975414 0.255627835 -0.229517325
v -0.000116678 0.267182664 -0.217019692
v -0.014091208 0.242475300 -0.200467644
v -0.028725210 0.274220174 -0.215389566
v -0.042699740 0.001250401 -0.049576498
v 0.046595937 0.176940872 -0.064122237
v 0.049751983 0.113917122 -0.058113760
v 0.050348648 0.177454420 -0.062795148
v 0.043753926 0.160507336 -0.004256907
v 0.000165953 0.233764005 -0.245923080
v 0.032747021 0.001697378 -0.081468450
v 0.066285893 -0.001650194 -0.109389581
v 0.068955185 -0.002382476 -0.108375977
v 0.033720527 0.002030233 -0.080475745
v 0.032197460 0.000984117 -0.052397870
v 0.029072818 0.012529436 -0.048406151
v 0.029999220 0.001136279 -0.053578666
v 0.057948280 0.001744928 -0.076536274
v 0.028350539 0.000603711 -0.050370662
v 0.037551747 0.002753004 -0.046472989
v 0.026670455 0.004388750 -0.061488957
v 0.000809724 0.273468872 -0.219151396
v -0.035932299 0.201885989 -0.078532133
v -0.026118725 0.211805073 -0.073276022
v -0.015708485 0.258633041 -0.225159873
v -0.001592639 0.257539374 -0.254972368
v -0.037973523 0.173365056 -0.096609812
v 0.033218072 0.199413351 -0.147394505
v 0.018207229 0.256721502 -0.231534083
v -0.034581951 0.202437578 -0.072398262
v -0.005047018 0.246631235 -0.244042165
v 0.003824454 0.144606369 -0.161564061
v 0.026937385 0.270045219 -0.205358022
v 0.024723442 0.224177776 -0.135868679
v 0.014847061 0.059528587 -0.012355289
v 0.015836269 0.061801512 -0.020808955
v 0.031553690 0.057759699 -0.009972797
v 0.012664522 0.109894329 -0.050611001
v 0.038336833 0.174829619 -0.095449914
v 0.014061975 0.118558074 -0.013818222
v 0.033375089 0.127060146 0.004834180
v 0.026120895 0.063855704 -0.007120077
v 0.048621459 0.014127141 -0.085491517
v 0.021033538 0.067992618 -0.021300083
v 0.028664574 0.013347309 -0.054644518
v 0.255146172 0.215124115 -0.126735793
v 0.025948176 0.225423605 -0.137321163
v 0.054556709 0.001792479 -0.077967859
v 0.051259348 0.013556532 -0.081447551
v 0.070007200 0.008487623 -0.113506694
v 0.007514358 0.110407877 -0.031906351
v 0.049076809 0.001801989 -0.080475745
v 0.019557576 0.007270324 -0.032596019
v 0.021488888 0.125766766 -0.070015770
v 0.211856532 0.213269636 -0.118689659
v 0.252194249 0.210074227 -0.119055392
v 0.087655933 0.202580230 -0.080026415
v 0.027534050 0.142514136 -0.087842660
v 0.045025765 0.013109555 -0.049294361
v 0.018411351 0.062638405 -0.020694010
v 0.214839858 0.219631925 -0.139306572
v 0.255946959 0.213431309 -0.118114935
v 0.058639156 0.205594947 -0.123820376
v 0.028915801 0.175010312 0.057040009
v 0.196468847 0.223806880 -0.138104877
v 0.195982094 0.215704234 -0.139567811
v 0.002112966 0.161344229 0.086110588
v 0.043408488 0.157483109 -0.004821181
v 0.004782259 0.237691696 -0.244763182
v 0.000150252 0.232385033 -0.251701667
v 0.013528116 0.244111046 -0.199067408
v 0.014690044 0.257653496 -0.225013579
v 0.030737201 0.198234093 -0.147645294
v 0.021693010 0.217035655 -0.073411866
v 0.037708764 0.173574279 -0.095763400
v 0.034725437 0.200421427 -0.070977126
v 0.038964901 0.001744928 -0.051196175
v 0.044272083 0.014716770 -0.048970426
v 0.044240679 0.001088728 -0.048824132
v 0.015789164 0.257330151 -0.227019888
v 0.032558600 0.137654451 -0.088668173
v 0.001673318 0.121686913 -0.123130707
v -0.000697641 0.100821648 -0.032825909
v 0.026073790 0.125005954 0.001950111
v -0.027814510 0.000356447 -0.050454258
v -0.029054946 0.012567477 -0.048447949
v -0.037062823 0.003133410 -0.047308951
v -0.033718357 0.002039743 -0.080486194
v -0.030012751 0.001117259 -0.053578666
v -0.045070700 -0.000081020 -0.014089910
v -0.027861616 0.225119280 -0.135994073
v -0.049435778 0.114050264 -0.058301852
v 0.000778320 0.302940820 -0.192724546
v 0.001940248 0.292194353 -0.248002535
v -0.058338653 0.003475775 -0.076567622
v -0.040375886 0.013014454 -0.085658709
v -0.049420076 0.002049253 -0.079890571
v -0.069738101 0.009334026 -0.113349951
v -0.065765566 -0.002059131 -0.109964305
v -0.028850824 0.015800927 -0.059242309
v -0.056171815 0.003390184 -0.077288639
v -0.027940124 0.142285893 -0.087665018
v -0.050566302 0.013860857 -0.081781935
v -0.019586810 0.007308365 -0.032627368
v 0.117316480 0.221552975 -0.128637607
v 0.184472733 0.215580602 -0.111249597
v -0.028065738 0.003238022 -0.060402206
v -0.032210992 0.000984117 -0.052408320
v -0.045259120 0.015040115 -0.048134464
v 0.071734389 0.208371910 -0.077069199
v 0.032432986 0.218034220 -0.072659500
v -0.039543695 0.005881843 -0.013839121
v -0.044819472 0.160478806 -0.003755330
v -0.046279732 0.176959892 -0.064174485
v -0.002032287 0.244985979 -0.247271068
v -0.086727361 0.220164493 -0.130403577
v -0.015127521 0.117569019 -0.013452489
v -0.021518121 0.126888964 -0.069482844
v -0.032525026 0.127088677 0.005168565
v -0.006758505 0.110464938 -0.030798701
v -0.016022519 0.060137236 -0.021697165
v 0.000118848 0.255732446 -0.127007481
v -0.018126550 0.112690313 -0.007966488
v -0.007056838 0.164244824 0.087427229
v 0.000150252 0.114982259 0.001145498
v -0.046562363 0.196313043 -0.097936902
v -0.214680671 0.221334242 -0.138533307
v -0.000744746 0.177511480 0.070237759
v -0.068984418 -0.001716765 -0.108375977
v -0.023622151 0.067916537 -0.021801660
v -0.047363151 0.013594573 -0.048834582
v -0.005251140 0.118539054 -0.126464106
v -0.045777277 0.174934230 -0.064038641
v -0.031190380 0.138852730 -0.087853110
v -0.018534794 0.063104402 -0.020756707
v -0.031347397 0.004531402 -0.054811710
v -0.024846885 0.060489112 -0.007109627
v -0.255724965 0.213868776 -0.125774437
v -0.146440999 0.216417495 -0.134259452
v -0.195995625 0.216579168 -0.139170729
v -0.194441155 0.223036558 -0.140738157
v -0.085769556 0.204016262 -0.079639783
v -0.045227717 0.185034007 0.001626176
v -0.046876398 0.158101269 -0.003410495
v -0.012191300 0.110379347 -0.050266167
v 0.001029548 0.105386519 -0.033337936
v -0.030735030 0.215276277 -0.073861195
v -0.015944011 0.062628895 -0.020756707
v -0.038978433 0.175229045 -0.095376768
v -0.023606450 0.058976998 -0.006806591
v -0.033058885 0.060631764 -0.016555998
v 0.041068932 0.005159072 -0.012491133
v 0.035589032 0.201981091 -0.079995066
v -0.020089265 0.255494693 -0.231847569
v -0.034016689 0.199213638 -0.147457202
v -0.024407237 0.226165397 -0.135555193
v -0.132906117 0.212480294 -0.090486390
v -0.029196262 0.199679635 -0.145388196
v -0.000195186 0.229741212 -0.199098756
v -0.000995974 0.248961221 -0.244094413
v 0.010230755 0.251490920 -0.216643509
v -0.011531828 0.250406763 -0.210060309
f 74 153 110
f 110 47 74
f 105 47 110
f 105 63 47
f 63 73 47
f 63 75 73
f 63 76 75
f 76 63 57
f 110 106 105
f 106 65 105
f 66 105 65
f 66 57 105
f 57 63 105
f 62 65 106
f 62 61 65
f 61 62 46
f 46 56 61
f 66 61 56
f 55 66 56
f 55 57 66
f 152 79 78
f 78 77 152
f 50 12 52
f 49 50 52
f 48 50 49
f 50 48 13
f 43 11 21
f 43 21 44
f 43 44 42
f 42 59 43
f 59 18 43
f 59 19 18
f 18 19 14
f 45 59 42
f 59 45 20
f 45 42 60
f 17 53 16
f 53 15 16
f 35 51 54
f 40 51 35
f 35 37 40
f 41 40 37
f 7 41 37
f 7 9 41
f 9 7 6
f 58 6 7
f 58 7 36
f 7 37 36
f 31 29 32
f 28 32 29
f 32 28 81
f 81 82 32
f 38 82 81
f 82 38 83
f 83 38 84
f 83 84 67
f 28 29 33
f 28 33 34
f 93 34 33
f 93 122 34
f 122 111 34
f 33 29 94
f 93 33 94
f 4 93 94
f 4 91 93
f 122 93 91
f 94 29 70
f 154 94 70
f 154 4 94
f 4 154 91
f 154 155 91
f 115 155 154
f 155 115 132
f 132 134 155
f 155 134 149
f 133 149 134
f 149 133 147
f 147 133 143
f 143 122 147
f 122 91 147
f 132 145 134
f 145 132 146
f 123 145 146
f 146 125 123
f 123 125 124
f 124 144 123
f 144 124 143
f 144 143 133
f 128 143 124
f 122 143 128
f 64 122 128
f 122 64 111
f 8 111 64
f 8 39 111
f 39 8 81
f 39 81 28
f 64 128 67
f 67 84 64
f 64 84 68
f 64 68 8
f 23 24 157
f 24 156 157
f 116 157 156
f 157 116 139
f 139 141 157
f 141 127 157
f 127 138 157
f 127 140 138
f 138 140 142
f 116 156 158
f 158 142 116
f 116 142 139
f 139 142 140
f 139 140 141
f 126 142 158
f 126 30 142
f 30 126 27
f 27 126 158
f 109 5 90
f 90 112 109
f 109 112 87
f 86 108 104
f 104 89 86
f 107 96 130
f 131 130 96
f 130 131 137
f 136 137 131
f 135 137 136
f 136 100 135
f 131 96 95
f 85 131 95
f 88 85 95
f 98 129 101
f 101 103 98
f 97 98 103
f 98 97 99
f 120 121 118
f 117 121 120
f 121 117 150
f 119 150 117
f 151 150 119
f 119 92 151
f 151 92 148
f 92 102 148
f 114 102 92
f 92 113 114
f 113 92 119
f 26 10 80
f 10 26 25
f 22 25 26
f 26 80 22
f 69 71 72
f 69 3 71
f 2 71 3
f 72 71 2
f 1 3 69
f 1 2 3
f 159 161 162
f 160 161 159
f 162 161 160
f 159 162 160
