# runtime shadow point cloud: Body_02
v -0.162123374 0.910296227 -0.842272088
v -0.172719702 0.906052460 -0.830923996
v -0.157298789 0.906221535 -0.804572053
v -0.162123374 0.910296227 -0.842272088
v -0.155049289 0.907946093 -0.845775525
v -0.131222352 0.984063365 -0.971975439
v -0.157979559 0.924650639 -0.880429092
v -0.157979559 0.924650639 -0.880429092
v -0.178165859 0.919274075 -0.871061205
v -0.161353808 0.895045720 -0.839301782
v -0.148211994 0.918834481 -0.886065057
v -0.159104309 0.950704996 -0.907390329
v -0.154486914 0.979058765 -0.921556403
v -0.182487266 0.951956146 -0.904953155
v -0.167569531 0.904277180 -0.881876164
v -0.154486914 0.979058765 -0.921556403
v -0.159104309 0.950704996 -0.907390329
v -0.142588245 0.942099112 -0.925364487
v -0.169789432 0.932343522 -0.924907517
v -0.191899646 0.987292685 -0.939530561
v -0.167303143 0.980715693 -0.972584733
v 0.172282516 0.905883386 -0.831533290
v 0.161449399 0.910177875 -0.842652896
v 0.161449399 0.910177875 -0.842652896
v 0.156979998 0.906035553 -0.805257508
v 0.154197722 0.907844649 -0.846080172
v 0.166451576 0.904209550 -0.882028488
v 0.157009597 0.924583009 -0.880657577
v 0.157009597 0.924583009 -0.880657577
v 0.160443044 0.894961183 -0.839606429
v 0.177462285 0.919155722 -0.871442013
v 0.147064441 0.918800666 -0.886217381
v 0.158134347 0.950637366 -0.907694976
v 0.130015601 0.984046458 -0.972127763
v 0.153516953 0.978974227 -0.922470343
v 0.166037195 0.980698786 -0.973041703
v 0.158134347 0.950637366 -0.907694976
v 0.141351895 0.942082204 -0.925440649
v 0.153516953 0.978974227 -0.922470343
v 0.191107277 0.987174333 -0.941510765
v 0.168582681 0.932309707 -0.924983679
v 0.181842890 0.951820887 -0.905790934
v -0.083509279 0.848685534 -1.012645780
v -0.106862638 0.833823898 -0.960855833
v -0.093040054 0.854214265 -1.007542947
v -0.091412127 0.832944712 -0.935646315
v -0.095733534 0.823290566 -0.968472002
v -0.068769136 0.914641437 -1.094443431
v -0.112782374 0.848364292 -0.998936676
v -0.089636206 0.836461458 -0.974564937
v -0.096562297 0.838625610 -0.971366146
v -0.096562297 0.838625610 -0.971366146
v -0.094756778 0.880708215 -1.033133273
v -0.093040054 0.854214265 -1.007542947
v -0.090672160 0.909061984 -1.046613892
v -0.102452434 0.833857713 -1.008913857
v -0.117754952 0.881621217 -1.031305393
v -0.094756778 0.880708215 -1.033133273
v -0.090672160 0.909061984 -1.046613892
v -0.078743892 0.872710999 -1.049812683
v -0.105471500 0.862701797 -1.049812683
v -0.128025694 0.916991571 -1.064588050
v -0.104346750 0.910938709 -1.095738179
v 0.106869433 0.833823898 -0.960855833
v 0.096569092 0.838625610 -0.971366146
v 0.096569092 0.838625610 -0.971366146
v 0.091418922 0.832944712 -0.935646315
v 0.089643001 0.836461458 -0.974564937
v 0.102459229 0.833857713 -1.008913857
v 0.093046849 0.854214265 -1.007542947
v 0.093046849 0.854214265 -1.007542947
v 0.095740329 0.823290566 -0.968472002
v 0.112759570 0.848347385 -0.998936676
v 0.083516074 0.848685534 -1.012645780
v 0.094733974 0.880708215 -1.033133273
v 0.068775931 0.914641437 -1.094443431
v 0.090649356 0.909061984 -1.046613892
v 0.104353545 0.910938709 -1.095738179
v 0.094733974 0.880708215 -1.033133273
v 0.078750686 0.872710999 -1.049812683
v 0.090649356 0.909061984 -1.046613892
v 0.128032489 0.916991571 -1.064588050
v 0.105448696 0.862701797 -1.049812683
v 0.117761747 0.881621217 -1.031305393
v -0.371001261 1.218062265 -0.989949597
v -0.378519326 1.221612826 -0.986522321
v -0.370438886 1.223117588 -0.968472002
v -0.371001261 1.218062265 -0.989949597
v -0.368514972 1.213767776 -0.990254244
v -0.376536214 1.207495118 -1.016910834
v -0.362772828 1.216523688 -1.019119523
v -0.362772828 1.216523688 -1.019119523
v -0.377779359 1.209524010 -0.983704339
v -0.375589056 1.221511382 -1.015463762
v -0.360227341 1.209084417 -1.019576493
v -0.328231168 1.219195063 -1.091320801
v -0.353360447 1.225231017 -1.044481364
v -0.340840206 1.236051776 -1.060856127
v -0.365643900 1.233701642 -1.050345814
v -0.353360447 1.225231017 -1.044481364
v -0.348417468 1.211350013 -1.051792886
v -0.340840206 1.236051776 -1.060856127
v -0.359398578 1.247227590 -1.083019178
v -0.366739051 1.214241185 -1.054991677
v -0.349098237 1.228341985 -1.098936970
v -0.308400052 1.113641947 -0.902439820
v -0.300763593 1.098273088 -0.923536607
v -0.310649552 1.118562010 -0.904191539
v -0.302865099 1.106963510 -0.926430751
v -0.310649552 1.118562010 -0.904191539
v -0.309021624 1.133305294 -0.889720818
v -0.302865099 1.106963510 -0.926430751
v -0.317812432 1.111393258 -0.894595166
v -0.317871630 1.123955482 -0.902744466
v -0.315414939 1.113895558 -0.924831355
v -0.293008738 1.109043124 -0.951716431
v -0.267968255 1.089413592 -0.992462933
v -0.317309255 1.097376994 -0.919423876
v -0.279807727 1.116414766 -0.971442307
v -0.304877809 1.116769822 -0.959408761
v -0.288835324 1.091155058 -0.952935018
v -0.279807727 1.116414766 -0.971442307
v -0.293008738 1.109043124 -0.951716431
v -0.297951718 1.122061849 -0.994290813
v -0.307127309 1.093403747 -0.955524515
v -0.288450542 1.097072660 -1.001145365
v -0.330303075 1.117091063 -1.084466250
v -0.353538040 1.120117494 -1.060932289
v -0.354988375 1.122484535 -1.062912493
v -0.354988375 1.122484535 -1.062912493
v -0.366265472 1.124631779 -1.040901765
v -0.341757765 1.108941680 -1.089112113
v -0.335660437 1.124682502 -1.085989483
v -0.357326671 1.124395075 -1.064283403
v -0.359872157 1.112204815 -1.061084612
v -0.343148903 1.129382769 -1.091168478
v -0.335660437 1.124682502 -1.085989483
v -0.311981492 1.133034775 -1.103125863
v -0.276936655 1.121486996 -1.136789328
v -0.292771949 1.144565645 -1.112417589
v -0.322045044 1.136111928 -1.121633153
v -0.311981492 1.133034775 -1.103125863
v -0.300793191 1.116702192 -1.108914151
v -0.292771949 1.144565645 -1.112417589
v -0.301888342 1.148978486 -1.153621061
v -0.313195038 1.114115355 -1.121023859
v -0.282264417 1.137261633 -1.165349960
v -0.311448716 0.994224734 -1.003430216
v -0.303309079 0.991096858 -1.005486581
v -0.303309079 0.991096858 -1.005486581
v -0.308133664 0.991705526 -0.982104943
v -0.300793191 0.986768555 -1.005105773
v -0.237570410 1.008055015 -1.098099192
v -0.288361745 0.995087013 -1.032980950
v -0.288361745 0.995087013 -1.032980950
v -0.311271124 0.981459620 -0.999926778
v -0.301799546 0.999601298 -1.031762363
v -0.285727463 0.987563204 -1.032676303
v -0.257075940 1.021378074 -1.070909470
v -0.273207221 1.007852126 -1.056591073
v -0.283892345 1.016914511 -1.064816535
v -0.302302724 0.985483590 -1.032904788
v -0.257075940 1.021378074 -1.070909470
v -0.273207221 1.007852126 -1.056591073
v -0.266636314 0.994579790 -1.062607846
v -0.283862746 0.997335702 -1.069005427
v -0.270276952 1.034599688 -1.096195149
v -0.256395171 1.017049771 -1.109447283
v -0.109082539 0.845050435 -0.664282227
v -0.101771665 0.851272371 -0.669004252
v -0.101771665 0.851272371 -0.669004252
v -0.097568652 0.835514642 -0.647983626
v -0.096739889 0.851137112 -0.672050719
v -0.106448256 0.862380556 -0.696574782
v -0.099729356 0.872795536 -0.686292954
v -0.099729356 0.872795536 -0.686292954
v -0.101031698 0.841838022 -0.674107085
v -0.114025518 0.866793396 -0.683322649
v -0.092744067 0.871527478 -0.692233566
v -0.082946904 0.938971236 -0.719042479
v -0.101505277 0.896854816 -0.691928919
v -0.098900593 0.917566424 -0.688501643
v -0.118494919 0.897125335 -0.690481847
v -0.101505277 0.896854816 -0.691928919
v -0.089754601 0.898511744 -0.707008933
v -0.098900593 0.917566424 -0.688501643
v -0.126960142 0.929655240 -0.697641046
v -0.109378526 0.893524051 -0.711730957
v -0.109496920 0.938125864 -0.721708138
v -0.114173512 0.854670766 -0.477381449
v -0.109171335 0.856124805 -0.488120247
v -0.109171335 0.856124805 -0.488120247
v -0.096266310 0.851830317 -0.467175783
v -0.105530697 0.854248080 -0.492156816
v -0.124473853 0.857612659 -0.510359459
v -0.115031874 0.869261882 -0.512415825
v -0.115031874 0.869261882 -0.512415825
v -0.111006453 0.846031066 -0.488272570
v -0.125953787 0.866556692 -0.498402074
v -0.110592072 0.865576061 -0.519270376
v -0.106714644 0.922621747 -0.572278910
v -0.118406123 0.890396176 -0.526429575
v -0.113078361 0.912189859 -0.533207965
v -0.133560647 0.894639942 -0.516300071
v -0.118406123 0.890396176 -0.526429575
v -0.112752775 0.886592003 -0.544327571
v -0.113078361 0.912189859 -0.533207965
v -0.141019515 0.925665085 -0.530999276
v -0.134744595 0.883193608 -0.539757870
v -0.134241417 0.925005695 -0.565424358
v -0.244318909 0.890886491 -0.539453223
v -0.232272246 0.888012227 -0.564967388
v -0.236593654 0.890954121 -0.564358095
v -0.222119899 0.899492376 -0.596422165
v -0.239375930 0.880928012 -0.562987184
v -0.215874577 0.894098904 -0.598173883
v -0.171269366 0.939038866 -0.662682832
v -0.245414060 0.891579696 -0.562530214
v -0.236593654 0.890954121 -0.564358095
v -0.209984440 0.916788682 -0.615386424
v -0.227743648 0.887454282 -0.596346003
v -0.234728937 0.899238764 -0.590176906
v -0.222119899 0.899492376 -0.596422165
v -0.195865870 0.908605483 -0.625135120
v -0.209984440 0.916788682 -0.615386424
v -0.198381757 0.935961713 -0.623992695
v -0.188051818 0.941456629 -0.667100209
v -0.386362976 1.033027297 -0.401524410
v -0.212233940 0.950755718 -0.649659183
v -0.388375686 1.038640565 -0.400305823
v -0.222563879 0.922300505 -0.623154916
v -0.198381757 0.935961713 -0.623992695
v -0.387783713 1.035952283 -0.375857921
v -0.388375686 1.038640565 -0.400305823
v -0.391365153 1.042292571 -0.397030870
v -0.211967552 0.906001738 -0.633969876
v -0.391187561 1.042072775 -0.433436156
v -0.385534213 1.046079837 -0.426962413
v -0.393496258 1.033044204 -0.399163397
v -0.345546396 1.070883044 -0.503047937
v -0.374553103 1.063190161 -0.456208500
v -0.389441239 1.051101345 -0.425896149
v -0.385534213 1.046079837 -0.426962413
v -0.380887220 1.036408784 -0.430618174
v -0.366502262 1.050746289 -0.469612957
v -0.374553103 1.063190161 -0.456208500
v -0.365111124 1.080300485 -0.467556592
v -0.427001964 1.119880790 -0.432750701
v -0.380709628 1.064103162 -0.475096598
v -0.427001964 1.119880790 -0.432750701
v -0.365111124 1.080300485 -0.467556592
v -0.371830024 1.098171644 -0.489338834
v -0.428925878 1.115687746 -0.411120782
v -0.434756818 1.115975173 -0.427190898
v -0.383758292 1.075904552 -0.459102644
v -0.357504263 1.092676727 -0.511273399
v -0.430613003 1.124006204 -0.430998982
v -0.424367682 1.132087958 -0.467861238
v -0.426232398 1.111359443 -0.427800191
v -0.419335906 1.123955482 -0.465881034
v -0.380176852 1.133964683 -0.535112007
v -0.404240579 1.134674796 -0.492232978
v -0.431204977 1.121571534 -0.470983867
v -0.419335906 1.123955482 -0.465881034
v -0.417323196 1.112323167 -0.467861238
v -0.403204625 1.122146386 -0.505256626
v -0.404240579 1.134674796 -0.492232978
v -0.394828199 1.153408234 -0.504875818
v -0.414629716 1.136619151 -0.511349561
v -0.414244933 1.154642476 -0.504190363
v -0.399919172 1.168793999 -0.523992401
v -0.394828199 1.153408234 -0.504875818
v -0.388405285 1.154016901 -0.544479895
v -0.484748989 1.243592492 -0.419270083
v -0.479835608 1.244201159 -0.418736951
v -0.479835608 1.244201159 -0.418736951
v -0.481670727 1.250727429 -0.415233513
v -0.479924404 1.249341020 -0.393908241
v -0.480279589 1.237894686 -0.420640993
v -0.477882096 1.239433263 -0.449125463
v -0.477911694 1.228156004 -0.451791123
v -0.454232750 1.222627272 -0.503961878
v -0.470038445 1.239213466 -0.469841442
v -0.484216213 1.238621706 -0.453999811
v -0.481670727 1.249205760 -0.445088894
v -0.477882096 1.239433263 -0.449125463
v -0.469535268 1.224250386 -0.480884887
v -0.470038445 1.239213466 -0.469841442
v -0.461188440 1.241935563 -0.472887910
v -0.474951826 1.241817211 -0.488196409
v -0.471311188 1.251944765 -0.475553569
v -0.458583756 1.260753538 -0.495888739
v -0.461188440 1.241935563 -0.472887910
v -0.455919875 1.248985963 -0.517975628
v -0.343296896 0.970774121 -0.575325378
v -0.336607594 0.979751969 -0.575173054
v -0.336607594 0.979751969 -0.575173054
v -0.344776830 0.984046458 -0.571593455
v -0.343119304 0.974527572 -0.550648991
v -0.333706924 0.974950258 -0.577153258
v -0.320328320 0.989220133 -0.601068027
v -0.316865275 0.978974227 -0.607846418
v -0.265629959 1.023102633 -0.658950909
v -0.304700217 1.007852126 -0.617442790
v -0.332582174 0.982693863 -0.607084801
v -0.333825318 0.996152181 -0.597488428
v -0.320328320 0.989220133 -0.601068027
v -0.296590179 1.000480485 -0.631532702
v -0.304700217 1.007852126 -0.617442790
v -0.288805726 1.027701455 -0.624068857
v 0.212033544 0.867131545 -2.183555543
v 0.209606452 0.865305542 -2.184393322
v 0.212033544 0.867131545 -2.183555543
v 0.211027189 0.858965254 -2.157736732
v 0.205817821 0.880150270 -2.207089504
v 0.219048431 0.870005809 -2.181042208
v 0.214963813 0.859252680 -2.186373526
v 0.262588090 1.035580320 -2.209907487
v 0.259569024 1.019484441 -2.231765891
v 0.294880250 1.003337841 -2.211735367
v 0.262736083 1.017337197 -2.191247874
v 0.283839942 1.008274812 -2.189267670
v 0.262736083 1.017337197 -2.191247874
v 0.293163527 1.019467534 -2.197721617
v 0.281294456 0.994393808 -2.193761209
v 0.306956512 1.000615744 -2.174111494
v 0.317878425 0.993802048 -2.184545645
v 0.283839942 1.008274812 -2.189267670
v 0.253234907 1.001241319 -2.207241828
v 0.315747320 1.009052554 -2.176244021
v 0.306956512 1.000615744 -2.174111494
v 0.303967045 0.991265933 -2.174416141
v -0.240145495 0.957045284 -0.707389741
v -0.284721108 1.040077697 -0.663901419
v -0.241803021 0.966023132 -0.704419436
v -0.300645198 1.055176037 -0.640900589
v -0.315207749 1.022713762 -0.620184611
v -0.288805726 1.027701455 -0.624068857
v -0.241803021 0.966023132 -0.704419436
v -0.250001856 0.960122437 -0.685226691
v -0.313402229 1.009069462 -0.636178565
v -0.251570586 0.966699430 -0.699697411
v -0.239079943 0.969404619 -0.734579463
v -0.229756358 0.977537095 -0.736331182
v -0.250919415 0.958499324 -0.704876406
v -0.188880581 1.017337197 -0.805485993
v -0.209747651 0.993244102 -0.753543723
v -0.241033456 0.980123933 -0.728410367
v -0.229756358 0.977537095 -0.736331182
v -0.225523747 0.965363742 -0.743871189
v -0.204183099 0.982304992 -0.770908588
v -0.197996975 1.009272351 -0.770603941
v -0.197996975 1.009272351 -0.770603941
v -0.261338150 0.919121908 -0.489643481
v -0.205988618 1.027177324 -0.792538507
v -0.229785957 1.004335380 -0.756590191
v -0.215963373 1.036222802 -0.770756264
v -0.209747651 0.993244102 -0.753543723
v -0.214335446 1.036036820 -0.771060911
v -0.266281130 0.922858451 -0.487282468
v -0.266073939 0.916805589 -0.462453759
v -0.224132609 0.992398731 -0.768776060
v -0.272052873 0.925157862 -0.485911558
v -0.266281130 0.922858451 -0.487282468
v -0.273118425 0.936654918 -0.508150770
v -0.275486320 0.918175091 -0.489338834
v -0.273947188 0.927322014 -0.519575023
v -0.254708046 0.949234049 -0.524601695
v -0.251836974 0.926003234 -0.517061688
v -0.261486144 0.934812007 -0.508836225
v -0.261486144 0.934812007 -0.508836225
v -0.241743824 0.939360107 -0.539453223
v -0.245621251 0.959260158 -0.526201090
v -0.229608365 0.957417248 -0.560169202
v -0.260420591 0.980259192 -0.551334446
v -0.245621251 0.959260158 -0.526201090
v -0.239553522 0.972633939 -0.574487599
v -0.254708046 0.949234049 -0.524601695
v -0.269536985 0.956876210 -0.529552204
v 0.368136984 1.227293724 -1.017215481
v 0.360411728 1.219583934 -1.020033463
v 0.360796511 1.228815394 -1.001906982
v -0.261663736 0.949031160 -0.549430404
v 0.361802866 1.224098219 -1.020109625
v 0.361802866 1.224098219 -1.020109625
v 0.370149694 1.214359537 -1.013712043
v 0.353692828 1.223303570 -1.045319143
v 0.368610563 1.212871682 -1.042272676
v 0.342682119 1.233414216 -1.067939164
v 0.364910728 1.228003837 -1.042272676
v 0.353692828 1.223303570 -1.045319143
v 0.352656874 1.215289446 -1.045014496
v 0.328652344 1.245908810 -1.083019178
v 0.340432619 1.218248247 -1.073118158
v 0.320009530 1.226904853 -1.108076372
v 0.352597677 1.242222989 -1.073575129
v 0.344310046 1.257693292 -1.102897378
v 0.315924912 1.132392292 -0.919271552
v 0.338715896 1.236711166 -1.115540218
v 0.357540656 1.220851992 -1.076012303
v 0.324686121 1.110412627 -0.920413978
v 0.328652344 1.245908810 -1.083019178
v 0.314592971 1.112779667 -0.927649338
v 0.316753675 1.117733546 -0.930162673
v 0.342682119 1.233414216 -1.067939164
v 0.316753675 1.117733546 -0.930162673
v 0.307400492 1.106287212 -0.948289155
v 0.305387782 1.097562976 -0.944252585
v 0.295886605 1.108569716 -0.971137661
v 0.324153345 1.123110110 -0.929934188
v 0.320305516 1.113202353 -0.948289155
v 0.322495819 1.096599252 -0.940825310
v 0.307400492 1.106287212 -0.948289155
v 0.291476402 1.090681650 -0.969538265
v 0.281412850 1.116127340 -0.989492627
v 0.268507826 1.089210703 -1.004648803
v 0.465990221 1.242679490 -0.527267354
v 0.478658456 1.223709348 -0.516147747
v 0.350436973 0.977401836 -0.584769427
v 0.474899424 1.234276495 -0.502743291
v 0.356179117 0.972312698 -0.559255262
v 0.356534301 0.968576155 -0.584236295
v 0.350436973 0.977401836 -0.584769427
v 0.464776675 1.230523044 -0.552400710
v 0.466108616 1.225924222 -0.499468338
v 0.359020590 0.981510343 -0.581494474
v 0.347121921 0.972735384 -0.586368822
v 0.334749672 0.986768555 -0.611959149
v 0.330635456 0.979109487 -0.615310263
v 0.320009530 1.005163844 -0.630542600
v 0.279992114 1.020735592 -0.673650114
v 0.349045835 0.993362454 -0.609217328
v 0.346944329 0.980462082 -0.617595113
v 0.334749672 0.986768555 -0.611959149
v 0.311100327 0.998079629 -0.643947057
v 0.320009530 1.005163844 -0.630542600
v 0.288960514 1.096852864 -1.014245175
v 0.295886605 1.108569716 -0.971137661
v 0.365887484 1.124716317 -1.054458545
v 0.281412850 1.116127340 -0.989492627
v 0.309975577 1.092913431 -0.972813218
v 0.354166407 1.122484535 -1.074032099
v 0.298816874 1.121875867 -1.011427193
v 0.356504702 1.124428890 -1.075479171
v 0.334660876 1.124648687 -1.095205047
v 0.307548485 1.116364044 -0.979591608
v 0.359198182 1.112120278 -1.071442601
v 0.354166407 1.122484535 -1.074032099
v 0.352775269 1.120083679 -1.072051895
v 0.334660876 1.124648687 -1.095205047
v 0.342090145 1.129416583 -1.100384042
v 0.329392311 1.117023434 -1.093148682
v 0.276351476 1.121351737 -1.141282868
v 0.310981932 1.133017867 -1.111427487
v 0.291653994 1.144650182 -1.120490727
v 0.340935797 1.108840235 -1.096804443
v 0.310981932 1.133017867 -1.111427487
v 0.281738436 1.137160189 -1.168853398
v 0.300060019 1.116583840 -1.115387894
v 0.308732432 0.991587174 -0.985608381
v 0.303375071 0.991063043 -1.007923755
v 0.291653994 1.144650182 -1.120490727
v 0.301066374 1.149012301 -1.158876217
v 0.312580261 1.113963188 -1.126507501
v 0.321134279 1.136095020 -1.128716189
v 0.303375071 0.991063043 -1.007923755
v 0.311603504 0.994174011 -1.006248198
v 0.300829585 0.986734740 -1.007238300
v 0.288190948 0.995087013 -1.034580345
v 0.285586264 0.987563204 -1.033894890
v 0.311425912 0.981408898 -1.001983144
v 0.273036424 1.007852126 -1.058038145
v 0.302161525 0.985483590 -1.034123375
v 0.237518008 1.008055015 -1.098403838
v 0.256875544 1.021378074 -1.072432703
v 0.301599150 0.999601298 -1.033818728
v 0.288190948 0.995087013 -1.034580345
v 0.256342768 1.017049771 -1.109904253
v 0.266524714 0.994579790 -1.063293301
v 0.273036424 1.007852126 -1.058038145
v 0.256875544 1.021378074 -1.072432703
v 0.270076556 1.034616596 -1.097794545
v 0.283751146 0.997335702 -1.069843206
v 0.283662350 1.016914511 -1.066568253
v 0.211737557 0.871916349 -2.215543451
v 0.156092038 0.910718912 -2.246693581
v 0.190160119 0.899610728 -2.222626488
v 0.216325352 0.886287669 -2.208003444
v 0.201526012 0.876447542 -2.208917385
v 0.205817821 0.880150270 -2.207089504
v 0.256549959 1.015866250 -2.274873405
v 0.262588090 1.012535486 -2.259793391
v 0.184299580 0.935505212 -2.251491767
v 0.195665474 0.893557866 -2.243951760
v 0.190160119 0.899610728 -2.222626488
v 0.181694897 0.889855138 -2.229100232
v 0.170861780 0.918952833 -2.225139824
v 0.166629168 0.927203662 -2.267485721
v 0.202709960 0.906339887 -2.234507711
v 0.170861780 0.918952833 -2.225139824
v 0.101837657 0.851272371 -0.669080413
v 0.100002539 0.872761721 -0.686445278
v 0.096776283 0.851137112 -0.672126881
v 0.097575447 0.835514642 -0.647983626
v 0.101038493 0.841838022 -0.674107085
v 0.092898856 0.871493663 -0.692309728
v 0.109148531 0.845050435 -0.664358389
v 0.102192841 0.896753371 -0.692385889
v 0.083989653 0.938802162 -0.719727935
v 0.101837657 0.851272371 -0.669080413
v 0.114387497 0.866742674 -0.683551134
v 0.106632643 0.862346741 -0.696727105
v 0.100002539 0.872761721 -0.686445278
v 0.090205376 0.898444115 -0.707313580
v 0.102192841 0.896753371 -0.692385889
v 0.100061736 0.917380442 -0.689263260
v 0.119567267 0.896939353 -0.691167302
v 0.105507893 0.854248080 -0.492156816
v 0.129275634 0.929283276 -0.699164279
v 0.109178130 0.856124805 -0.488120247
v 0.111250037 0.937838438 -0.722850564
v 0.100061736 0.917380442 -0.689263260
v 0.109178130 0.856124805 -0.488120247
v 0.096243506 0.851830317 -0.467099621
v 0.110066090 0.893422606 -0.712111766
v 0.114180307 0.854670766 -0.477381449
v 0.124628641 0.857578844 -0.510435621
v 0.115275458 0.869211160 -0.512568148
v 0.110983649 0.846031066 -0.488272570
v 0.119152885 0.890277824 -0.526962707
v 0.108319768 0.922368135 -0.573345174
v 0.115275458 0.869211160 -0.512568148
v 0.126226970 0.866505970 -0.498630560
v 0.110746860 0.865559154 -0.519422700
v 0.113410741 0.886490558 -0.544784541
v 0.119152885 0.890277824 -0.526962707
v 0.114298701 0.912003878 -0.533969582
v 0.135728146 0.883041441 -0.540367164
v 0.136793698 0.924599917 -0.567099915
v 0.143542198 0.925563640 -0.532370187
v 0.114298701 0.912003878 -0.533969582
v 0.134632995 0.894470867 -0.516985526
v 0.243230553 0.880319344 -0.565500520
v 0.240951454 0.890260916 -0.567252239
v 0.240951454 0.890260916 -0.567252239
v 0.248558315 0.890193286 -0.542195044
v 0.250038249 0.890835769 -0.565576682
v 0.236334060 0.887352837 -0.567633047
v 0.220025188 0.893422606 -0.600915704
v 0.226744088 0.898748449 -0.599468632
v 0.215289399 0.915926402 -0.618889862
v 0.176071147 0.938261124 -0.665805461
v 0.231894258 0.886794892 -0.599087824
v 0.239737909 0.898427207 -0.593451859
v 0.226744088 0.898748449 -0.599468632
v 0.200164473 0.907912278 -0.627876941
v 0.215289399 0.915926402 -0.618889862
v 0.204367486 0.934997989 -0.627876941
v 0.396610914 1.034751855 -0.407617345
v 0.219610806 0.949555291 -0.654609693
v 0.394391013 1.032722963 -0.381950856
v 0.204367486 0.934997989 -0.627876941
v 0.216710135 0.905223996 -0.637016343
v 0.396107737 1.041345755 -0.435568683
v 0.396610914 1.034751855 -0.407617345
v 0.228697601 0.921302967 -0.627115324
v 0.193682362 0.940543628 -0.670755970
v 0.399363591 1.038285509 -0.404342392
v 0.391608737 1.032063573 -0.438995959
v 0.394657401 1.029392198 -0.408607446
v 0.396107737 1.041345755 -0.435568683
v 0.362394840 1.064965441 -0.516985526
v 0.401435499 1.029358383 -0.406170272
v 0.402145867 1.037287970 -0.442194750
v 0.388352882 1.057543078 -0.466794975
v 0.399955565 1.046147466 -0.434730905
v 0.388352882 1.057543078 -0.466794975
v 0.380746022 1.045606428 -0.480047108
v 0.380213245 1.074146179 -0.479818623
v 0.375536654 1.085744679 -0.528181294
v 0.435651574 1.111427073 -0.446002834
v 0.395486164 1.058253190 -0.486825498
v 0.434586021 1.103345319 -0.440062223
v 0.397735664 1.069665708 -0.470679221
v 0.380213245 1.074146179 -0.479818623
v 0.435651574 1.111427073 -0.446002834
v 0.435207593 1.107791974 -0.422697358
v 0.388767264 1.091425577 -0.504495009
v 0.442133685 1.107555270 -0.439833738
v 0.435977159 1.123262277 -0.484464486
v 0.431478160 1.115603209 -0.481494180
v 0.438670639 1.115315783 -0.444479601
v 0.419253905 1.126068911 -0.511501884
v 0.399097203 1.124953021 -0.559559908
v 0.442459270 1.112898020 -0.486825498
v 0.431478160 1.115603209 -0.481494180
v 0.429939028 1.104444302 -0.482636605
v 0.418987517 1.113523595 -0.524982503
v 0.419253905 1.126068911 -0.511501884
v 0.411291860 1.144193682 -0.527724324
v 0.429435851 1.127032635 -0.533360288
v 0.407029650 1.143923163 -0.572659718
v 0.416590023 1.158142315 -0.551486770
v 0.411291860 1.144193682 -0.527724324
v 0.428636686 1.144717812 -0.527038868
v 0.479457620 1.222559643 -0.472202454
v 0.480730364 1.234107421 -0.435492522
v 0.479339226 1.227953114 -0.438995959
v 0.477030529 1.233600198 -0.412720177
v 0.479842403 1.221832623 -0.440747678
v 0.479339226 1.227953114 -0.438995959
v 0.479635212 1.211806514 -0.474411143
v 0.479457620 1.222559643 -0.472202454
v 0.483631034 1.226854131 -0.439529091
v 0.462231188 1.206785006 -0.533284127
v 0.473567483 1.222542735 -0.495507930
v 0.485110968 1.220987251 -0.477305287
v 0.482595081 1.231554398 -0.468242047
v 0.473567483 1.222542735 -0.495507930
v 0.473626680 1.208069971 -0.506779860
v 0.466108616 1.225924222 -0.499468338
v 0.304736611 1.024725746 -0.639377356
v 0.259125044 0.958617676 -0.692233566
v 0.248232730 0.955726504 -0.713711161
v 0.300770387 1.037085081 -0.682104062
v 0.250541427 0.964569093 -0.711654796
v 0.304736611 1.024725746 -0.639377356
v 0.331760206 1.019399904 -0.635493110
v 0.232486232 0.964214037 -0.750116447
v 0.237813994 0.976201408 -0.744023512
v 0.237813994 0.976201408 -0.744023512
v 0.252110157 0.976032334 -0.731989966
v 0.250541427 0.964569093 -0.711654796
v 0.260900965 0.965177760 -0.707389741
v 0.318292806 1.051067530 -0.661083436
v 0.217124517 0.992009860 -0.761845347
v 0.247492763 0.967561709 -0.740900883
v 0.194333533 1.016373473 -0.814244587
v 0.259598623 0.957079099 -0.711807119
v 0.329007528 0.996693219 -0.661235760
v 0.204929861 1.008088830 -0.779743343
v 0.204929861 1.008088830 -0.779743343
v 0.210228024 0.981273638 -0.777458493
v 0.231539074 0.991147580 -0.777534654
v 0.223073852 1.034532059 -0.784846176
v 0.217124517 0.992009860 -0.761845347
v 0.270638931 0.916078569 -0.465424064
v 0.213069498 1.025959989 -0.804115083
v 0.271941273 0.921945449 -0.490938229
v 0.281146462 0.917262090 -0.492994595
v 0.238465165 1.002881340 -0.767252827
v 0.277949805 0.924194138 -0.489719642
v 0.224820174 1.034718040 -0.784693853
v 0.268330234 0.933696117 -0.513253603
v 0.258029893 0.925005695 -0.521098257
v 0.266702306 0.918259628 -0.493070756
v 0.280939272 0.926189215 -0.524068563
v 0.280584087 0.935860268 -0.512568148
v 0.237813994 0.956081560 -0.565500520
v 0.268330234 0.933696117 -0.513253603
v 0.271941273 0.921945449 -0.490938229
v 0.262647287 0.947949084 -0.529780689
v 0.253915676 0.957907563 -0.531608570
v 0.248883901 0.938210402 -0.544099086
v -0.000188994 0.833316675 -1.173118452
v 0.002830071 0.832471304 -1.159942481
v -0.001254546 0.826841128 -1.173346938
v 0.270402141 0.947610936 -0.555142531
v 0.271349299 0.978483912 -0.558493645
v 0.262647287 0.947949084 -0.529780689
v -0.009601374 0.837492812 -1.190711802
v -0.004806388 0.829799929 -1.193758269
v -0.003474448 0.837932405 -1.190102508
v 0.003540440 0.829461780 -1.173499261
v 0.253915676 0.957907563 -0.531608570
v -0.004303211 0.833823898 -1.172889967
v 0.249446276 0.971027733 -0.580961342
v -0.003474448 0.837932405 -1.190102508
v 0.003570038 0.832826360 -1.192006551
v -0.000188994 0.833316675 -1.173118452
v -0.006671105 0.862008592 -1.258876511
v 0.278660173 0.955388356 -0.535492816
v -0.008121440 0.848178311 -1.204116259
v -0.009512578 0.839082111 -1.223461327
v -0.021263254 0.865762043 -1.237932047
v 0.005138768 0.842784839 -1.218282332
v -0.009364585 0.863293557 -1.215159703
v -0.014840341 0.846927160 -1.212341721
v -0.021263254 0.844019082 -1.329630718
v 0.009726564 0.861602814 -1.242349425
v -0.015965091 0.835514642 -1.361237817
v -0.012738834 0.846724271 -1.359562260
v -0.008121440 0.848178311 -1.204116259
v -0.018332985 0.850274833 -1.359562260
v -0.009364585 0.863293557 -1.215159703
v -0.009127795 0.840772854 -1.400004116
v -0.014692347 0.860503831 -1.389036833
v -0.018332985 0.850274833 -1.359562260
v -0.008831809 0.855735934 -1.392159462
v -0.014692347 0.860503831 -1.389036833
v 0.004339604 0.913153583 -1.470758322
v -0.023364761 0.856885640 -1.393454211
v -0.023216767 0.847265309 -1.360628524
v -0.000484981 0.868670122 -1.434353036
v -0.010045355 0.882551126 -1.409067356
v -0.028070951 0.920626669 -1.453850428
v -0.010400539 0.906864017 -1.419577669
v 0.010466531 0.876379912 -1.416226555
v 0.004221209 0.906813295 -1.526356353
v -0.023216767 0.881367605 -1.423309592
v 0.021062858 0.906948554 -1.434505359
v 0.001794118 0.907979908 -1.540446265
v 0.010762518 0.912663267 -1.539760810
v -0.010045355 0.882551126 -1.409067356
v 0.002060506 0.918411795 -1.538389899
v -0.010400539 0.906864017 -1.419577669
v -0.002320099 0.960714198 -1.589951361
v -0.002645684 0.930263907 -1.573576598
v 0.002060506 0.918411795 -1.538389899
v -0.012354052 0.935522120 -1.559334363
v 0.002208499 0.933357968 -1.547910110
v 0.001646124 0.945497506 -1.553774560
v -0.020760077 0.960917087 -1.569844676
v -0.001728125 0.913863695 -1.535724240
v 0.014195965 0.953562353 -1.575632964
v 0.001646124 0.945497506 -1.553774560
v 0.002208499 0.933357968 -1.547910110
v -0.013005223 0.942893761 -1.700385806
v -0.005871941 0.949149512 -1.715770467
v -0.018392182 0.944246356 -1.724300575
v -0.015343518 0.932208262 -1.705107831
v -0.020464090 0.939292478 -1.704422375
v -0.013005223 0.942893761 -1.700385806
v -0.020464090 0.953410186 -1.740979985
v 0.012479241 0.935234693 -1.563980226
v -0.009897361 0.934879637 -1.730393510
v -0.018125794 0.937584827 -1.687819128
v 0.000580572 0.941388999 -1.723234312
v -0.004392007 0.954576799 -1.720187844
v -0.009778966 0.934541488 -1.700461968
v -0.004392007 0.954576799 -1.720187844
v -0.005871941 0.949149512 -1.715770467
v -0.006463914 0.864544708 -1.885458703
v 0.007506663 0.956994562 -1.750195549
v -0.007203881 0.949436938 -1.758344849
v -0.008743013 0.854535506 -1.903889831
v -0.013685992 0.863175205 -1.901757304
v -0.006907894 0.865322450 -1.903280538
v -0.019368939 0.868433418 -1.934735314
v -0.016527466 0.863648614 -1.917675097
v -0.008476624 0.868720844 -1.915161761
v 0.001024552 0.860655998 -1.916075701
v 0.000106993 0.858982162 -1.901148011
v -0.008476624 0.868720844 -1.915161761
v -0.009216591 0.874351020 -1.926586014
v -0.006907894 0.865322450 -1.903280538
v -0.020197702 0.878408804 -1.954689676
v -0.009275789 0.852134650 -1.919502977
v -0.007795855 0.880403882 -1.933059757
v 0.003570038 0.873539463 -1.945245627
v -0.008979802 0.855854286 -1.938467237
v 0.001468532 0.863344280 -1.931231877
v -0.007795855 0.880403882 -1.933059757
v 0.005020374 0.800042843 -2.006479623
v -0.009216591 0.874351020 -1.926586014
v -0.008358230 0.864071299 -1.961163420
v 0.005464354 0.788714862 -2.014324276
v 0.000906157 0.794412667 -2.015847510
v 0.008631413 0.795731447 -2.016075995
v -0.001520935 0.792180886 -2.084316866
v 0.005849137 0.796238670 -2.030242069
v 0.011591281 0.790321068 -2.031917626
v 0.010170544 0.792485220 -2.015466702
v 0.008631413 0.795731447 -2.016075995
v 0.003777229 0.783253760 -2.032146111
v 0.017599813 0.796644449 -2.072511805
v -0.001609731 0.803694849 -2.049967946
v 0.003629236 0.800178103 -2.042732585
v -0.005960737 0.790101272 -2.048901682
v 0.001586927 0.780075163 -2.054689970
v -0.011673282 0.794446482 -2.068779882
v 0.005849137 0.796238670 -2.030242069
v 0.013485596 0.791250977 -2.050577239
v -0.001609731 0.803694849 -2.049967946
v -0.005901539 0.732632900 -2.162230271
v 0.003629236 0.800178103 -2.042732585
v -0.002083310 0.791250977 -2.030699039
v -0.004510401 0.734999941 -2.186145041
v -0.007055888 0.724754035 -2.186373526
v -0.011821275 0.734611070 -2.180280591
v -0.003385651 0.742388490 -2.215619613
v 0.002178900 0.733681161 -2.186525849
v -0.004510401 0.734999941 -2.186145041
v 0.007240275 0.739767838 -2.217523655
v -0.007677460 0.730130600 -2.222017195
v -0.003415250 0.782053333 -2.296807971
v -0.020404893 0.760716150 -2.245246509
v -0.003385651 0.742388490 -2.215619613
v 0.000580572 0.759870778 -2.241209940
v -0.015846696 0.740342690 -2.215543451
v 0.010703320 0.782729630 -2.254614396
v 0.018043793 0.783760983 -2.282413412
v -0.006789500 0.746243385 -2.259945714
v 0.015113524 0.754223695 -2.250120857
v 0.010703320 0.782729630 -2.254614396
v -0.276936655 1.051253512 -1.438541929
v 0.000580572 0.759870778 -2.241209940
v -0.022151215 0.789746215 -2.276244315
v -0.147768014 0.941372092 -2.405414535
v -0.145696106 0.951567275 -2.422931723
v -0.145636909 0.942876854 -2.426435160
v -0.141759482 0.961728644 -2.440753557
v -0.153095776 0.952057591 -2.423845663
v -0.145696106 0.951567275 -2.422931723
v -0.150491093 0.965346835 -2.443114570
v -0.153480559 0.943857485 -2.427501424
v -0.150106310 0.954627521 -2.450883062
v -0.127226530 0.966428911 -2.468476411
v -0.140013160 0.949521476 -2.444104672
v -0.121543583 0.993632973 -2.457585290
v -0.141759482 0.961728644 -2.440753557
v -0.131666332 0.979363098 -2.454919631
v -0.121543583 0.993632973 -2.457585290
v -0.109496920 0.982812215 -2.476625712
v -0.132731884 1.005400548 -2.477691975
v -0.116689400 1.002712266 -2.495589972
v -0.139569180 0.973208792 -2.476625712
v -0.144630554 0.983860476 -2.462002668
v -0.131666332 0.979363098 -2.454919631
v -0.249913060 0.957806119 -1.139454987
v -0.248995501 0.957417248 -1.161998846
v -0.251274599 0.961542662 -1.161313391
v -0.254767243 0.963131961 -1.158114600
v -0.258496677 0.959649029 -1.188274628
v -0.225553346 0.986971444 -1.257200954
v -0.251274599 0.961542662 -1.161313391
v -0.257786309 0.953241111 -1.157886115
v -0.250830619 0.968136562 -1.186065939
v -0.237866397 0.971619493 -1.224832237
v -0.250830619 0.968136562 -1.186065939
v -0.236534456 0.999060260 -1.228564160
v -0.255477612 0.970689584 -1.184923514
v -0.244141317 0.983184179 -1.215235865
v -0.244141317 0.983184179 -1.215235865
v -0.245917238 0.961221421 -1.188731598
v -0.236534456 0.999060260 -1.228564160
v -0.255862395 0.989423022 -1.217444554
v -0.241359041 0.999770372 -1.265045608
v -0.309939183 1.011774651 -1.201145953
v -0.303220283 1.023964912 -1.235418712
v -0.317930827 1.017979680 -1.240597706
v -0.313313433 1.013211783 -1.185913616
v -0.310975137 1.018655977 -1.206324948
v -0.310975137 1.018655977 -1.206324948
v -0.255832796 0.976133778 -1.228487998
v -0.301148375 1.015037786 -1.236484975
v -0.250564231 1.005518900 -1.245852863
v -0.303220283 1.023964912 -1.235418712
v -0.289249706 1.024725746 -1.270453087
v -0.309288012 1.028901883 -1.238008209
v -0.320535511 1.012095892 -1.201069791
v -0.279186155 1.052825903 -1.271671674
v -0.288184153 1.035986098 -1.259333481
v -0.288184153 1.035986098 -1.259333481
v -0.269773774 1.036205895 -1.298023618
v -0.315414939 1.020549610 -1.205182522
v -0.279186155 1.052825903 -1.271671674
v -0.281258062 1.049630398 -1.310209488
v -0.301533158 1.048514507 -1.272814100
v -0.381597588 1.129619473 -1.209676062
v -0.387694917 1.123989297 -1.183095633
v -0.390595587 1.120895236 -1.161846523
v -0.390980370 1.132426107 -1.208228990
v -0.385297424 1.119052326 -1.184161897
v -0.387694917 1.123989297 -1.183095633
v -0.376447418 1.120692347 -1.210742325
v -0.288983318 1.061905196 -1.292083006
v -0.381597588 1.129619473 -1.209676062
v -0.303486671 1.032875130 -1.278373903
v -0.363305604 1.127556766 -1.235875682
v -0.389204449 1.122078757 -1.215921320
v -0.393022679 1.126018189 -1.181191591
v -0.361381690 1.152562862 -1.228183352
v -0.371030860 1.140085175 -1.227269411
v -0.371030860 1.140085175 -1.227269411
v -0.345309606 1.138191542 -1.254839942
v -0.393407462 1.118105509 -1.184542705
v -0.361381690 1.152562862 -1.228183352
v -0.356438710 1.157449111 -1.272585615
v -0.378430530 1.148741782 -1.235037903
v -0.424012497 1.201594423 -1.208609798
v -0.378341734 1.134438092 -1.247680743
v -0.366502262 1.168472758 -1.252250444
v -0.431056983 1.196589823 -1.205791816
v -0.421496610 1.196556008 -1.188655436
v -0.426587583 1.204181261 -1.206401109
v -0.424012497 1.201594423 -1.208609798
v -0.428393102 1.212753330 -1.228792645
v -0.423094938 1.198212936 -1.209371415
v -0.423538918 1.208340490 -1.230163555
v -0.434224042 1.203183722 -1.232600729
v -0.406756467 1.213767776 -1.283476736
v -0.423538918 1.208340490 -1.230163555
v -0.418181557 1.206734283 -1.259257320
v -0.405957302 1.228088374 -1.259638128
v -0.415843262 1.218687840 -1.248594683
v -0.415843262 1.218687840 -1.248594683
v -0.421496610 1.201611331 -1.233895478
v -0.405957302 1.228088374 -1.259638128
v -0.426528385 1.226296186 -1.249584785
v -0.418507143 1.236592814 -1.295586444
v -0.417263998 1.261277669 -1.358343673
v -0.424278885 1.244742197 -1.273118746
v -0.431412167 1.214748408 -1.259333481
v -0.422621359 1.258487942 -1.360171554
v -0.420016676 1.261294576 -1.345776995
v -0.419306307 1.263982858 -1.359486099
v -0.417263998 1.261277669 -1.358343673
v -0.407585230 1.267093826 -1.372052777
v -0.416228044 1.257676385 -1.357962865
v -0.410633894 1.256645031 -1.371443483
v -0.412972190 1.262613356 -1.369615603
v -0.407585230 1.267093826 -1.372052777
v -0.412972190 1.262613356 -1.369615603
v -0.415132893 1.267043104 -1.374870759
v -0.407259644 1.275361562 -1.390026935
v -0.404003789 1.263357283 -1.393301887
v -0.416405637 1.259705277 -1.377155610
v -0.401635895 1.256661939 -1.384010162
v -0.325685681 1.121064311 -1.348823463
v -0.316243702 1.117834991 -1.381953796
v -0.313816611 1.112306259 -1.379745107
v 0.211855952 1.033196371 -2.321865165
v 0.230266331 1.016863789 -2.322169812
v 0.247788750 1.011774651 -2.299092821
v 0.240921856 1.024522857 -2.335650431
v 0.114239504 0.819418764 -2.226053764
v 0.114920274 0.813957662 -2.227424674
v 0.111161241 0.810136582 -2.201377378
v 0.249357480 1.018977218 -2.297569587
v 0.256549959 1.015866250 -2.274873405
v 0.258148288 1.009458333 -2.275406537
v 0.260960162 1.018875774 -2.277539064
v 0.206794577 1.024455227 -2.340372455
v 0.239441922 1.037034359 -2.323007591
v 0.221179536 1.052758273 -2.345703773
v 0.264985583 1.011656299 -2.279747753
v 0.249357480 1.018977218 -2.297569587
v 0.231983054 1.026822268 -2.314705967
v 0.211855952 1.033196371 -2.321865165
v 0.206380196 1.043509907 -2.358803583
v 0.258681064 1.014987064 -2.305947373
v 0.253590091 1.024286153 -2.299702115
v 0.231983054 1.026822268 -2.314705967
v -0.310590354 1.130633919 -1.416455040
v -0.279067760 1.135148204 -1.432372832
v -0.328231168 1.115772283 -1.385000263
v -0.313905407 1.118443658 -1.423690400
v -0.299106066 1.112796575 -1.413484734
v -0.296442185 1.123448259 -1.411656854
v -0.287177798 1.132814978 -1.459562554
v -0.316243702 1.117834991 -1.381953796
v -0.279067760 1.135148204 -1.432372832
v -0.320180327 1.121098125 -1.383096221
v -0.380709628 1.185870509 -1.404573817
v -0.297922119 1.143128513 -1.445015672
v -0.277321438 1.116194969 -1.439912839
v -0.378104944 1.182810263 -1.404116847
v -0.380709628 1.185870509 -1.404573817
v -0.385652608 1.178701756 -1.410590590
v -0.388908463 1.181254779 -1.368244692
v -0.296442185 1.123448259 -1.411656854
v -0.388346088 1.189894478 -1.411580692
v -0.362772828 1.197130860 -1.429631012
v -0.341432179 1.194882172 -1.458343967
v -0.373309958 1.214951297 -1.541055558
v -0.343563284 1.206768098 -1.475861155
v -0.351643724 1.203268259 -1.437551827
v -0.374464307 1.204164353 -1.439912839
v -0.351643724 1.203268259 -1.437551827
v -0.369047748 1.188643328 -1.446005774
v -0.368189386 1.206801913 -1.539075355
v -0.359132190 1.186817325 -1.433591419
v -0.373309958 1.214951297 -1.541055558
v -0.362772828 1.197130860 -1.429631012
v -0.376003438 1.206835728 -1.546006068
v -0.351495731 1.213446535 -1.561314567
v -0.357326671 1.220446213 -1.463827609
v -0.330421470 1.225822778 -1.576318419
v -0.358895401 1.224656165 -1.554155368
v -0.374878688 1.215002019 -1.543111924
v -0.348417468 1.233076067 -1.560095980
v -0.383432707 1.207883989 -1.513789675
v -0.358895401 1.224656165 -1.554155368
v -0.364519150 1.227547336 -1.569463867
v -0.348417468 1.233076067 -1.560095980
v -0.325596885 1.162977842 -1.536942827
v -0.352354092 1.240853487 -1.578222461
v -0.344806429 1.232078528 -1.588885097
v -0.330332674 1.167999350 -1.534962624
v -0.360227341 1.218806192 -1.572967305
v -0.335186858 1.170146594 -1.536714342
v -0.312632663 1.168286776 -1.557963453
v -0.337761943 1.160796783 -1.507772902
v -0.294843856 1.171769708 -1.569463867
v -0.330332674 1.167999350 -1.534962624
v -0.307837677 1.193394317 -1.557201836
v -0.319469958 1.177670403 -1.553926883
v -0.333262944 1.163417435 -1.541207882
v -0.299224461 1.187425993 -1.592997828
v -0.325567287 1.183469653 -1.560324465
v -0.315503735 1.196471470 -1.574795185
v -0.307837677 1.193394317 -1.557201836
v -0.319469958 1.177670403 -1.553926883
v -0.320121129 1.172851784 -1.568854574
v -0.267405880 1.053857257 -1.459334069
v -0.269270597 1.056241205 -1.460324171
v -0.208474907 1.081551635 -1.527955748
v -0.264031630 1.071694601 -1.485457528
v -0.260095006 1.057137299 -1.492235918
v -0.256513565 1.066334944 -1.482487222
v -0.250830619 1.060383527 -1.484238941
v -0.269270597 1.056241205 -1.460324171
v -0.239849508 1.079827077 -1.495967840
v -0.224398997 1.092845802 -1.498633499
v -0.229075589 1.069293745 -1.508382195
v -0.250090652 1.088737295 -1.511200177
v -0.239849508 1.079827077 -1.495967840
v -0.271993675 1.049072453 -1.462913668
v -0.271786485 1.058168653 -1.460933465
v -0.232094654 1.110209737 -1.529555144
v -0.211405177 1.105864527 -1.541664852
v -0.224398997 1.092845802 -1.498633499
v -0.240500679 1.073486789 -1.521025035
v -0.256513565 1.066334944 -1.482487222
v -0.212737117 1.093031783 -1.599014602
v -0.220669564 1.091510114 -1.577765491
v -0.213269894 1.086759125 -1.596577428
v -0.334476489 1.169487204 -1.731916744
v -0.334150904 1.167052534 -1.701299746
v -0.326040866 1.162369174 -1.702594495
v -0.338561107 1.155927441 -1.735953313
v -0.336785186 1.157127869 -1.698786411
v -0.323584175 1.164093733 -1.731840582
v -0.312839854 1.175523159 -1.760020406
v -0.320061932 1.153137715 -1.733516139
v -0.305736171 1.189657774 -1.775557390
v -0.323584175 1.164093733 -1.731840582
v -0.305736171 1.189657774 -1.775557390
v -0.312839854 1.175523159 -1.760020406
v -0.290818436 1.174187471 -1.804041861
v -0.330924648 1.163383620 -1.777842241
v -0.331368628 1.181491483 -1.765656371
v -0.313224637 1.180663019 -1.826357235
v -0.325952069 1.198415825 -1.800690747
v -0.309998381 1.159765429 -1.768245868
v -0.141611489 0.923450211 -1.925748235
v -0.133264661 0.917549516 -1.931841170
v -0.218035281 1.088973999 -1.630469378
v -0.224014214 1.087249441 -1.599243087
v -0.212737117 1.093031783 -1.599014602
v -0.197375402 1.108806420 -1.643949997
v -0.219189630 1.094739434 -1.600309350
v -0.206610190 1.098323811 -1.624071796
v -0.206610190 1.098323811 -1.624071796
v -0.188998976 1.120810699 -1.651109195
v -0.214868222 1.100741574 -1.626661294
v -0.186690279 1.092930339 -1.653622531
v -0.197375402 1.108806420 -1.643949997
v -0.167599130 1.103142430 -1.682563971
v -0.202111191 1.087367793 -1.624300281
v -0.188998976 1.120810699 -1.651109195
v -0.173341274 1.121842053 -1.711429250
v -0.208622901 1.110987479 -1.652860914
v -0.121040406 1.039485937 -1.630545540
v -0.130393589 1.036324247 -1.597796015
v -0.204271895 1.098526700 -1.666646179
v -0.125006629 1.037507767 -1.612419058
v -0.200868046 1.124175279 -1.674643156
v -0.127966497 1.031285831 -1.614246939
v -0.131873523 1.040162234 -1.611885927
v -0.133294259 1.044017130 -1.633287360
v -0.134981384 1.034075558 -1.614856232
v -0.121040406 1.039485937 -1.630545540
v -0.125095425 1.031556350 -1.634201301
v -0.133560647 1.036848377 -1.637780900
v -0.125006629 1.037507767 -1.612419058
v -0.104731533 1.046248911 -1.681345384
v -0.107543407 1.053840349 -1.658573040
v -0.113522341 1.044355278 -1.646615656
v -0.107543407 1.053840349 -1.658573040
v -0.077885530 0.985314515 -1.572814982
v -0.132731884 1.054634999 -1.661238699
v -0.113522341 1.044355278 -1.646615656
v -0.116866992 1.037186526 -1.658268394
v -0.113344749 1.060873842 -1.700538129
v -0.085699581 0.979109487 -1.573500437
v -0.129979207 1.045471169 -1.666417694
v -0.077885530 0.985314515 -1.572814982
v -0.080164628 0.982812215 -1.559715172
v -0.076701583 0.979092579 -1.573500437
v -0.084989213 0.985703386 -1.571672556
v -0.125450609 1.067417020 -1.671444365
v -0.073978504 0.989778078 -1.590103684
v -0.073978504 0.989778078 -1.590103684
v -0.071551412 0.980107025 -1.592617020
v 0.080940989 0.860977239 -2.310669397
v 0.102340835 0.841381522 -2.283631999
v 0.102725617 0.852337540 -2.271826938
v 0.083220087 0.870952625 -2.282794220
v 0.119952049 0.838541073 -2.250273180
v 0.132857074 0.831000357 -2.255376013
v 0.093875612 0.885983335 -2.323312237
v 0.114328300 0.864696875 -2.273121686
v 0.102725617 0.852337540 -2.271826938
v 0.083220087 0.870952625 -2.282794220
v 0.114357899 0.821802712 -2.254157426
v 0.118353721 0.822394472 -2.224378207
v 0.128269279 0.816409240 -2.223692752
v 0.114180307 0.832572748 -2.251187121
v 0.114180307 0.832572748 -2.251187121
v 0.114239504 0.819418764 -2.226053764
v -0.050092369 0.997876740 -1.638314032
v -0.066460439 0.998028907 -1.608154004
v -0.083834865 0.981797769 -1.593530960
v -0.078803089 1.003473101 -1.620492197
v -0.083390884 0.992398731 -1.593987930
v -0.059327157 1.009813389 -1.615160879
v -0.066460439 0.998028907 -1.608154004
v -0.076109609 0.989490652 -1.625975839
v -0.059327157 1.009813389 -1.615160879
v -0.072528169 1.015206860 -1.636714636
v -0.058942374 1.005671067 -1.651185357
v -0.189235765 0.936113880 -1.341588102
v -0.062405420 0.985517405 -1.616836436
v -0.187252654 0.941135388 -1.364893578
v -0.187252654 0.941135388 -1.364893578
v -0.184381582 0.937770808 -1.366036004
v -0.174939603 0.944381615 -1.393149564
v -0.163248124 0.958837472 -1.418663729
v -0.169256656 0.967071393 -1.407087152
v -0.178077063 0.950147051 -1.390331581
v -0.178077063 0.950147051 -1.390331581
v -0.191100482 0.953697612 -1.388732186
v -0.156825210 0.983843569 -1.414322513
v -0.195066705 0.943316447 -1.362456404
v -0.169256656 0.967071393 -1.407087152
v -0.193083594 0.933290338 -1.364588932
v -0.180740944 0.966327466 -1.426127574
v -0.156825210 0.983843569 -1.414322513
v -0.190301318 0.943874392 -1.396424516
v -0.175768366 1.001359671 -1.437018695
v -0.163988091 0.991823878 -1.457430027
v -0.181599306 0.979143302 -1.412951602
v -0.114055117 0.935251601 -1.431687377
v -0.143002626 0.981375083 -1.447452846
v -0.111568828 0.940205479 -1.451489415
v -0.111568828 0.940205479 -1.451489415
v -0.110088894 0.933002912 -1.453164973
v -0.117370169 0.951888517 -1.478069844
v -0.119471676 0.932901467 -1.452022547
v -0.119501274 0.939732071 -1.447757493
v -0.115594249 0.942521798 -1.484695911
v -0.105471500 0.951076960 -1.477993682
v -0.076849576 0.983116549 -1.539836971
v -0.077915128 0.979312376 -1.503660171
v -0.102245244 0.939951867 -1.484162779
v -0.089073831 0.956166098 -1.513028058
v -0.105471500 0.951076960 -1.477993682
v -0.091560120 0.964653630 -1.496348649
v -0.102748421 0.995983107 -1.519577963
v -0.091560120 0.964653630 -1.496348649
v -0.104287553 0.995881662 -1.519501801
v -0.098219823 0.987935168 -1.540293942
v -0.107632204 0.961661014 -1.514094322
v -0.111687223 0.970503602 -1.503279362
v -0.077915128 0.979312376 -1.503660171
v -0.136017338 0.862414371 -1.219577081
v -0.128232885 0.868078362 -1.238312856
v -0.130748773 0.871240052 -1.235266388
v -0.120803616 0.900675896 -1.271138543
v -0.132761483 0.885493020 -1.257429439
v -0.137793259 0.876751876 -1.265045608
v -0.125628201 0.885357760 -1.255068427
v -0.122046761 0.878019933 -1.266035710
v -0.130748773 0.871240052 -1.235266388
v -0.114439900 0.910871079 -1.276546022
v -0.120803616 0.900675896 -1.271138543
v -0.133619845 0.906187720 -1.275251274
v -0.114439900 0.910871079 -1.276546022
v -0.134596601 0.872795536 -1.235418712
v -0.104080362 0.908757650 -1.303811906
v -0.139569180 0.865204098 -1.237398916
v -0.127463319 0.926037049 -1.295662606
v -0.112723177 0.919747483 -1.313712925
v -0.113611137 0.891714956 -1.285533101
v -0.129328036 0.898089059 -1.291473713
v -0.125628201 0.885357760 -1.255068427
v -0.164668860 1.047161912 -1.816684701
v -0.160791433 1.065760091 -1.800309938
v -0.161679394 1.054043238 -1.817141671
v -0.165852808 1.038894177 -1.843874423
v -0.162064177 1.013313228 -1.870378690
v -0.149928718 1.034768763 -1.890485375
v -0.174702813 1.050678659 -1.816303892
v -0.167569531 1.028749716 -1.840294824
v -0.165852808 1.038894177 -1.843874423
v -0.148152797 1.001647098 -1.903585185
v -0.161679394 1.054043238 -1.817141671
v -0.157890763 1.030237570 -1.870607175
v -0.170588597 1.059605785 -1.819731168
v -0.168960669 1.034346077 -1.908764179
v -0.157890763 1.030237570 -1.870607175
v -0.176034754 1.047956562 -1.847073214
v -0.164550466 1.011859188 -1.925138942
v -0.174762010 1.039384492 -1.877994858
v -0.179201813 1.020566517 -1.880051224
v -0.149928718 1.034768763 -1.890485375
v -0.182013687 1.034278447 -1.842731997
v -0.098634205 0.935386860 -1.806936005
v -0.092181692 0.921776375 -1.818969551
v -0.093247245 0.929148017 -1.822168342
v -0.096207113 0.910059522 -1.842503512
v -0.089133028 0.922773914 -1.840599470
v -0.102393237 0.918124369 -1.843188968
v -0.102570829 0.927169847 -1.821635210
v -0.093247245 0.929148017 -1.822168342
v -0.100262132 0.921539671 -1.819350360
v -0.092507278 0.921100078 -1.870911821
v -0.081230181 0.925090232 -1.858954437
v -0.071640208 0.935657379 -1.876243139
v -0.069153919 0.912274396 -1.862686359
v -0.052667454 0.918394888 -1.887438907
v -0.081230181 0.925090232 -1.858954437
v -0.089133028 0.922773914 -1.840599470
v -0.065750071 0.920745021 -1.913029234
v -0.083213292 0.933036727 -1.898786999
v -0.083746069 0.909738281 -1.873958289
v -0.071640208 0.935657379 -1.876243139
v -0.081940549 0.914387826 -1.838162296
v -0.323524978 1.156924980 -1.701756716
v -0.325774477 1.169267408 -1.672205982
v -0.326040866 1.162369174 -1.702594495
v -0.132583891 0.930889482 -1.925138942
v -0.134951785 0.912088415 -1.968931912
v -0.129535227 0.940560535 -1.981346266
v -0.162863341 0.912933786 -1.975710302
v -0.133767838 0.931903928 -1.959792509
v -0.150846277 0.934203340 -1.926662176
v -0.129535227 0.940560535 -1.981346266
v -0.156351631 0.921319874 -2.022397415
v -0.132583891 0.930889482 -1.925138942
v -0.128144089 0.916112384 -2.005032551
v -0.153036579 0.917329720 -1.928109248
v -0.162271367 0.950738811 -1.996350119
v -0.247663560 1.090952169 -1.851490591
v -0.261367749 1.084831678 -1.872130408
v -0.162241769 0.940831054 -1.968322618
v -0.133767838 0.931903928 -1.959792509
v -0.254086474 1.075938367 -1.866342120
v -0.251215402 1.080537189 -1.869236264
v -0.263439657 1.057593800 -1.901909628
v -0.259799019 1.069462819 -1.903204376
v -0.251215402 1.080537189 -1.869236264
v -0.263558051 1.076191978 -1.868093839
v -0.249409882 1.047533876 -1.977918990
v -0.276640668 1.065455757 -1.903585185
v -0.272141669 1.063798828 -1.989952537
v -0.269507386 1.075667848 -1.906174682
v -0.259976611 1.050644844 -1.941209058
v -0.248166738 1.074027827 -1.951947855
v -0.271253708 1.077865814 -1.939228854
v -0.248166738 1.074027827 -1.951947855
v -0.254974434 1.065421942 -1.935649255
v -0.259799019 1.069462819 -1.903204376
v -0.272260063 1.083884861 -1.972130702
v -0.278890168 1.061195083 -1.946464214
v -0.121839570 0.832150062 -1.988733950
v -0.134448608 0.834195862 -1.992085064
v -0.254974434 1.065421942 -1.935649255
v -0.121839570 0.832150062 -1.988733950
v -0.123378701 0.831507580 -1.975253331
v -0.124562649 0.834753807 -2.021407313
v -0.118820505 0.825775959 -2.023768326
v -0.121987563 0.826502979 -1.995664663
v -0.132761483 0.825167292 -1.994598400
v -0.133827036 0.826418442 -2.026662470
v -0.124562649 0.834753807 -2.021407313
v -0.138059647 0.839690778 -2.021254990
v -0.093306442 0.843275154 -2.095055664
v -0.108786552 0.831321598 -2.057203306
v -0.134271016 0.851001852 -2.053090575
v -0.108964144 0.853335078 -2.115466996
v -0.102807619 0.861112498 -2.065657253
v -0.116866992 0.845033528 -2.048901682
v -0.102807619 0.861112498 -2.065657253
v -0.126101780 0.868923733 -2.084773836
v -0.127581714 0.833671731 -2.066190385
v -0.266429123 0.942859946 -2.005489521
v -0.275338326 0.947019175 -2.003661640
v -0.116866992 0.845033528 -2.048901682
v -0.267405880 0.949115697 -1.979899194
v -0.264860393 0.936942344 -2.001833760
v -0.259473434 0.940273109 -2.034964093
v -0.253405704 0.932411151 -2.033212375
v -0.266429123 0.942859946 -2.005489521
v -0.274213576 0.935606657 -2.004118611
v -0.233189805 0.934981082 -2.065504930
v -0.224990971 0.964738167 -2.072054835
v -0.243401350 0.949893439 -2.059411995
v -0.259473434 0.940273109 -2.034964093
v -0.243401350 0.949893439 -2.059411995
v -0.239642318 0.973732922 -2.092009196
v -0.254826441 0.936587288 -2.080965752
v -0.208741295 0.944533782 -2.095436472
v -0.270158557 0.930754223 -2.039838441
v -0.273236820 0.944516875 -2.037096621
v -0.259266243 0.955523615 -2.069846146
v -0.224990971 0.964738167 -2.072054835
v -0.344984021 1.123684963 -1.960554126
v -0.346463955 1.109871589 -1.962762815
v -0.222919063 0.952277388 -2.118056493
v -0.347588705 1.122822684 -1.946464214
v -0.359901756 1.112864205 -1.997264059
v -0.341432179 1.110328089 -1.998634969
v -0.362269650 1.101417871 -1.995588502
v -0.344984021 1.123684963 -1.960554126
v -0.344658435 1.097410809 -1.994903046
v -0.336104417 1.090867632 -2.034887932
v -0.340277831 1.110159015 -2.020264888
v -0.341432179 1.110328089 -1.998634969
v -0.357356269 1.112695130 -1.962458168
v -0.353419645 1.121537719 -1.958345437
v -0.340277831 1.110159015 -2.020264888
v -0.322577820 1.094316749 -2.060249773
v -0.354248408 1.116245692 -2.034278638
v -0.341076995 1.105205137 -2.074948979
v -0.329503911 1.115383412 -2.036791974
v -0.329503911 1.115383412 -2.036791974
v -0.357149079 1.096413270 -2.038543693
v -0.348654257 1.121554626 -2.058345731
v -0.306949717 1.000615744 -2.174111494
v -0.325360096 0.994444530 -2.127424380
v -0.320417116 0.996591775 -2.151643797
v -0.306949717 1.000615744 -2.174111494
v -0.303989849 0.991265933 -2.174416141
v -0.319351564 0.991739341 -2.151567635
v -0.329711102 0.989659726 -2.153928647
v -0.320417116 0.996591775 -2.151643797
v -0.315770123 1.009052554 -2.176244021
v -0.317901228 0.993802048 -2.184545645
v -0.281287661 0.994393808 -2.193761209
v -0.283833147 1.008274812 -2.189267670
v -0.326840030 1.002458654 -2.150044401
v -0.283833147 1.008274812 -2.189267670
v -0.253228112 1.001224412 -2.207241828
v -0.259591828 1.019484441 -2.231765891
v -0.293186330 1.019467534 -2.197721617
v -0.262729288 1.017337197 -2.191247874
v -0.262729288 1.017337197 -2.191247874
v -0.212056348 0.867131545 -2.183555543
v -0.211020394 0.858948347 -2.157736732
v -0.205811026 0.880150270 -2.207089504
v -0.262610894 1.035580320 -2.209907487
v -0.219041636 0.869988902 -2.181042208
v -0.205811026 0.880150270 -2.207089504
v -0.201519217 0.876447542 -2.208917385
v -0.212056348 0.867131545 -2.183555543
v -0.209599657 0.865305542 -2.184393322
v -0.294873455 1.003337841 -2.211735367
v -0.216348156 0.886270762 -2.208079606
v -0.211760361 0.871916349 -2.215543451
v -0.181688102 0.889855138 -2.229100232
v -0.190153324 0.899610728 -2.222626488
v -0.214957018 0.859235773 -2.186449687
v -0.190153324 0.899610728 -2.222626488
v -0.156114842 0.910718912 -2.246693581
v -0.166651972 0.927203662 -2.267485721
v -0.202732763 0.906339887 -2.234507711
v -0.170884583 0.918952833 -2.225215986
v -0.170884583 0.918952833 -2.225215986
v -0.258171092 1.009458333 -2.275406537
v -0.184322384 0.935505212 -2.251491767
v -0.256543164 1.015866250 -2.274873405
v -0.195658679 0.893557866 -2.243951760
v -0.262581295 1.012535486 -2.259793391
v -0.249350685 1.018977218 -2.297645749
v -0.260982966 1.018875774 -2.277539064
v -0.249350685 1.018977218 -2.297645749
v -0.247811553 1.011774651 -2.299092821
v -0.256543164 1.015866250 -2.274873405
v -0.264978788 1.011656299 -2.279747753
v -0.253612895 1.024286153 -2.299702115
v -0.258674269 1.014987064 -2.305947373
v -0.230259536 1.016863789 -2.322169812
v -0.231976260 1.026822268 -2.314705967
v -0.211849157 1.033196371 -2.321865165
v -0.231976260 1.026822268 -2.314705967
v -0.206787783 1.024455227 -2.340372455
v -0.239435127 1.037034359 -2.323007591
v -0.206373401 1.043509907 -2.358803583
v -0.211849157 1.033196371 -2.321865165
v 0.084048850 0.893287347 -2.462535800
v 0.090116580 0.902468084 -2.451416194
v 0.077833127 0.918919018 -2.455605086
v 0.077833127 0.918919018 -2.455605086
v 0.087719087 0.935488305 -2.471294394
v 0.077211555 0.928522441 -2.489725522
v 0.102755216 0.907709389 -2.456899835
v 0.065431280 0.906187720 -2.478225107
v 0.104827124 0.877005487 -2.449740636
v 0.090116580 0.902468084 -2.451416194
v 0.105774282 0.861501369 -2.426358999
v 0.094289994 0.877445080 -2.444713965
v 0.098522605 0.883328868 -2.439991941
v 0.108230972 0.886203132 -2.440296587
v 0.098522605 0.883328868 -2.439991941
v 0.098700197 0.855989546 -2.401911098
v 0.097960230 0.864493985 -2.424607280
v 0.100416920 0.868365788 -2.422017783
v 0.107964584 0.869515493 -2.420113741
v 0.100416920 0.868365788 -2.422017783
v 0.102281637 0.894335608 -2.298178881
v 0.123207904 0.855161081 -2.289191802
v -0.118346926 0.822411380 -2.224149722
v -0.111154446 0.810119675 -2.201453539
v -0.128292082 0.816409240 -2.223692752
v -0.114943078 0.813957662 -2.227500836
v -0.240915061 1.024522857 -2.335650431
v -0.221202340 1.052758273 -2.345703773
v -0.114380703 0.821802712 -2.254157426
v -0.114262308 0.819418764 -2.226129926
v -0.114262308 0.819418764 -2.226129926
v -0.114173512 0.832572748 -2.251187121
v -0.083213292 0.870952625 -2.282870382
v -0.132850279 0.831000357 -2.255376013
v -0.114173512 0.832572748 -2.251187121
v -0.102334040 0.841381522 -2.283631999
v -0.102718823 0.852337540 -2.271826938
v -0.102718823 0.852337540 -2.271826938
v -0.080963793 0.860977239 -2.310745559
v -0.119974853 0.838541073 -2.250273180
v -0.114321505 0.864696875 -2.273197848
v -0.093868817 0.885983335 -2.323312237
v -0.083213292 0.870952625 -2.282870382
v -0.097953435 0.864477078 -2.424454957
v -0.123201109 0.855161081 -2.289191802
v -0.100410126 0.868365788 -2.421941621
v -0.102304441 0.894335608 -2.298178881
v -0.098723001 0.855989546 -2.401911098
v -0.098515810 0.883328868 -2.439991941
v -0.098515810 0.883328868 -2.439991941
v -0.107957789 0.869515493 -2.420113741
v -0.100410126 0.868365788 -2.421941621
v -0.094283199 0.877445080 -2.444713965
v -0.105797085 0.861501369 -2.426282837
v -0.104849928 0.877005487 -2.449740636
v -0.108224177 0.886203132 -2.440296587
v -0.084042055 0.893287347 -2.462535800
v -0.090109785 0.902468084 -2.451416194
v -0.077826332 0.918919018 -2.455605086
v -0.090109785 0.902468084 -2.451416194
v -0.065454084 0.906187720 -2.478225107
v -0.102748421 0.907709389 -2.456975997
v -0.077234359 0.928522441 -2.489725522
v -0.077826332 0.918919018 -2.455605086
v -0.223303846 0.976083056 -2.371522585
v -0.211937953 0.966412003 -2.370532483
v -0.214838624 0.973428589 -2.371141776
v -0.087712292 0.935488305 -2.471294394
v -0.214838624 0.973428589 -2.371141776
v -0.214069058 0.989304670 -2.397569881
v -0.204863868 0.982119010 -2.394294929
v -0.219722406 0.967629338 -2.344332863
v -0.096799087 0.898410300 -2.472056011
v -0.200956843 0.972329605 -2.395208869
v -0.211464374 0.975744907 -2.403967463
v -0.221113544 0.966293651 -2.374188244
v -0.190123726 0.998248703 -2.408841811
v -0.190123726 0.998248703 -2.408841811
v -0.204863868 0.982119010 -2.394294929
v -0.181125727 0.984486051 -2.414096967
v -0.167362340 1.015764806 -2.407547062
v -0.152355809 1.001934524 -2.423845663
v -0.199299316 1.009576685 -2.418362022
v -0.161916183 1.019433719 -2.449816798
v -0.167362340 1.015764806 -2.407547062
v 0.276943450 1.051253512 -1.438541929
v 0.153072973 0.952057591 -2.423845663
v 0.147774809 0.941372092 -2.405414535
v 0.145673303 0.951567275 -2.422931723
v -0.173548465 1.031218201 -2.435422239
v -0.192195633 0.992956676 -2.429786275
v 0.153457755 0.943857485 -2.427577586
v 0.145673303 0.951567275 -2.422931723
v 0.145643704 0.942876854 -2.426435160
v 0.139990356 0.949521476 -2.444104672
v 0.109474117 0.982812215 -2.476625712
v 0.141766277 0.961728644 -2.440753557
v 0.141766277 0.961728644 -2.440753557
v 0.121550378 0.993632973 -2.457585290
v 0.127203726 0.966428911 -2.468476411
v 0.131643528 0.979363098 -2.454919631
v 0.150113105 0.954627521 -2.450883062
v 0.150468289 0.965346835 -2.443190731
v 0.121550378 0.993632973 -2.457585290
v 0.116696195 1.002712266 -2.495589972
v 0.131643528 0.979363098 -2.454919631
v 0.254774038 0.963131961 -1.158114600
v 0.139575974 0.973208792 -2.476625712
v 0.251251795 0.961542662 -1.161313391
v 0.249890256 0.957806119 -1.139454987
v 0.132738679 1.005400548 -2.477691975
v 0.144637349 0.983860476 -2.462002668
v 0.257793104 0.953241111 -1.157886115
v 0.248972697 0.957417248 -1.161922685
v 0.251251795 0.961542662 -1.161313391
v 0.250807815 0.968136562 -1.186065939
v 0.225530542 0.986971444 -1.257200954
v 0.250807815 0.968136562 -1.186065939
v 0.245924033 0.961221421 -1.188731598
v 0.236511652 0.999060260 -1.228564160
v 0.237873192 0.971619493 -1.224832237
v 0.244118513 0.983184179 -1.215235865
v 0.258503472 0.959649029 -1.188274628
v 0.255454808 0.970689584 -1.184923514
v 0.236511652 0.999060260 -1.228564160
v 0.255839591 0.989423022 -1.217444554
v 0.244118513 0.983184179 -1.215235865
v 0.320542306 1.012095892 -1.201069791
v 0.250541427 1.005518900 -1.245852863
v 0.310981932 1.018655977 -1.206324948
v 0.313320228 1.013211783 -1.185913616
v 0.255839591 0.976133778 -1.228487998
v 0.241365836 0.999770372 -1.264969446
v 0.315392135 1.020549610 -1.205182522
v 0.310981932 1.018655977 -1.206324948
v 0.309945978 1.011774651 -1.201069791
v 0.303227078 1.023964912 -1.235418712
v 0.269780569 1.036205895 -1.298023618
v 0.303227078 1.023964912 -1.235418712
v 0.301155170 1.015037786 -1.236484975
v 0.279192949 1.052825903 -1.271671674
v 0.289226902 1.024725746 -1.270453087
v 0.288161350 1.035986098 -1.259333481
v 0.309265209 1.028901883 -1.238008209
v 0.317937622 1.017979680 -1.240597706
v 0.279192949 1.052825903 -1.271671674
v 0.281235258 1.049630398 -1.310209488
v 0.288161350 1.035986098 -1.259333481
v 0.392674290 1.125849115 -1.183628765
v 0.303493466 1.032875130 -1.278373903
v 0.387376126 1.123820223 -1.185380484
v 0.390188001 1.120743069 -1.165197637
v 0.288990113 1.061905196 -1.292083006
v 0.301539953 1.048514507 -1.272814100
v 0.393147869 1.117936435 -1.186522909
v 0.385037830 1.118866344 -1.186218262
v 0.387376126 1.123820223 -1.185380484
v 0.381367594 1.129467306 -1.210894649
v 0.345227605 1.138107005 -1.254916103
v 0.381367594 1.129467306 -1.210894649
v 0.376276621 1.120523273 -1.211656266
v 0.361062899 1.152512140 -1.229249615
v 0.363194004 1.127421506 -1.236256490
v 0.370800865 1.139966823 -1.228031028
v 0.389063251 1.121926590 -1.216682937
v 0.390720777 1.132273940 -1.209523738
v 0.361062899 1.152512140 -1.229249615
v 0.356297512 1.157432203 -1.272509453
v 0.370800865 1.139966823 -1.228031028
v 0.427837522 1.199193568 -1.209066768
v 0.378259732 1.134319740 -1.247833067
v 0.420437852 1.204570132 -1.211884751
v 0.417744372 1.199464086 -1.193377461
v 0.366094675 1.168658740 -1.252707415
v 0.378200535 1.148674152 -1.235723359
v 0.422628154 1.207275321 -1.209980709
v 0.419875477 1.200985756 -1.212494044
v 0.420437852 1.204570132 -1.211884751
v 0.420053069 1.211502180 -1.232143759
v 0.404720953 1.216202447 -1.283172089
v 0.420053069 1.211502180 -1.232143759
v 0.418809924 1.204282705 -1.235494873
v 0.401820282 1.232399770 -1.260399745
v 0.415909254 1.209304214 -1.259638128
v 0.412120623 1.222373661 -1.249813270
v 0.431300568 1.205838189 -1.234200125
v 0.424374476 1.216151725 -1.231001334
v 0.401820282 1.232399770 -1.260399745
v 0.421947385 1.230387785 -1.250879534
v 0.412120623 1.222373661 -1.249813270
v 0.416560425 1.265707417 -1.344786893
v 0.414310925 1.265031119 -1.357582056
v 0.414310925 1.265031119 -1.357582056
v 0.418750727 1.249932780 -1.273499555
v 0.413482162 1.261125502 -1.357277410
v 0.410344702 1.265944121 -1.369006309
v 0.416205241 1.267956105 -1.358724482
v 0.428429496 1.217825561 -1.259790451
v 0.415021293 1.240633691 -1.294977150
v 0.399837170 1.258842998 -1.383629353
v 0.419875477 1.261937059 -1.359486099
v 0.408420788 1.259367128 -1.370910352
v 0.404809749 1.270644388 -1.371367322
v 0.414192530 1.262478097 -1.376622478
v 0.412446208 1.270509128 -1.374185304
v 0.404809749 1.270644388 -1.371367322
v 0.404661755 1.278759956 -1.389417641
v 0.410344702 1.265944121 -1.369006309
v 0.325692476 1.121064311 -1.348823463
v 0.313823405 1.112306259 -1.379745107
v 0.402145867 1.265656694 -1.392921079
v 0.277328233 1.116194969 -1.439912839
v 0.320157523 1.121098125 -1.383096221
v 0.296448980 1.123448259 -1.411656854
v 0.328237963 1.115772283 -1.385000263
v 0.316220899 1.117834991 -1.381953796
v 0.316220899 1.117834991 -1.381953796
v 0.296448980 1.123448259 -1.411656854
v 0.279074555 1.135148204 -1.432372832
v 0.299112861 1.112796575 -1.413484734
v 0.279074555 1.135148204 -1.432372832
v 0.380657226 1.185988861 -1.404573817
v 0.287184593 1.132814978 -1.459562554
v 0.310567551 1.130633919 -1.416455040
v 0.378052542 1.182911708 -1.404116847
v 0.380657226 1.185988861 -1.404573817
v 0.388796863 1.181423853 -1.368168531
v 0.297899315 1.143128513 -1.445015672
v 0.313912201 1.118443658 -1.423690400
v 0.388293685 1.190029738 -1.411580692
v 0.362750024 1.197249212 -1.429631012
v 0.385629804 1.178752479 -1.410590590
v 0.369054543 1.188660236 -1.446005774
v 0.359138985 1.186851140 -1.433591419
v 0.343540480 1.206768098 -1.475861155
v 0.362750024 1.197249212 -1.429631012
v 0.351591321 1.203386611 -1.437551827
v 0.341409375 1.194882172 -1.458343967
v 0.357274268 1.220581473 -1.463827609
v 0.374411904 1.204282705 -1.439912839
v 0.351591321 1.203386611 -1.437551827
v 0.383409903 1.207883989 -1.513789675
v 0.330428265 1.225822778 -1.576318419
v 0.368166582 1.206801913 -1.539075355
v 0.373316753 1.214951297 -1.541055558
v 0.358902196 1.224723794 -1.554155368
v 0.351472927 1.213531072 -1.561238405
v 0.374885483 1.215002019 -1.543111924
v 0.376010233 1.206835728 -1.546006068
v 0.373316753 1.214951297 -1.541055558
v 0.358902196 1.224723794 -1.554155368
v 0.348424263 1.233177512 -1.560095980
v 0.348424263 1.233177512 -1.560095980
v 0.330309870 1.168066980 -1.534962624
v 0.364525945 1.227631873 -1.569463867
v 0.344783625 1.232078528 -1.588808936
v 0.325603680 1.163045472 -1.536866666
v 0.352360887 1.241005654 -1.578146300
v 0.330309870 1.168066980 -1.534962624
v 0.360234136 1.218907637 -1.572891143
v 0.319476753 1.177670403 -1.553926883
v 0.337768738 1.160796783 -1.507772902
v 0.294850651 1.171769708 -1.569463867
v 0.312609860 1.168286776 -1.557963453
v 0.307814873 1.193394317 -1.557201836
v 0.335164054 1.170214224 -1.536638181
v 0.299231256 1.187425993 -1.592997828
v 0.307814873 1.193394317 -1.557201836
v 0.325574081 1.183469653 -1.560324465
v 0.319476753 1.177670403 -1.553926883
v 0.333269738 1.163485065 -1.541207882
v 0.315480931 1.196471470 -1.574795185
v 0.269277392 1.056241205 -1.460324171
v 0.320127924 1.172851784 -1.568854574
v 0.211471169 0.975744907 -2.403967463
v 0.152362604 1.001934524 -2.423845663
v 0.223281042 0.976083056 -2.371522585
v 0.199276513 1.009576685 -2.418362022
v 0.173555259 1.031218201 -2.435422239
v 0.192202428 0.992973583 -2.429786275
v 0.161922978 1.019433719 -2.449816798
v 0.214815820 0.973428589 -2.370989453
v 0.219729201 0.967629338 -2.344332863
v 0.096805881 0.898410300 -2.472056011
v 0.211944748 0.966412003 -2.370532483
v 0.214075853 0.989304670 -2.397569881
v 0.190100922 0.998248703 -2.408841811
v 0.167369135 1.015764806 -2.407547062
v 0.214815820 0.973428589 -2.370989453
v 0.221090740 0.966293651 -2.374188244
v 0.204841065 0.982119010 -2.394294929
v 0.181132522 0.984486051 -2.414096967
v 0.167369135 1.015764806 -2.407547062
v 0.200963637 0.972346513 -2.395208869
v 0.204841065 0.982119010 -2.394294929
v 0.190100922 0.998248703 -2.408841811
v 0.208452104 1.081551635 -1.527955748
v 0.271763681 1.058168653 -1.460933465
v 0.272000470 1.049072453 -1.462913668
v 0.224405792 1.092845802 -1.498633499
v 0.256520360 1.066334944 -1.482487222
v 0.250837414 1.060383527 -1.484238941
v 0.239826705 1.079827077 -1.495967840
v 0.267412675 1.053857257 -1.459334069
v 0.260072202 1.057137299 -1.492235918
v 0.269277392 1.056241205 -1.460324171
v 0.250067848 1.088737295 -1.511200177
v 0.229082384 1.069293745 -1.508382195
v 0.256520360 1.066334944 -1.482487222
v 0.211411972 1.105847619 -1.541664852
v 0.224405792 1.092845802 -1.498633499
v 0.232101449 1.110209737 -1.529555144
v 0.239826705 1.079827077 -1.495967840
v 0.264038425 1.071694601 -1.485457528
v 0.240507474 1.073486789 -1.521025035
v 0.213247090 1.086742218 -1.596577428
v 0.220676358 1.091510114 -1.577765491
v 0.202117986 1.087367793 -1.624300281
v 0.212714313 1.093031783 -1.599014602
v 0.212714313 1.093031783 -1.599014602
v 0.206587387 1.098323811 -1.624071796
v 0.224021009 1.087249441 -1.599243087
v 0.214875017 1.100741574 -1.626661294
v 0.186697073 1.092930339 -1.653622531
v 0.219196424 1.094705620 -1.600385512
v 0.197382197 1.108806420 -1.643949997
v 0.206587387 1.098323811 -1.624071796
v 0.189005771 1.120810699 -1.651109195
v 0.197382197 1.108806420 -1.643949997
v 0.218042076 1.088973999 -1.630469378
v 0.208629696 1.110987479 -1.652860914
v 0.173348069 1.121842053 -1.711429250
v 0.200874841 1.124175279 -1.674643156
v 0.189005771 1.120810699 -1.651109195
v 0.167576326 1.103142430 -1.682640133
v 0.204278690 1.098526700 -1.666646179
v 0.125013424 1.037507767 -1.612419058
v 0.130370785 1.036341154 -1.597796015
v 0.133537844 1.036848377 -1.637780900
v 0.121047201 1.039452122 -1.630621701
v 0.133271456 1.044017130 -1.633287360
v 0.125102220 1.031539443 -1.634277462
v 0.121047201 1.039452122 -1.630621701
v 0.127973292 1.031268924 -1.614246939
v 0.113499537 1.044355278 -1.646615656
v 0.116844188 1.037186526 -1.658268394
v 0.107520604 1.053840349 -1.658573040
v 0.107520604 1.053840349 -1.658573040
v 0.125013424 1.037507767 -1.612419058
v 0.113499537 1.044355278 -1.646615656
v 0.131880318 1.040162234 -1.611962088
v 0.132709081 1.054634999 -1.661238699
v 0.113351544 1.060873842 -1.700538129
v 0.104738328 1.046248911 -1.681269223
v 0.125457404 1.067417020 -1.671444365
v 0.134958580 1.034058650 -1.614856232
v 0.077892325 0.985297608 -1.572814982
v 0.129986002 1.045471169 -1.666417694
v 0.080171423 0.982812215 -1.559715172
v 0.084966409 0.985703386 -1.571672556
v 0.050099164 0.997876740 -1.638314032
v 0.059333952 1.009813389 -1.615160879
v 0.085676778 0.979109487 -1.573500437
v 0.073985299 0.989778078 -1.590103684
v 0.071558207 0.980107025 -1.592617020
v 0.066467234 0.998028907 -1.608154004
v 0.076708377 0.979075672 -1.573500437
v 0.083397679 0.992398731 -1.593987930
v 0.077892325 0.985297608 -1.572814982
v 0.078809884 1.003473101 -1.620492197
v 0.062412215 0.985517405 -1.616836436
v 0.073985299 0.989778078 -1.590103684
v 0.058919571 1.005654160 -1.651185357
v 0.059333952 1.009813389 -1.615160879
v 0.072534964 1.015206860 -1.636714636
v 0.066467234 0.998028907 -1.608154004
v 0.083841659 0.981780862 -1.593530960
v 0.076116404 0.989490652 -1.625975839
v 0.187259448 0.941135388 -1.364893578
v 0.189242560 0.936113880 -1.341588102
v 0.143009421 0.981375083 -1.447452846
v 0.193090388 0.933290338 -1.364588932
v 0.195073500 0.943316447 -1.362456404
v 0.156832005 0.983843569 -1.414322513
v 0.178083858 0.950147051 -1.390331581
v 0.174916799 0.944381615 -1.393149564
v 0.169233852 0.967071393 -1.407087152
v 0.184358778 0.937770808 -1.366036004
v 0.190308112 0.943874392 -1.396424516
v 0.187259448 0.941135388 -1.364893578
v 0.181606100 0.979143302 -1.412951602
v 0.163254919 0.958837472 -1.418663729
v 0.178083858 0.950147051 -1.390331581
v 0.163994886 0.991823878 -1.457430027
v 0.156832005 0.983843569 -1.414322513
v 0.175745562 1.001359671 -1.437018695
v 0.169233852 0.967071393 -1.407087152
v 0.191077678 0.953697612 -1.388732186
v 0.180747739 0.966327466 -1.426127574
v 0.111575623 0.940205479 -1.451489415
v 0.114061912 0.935251601 -1.431687377
v 0.076856371 0.983116549 -1.539913133
v 0.119478470 0.932901467 -1.452022547
v 0.119508069 0.939732071 -1.447757493
v 0.077921923 0.979312376 -1.503660171
v 0.105448696 0.951076960 -1.477993682
v 0.102252039 0.939951867 -1.484162779
v 0.091566915 0.964653630 -1.496348649
v 0.110066090 0.933002912 -1.453164973
v 0.115571445 0.942538705 -1.484695911
v 0.111575623 0.940205479 -1.451489415
v 0.098226618 0.987935168 -1.540293942
v 0.089080626 0.956166098 -1.513028058
v 0.105448696 0.951076960 -1.477993682
v 0.102755216 0.995983107 -1.519577963
v 0.091566915 0.964653630 -1.496348649
v 0.111694018 0.970503602 -1.503279362
v 0.077921923 0.979312376 -1.503660171
v 0.117376964 0.951888517 -1.478069844
v 0.104294347 0.995881662 -1.519501801
v 0.136024133 0.862414371 -1.219577081
v 0.107638998 0.961677921 -1.514094322
v 0.104057558 0.908757650 -1.303811906
v 0.134573797 0.872795536 -1.235418712
v 0.130725969 0.871240052 -1.235266388
v 0.120810411 0.900675896 -1.271138543
v 0.139575974 0.865204098 -1.237398916
v 0.125605397 0.885357760 -1.255068427
v 0.137770455 0.876751876 -1.265045608
v 0.130725969 0.871240052 -1.235266388
v 0.132768278 0.885493020 -1.257429439
v 0.128239680 0.868078362 -1.238312856
v 0.112729971 0.919747483 -1.313636763
v 0.113617932 0.891714956 -1.285533101
v 0.122053556 0.878019933 -1.266035710
v 0.114446695 0.910871079 -1.276546022
v 0.120810411 0.900675896 -1.271138543
v 0.133626640 0.906187720 -1.275251274
v 0.114446695 0.910871079 -1.276546022
v 0.125605397 0.885357760 -1.255068427
v 0.127470114 0.926037049 -1.295662606
v 0.160798228 1.065388127 -1.800690747
v 0.129334831 0.898089059 -1.291473713
v 0.148159592 1.001630190 -1.903585185
v 0.170565793 1.059233821 -1.820111977
v 0.161686189 1.053417663 -1.817827126
v 0.157867959 1.029967051 -1.870911821
v 0.174680009 1.050306695 -1.816684701
v 0.165859603 1.038606750 -1.844179070
v 0.182020482 1.034041743 -1.843036644
v 0.161686189 1.053417663 -1.817827126
v 0.176041549 1.047770580 -1.847225537
v 0.164675655 1.046773041 -1.817141671
v 0.164527662 1.011859188 -1.925138942
v 0.162041373 1.013110338 -1.870683336
v 0.167546727 1.028479197 -1.840675632
v 0.149935513 1.034667318 -1.890637698
v 0.157867959 1.029967051 -1.870911821
v 0.174739207 1.039215418 -1.878147182
v 0.149935513 1.034667318 -1.890637698
v 0.165859603 1.038606750 -1.844179070
v 0.168967464 1.034295354 -1.908840341
v 0.098611401 0.935234693 -1.807088328
v 0.179179009 1.020448165 -1.880203547
v 0.081947344 0.914320196 -1.838238458
v 0.092158889 0.921708745 -1.819045713
v 0.093254040 0.929080387 -1.822244504
v 0.089110224 0.922723191 -1.840599470
v 0.093254040 0.929080387 -1.822244504
v 0.102577624 0.927119124 -1.821711372
v 0.071617404 0.935657379 -1.876319301
v 0.100239328 0.921472041 -1.819426522
v 0.052644650 0.918411795 -1.887438907
v 0.089110224 0.922723191 -1.840599470
v 0.069160714 0.912257489 -1.862762521
v 0.102370433 0.918090554 -1.843188968
v 0.096213908 0.910042615 -1.842503512
v 0.065756866 0.920778836 -1.912953072
v 0.071617404 0.935657379 -1.876319301
v 0.081207377 0.925073325 -1.858954437
v 0.092484474 0.921100078 -1.870911821
v 0.081207377 0.925073325 -1.858954437
v 0.083220087 0.933070541 -1.898710837
v 0.325781272 1.169267408 -1.672129820
v 0.083723265 0.909738281 -1.873958289
v 0.290795632 1.174187471 -1.804041861
v 0.334157699 1.167052534 -1.701299746
v 0.326047660 1.162369174 -1.702594495
v 0.312817050 1.175523159 -1.760020406
v 0.336762383 1.157127869 -1.698786411
v 0.323590970 1.164093733 -1.731840582
v 0.338567902 1.155944349 -1.735953313
v 0.326047660 1.162369174 -1.702594495
v 0.334483284 1.169487204 -1.731916744
v 0.323502174 1.156941888 -1.701756716
v 0.331375423 1.181491483 -1.765656371
v 0.309975577 1.159765429 -1.768245868
v 0.320068727 1.153137715 -1.733516139
v 0.305742966 1.189657774 -1.775557390
v 0.312817050 1.175523159 -1.760020406
v 0.313231432 1.180663019 -1.826357235
v 0.305742966 1.189657774 -1.775557390
v 0.323590970 1.164093733 -1.731840582
v 0.330931443 1.163383620 -1.777842241
v 0.141588685 0.924718269 -1.923691870
v 0.325929266 1.198415825 -1.800690747
v 0.129542022 0.940864869 -1.980813135
v 0.150853072 0.935285415 -1.924910457
v 0.132561087 0.931937743 -1.923463385
v 0.162218965 0.941422814 -1.967256354
v 0.153043374 0.918445610 -1.926281367
v 0.133774633 0.932614041 -1.958573922
v 0.133774633 0.932614041 -1.958573922
v 0.132561087 0.931937743 -1.923463385
v 0.134928982 0.912730897 -1.967789486
v 0.133271456 0.918597777 -1.930089452
v 0.251222197 1.078863353 -1.871064145
v 0.156328827 0.921455134 -2.022092768
v 0.128150884 0.916281459 -2.004727904
v 0.247670355 1.089447407 -1.853089987
v 0.162248564 0.950941700 -1.995969310
v 0.254093269 1.074213808 -1.868246162
v 0.162870136 0.913542454 -1.974567876
v 0.129542022 0.940864869 -1.980813135
v 0.251222197 1.078863353 -1.871064145
v 0.263535248 1.074467420 -1.869997881
v 0.261374544 1.083157841 -1.873958289
v 0.248173532 1.073757308 -1.952328664
v 0.259805814 1.068313114 -1.904575287
v 0.249387078 1.047449339 -1.978071314
v 0.269514181 1.074585772 -1.907469431
v 0.263416853 1.056477909 -1.903280538
v 0.259805814 1.068313114 -1.904575287
v 0.259953807 1.050137621 -1.941894513
v 0.254951630 1.064796367 -1.936410872
v 0.276647463 1.064322959 -1.904956095
v 0.254951630 1.064796367 -1.936410872
v 0.123385496 0.833705546 -1.970683630
v 0.272148464 1.063748106 -1.990104860
v 0.248173532 1.073757308 -1.952328664
v 0.121816766 0.834026788 -1.984697381
v 0.121994358 0.828565686 -1.991094962
v 0.278867364 1.060704768 -1.947149669
v 0.272266858 1.083766509 -1.972283026
v 0.271260503 1.077290962 -1.939914309
v 0.134425804 0.836089495 -1.987972333
v 0.132768278 0.827111647 -1.990333345
v 0.121816766 0.834026788 -1.984697381
v 0.102814413 0.861585906 -2.064438666
v 0.138036843 0.840908114 -2.018437008
v 0.124569444 0.835988050 -2.018513169
v 0.108970939 0.853487245 -2.115010026
v 0.133804232 0.827635777 -2.023692164
v 0.116873787 0.845760547 -2.047073802
v 0.116873787 0.845760547 -2.047073802
v 0.124569444 0.835988050 -2.018513169
v 0.108763748 0.831930266 -2.055603910
v 0.118797701 0.826925665 -2.020950343
v 0.264867188 0.936942344 -2.001833760
v 0.134277811 0.851695057 -2.051338856
v 0.093283638 0.843494951 -2.094446370
v 0.267383076 0.949132605 -1.979899194
v 0.127558910 0.834280399 -2.064514828
v 0.266435918 0.942859946 -2.005489521
v 0.126108575 0.869261882 -2.083783734
v 0.102814413 0.861585906 -2.064438666
v 0.266435918 0.942859946 -2.005489521
v 0.274220371 0.935606657 -2.004118611
v 0.275315522 0.947019175 -2.003661640
v 0.224968167 0.964738167 -2.072054835
v 0.259480228 0.940290016 -2.034964093
v 0.208718492 0.944550690 -2.095360311
v 0.273214016 0.944516875 -2.037096621
v 0.253382900 0.932377337 -2.033288536
v 0.259480228 0.940290016 -2.034964093
v 0.233196600 0.934981082 -2.065504930
v 0.243378546 0.949893439 -2.059411995
v 0.270165352 0.930720408 -2.039914603
v 0.243378546 0.949893439 -2.059411995
v 0.347595500 1.122822684 -1.946464214
v 0.222925858 0.952277388 -2.118056493
v 0.224968167 0.964738167 -2.072054835
v 0.344990816 1.123684963 -1.960554126
v 0.346470750 1.109871589 -1.962762815
v 0.254803637 0.936587288 -2.080965752
v 0.239619514 0.973732922 -2.092009196
v 0.259273038 0.955523615 -2.069846146
v 0.353426440 1.121537719 -1.958345437
v 0.357363064 1.112695130 -1.962458168
v 0.344990816 1.123684963 -1.960554126
v 0.329481107 1.115383412 -2.036791974
v 0.359908551 1.112864205 -1.997264059
v 0.341438974 1.110328089 -1.998634969
v 0.341083790 1.105205137 -2.074948979
v 0.362246846 1.101417871 -1.995588502
v 0.340284626 1.110159015 -2.020264888
v 0.340284626 1.110159015 -2.020264888
v 0.341438974 1.110328089 -1.998634969
v 0.336111212 1.090867632 -2.034887932
v 0.344665230 1.097410809 -1.994903046
v 0.320394312 0.996591775 -2.151643797
v 0.354225604 1.116245692 -2.034278638
v 0.322584615 1.094316749 -2.060249773
v 0.325337292 0.994444530 -2.127424380
v 0.357155873 1.096413270 -2.038543693
v 0.319358359 0.991739341 -2.151567635
v 0.348661052 1.121554626 -2.058345731
v 0.329481107 1.115383412 -2.036791974
v 0.320394312 0.996591775 -2.151643797
v 0.329688298 0.989659726 -2.153928647
v 0.326817226 1.002458654 -2.150044401
